<svg width="104" height="102" viewBox="0 0 104 102" fill="none" xmlns="http://www.w3.org/2000/svg">
<path d="M32.5452 8.84409C32.5452 6.48177 34.6159 4.4065 37.1926 4.75131L37.4436 4.79233L38.1194 4.92905C41.6349 5.66801 47.0992 7.26793 51.9124 10.1185C56.9721 13.1152 62.2145 18.0756 62.304 25.6117C62.3074 25.9035 62.3069 26.192 62.3079 26.4769L77.4456 11.0833C79.0885 9.41271 81.9217 9.39769 83.5266 11.307L83.678 11.4974L83.9309 11.846C85.2086 13.6554 86.6765 16.4704 87.8586 18.8714C88.36 19.8898 88.8344 20.8908 89.2571 21.7943L94.2327 19.8919L99.4182 17.9085V79.9349C99.4182 81.6806 98.3197 83.2374 96.675 83.8226L61.5803 96.3109C58.4498 97.4248 55.1512 97.9945 51.8284 97.9945C47.3695 97.9944 42.9699 96.9694 38.97 94.9984L6.28247 78.89C4.87292 78.1953 3.97987 76.7602 3.97974 75.1888V16.8988L9.41821 19.4388L11.5413 20.43V13.8734C11.5413 11.3996 13.7436 9.39326 16.3069 9.79819C20.7059 10.4933 26.7295 12.1533 32.5452 15.099V8.84409Z" fill="#6DC0FC" stroke="#6DC0FC" stroke-width="7.64169"/>
<path d="M36.3665 7.35693V43.2036L46.9559 42.5062C56.8751 37.7593 58.6177 35.838 58.4837 24.536C58.3496 13.234 42.5771 8.48713 36.3665 7.35693Z" fill="#6DC0FC"/>
<path d="M36.8687 4.60085C40.1604 5.19986 45.9963 6.74982 51.1073 9.70743C56.1541 12.6279 61.2003 17.3652 61.2849 24.5021C61.3516 30.1197 61.0109 34.2491 58.8203 37.5327C56.6669 40.7604 53.0076 42.7146 48.1657 45.0317L47.6792 45.2645L33.5669 46.1941V5.09893C33.5669 4.52675 34.0851 4.09431 34.6481 4.19675L36.8687 4.60085ZM39.1679 40.2118L46.2294 39.7466C50.9637 37.4592 53.0344 36.1134 54.1611 34.4245C55.2881 32.7352 55.7516 30.2528 55.6842 24.5685C55.6348 20.4034 52.7278 17.1163 48.3022 14.5553C45.7103 13.0554 42.8379 11.9563 40.3212 11.2C39.7423 11.026 39.1679 11.4653 39.1679 12.0697V40.2118Z" fill="#FFB3EB" stroke="black" stroke-width="0.917002"/>
<path d="M15.3623 12.6777V26.8539L47.5683 40.1229C46.8425 21.8866 25.7952 14.2277 15.3623 12.6777Z" fill="#6DC0FC"/>
<path d="M15.7734 9.90778C21.2929 10.7278 29.5733 13.1426 36.6463 17.805C43.7496 22.4875 49.9549 29.6791 50.3661 40.0117L50.5398 44.3763L12.5613 28.7292V10.4939C12.5613 9.93374 13.059 9.50449 13.613 9.58681L15.7734 9.90778ZM18.1623 24.9789L44.051 35.6452C42.4733 30.0433 38.5019 25.7367 33.5635 22.4814C28.9625 19.4485 23.6985 17.4617 19.281 16.3345C18.7098 16.1887 18.1623 16.6255 18.1623 17.215V24.9789Z" fill="#FFB3EB" stroke="black" stroke-width="0.917002"/>
<path d="M80.4105 12.6778L51.77 41.8032C51.77 41.8032 85.4391 26.6837 87.4767 26.2604C87.4767 26.2604 82.8632 15.6999 80.4105 12.6778Z" fill="#6DC0FC"/>
<path d="M82.585 10.9121C84.057 12.7258 85.9631 16.4444 87.3841 19.3817C88.1268 20.917 88.7902 22.3532 89.2674 23.4045C89.5062 23.9307 89.6991 24.362 89.8327 24.6625C89.8995 24.8128 89.9516 24.9305 89.9872 25.0112C90.005 25.0516 90.0186 25.0829 90.0279 25.1042C90.0326 25.1149 90.0361 25.1231 90.0386 25.1288C90.0398 25.1316 90.0409 25.1338 90.0416 25.1354C90.0419 25.1361 90.0424 25.1373 90.0424 25.1373L90.0427 25.1379C90.0427 25.1379 90.0429 25.1383 87.4766 26.2594L90.043 25.1384L91.4238 28.2997L88.1009 28.9899C88.1245 28.9856 88.0252 29.013 87.7202 29.127C87.3981 29.2474 86.96 29.4201 86.4127 29.6428C85.3214 30.0868 83.8579 30.7042 82.1419 31.4404C78.7132 32.9112 74.3247 34.8358 69.9914 36.751C65.6599 38.6654 61.3909 40.567 58.2046 41.9902C56.6115 42.7017 55.2894 43.2936 54.3656 43.7074C53.9037 43.9144 53.5414 44.077 53.2946 44.1877C53.1713 44.243 53.0768 44.2855 53.0132 44.314C52.9815 44.3283 52.9574 44.3391 52.9413 44.3463C52.9333 44.3499 52.9273 44.3524 52.9232 44.3542C52.9212 44.3551 52.9196 44.356 52.9186 44.3564L52.9175 44.357C52.9175 44.357 52.9049 44.3298 51.7699 41.8023L52.9175 44.357L49.7732 39.8387L79.8911 9.21087C80.2746 8.82084 80.9122 8.8512 81.2569 9.27592L82.585 10.9121ZM64.1404 33.2164C65.3162 32.6947 66.5193 32.1619 67.7272 31.628C72.0657 29.7104 76.4765 27.7759 79.9338 26.2928C81.3721 25.6758 82.6542 25.134 83.7011 24.7019C83.3079 23.8491 82.8432 22.8568 82.3421 21.821C81.741 20.5785 81.1191 19.3404 80.5267 18.2249C80.2395 17.6841 79.5117 17.5849 79.0823 18.0215L64.1404 33.2164Z" fill="#FFB3EB"/>
<path d="M52.9175 44.357L52.9186 44.3564C52.9196 44.356 52.9212 44.3551 52.9232 44.3542C52.9273 44.3524 52.9333 44.3499 52.9413 44.3463C52.9574 44.3391 52.9815 44.3283 53.0132 44.314C53.0768 44.2855 53.1713 44.243 53.2946 44.1877C53.5414 44.077 53.9037 43.9144 54.3656 43.7074C55.2894 43.2936 56.6115 42.7017 58.2046 41.9902C61.3909 40.567 65.6599 38.6654 69.9914 36.751C74.3247 34.8358 78.7132 32.9112 82.1419 31.4404C83.8579 30.7042 85.3214 30.0868 86.4127 29.6428C86.96 29.4201 87.3981 29.2474 87.7202 29.127C88.0252 29.013 88.1245 28.9856 88.1009 28.9899L91.4238 28.2997L90.043 25.1384L87.4766 26.2594C90.0429 25.1383 90.0427 25.1379 90.0427 25.1379L90.0424 25.1373C90.0424 25.1373 90.0419 25.1361 90.0416 25.1354C90.0409 25.1338 90.0398 25.1316 90.0386 25.1288C90.0361 25.1231 90.0326 25.1149 90.0279 25.1042C90.0186 25.0829 90.005 25.0516 89.9872 25.0112C89.9516 24.9305 89.8995 24.8128 89.8327 24.6625C89.6991 24.362 89.5062 23.9307 89.2674 23.4045C88.7902 22.3532 88.1268 20.917 87.3841 19.3817C85.9631 16.4444 84.057 12.7258 82.585 10.9121L81.2569 9.27592C80.9122 8.8512 80.2746 8.82084 79.8911 9.21087L49.7732 39.8387L52.9175 44.357ZM52.9175 44.357C52.9175 44.357 52.9049 44.3298 51.7699 41.8023L52.9175 44.357ZM64.1404 33.2164C65.3162 32.6947 66.5193 32.1619 67.7272 31.628C72.0657 29.7104 76.4765 27.7759 79.9338 26.2928C81.3721 25.6758 82.6542 25.134 83.7011 24.7019C83.3079 23.8491 82.8432 22.8568 82.3421 21.821C81.741 20.5785 81.1191 19.3404 80.5267 18.2249C80.2395 17.6841 79.5117 17.5849 79.0823 18.0215L64.1404 33.2164Z" stroke="black" stroke-width="0.917002"/>
<path d="M95.5973 23.7868L59.3374 38.6725C56.7329 39.7417 53.9447 40.2917 51.1293 40.2917C48.2311 40.2917 45.3625 39.7088 42.6942 38.5777L9.50087 24.5073C8.69463 24.1656 7.80103 24.7574 7.80103 25.6331V75.1772C7.80103 75.6428 8.06554 76.0681 8.48324 76.2739L40.6588 92.1296C44.1333 93.8418 47.9549 94.7323 51.8284 94.7323C54.715 94.7323 57.5802 94.2377 60.2997 93.27L94.7846 80.9989C95.2719 80.8255 95.5973 80.3642 95.5973 79.847V23.7868Z" fill="#6DC0FC"/>
<path d="M43.7867 35.0007C46.1092 35.9852 48.6061 36.4925 51.1287 36.4926C53.5793 36.4926 56.0064 36.0136 58.2733 35.083L97.1321 19.1305C97.7355 18.8828 98.3974 19.3265 98.3974 19.9788V81.6871L61.2382 94.9097C58.2174 95.9846 55.0345 96.5342 51.828 96.5342C47.5253 96.5342 43.28 95.5448 39.4204 93.6429L5 76.6811V19.9438C5 19.287 5.6702 18.8432 6.27489 19.0995L43.7867 35.0007ZM60.4005 40.2645C57.4586 41.4722 54.3089 42.0936 51.1287 42.0936C47.855 42.0936 44.6148 41.4349 41.6007 40.1573L11.8759 27.5571C11.2712 27.3008 10.601 27.7447 10.601 28.4014V73.1969L41.8963 88.6189C44.9857 90.1413 48.3839 90.9331 51.828 90.9331C54.3947 90.9331 56.9424 90.4932 59.3605 89.6327L92.7963 77.7349V28.3328C92.7963 27.6805 92.1345 27.2367 91.5311 27.4845L60.4005 40.2645Z" fill="#FFB3EB" stroke="black" stroke-width="0.917002"/>
</svg>
