<svg width="77" height="77" viewBox="0 0 77 77" fill="none" xmlns="http://www.w3.org/2000/svg">
<path d="M38.1863 1.48904C58.4535 1.48909 74.8835 17.9191 74.8835 38.1863C74.8835 58.4535 58.4535 74.8835 38.1863 74.8836C17.9191 74.8836 1.48906 58.4535 1.48901 38.1863C1.48901 17.9191 17.919 1.48904 38.1863 1.48904Z" fill="#1054FF" stroke="#1054FF" stroke-width="2.97831"/>
<mask id="path-2-inside-1_13971_9666" fill="white">
<path d="M38.3606 3.02066C44.3865 3.02067 50.0586 4.53511 55.0178 7.20328L55.1174 7.15054L55.1975 7.29996C61.2312 10.5916 66.1926 15.5987 69.4329 21.6642C69.4584 21.6781 69.4844 21.6913 69.51 21.7052L69.7883 21.8566L69.6604 22.0949C72.1569 26.9284 73.5686 32.4135 73.5686 38.2287C73.5686 57.6734 57.8053 73.4366 38.3606 73.4367C31.5465 73.4367 25.1861 71.4982 19.7961 68.1466L19.6565 68.2043L19.5774 68.0109C14.1172 64.56 9.67262 59.6497 6.79028 53.8273L6.61938 53.7619L6.677 53.5998C4.41948 48.9551 3.1526 43.7399 3.15259 38.2287C3.15259 31.7539 4.90189 25.6881 7.95142 20.4757L7.88892 20.3156L8.09497 20.2326C11.2126 15.0007 15.6472 10.6456 20.9426 7.62515C20.9785 7.55989 21.0139 7.49424 21.05 7.42886L21.2053 7.14859L21.4846 7.30484L21.4993 7.31265C26.5066 4.57592 32.2521 3.02066 38.3606 3.02066ZM33.4983 60.9162C34.0792 63.6701 34.7743 66.4587 35.5881 69.2765C36.5016 69.357 37.4262 69.4015 38.3606 69.4015C38.7665 69.4015 39.1704 69.3905 39.5725 69.3752C40.3705 66.5834 41.0478 63.8205 41.6125 61.0919C40.6707 61.1412 39.7286 61.166 38.7844 61.1662C37.0263 61.1664 35.2677 61.0801 33.4983 60.9162ZM54.8176 58.7726C52.0697 59.5864 49.3779 60.1838 46.7063 60.5793C46.1868 63.2653 45.5624 65.9826 44.8284 68.7267C47.3925 68.1856 49.8398 67.3294 52.1292 66.2003L52.0637 66.175L52.1809 65.8791C53.16 63.4071 54.0398 61.0454 54.8176 58.7726ZM21.2864 58.6584C22.093 60.9786 23.0096 63.3911 24.0325 65.9191C25.9912 66.9347 28.0713 67.7476 30.2454 68.3322C29.5141 65.6047 28.8897 62.9021 28.3665 60.2296C26.0474 59.8271 23.6946 59.2998 21.2864 58.6584ZM64.5774 55.0978C63.2423 55.7003 61.9279 56.2564 60.6301 56.7658C60.1514 58.3284 59.6256 59.9177 59.054 61.5392C61.1734 59.6563 63.0349 57.49 64.5774 55.0978ZM12.7629 56.0207C13.9541 57.7311 15.3112 59.3172 16.8127 60.7541C16.3605 59.4694 15.9385 58.2043 15.5471 56.9562C14.6291 56.6585 13.7014 56.3464 12.7629 56.0207ZM31.5315 47.7941C31.7662 50.4501 32.1063 53.1523 32.5569 55.8947C34.6604 56.1407 36.7282 56.268 38.7844 56.2677C40.0301 56.2675 41.275 56.2191 42.5247 56.1242C42.9766 53.3039 43.3096 50.5258 43.5334 47.7961C39.6595 48.0296 35.6509 48.0365 31.5315 47.7941ZM58.2581 45.7179C55.1273 46.4308 51.8603 46.9872 48.4749 47.3693C48.2764 50.0312 47.9789 52.7362 47.5745 55.4787C50.5021 54.9529 53.49 54.1554 56.6008 53.0587C57.307 50.5262 57.8622 48.0916 58.2581 45.7179ZM17.8967 46.1134C18.2925 48.3676 18.8343 50.6781 19.5149 53.0763C22.2699 53.9017 24.9109 54.5747 27.4768 55.0861C27.0867 52.4849 26.7925 49.9168 26.5881 47.3869C23.7349 47.085 20.8353 46.6632 17.8967 46.1134ZM7.66919 43.713C8.02866 45.7383 8.58431 47.6957 9.3147 49.5656C10.9043 50.1704 12.4503 50.74 13.9602 51.2677C13.4503 49.1563 13.0454 47.0817 12.7522 45.0275C11.0684 44.6318 9.37353 44.1947 7.66919 43.713ZM69.2571 42.3732C67.3827 43.1003 65.4357 43.7666 63.4211 44.3654C63.1446 46.484 62.7491 48.6229 62.2444 50.8009C64.0948 49.9777 65.9968 49.0558 67.9602 48.0275C68.5612 46.211 68.9984 44.3205 69.2571 42.3732ZM43.5745 31.1466C39.6665 30.8966 35.6025 30.8877 31.4104 31.1515C31.1208 34.9199 31.0454 38.8353 31.2122 42.8732C35.5636 43.1557 39.7777 43.1441 43.8235 42.8742C43.9665 38.8368 43.8728 34.92 43.5745 31.1466ZM26.4719 31.5851C23.4786 31.9204 20.4282 32.3939 17.3303 33.0177C17.1815 34.4981 17.1079 35.9687 17.1077 37.4396C17.1075 38.6211 17.1548 39.8072 17.2463 41.0031C20.3132 41.6232 23.3335 42.0956 26.2981 42.4328C26.1667 38.7173 26.2307 35.0955 26.4719 31.5851ZM48.5149 31.5998C48.7634 35.0985 48.8443 38.7077 48.7346 42.4113C52.2707 41.9789 55.6576 41.3465 58.8723 40.5392C58.945 39.4643 58.9828 38.3969 58.9827 37.3332C58.9825 36.0522 58.9277 34.7715 58.8176 33.4845C55.5527 32.6672 52.1103 32.0302 48.5149 31.5998ZM12.3079 34.1515C10.6514 34.5661 8.98346 35.0242 7.30493 35.5265C7.22846 36.4171 7.18774 37.3183 7.18774 38.2287C7.18774 38.3114 7.19003 38.3941 7.19067 38.4767C8.89023 38.9872 10.5792 39.4517 12.2561 39.8722C12.2173 39.0603 12.1964 38.2495 12.1965 37.4386C12.1967 36.3407 12.2346 35.246 12.3079 34.1515ZM63.8303 34.922C63.8689 35.7245 63.8907 36.5275 63.8909 37.3322C63.891 37.9232 63.8799 38.5142 63.8596 39.1056C65.7257 38.4975 67.5215 37.8287 69.2415 37.1046L69.4436 37.0187L69.2415 36.9337C67.5124 36.2059 65.707 35.5327 63.8303 34.922ZM61.927 23.3615C62.5186 25.4769 62.9726 27.5618 63.2942 29.6349C65.19 30.195 67.0266 30.8136 68.7991 31.4875C68.374 29.5596 67.7718 27.6987 67.0081 25.923C65.266 24.9809 63.575 24.1288 61.927 23.3615ZM14.303 23.0968C12.9995 23.5783 11.6669 24.091 10.301 24.633C9.44764 26.391 8.75611 28.2417 8.24243 30.1652C9.8143 29.7295 11.3777 29.3306 12.9319 28.9679C13.2695 27.0279 13.7245 25.0757 14.303 23.0968ZM46.717 18.4211C47.2586 21.0663 47.7042 23.8028 48.0413 26.6212C51.5127 26.9966 54.8612 27.5542 58.0676 28.2765C57.5829 25.8789 56.8976 23.433 55.9954 20.8996C52.7905 19.7417 49.7226 18.9268 46.717 18.4211ZM28.177 18.964C25.5895 19.5001 22.9208 20.2144 20.1272 21.0949C19.2856 23.4191 18.6307 25.6697 18.1497 27.8771C21.1224 27.3279 24.055 26.9101 26.9397 26.6144C27.2541 23.9901 27.6696 21.4373 28.177 18.964ZM39.0842 17.7804C37.1958 17.7802 35.2962 17.894 33.3655 18.1183C32.7716 20.7175 32.286 23.4219 31.9202 26.2199C35.7357 26.0096 39.4554 26.0154 43.0598 26.215C42.6844 23.3255 42.1891 20.5331 41.5911 17.8488C40.7544 17.803 39.9194 17.7806 39.0842 17.7804ZM58.8245 14.713C59.1736 15.5184 59.5039 16.3166 59.8157 17.1086C60.5868 17.4161 61.364 17.7406 62.1477 18.0832C61.126 16.878 60.0156 15.7505 58.8245 14.713ZM17.0852 15.4464C16.3353 16.147 15.6205 16.8845 14.9426 17.6554C15.4214 17.4875 15.897 17.3222 16.3704 17.1623C16.5991 16.5937 16.8368 16.0217 17.0852 15.4464ZM31.2405 7.8732C29.1692 8.35715 27.1779 9.04889 25.2883 9.923C24.2758 11.7608 23.3667 13.5404 22.5549 15.2716C24.8862 14.6409 27.1665 14.1264 29.4163 13.7375C29.9623 11.7181 30.5723 9.7617 31.2405 7.8732ZM43.7991 7.52945C44.4215 9.3845 44.996 11.3043 45.5168 13.2843C48.1704 13.624 50.8368 14.1783 53.554 14.9562C52.7773 13.2762 51.9123 11.55 50.9514 9.76968L50.9055 9.6857C48.6625 8.69842 46.2818 7.96628 43.7991 7.52945ZM38.3606 7.05582C37.8215 7.05582 37.2855 7.06979 36.7532 7.09683C36.0013 8.99924 35.3131 10.9885 34.6956 13.0578C36.1629 12.9366 37.6241 12.874 39.0852 12.8742C39.5029 12.8742 39.9202 12.8805 40.3372 12.8908C39.7638 10.8713 39.1327 8.92463 38.4504 7.05679C38.4205 7.05671 38.3906 7.05582 38.3606 7.05582Z"/>
</mask>
<path d="M38.3606 3.02066C44.3865 3.02067 50.0586 4.53511 55.0178 7.20328L55.1174 7.15054L55.1975 7.29996C61.2312 10.5916 66.1926 15.5987 69.4329 21.6642C69.4584 21.6781 69.4844 21.6913 69.51 21.7052L69.7883 21.8566L69.6604 22.0949C72.1569 26.9284 73.5686 32.4135 73.5686 38.2287C73.5686 57.6734 57.8053 73.4366 38.3606 73.4367C31.5465 73.4367 25.1861 71.4982 19.7961 68.1466L19.6565 68.2043L19.5774 68.0109C14.1172 64.56 9.67262 59.6497 6.79028 53.8273L6.61938 53.7619L6.677 53.5998C4.41948 48.9551 3.1526 43.7399 3.15259 38.2287C3.15259 31.7539 4.90189 25.6881 7.95142 20.4757L7.88892 20.3156L8.09497 20.2326C11.2126 15.0007 15.6472 10.6456 20.9426 7.62515C20.9785 7.55989 21.0139 7.49424 21.05 7.42886L21.2053 7.14859L21.4846 7.30484L21.4993 7.31265C26.5066 4.57592 32.2521 3.02066 38.3606 3.02066ZM33.4983 60.9162C34.0792 63.6701 34.7743 66.4587 35.5881 69.2765C36.5016 69.357 37.4262 69.4015 38.3606 69.4015C38.7665 69.4015 39.1704 69.3905 39.5725 69.3752C40.3705 66.5834 41.0478 63.8205 41.6125 61.0919C40.6707 61.1412 39.7286 61.166 38.7844 61.1662C37.0263 61.1664 35.2677 61.0801 33.4983 60.9162ZM54.8176 58.7726C52.0697 59.5864 49.3779 60.1838 46.7063 60.5793C46.1868 63.2653 45.5624 65.9826 44.8284 68.7267C47.3925 68.1856 49.8398 67.3294 52.1292 66.2003L52.0637 66.175L52.1809 65.8791C53.16 63.4071 54.0398 61.0454 54.8176 58.7726ZM21.2864 58.6584C22.093 60.9786 23.0096 63.3911 24.0325 65.9191C25.9912 66.9347 28.0713 67.7476 30.2454 68.3322C29.5141 65.6047 28.8897 62.9021 28.3665 60.2296C26.0474 59.8271 23.6946 59.2998 21.2864 58.6584ZM64.5774 55.0978C63.2423 55.7003 61.9279 56.2564 60.6301 56.7658C60.1514 58.3284 59.6256 59.9177 59.054 61.5392C61.1734 59.6563 63.0349 57.49 64.5774 55.0978ZM12.7629 56.0207C13.9541 57.7311 15.3112 59.3172 16.8127 60.7541C16.3605 59.4694 15.9385 58.2043 15.5471 56.9562C14.6291 56.6585 13.7014 56.3464 12.7629 56.0207ZM31.5315 47.7941C31.7662 50.4501 32.1063 53.1523 32.5569 55.8947C34.6604 56.1407 36.7282 56.268 38.7844 56.2677C40.0301 56.2675 41.275 56.2191 42.5247 56.1242C42.9766 53.3039 43.3096 50.5258 43.5334 47.7961C39.6595 48.0296 35.6509 48.0365 31.5315 47.7941ZM58.2581 45.7179C55.1273 46.4308 51.8603 46.9872 48.4749 47.3693C48.2764 50.0312 47.9789 52.7362 47.5745 55.4787C50.5021 54.9529 53.49 54.1554 56.6008 53.0587C57.307 50.5262 57.8622 48.0916 58.2581 45.7179ZM17.8967 46.1134C18.2925 48.3676 18.8343 50.6781 19.5149 53.0763C22.2699 53.9017 24.9109 54.5747 27.4768 55.0861C27.0867 52.4849 26.7925 49.9168 26.5881 47.3869C23.7349 47.085 20.8353 46.6632 17.8967 46.1134ZM7.66919 43.713C8.02866 45.7383 8.58431 47.6957 9.3147 49.5656C10.9043 50.1704 12.4503 50.74 13.9602 51.2677C13.4503 49.1563 13.0454 47.0817 12.7522 45.0275C11.0684 44.6318 9.37353 44.1947 7.66919 43.713ZM69.2571 42.3732C67.3827 43.1003 65.4357 43.7666 63.4211 44.3654C63.1446 46.484 62.7491 48.6229 62.2444 50.8009C64.0948 49.9777 65.9968 49.0558 67.9602 48.0275C68.5612 46.211 68.9984 44.3205 69.2571 42.3732ZM43.5745 31.1466C39.6665 30.8966 35.6025 30.8877 31.4104 31.1515C31.1208 34.9199 31.0454 38.8353 31.2122 42.8732C35.5636 43.1557 39.7777 43.1441 43.8235 42.8742C43.9665 38.8368 43.8728 34.92 43.5745 31.1466ZM26.4719 31.5851C23.4786 31.9204 20.4282 32.3939 17.3303 33.0177C17.1815 34.4981 17.1079 35.9687 17.1077 37.4396C17.1075 38.6211 17.1548 39.8072 17.2463 41.0031C20.3132 41.6232 23.3335 42.0956 26.2981 42.4328C26.1667 38.7173 26.2307 35.0955 26.4719 31.5851ZM48.5149 31.5998C48.7634 35.0985 48.8443 38.7077 48.7346 42.4113C52.2707 41.9789 55.6576 41.3465 58.8723 40.5392C58.945 39.4643 58.9828 38.3969 58.9827 37.3332C58.9825 36.0522 58.9277 34.7715 58.8176 33.4845C55.5527 32.6672 52.1103 32.0302 48.5149 31.5998ZM12.3079 34.1515C10.6514 34.5661 8.98346 35.0242 7.30493 35.5265C7.22846 36.4171 7.18774 37.3183 7.18774 38.2287C7.18774 38.3114 7.19003 38.3941 7.19067 38.4767C8.89023 38.9872 10.5792 39.4517 12.2561 39.8722C12.2173 39.0603 12.1964 38.2495 12.1965 37.4386C12.1967 36.3407 12.2346 35.246 12.3079 34.1515ZM63.8303 34.922C63.8689 35.7245 63.8907 36.5275 63.8909 37.3322C63.891 37.9232 63.8799 38.5142 63.8596 39.1056C65.7257 38.4975 67.5215 37.8287 69.2415 37.1046L69.4436 37.0187L69.2415 36.9337C67.5124 36.2059 65.707 35.5327 63.8303 34.922ZM61.927 23.3615C62.5186 25.4769 62.9726 27.5618 63.2942 29.6349C65.19 30.195 67.0266 30.8136 68.7991 31.4875C68.374 29.5596 67.7718 27.6987 67.0081 25.923C65.266 24.9809 63.575 24.1288 61.927 23.3615ZM14.303 23.0968C12.9995 23.5783 11.6669 24.091 10.301 24.633C9.44764 26.391 8.75611 28.2417 8.24243 30.1652C9.8143 29.7295 11.3777 29.3306 12.9319 28.9679C13.2695 27.0279 13.7245 25.0757 14.303 23.0968ZM46.717 18.4211C47.2586 21.0663 47.7042 23.8028 48.0413 26.6212C51.5127 26.9966 54.8612 27.5542 58.0676 28.2765C57.5829 25.8789 56.8976 23.433 55.9954 20.8996C52.7905 19.7417 49.7226 18.9268 46.717 18.4211ZM28.177 18.964C25.5895 19.5001 22.9208 20.2144 20.1272 21.0949C19.2856 23.4191 18.6307 25.6697 18.1497 27.8771C21.1224 27.3279 24.055 26.9101 26.9397 26.6144C27.2541 23.9901 27.6696 21.4373 28.177 18.964ZM39.0842 17.7804C37.1958 17.7802 35.2962 17.894 33.3655 18.1183C32.7716 20.7175 32.286 23.4219 31.9202 26.2199C35.7357 26.0096 39.4554 26.0154 43.0598 26.215C42.6844 23.3255 42.1891 20.5331 41.5911 17.8488C40.7544 17.803 39.9194 17.7806 39.0842 17.7804ZM58.8245 14.713C59.1736 15.5184 59.5039 16.3166 59.8157 17.1086C60.5868 17.4161 61.364 17.7406 62.1477 18.0832C61.126 16.878 60.0156 15.7505 58.8245 14.713ZM17.0852 15.4464C16.3353 16.147 15.6205 16.8845 14.9426 17.6554C15.4214 17.4875 15.897 17.3222 16.3704 17.1623C16.5991 16.5937 16.8368 16.0217 17.0852 15.4464ZM31.2405 7.8732C29.1692 8.35715 27.1779 9.04889 25.2883 9.923C24.2758 11.7608 23.3667 13.5404 22.5549 15.2716C24.8862 14.6409 27.1665 14.1264 29.4163 13.7375C29.9623 11.7181 30.5723 9.7617 31.2405 7.8732ZM43.7991 7.52945C44.4215 9.3845 44.996 11.3043 45.5168 13.2843C48.1704 13.624 50.8368 14.1783 53.554 14.9562C52.7773 13.2762 51.9123 11.55 50.9514 9.76968L50.9055 9.6857C48.6625 8.69842 46.2818 7.96628 43.7991 7.52945ZM38.3606 7.05582C37.8215 7.05582 37.2855 7.06979 36.7532 7.09683C36.0013 8.99924 35.3131 10.9885 34.6956 13.0578C36.1629 12.9366 37.6241 12.874 39.0852 12.8742C39.5029 12.8742 39.9202 12.8805 40.3372 12.8908C39.7638 10.8713 39.1327 8.92463 38.4504 7.05679C38.4205 7.05671 38.3906 7.05582 38.3606 7.05582Z" fill="#B9F081"/>
<path d="M38.3606 3.02066V2.38245V2.38245V3.02066ZM55.0178 7.20328L54.7154 7.76531L55.0154 7.92669L55.3164 7.76732L55.0178 7.20328ZM55.1174 7.15054L55.6799 6.84906L55.38 6.28941L54.8188 6.5865L55.1174 7.15054ZM55.1975 7.29996L54.635 7.60144L54.7249 7.76911L54.8919 7.86022L55.1975 7.29996ZM69.4329 21.6642L68.8699 21.9649L68.9602 22.1339L69.1286 22.2252L69.4329 21.6642ZM69.51 21.7052L69.8149 21.1446L69.8147 21.1444L69.51 21.7052ZM69.7883 21.8566L70.3506 22.1585L70.6509 21.5992L70.0932 21.2959L69.7883 21.8566ZM69.6604 22.0949L69.0981 21.793L68.9391 22.0891L69.0934 22.3878L69.6604 22.0949ZM73.5686 38.2287H74.2068V38.2287H73.5686ZM38.3606 73.4367V74.0749V74.0749V73.4367ZM19.7961 68.1466L20.1332 67.6047L19.8552 67.4319L19.5527 67.5567L19.7961 68.1466ZM19.6565 68.2043L19.0658 68.4459L19.3082 69.0384L19.8999 68.7942L19.6565 68.2043ZM19.5774 68.0109L20.1681 67.7692L20.0908 67.5804L19.9184 67.4714L19.5774 68.0109ZM6.79028 53.8273L7.36225 53.5442L7.25153 53.3205L7.01847 53.2313L6.79028 53.8273ZM6.61938 53.7619L6.01803 53.5481L5.80939 54.1351L6.39119 54.3579L6.61938 53.7619ZM6.677 53.5998L7.27836 53.8135L7.36796 53.5614L7.251 53.3208L6.677 53.5998ZM3.15259 38.2287H2.51438V38.2287H3.15259ZM7.95142 20.4757L8.50227 20.798L8.65824 20.5314L8.54596 20.2437L7.95142 20.4757ZM7.88892 20.3156L7.65044 19.7236L7.06487 19.9595L7.29437 20.5476L7.88892 20.3156ZM8.09497 20.2326L8.33345 20.8246L8.53306 20.7441L8.64322 20.5593L8.09497 20.2326ZM20.9426 7.62515L21.2588 8.17953L21.4152 8.09035L21.5019 7.93264L20.9426 7.62515ZM21.05 7.42886L20.4918 7.11958L20.4914 7.12026L21.05 7.42886ZM21.2053 7.14859L21.5169 6.59162L20.9576 6.27873L20.6471 6.83931L21.2053 7.14859ZM21.4846 7.30484L21.173 7.86193L21.1843 7.86797L21.4846 7.30484ZM21.4993 7.31265L21.1989 7.87578L21.503 8.03794L21.8053 7.87268L21.4993 7.31265ZM33.4983 60.9162L33.5572 60.2807L32.6951 60.2008L32.8738 61.0479L33.4983 60.9162ZM35.5881 69.2765L34.975 69.4536L35.0964 69.8739L35.5321 69.9123L35.5881 69.2765ZM38.3606 69.4015V70.0397V70.0397V69.4015ZM39.5725 69.3752L39.5969 70.0129L40.059 69.9952L40.1861 69.5506L39.5725 69.3752ZM41.6125 61.0919L42.2375 61.2213L42.4051 60.4114L41.5792 60.4546L41.6125 61.0919ZM38.7844 61.1662L38.7845 61.8044H38.7845L38.7844 61.1662ZM54.8176 58.7726L55.4215 58.9793L55.8217 57.8096L54.6364 58.1607L54.8176 58.7726ZM46.7063 60.5793L46.6129 59.9479L46.1656 60.0141L46.0797 60.4581L46.7063 60.5793ZM44.8284 68.7267L44.2118 68.5618L43.9433 69.5658L44.9601 69.3512L44.8284 68.7267ZM52.1292 66.2003L52.4114 66.7727L53.7135 66.1306L52.36 65.6054L52.1292 66.2003ZM52.0637 66.175L51.4704 65.94L51.2337 66.5374L51.8328 66.7699L52.0637 66.175ZM52.1809 65.8791L51.5876 65.644L51.5875 65.6441L52.1809 65.8791ZM21.2864 58.6584L21.4506 58.0416L20.2887 57.7321L20.6836 58.8679L21.2864 58.6584ZM24.0325 65.9191L23.4409 66.1585L23.5293 66.3771L23.7387 66.4857L24.0325 65.9191ZM30.2454 68.3322L30.0796 68.9485L31.1484 69.2359L30.8618 68.1669L30.2454 68.3322ZM28.3665 60.2296L28.9928 60.107L28.9084 59.676L28.4756 59.6008L28.3665 60.2296ZM64.5774 55.0978L65.1138 55.4437L66.2851 53.627L64.3149 54.5161L64.5774 55.0978ZM60.6301 56.7658L60.397 56.1717L60.1101 56.2842L60.0199 56.5788L60.6301 56.7658ZM59.054 61.5392L58.4521 61.327L57.6304 63.6575L59.4778 62.0163L59.054 61.5392ZM12.7629 56.0207L12.9722 55.4177L11.1169 54.7738L12.2392 56.3854L12.7629 56.0207ZM16.8127 60.7541L16.3715 61.2152L17.4147 60.5421L16.8127 60.7541ZM15.5471 56.9562L16.1561 56.7652L16.0575 56.4508L15.744 56.3491L15.5471 56.9562ZM31.5315 47.7941L31.569 47.157L30.8306 47.1135L30.8958 47.8503L31.5315 47.7941ZM32.5569 55.8947L31.9271 55.9982L32.0051 56.4727L32.4827 56.5286L32.5569 55.8947ZM38.7844 56.2677L38.7845 56.9059H38.7845L38.7844 56.2677ZM42.5247 56.1242L42.573 56.7606L43.0751 56.7224L43.1548 56.2252L42.5247 56.1242ZM43.5334 47.7961L44.1695 47.8482L44.2297 47.1147L43.495 47.159L43.5334 47.7961ZM58.2581 45.7179L58.8876 45.8229L59.0441 44.8844L58.1164 45.0956L58.2581 45.7179ZM48.4749 47.3693L48.4033 46.7351L47.8777 46.7944L47.8384 47.3218L48.4749 47.3693ZM47.5745 55.4787L46.9431 55.3856L46.8136 56.2637L47.6873 56.1068L47.5745 55.4787ZM56.6008 53.0587L56.813 53.6606L57.1264 53.5502L57.2156 53.2302L56.6008 53.0587ZM17.8967 46.1134L18.0141 45.4861L17.1089 45.3167L17.2681 46.2238L17.8967 46.1134ZM19.5149 53.0763L18.9009 53.2506L18.9965 53.5872L19.3317 53.6877L19.5149 53.0763ZM27.4768 55.0861L27.3521 55.712L28.2427 55.8895L28.108 54.9914L27.4768 55.0861ZM26.5881 47.3869L27.2243 47.3355L27.1817 46.8079L26.6553 46.7522L26.5881 47.3869ZM7.66919 43.713L7.84275 43.0989L6.86285 42.822L7.0408 43.8246L7.66919 43.713ZM9.3147 49.5656L8.72023 49.7978L8.82321 50.0614L9.08775 50.1621L9.3147 49.5656ZM13.9602 51.2677L13.7496 51.8702L14.8556 52.2568L14.5806 51.1179L13.9602 51.2677ZM12.7522 45.0275L13.384 44.9373L13.3224 44.5059L12.8982 44.4062L12.7522 45.0275ZM69.2571 42.3732L69.8897 42.4573L70.0318 41.3881L69.0263 41.7782L69.2571 42.3732ZM63.4211 44.3654L63.2393 43.7536L62.842 43.8717L62.7883 44.2828L63.4211 44.3654ZM62.2444 50.8009L61.6227 50.6569L61.3335 51.9047L62.5038 51.384L62.2444 50.8009ZM67.9602 48.0275L68.2563 48.5929L68.485 48.4731L68.5661 48.228L67.9602 48.0275ZM43.5745 31.1466L44.2107 31.0963L44.1671 30.545L43.6152 30.5097L43.5745 31.1466ZM31.4104 31.1515L31.3703 30.5146L30.8166 30.5494L30.7741 31.1026L31.4104 31.1515ZM31.2122 42.8732L30.5745 42.8995L30.5982 43.4729L31.1708 43.5101L31.2122 42.8732ZM43.8235 42.8742L43.866 43.511L44.4409 43.4726L44.4613 42.8968L43.8235 42.8742ZM26.4719 31.5851L27.1086 31.6289L27.1611 30.8657L26.4009 30.9509L26.4719 31.5851ZM17.3303 33.0177L17.2043 32.3921L16.7425 32.4851L16.6953 32.9539L17.3303 33.0177ZM17.1077 37.4396L16.4695 37.4395V37.4395L17.1077 37.4396ZM17.2463 41.0031L16.61 41.0518L16.6468 41.533L17.1199 41.6286L17.2463 41.0031ZM26.2981 42.4328L26.226 43.0669L26.9621 43.1506L26.9359 42.4102L26.2981 42.4328ZM48.5149 31.5998L48.5908 30.9661L47.8235 30.8742L47.8783 31.645L48.5149 31.5998ZM48.7346 42.4113L48.0967 42.3924L48.0747 43.1349L48.8121 43.0448L48.7346 42.4113ZM58.8723 40.5392L59.0278 41.1582L59.4777 41.0452L59.5091 40.5823L58.8723 40.5392ZM58.9827 37.3332L59.6209 37.3331V37.3331L58.9827 37.3332ZM58.8176 33.4845L59.4535 33.4301L59.4147 32.9761L58.9726 32.8654L58.8176 33.4845ZM12.3079 34.1515L12.9446 34.1941L13.0032 33.3196L12.1529 33.5324L12.3079 34.1515ZM7.30493 35.5265L7.12197 34.9151L6.70619 35.0395L6.66906 35.4719L7.30493 35.5265ZM7.18774 38.2287H6.54953H6.54953H7.18774ZM7.19067 38.4767L6.55248 38.4817L6.55615 38.9525L7.00708 39.0879L7.19067 38.4767ZM12.2561 39.8722L12.1009 40.4913L12.9346 40.7004L12.8936 39.8417L12.2561 39.8722ZM12.1965 37.4386L11.5583 37.4385V37.4385L12.1965 37.4386ZM63.8303 34.922L64.0278 34.3151L63.1485 34.029L63.1928 34.9527L63.8303 34.922ZM63.8909 37.3322L64.5291 37.3321V37.3321L63.8909 37.3322ZM63.8596 39.1056L63.2218 39.0837L63.1905 39.9949L64.0574 39.7124L63.8596 39.1056ZM69.2415 37.1046L69.4891 37.6929L69.4911 37.692L69.2415 37.1046ZM69.4436 37.0187L69.6933 37.606L71.0828 37.0153L69.6909 36.4304L69.4436 37.0187ZM69.2415 36.9337L68.9938 37.522L68.9942 37.5221L69.2415 36.9337ZM61.927 23.3615L62.1964 22.7829L60.9387 22.1973L61.3124 23.5334L61.927 23.3615ZM63.2942 29.6349L62.6635 29.7328L62.7255 30.1324L63.1134 30.247L63.2942 29.6349ZM68.7991 31.4875L68.5723 32.084L69.6767 32.5039L69.4223 31.35L68.7991 31.4875ZM67.0081 25.923L67.5943 25.6708L67.5067 25.4671L67.3116 25.3616L67.0081 25.923ZM14.303 23.0968L14.9156 23.2759L15.2713 22.0588L14.0819 22.4982L14.303 23.0968ZM10.301 24.633L10.0656 24.0398L9.83516 24.1312L9.72689 24.3543L10.301 24.633ZM8.24243 30.1652L7.62583 30.0005L7.33805 31.0782L8.41292 30.7802L8.24243 30.1652ZM12.9319 28.9679L13.0769 29.5894L13.4882 29.4935L13.5606 29.0773L12.9319 28.9679ZM46.717 18.4211L46.823 17.7917L45.9051 17.6372L46.0918 18.5491L46.717 18.4211ZM48.0413 26.6212L47.4076 26.697L47.4678 27.2012L47.9727 27.2558L48.0413 26.6212ZM58.0676 28.2765L57.9274 28.8991L58.8884 29.1156L58.6932 28.15L58.0676 28.2765ZM55.9954 20.8996L56.5966 20.6855L56.4955 20.4017L56.2122 20.2993L55.9954 20.8996ZM28.177 18.964L28.8022 19.0923L28.9971 18.1423L28.0475 18.3391L28.177 18.964ZM20.1272 21.0949L19.9354 20.4862L19.6345 20.581L19.5271 20.8776L20.1272 21.0949ZM18.1497 27.8771L17.5261 27.7412L17.3217 28.6791L18.2656 28.5047L18.1497 27.8771ZM26.9397 26.6144L27.0048 27.2493L27.5127 27.1972L27.5734 26.6903L26.9397 26.6144ZM39.0842 17.7804L39.0843 17.1422H39.0843L39.0842 17.7804ZM33.3655 18.1183L33.2918 17.4844L32.8438 17.5364L32.7433 17.9762L33.3655 18.1183ZM31.9202 26.2199L31.2873 26.1371L31.1877 26.8994L31.9553 26.8571L31.9202 26.2199ZM43.0598 26.215L43.0245 26.8522L43.7917 26.8947L43.6927 26.1328L43.0598 26.215ZM41.5911 17.8488L42.214 17.71L42.1088 17.2379L41.6259 17.2115L41.5911 17.8488ZM58.8245 14.713L59.2436 14.2318L58.2389 14.9669L58.8245 14.713ZM59.8157 17.1086L59.2218 17.3423L59.3229 17.5991L59.5792 17.7014L59.8157 17.1086ZM62.1477 18.0832L61.8921 18.6679L62.6345 17.6705L62.1477 18.0832ZM17.0852 15.4464L17.6711 15.6994L16.6495 14.9801L17.0852 15.4464ZM14.9426 17.6554L14.4633 17.234L12.8543 19.064L15.1538 18.2577L14.9426 17.6554ZM16.3704 17.1623L16.5746 17.7669L16.8528 17.6729L16.9624 17.4005L16.3704 17.1623ZM31.2405 7.8732L31.8421 8.08607L32.2312 6.98632L31.0953 7.25173L31.2405 7.8732ZM25.2883 9.923L25.0204 9.34377L24.8304 9.43166L24.7293 9.61502L25.2883 9.923ZM22.5549 15.2716L21.9771 15.0007L21.3926 16.2473L22.7216 15.8877L22.5549 15.2716ZM29.4163 13.7375L29.525 14.3663L29.9261 14.297L30.0323 13.904L29.4163 13.7375ZM43.7991 7.52945L43.9097 6.90089L42.8526 6.71491L43.194 7.73246L43.7991 7.52945ZM45.5168 13.2843L44.8996 13.4467L45.0091 13.8627L45.4358 13.9174L45.5168 13.2843ZM53.554 14.9562L53.3783 15.5698L54.718 15.9533L54.1333 14.6884L53.554 14.9562ZM50.9514 9.76968L51.513 9.46654L51.5114 9.46362L50.9514 9.76968ZM50.9055 9.6857L51.4655 9.37963L51.3614 9.18906L51.1626 9.10157L50.9055 9.6857ZM38.3606 7.05582V6.41761V6.41761V7.05582ZM36.7532 7.09683L36.7208 6.45944L36.3106 6.48028L36.1596 6.86226L36.7532 7.09683ZM34.6956 13.0578L34.084 12.8753L33.8167 13.7707L34.7481 13.6938L34.6956 13.0578ZM39.0852 12.8742L39.0853 12.236H39.0853L39.0852 12.8742ZM40.3372 12.8908L40.3214 13.5288L41.1878 13.5501L40.9511 12.7165L40.3372 12.8908ZM38.4504 7.05679L39.0499 6.83782L38.8972 6.41984L38.4522 6.41859L38.4504 7.05679ZM38.3606 3.02066V3.65887C44.2784 3.65888 49.8468 5.14589 54.7154 7.76531L55.0178 7.20328L55.3202 6.64125C50.2704 3.92433 44.4947 2.38246 38.3606 2.38245V3.02066ZM55.0178 7.20328L55.3164 7.76732L55.416 7.71459L55.1174 7.15054L54.8188 6.5865L54.7192 6.63924L55.0178 7.20328ZM55.1174 7.15054L54.5549 7.45202L54.635 7.60144L55.1975 7.29996L55.76 6.99848L55.6799 6.84906L55.1174 7.15054ZM55.1975 7.29996L54.8919 7.86022C60.8162 11.0922 65.6883 16.0091 68.8699 21.9649L69.4329 21.6642L69.9958 21.3635C66.697 15.1884 61.6462 10.0909 55.5032 6.73969L55.1975 7.29996ZM69.4329 21.6642L69.1286 22.2252C69.1456 22.2344 69.1621 22.2431 69.1743 22.2495C69.1877 22.2566 69.1969 22.2614 69.2053 22.266L69.51 21.7052L69.8147 21.1444C69.7975 21.1351 69.7809 21.1264 69.7686 21.1199C69.755 21.1127 69.7457 21.1079 69.7371 21.1032L69.4329 21.6642ZM69.51 21.7052L69.2051 22.2659L69.4834 22.4173L69.7883 21.8566L70.0932 21.2959L69.8149 21.1446L69.51 21.7052ZM69.7883 21.8566L69.226 21.5547L69.0981 21.793L69.6604 22.0949L70.2227 22.3968L70.3506 22.1585L69.7883 21.8566ZM69.6604 22.0949L69.0934 22.3878C71.5443 27.133 72.9304 32.5179 72.9304 38.2287H73.5686H74.2068C74.2068 32.309 72.7695 26.7238 70.2274 21.802L69.6604 22.0949ZM73.5686 38.2287H72.9304C72.9304 57.3209 57.4529 72.7984 38.3606 72.7985V73.4367V74.0749C58.1578 74.0748 74.2068 58.0259 74.2068 38.2287H73.5686ZM38.3606 73.4367V72.7985C31.6692 72.7985 25.425 70.8953 20.1332 67.6047L19.7961 68.1466L19.4591 68.6886C24.9471 72.1012 31.4238 74.0749 38.3606 74.0749V73.4367ZM19.7961 68.1466L19.5527 67.5567L19.4131 67.6143L19.6565 68.2043L19.8999 68.7942L20.0396 68.7366L19.7961 68.1466ZM19.6565 68.2043L20.2472 67.9626L20.1681 67.7692L19.5774 68.0109L18.9867 68.2525L19.0658 68.4459L19.6565 68.2043ZM19.5774 68.0109L19.9184 67.4714C14.5567 64.0828 10.1923 59.2609 7.36225 53.5442L6.79028 53.8273L6.21832 54.1104C9.15295 60.0385 13.6777 65.0373 19.2364 68.5504L19.5774 68.0109ZM6.79028 53.8273L7.01847 53.2313L6.84758 53.1659L6.61938 53.7619L6.39119 54.3579L6.56209 54.4233L6.79028 53.8273ZM6.61938 53.7619L7.22074 53.9756L7.27836 53.8135L6.677 53.5998L6.07565 53.386L6.01803 53.5481L6.61938 53.7619ZM6.677 53.5998L7.251 53.3208C5.03479 48.7611 3.79081 43.6411 3.7908 38.2287H3.15259H2.51438C2.51439 43.8387 3.80417 49.1491 6.103 53.8788L6.677 53.5998ZM3.15259 38.2287H3.7908C3.7908 31.8703 5.50833 25.9153 8.50227 20.798L7.95142 20.4757L7.40056 20.1535C4.29544 25.4608 2.51438 31.6374 2.51438 38.2287H3.15259ZM7.95142 20.4757L8.54596 20.2437L8.48346 20.0836L7.88892 20.3156L7.29437 20.5476L7.35687 20.7078L7.95142 20.4757ZM7.88892 20.3156L8.12739 20.9076L8.33345 20.8246L8.09497 20.2326L7.85649 19.6406L7.65044 19.7236L7.88892 20.3156ZM8.09497 20.2326L8.64322 20.5593C11.7045 15.4219 16.0592 11.1453 21.2588 8.17953L20.9426 7.62515L20.6264 7.07078C15.2351 10.1459 10.7206 14.5795 7.54672 19.9059L8.09497 20.2326ZM20.9426 7.62515L21.5019 7.93264C21.5434 7.85711 21.5706 7.80649 21.6087 7.73747L21.05 7.42886L20.4914 7.12026C20.4573 7.182 20.4136 7.26267 20.3834 7.31767L20.9426 7.62515ZM21.05 7.42886L21.6083 7.73814L21.7636 7.45787L21.2053 7.14859L20.6471 6.83931L20.4918 7.11958L21.05 7.42886ZM21.2053 7.14859L20.8937 7.70556L21.173 7.86181L21.4846 7.30484L21.7962 6.74787L21.5169 6.59162L21.2053 7.14859ZM21.4846 7.30484L21.1843 7.86797L21.1989 7.87578L21.4993 7.31265L21.7996 6.74953L21.785 6.74171L21.4846 7.30484ZM21.4993 7.31265L21.8053 7.87268C26.7211 5.18597 32.3616 3.65887 38.3606 3.65887V3.02066V2.38245C32.1425 2.38245 26.292 3.96587 21.1932 6.75263L21.4993 7.31265ZM33.4983 60.9162L32.8738 61.0479C33.458 63.8173 34.1569 66.6211 34.975 69.4536L35.5881 69.2765L36.2013 69.0994C35.3917 66.2964 34.7004 63.5229 34.1228 60.7844L33.4983 60.9162ZM35.5881 69.2765L35.5321 69.9123C36.4626 69.9943 37.406 70.0397 38.3606 70.0397V69.4015V68.7633C37.4465 68.7633 36.5406 68.7198 35.6442 68.6408L35.5881 69.2765ZM38.3606 69.4015V70.0397C38.7776 70.0397 39.1904 70.0284 39.5969 70.0129L39.5725 69.3752L39.5481 68.7374C39.1504 68.7526 38.7553 68.7633 38.3606 68.7633V69.4015ZM39.5725 69.3752L40.1861 69.5506C40.9885 66.7435 41.6696 63.9653 42.2375 61.2213L41.6125 61.0919L40.9876 60.9626C40.426 63.6757 39.7525 66.4232 38.9589 69.1998L39.5725 69.3752ZM41.6125 61.0919L41.5792 60.4546C40.6484 60.5033 39.7173 60.5278 38.7843 60.528L38.7844 61.1662L38.7845 61.8044C39.7398 61.8042 40.693 61.7791 41.6459 61.7293L41.6125 61.0919ZM38.7844 61.1662L38.7843 60.528C37.0472 60.5282 35.3084 60.4429 33.5572 60.2807L33.4983 60.9162L33.4394 61.5517C35.2271 61.7172 37.0054 61.8046 38.7845 61.8044L38.7844 61.1662ZM54.8176 58.7726L54.6364 58.1607C51.916 58.9664 49.2535 59.5571 46.6129 59.9479L46.7063 60.5793L46.7997 61.2106C49.5023 60.8106 52.2234 60.2065 54.9989 59.3846L54.8176 58.7726ZM46.7063 60.5793L46.0797 60.4581C45.5631 63.1293 44.942 65.832 44.2118 68.5618L44.8284 68.7267L45.4449 68.8916C46.1827 66.1332 46.8106 63.4014 47.3329 60.7004L46.7063 60.5793ZM44.8284 68.7267L44.9601 69.3512C47.5772 68.7989 50.075 67.925 52.4114 66.7727L52.1292 66.2003L51.8469 65.628C49.6046 66.7338 47.2078 67.5723 44.6966 68.1023L44.8284 68.7267ZM52.1292 66.2003L52.36 65.6054L52.2946 65.58L52.0637 66.175L51.8328 66.7699L51.8983 66.7953L52.1292 66.2003ZM52.0637 66.175L52.6571 66.41L52.7743 66.1141L52.1809 65.8791L51.5875 65.6441L51.4704 65.94L52.0637 66.175ZM52.1809 65.8791L52.7743 66.1141C53.7564 63.6346 54.6398 61.2632 55.4215 58.9793L54.8176 58.7726L54.2138 58.566C53.4398 60.8275 52.5637 63.1797 51.5876 65.644L52.1809 65.8791ZM21.2864 58.6584L20.6836 58.8679C21.4943 61.2 22.4149 63.6227 23.4409 66.1585L24.0325 65.9191L24.6241 65.6797C23.6044 63.1596 22.6917 60.7571 21.8892 58.4488L21.2864 58.6584ZM24.0325 65.9191L23.7387 66.4857C25.7378 67.5222 27.8608 68.3518 30.0796 68.9485L30.2454 68.3322L30.4111 67.7159C28.2818 67.1433 26.2445 66.3471 24.3262 65.3525L24.0325 65.9191ZM30.2454 68.3322L30.8618 68.1669C30.1343 65.4535 29.5133 62.7651 28.9928 60.107L28.3665 60.2296L27.7401 60.3523C28.2662 63.039 28.8938 65.7559 29.6289 68.4975L30.2454 68.3322ZM28.3665 60.2296L28.4756 59.6008C26.1774 59.2019 23.8431 58.6789 21.4506 58.0416L21.2864 58.6584L21.1221 59.2751C23.5461 59.9207 25.9174 60.4523 28.2573 60.8585L28.3665 60.2296ZM64.5774 55.0978L64.3149 54.5161C62.9887 55.1145 61.6841 55.6665 60.397 56.1717L60.6301 56.7658L60.8633 57.3599C62.1717 56.8463 63.4959 56.286 64.8399 55.6795L64.5774 55.0978ZM60.6301 56.7658L60.0199 56.5788C59.5441 58.1322 59.0211 59.7131 58.4521 61.327L59.054 61.5392L59.6559 61.7514C60.2302 60.1223 60.7588 58.5246 61.2403 56.9527L60.6301 56.7658ZM59.054 61.5392L59.4778 62.0163C61.6402 60.0953 63.5397 57.8849 65.1138 55.4437L64.5774 55.0978L64.041 54.752C62.5302 57.0951 60.7066 59.2174 58.6301 61.0621L59.054 61.5392ZM12.7629 56.0207L12.2392 56.3854C13.4545 58.1306 14.8392 59.749 16.3715 61.2152L16.8127 60.7541L17.254 60.2929C15.7831 58.8855 14.4536 57.3317 13.2867 55.6559L12.7629 56.0207ZM16.8127 60.7541L17.4147 60.5421C16.9648 59.264 16.5451 58.0059 16.1561 56.7652L15.5471 56.9562L14.9381 57.1472C15.3319 58.4028 15.7562 59.6749 16.2108 60.966L16.8127 60.7541ZM15.5471 56.9562L15.744 56.3491C14.8304 56.0528 13.9069 55.7422 12.9722 55.4177L12.7629 56.0207L12.5537 56.6236C13.4959 56.9506 14.4277 57.2641 15.3502 57.5633L15.5471 56.9562ZM31.5315 47.7941L30.8958 47.8503C31.1319 50.5223 31.474 53.2403 31.9271 55.9982L32.5569 55.8947L33.1867 55.7912C32.7386 53.0643 32.4005 50.3778 32.1672 47.7379L31.5315 47.7941ZM32.5569 55.8947L32.4827 56.5286C34.609 56.7772 36.7018 56.9062 38.7845 56.9059L38.7844 56.2677L38.7843 55.6295C36.7547 55.6298 34.7117 55.5041 32.631 55.2608L32.5569 55.8947ZM38.7844 56.2677L38.7845 56.9059C40.0467 56.9057 41.3077 56.8566 42.573 56.7606L42.5247 56.1242L42.4763 55.4878C41.2423 55.5815 40.0134 55.6293 38.7843 55.6295L38.7844 56.2677ZM42.5247 56.1242L43.1548 56.2252C43.6093 53.3886 43.9443 50.5942 44.1695 47.8482L43.5334 47.7961L42.8974 47.7439C42.6748 50.4574 42.3438 53.2193 41.8945 56.0232L42.5247 56.1242ZM43.5334 47.7961L43.495 47.159C39.6467 47.391 35.6634 47.3979 31.569 47.157L31.5315 47.7941L31.494 48.4312C35.6383 48.6751 39.6723 48.6682 43.5718 48.4331L43.5334 47.7961ZM58.2581 45.7179L58.1164 45.0956C55.0092 45.8031 51.7656 46.3557 48.4033 46.7351L48.4749 47.3693L48.5464 48.0035C51.955 47.6188 55.2454 47.0584 58.3997 46.3402L58.2581 45.7179ZM48.4749 47.3693L47.8384 47.3218C47.6411 49.9686 47.3453 52.6583 46.9431 55.3856L47.5745 55.4787L48.2058 55.5718C48.6125 52.814 48.9117 50.0939 49.1113 47.4167L48.4749 47.3693ZM47.5745 55.4787L47.6873 56.1068C50.6515 55.5745 53.6726 54.7678 56.813 53.6606L56.6008 53.0587L56.3886 52.4568C53.3075 53.5431 50.3528 54.3313 47.4617 54.8505L47.5745 55.4787ZM56.6008 53.0587L57.2156 53.2302C57.927 50.6791 58.4874 48.2222 58.8876 45.8229L58.2581 45.7179L57.6285 45.6129C57.2369 47.961 56.6871 50.3732 55.9861 52.8873L56.6008 53.0587ZM17.8967 46.1134L17.2681 46.2238C17.6682 48.5025 18.2153 50.8345 18.9009 53.2506L19.5149 53.0763L20.1289 52.9021C19.4534 50.5218 18.9168 48.2328 18.5253 46.0031L17.8967 46.1134ZM19.5149 53.0763L19.3317 53.6877C22.1026 54.5178 24.7633 55.196 27.3521 55.712L27.4768 55.0861L27.6016 54.4602C25.0584 53.9533 22.4371 53.2856 19.6981 52.465L19.5149 53.0763ZM27.4768 55.0861L28.108 54.9914C27.72 52.4047 27.4275 49.851 27.2243 47.3355L26.5881 47.3869L25.952 47.4383C26.1575 49.9826 26.4534 52.5652 26.8457 55.1808L27.4768 55.0861ZM26.5881 47.3869L26.6553 46.7522C23.8189 46.4521 20.9361 46.0328 18.0141 45.4861L17.8967 46.1134L17.7794 46.7408C20.7345 47.2937 23.6509 47.7178 26.521 48.0215L26.5881 47.3869ZM7.66919 43.713L7.0408 43.8246C7.4077 45.8917 7.97482 47.8894 8.72023 49.7978L9.3147 49.5656L9.90917 49.3334C9.19381 47.502 8.64963 45.585 8.29758 43.6015L7.66919 43.713ZM9.3147 49.5656L9.08775 50.1621C10.6813 50.7684 12.2329 51.3401 13.7496 51.8702L13.9602 51.2677L14.1708 50.6653C12.6677 50.1399 11.1273 49.5724 9.54165 48.9691L9.3147 49.5656ZM13.9602 51.2677L14.5806 51.1179C14.075 49.0243 13.6741 46.9696 13.384 44.9373L12.7522 45.0275L12.1204 45.1177C12.4168 47.1938 12.8256 49.2884 13.3398 51.4176L13.9602 51.2677ZM12.7522 45.0275L12.8982 44.4062C11.2235 44.0126 9.53777 43.5779 7.84275 43.0989L7.66919 43.713L7.49563 44.3272C9.2093 44.8115 10.9134 45.2509 12.6062 45.6488L12.7522 45.0275ZM69.2571 42.3732L69.0263 41.7782C67.1682 42.4989 65.2376 43.1597 63.2393 43.7536L63.4211 44.3654L63.603 44.9771C65.6338 44.3735 67.5971 43.7016 69.4879 42.9682L69.2571 42.3732ZM63.4211 44.3654L62.7883 44.2828C62.5147 46.3786 62.1232 48.4969 61.6227 50.6569L62.2444 50.8009L62.8661 50.945C63.375 48.7489 63.7745 46.5894 64.054 44.448L63.4211 44.3654ZM62.2444 50.8009L62.5038 51.384C64.3675 50.5549 66.2817 49.6271 68.2563 48.5929L67.9602 48.0275L67.6641 47.4621C65.7119 48.4846 63.8221 49.4005 61.985 50.2178L62.2444 50.8009ZM67.9602 48.0275L68.5661 48.228C69.1797 46.3736 69.6257 44.4442 69.8897 42.4573L69.2571 42.3732L68.6244 42.2891C68.371 44.1968 67.9428 46.0483 67.3543 47.827L67.9602 48.0275ZM43.5745 31.1466L43.6152 30.5097C39.6801 30.2579 35.5891 30.2491 31.3703 30.5146L31.4104 31.1515L31.4505 31.7885C35.6159 31.5264 39.6529 31.5352 43.5337 31.7835L43.5745 31.1466ZM31.4104 31.1515L30.7741 31.1026C30.4826 34.8962 30.4067 38.8367 30.5745 42.8995L31.2122 42.8732L31.8498 42.8469C31.6841 38.8339 31.7591 34.9436 32.0467 31.2004L31.4104 31.1515ZM31.2122 42.8732L31.1708 43.5101C35.55 43.7943 39.7921 43.7828 43.866 43.511L43.8235 42.8742L43.781 42.2374C39.7634 42.5055 35.5773 42.517 31.2535 42.2363L31.2122 42.8732ZM43.8235 42.8742L44.4613 42.8968C44.6052 38.8349 44.511 34.8938 44.2107 31.0963L43.5745 31.1466L42.9382 31.1969C43.2347 34.9462 43.3279 38.8386 43.1857 42.8516L43.8235 42.8742ZM26.4719 31.5851L26.4009 30.9509C23.3892 31.2883 20.3205 31.7645 17.2043 32.3921L17.3303 33.0177L17.4563 33.6434C20.536 33.0232 23.5681 32.5526 26.543 32.2194L26.4719 31.5851ZM17.3303 33.0177L16.6953 32.9539C16.5443 34.4553 16.4697 35.9473 16.4695 37.4395L17.1077 37.4396L17.7459 37.4397C17.7461 35.9902 17.8186 34.5408 17.9653 33.0816L17.3303 33.0177ZM17.1077 37.4396L16.4695 37.4395C16.4693 38.6382 16.5172 39.8406 16.61 41.0518L17.2463 41.0031L17.8827 40.9544C17.7923 39.7739 17.7457 38.6041 17.7459 37.4397L17.1077 37.4396ZM17.2463 41.0031L17.1199 41.6286C20.2047 42.2524 23.2432 42.7276 26.226 43.0669L26.2981 42.4328L26.3702 41.7986C23.4238 41.4635 20.4216 40.994 17.3728 40.3775L17.2463 41.0031ZM26.2981 42.4328L26.9359 42.4102C26.8053 38.7166 26.8689 35.117 27.1086 31.6289L26.4719 31.5851L25.8352 31.5414C25.5925 35.0739 25.5281 38.7179 25.6603 42.4553L26.2981 42.4328ZM48.5149 31.5998L47.8783 31.645C48.1253 35.1225 48.2058 38.7103 48.0967 42.3924L48.7346 42.4113L49.3726 42.4302C49.4829 38.705 49.4015 35.0744 49.1515 31.5545L48.5149 31.5998ZM48.7346 42.4113L48.8121 43.0448C52.3738 42.6093 55.7868 41.9721 59.0278 41.1582L58.8723 40.5392L58.7169 39.9202C55.5284 40.7209 52.1676 41.3486 48.6572 41.7778L48.7346 42.4113ZM58.8723 40.5392L59.5091 40.5823C59.5827 39.4939 59.621 38.412 59.6209 37.3331L58.9827 37.3332L58.3445 37.3332C58.3446 38.3818 58.3074 39.4348 58.2356 40.4961L58.8723 40.5392ZM58.9827 37.3332L59.6209 37.3331C59.6207 36.0339 59.5651 34.7351 59.4535 33.4301L58.8176 33.4845L58.1817 33.5389C58.2903 34.8079 58.3443 36.0705 58.3445 37.3333L58.9827 37.3332ZM58.8176 33.4845L58.9726 32.8654C55.681 32.0414 52.2121 31.3996 48.5908 30.9661L48.5149 31.5998L48.439 32.2334C52.0084 32.6607 55.4243 33.293 58.6626 34.1036L58.8176 33.4845ZM12.3079 34.1515L12.1529 33.5324C10.487 33.9494 8.80963 34.4101 7.12197 34.9151L7.30493 35.5265L7.48789 36.1379C9.15729 35.6384 10.8159 35.1828 12.4628 34.7706L12.3079 34.1515ZM7.30493 35.5265L6.66906 35.4719C6.5911 36.3798 6.54953 37.2993 6.54953 38.2287H7.18774H7.82595C7.82595 37.3373 7.86582 36.4544 7.9408 35.5811L7.30493 35.5265ZM7.18774 38.2287H6.54953C6.54953 38.3078 6.55202 38.4229 6.55248 38.4817L7.19067 38.4767L7.82886 38.4717C7.82803 38.3653 7.82595 38.3151 7.82595 38.2287H7.18774ZM7.19067 38.4767L7.00708 39.0879C8.71605 39.6012 10.4144 40.0683 12.1009 40.4913L12.2561 39.8722L12.4113 39.2532C10.7439 38.835 9.0644 38.3731 7.37426 37.8655L7.19067 38.4767ZM12.2561 39.8722L12.8936 39.8417C12.8552 39.0392 12.8346 38.2386 12.8347 37.4387L12.1965 37.4386L11.5583 37.4385C11.5582 38.2604 11.5794 39.0815 11.6186 39.9027L12.2561 39.8722ZM12.1965 37.4386L12.8347 37.4387C12.8349 36.3555 12.8723 35.2749 12.9446 34.1941L12.3079 34.1515L11.6711 34.1089C11.5969 35.217 11.5585 36.326 11.5583 37.4385L12.1965 37.4386ZM63.8303 34.922L63.1928 34.9527C63.231 35.7464 63.2525 36.539 63.2527 37.3323L63.8909 37.3322L64.5291 37.3321C64.5289 36.5159 64.5068 35.7027 64.4678 34.8914L63.8303 34.922ZM63.8909 37.3322L63.2527 37.3323C63.2527 37.9153 63.2419 38.4989 63.2218 39.0837L63.8596 39.1056L64.4975 39.1275C64.518 38.5294 64.5292 37.9311 64.5291 37.3321L63.8909 37.3322ZM63.8596 39.1056L64.0574 39.7124C65.9398 39.099 67.7523 38.424 69.4891 37.6929L69.2415 37.1046L68.9938 36.5164C67.2907 37.2334 65.5116 37.8961 63.6619 38.4988L63.8596 39.1056ZM69.2415 37.1046L69.4911 37.692L69.6933 37.606L69.4436 37.0187L69.1939 36.4314L68.9918 36.5173L69.2415 37.1046ZM69.4436 37.0187L69.6909 36.4304L69.4887 36.3454L69.2415 36.9337L68.9942 37.5221L69.1963 37.6071L69.4436 37.0187ZM69.2415 36.9337L69.4891 36.3455C67.7433 35.6106 65.9212 34.9312 64.0278 34.3151L63.8303 34.922L63.6328 35.5289C65.4928 36.1341 67.2815 36.8011 68.9938 37.522L69.2415 36.9337ZM61.927 23.3615L61.3124 23.5334C61.8974 25.6254 62.3459 27.6856 62.6635 29.7328L63.2942 29.6349L63.9249 29.5371C63.5992 27.4379 63.1397 25.3283 62.5416 23.1896L61.927 23.3615ZM63.2942 29.6349L63.1134 30.247C64.9941 30.8026 66.8154 31.4161 68.5723 32.084L68.7991 31.4875L69.0259 30.8909C67.2378 30.2111 65.3858 29.5873 63.475 29.0229L63.2942 29.6349ZM68.7991 31.4875L69.4223 31.35C68.9886 29.3827 68.374 27.4834 67.5943 25.6708L67.0081 25.923L66.4218 26.1752C67.1697 27.9141 67.7595 29.7365 68.1758 31.6249L68.7991 31.4875ZM67.0081 25.923L67.3116 25.3616C65.5593 24.414 63.8568 23.556 62.1964 22.7829L61.927 23.3615L61.6576 23.9401C63.2932 24.7016 64.9728 25.5479 66.7045 26.4844L67.0081 25.923ZM14.303 23.0968L14.0819 22.4982C12.7729 22.9816 11.4355 23.4962 10.0656 24.0398L10.301 24.633L10.5364 25.2262C11.8983 24.6858 13.2261 24.1749 14.5241 23.6955L14.303 23.0968ZM10.301 24.633L9.72689 24.3543C8.8558 26.1487 8.15002 28.0376 7.62583 30.0005L8.24243 30.1652L8.85903 30.3299C9.36219 28.4457 10.0395 26.6332 10.8752 24.9117L10.301 24.633ZM8.24243 30.1652L8.41292 30.7802C9.97643 30.3468 11.5314 29.9501 13.0769 29.5894L12.9319 28.9679L12.7869 28.3464C11.2241 28.7111 9.65218 29.1121 8.07194 29.5502L8.24243 30.1652ZM12.9319 28.9679L13.5606 29.0773C13.894 27.1616 14.3436 25.2327 14.9156 23.2759L14.303 23.0968L13.6904 22.9178C13.1055 24.9188 12.645 26.8942 12.3031 28.8585L12.9319 28.9679ZM46.717 18.4211L46.0918 18.5491C46.6298 21.177 47.0726 23.896 47.4076 26.697L48.0413 26.6212L48.675 26.5455C48.3359 23.7095 47.8874 20.9556 47.3423 18.293L46.717 18.4211ZM48.0413 26.6212L47.9727 27.2558C51.4205 27.6286 54.7452 28.1823 57.9274 28.8991L58.0676 28.2765L58.2079 27.6539C54.9773 26.9261 51.6048 26.3646 48.1099 25.9867L48.0413 26.6212ZM58.0676 28.2765L58.6932 28.15C58.2019 25.7203 57.5081 23.2451 56.5966 20.6855L55.9954 20.8996L55.3941 21.1137C56.287 23.6208 56.9638 26.0375 57.4421 28.403L58.0676 28.2765ZM55.9954 20.8996L56.2122 20.2993C52.9746 19.1296 49.8696 18.3044 46.823 17.7917L46.717 18.4211L46.6111 19.0504C49.5756 19.5493 52.6064 20.3538 55.7785 21.4998L55.9954 20.8996ZM28.177 18.964L28.0475 18.3391C25.4353 18.8803 22.7455 19.6005 19.9354 20.4862L20.1272 21.0949L20.319 21.7036C23.0961 20.8283 25.7437 20.1199 28.3065 19.589L28.177 18.964ZM20.1272 21.0949L19.5271 20.8776C18.6766 23.2262 18.0136 25.5041 17.5261 27.7412L18.1497 27.8771L18.7732 28.013C19.2478 25.8354 19.8945 23.6119 20.7273 21.3122L20.1272 21.0949ZM18.1497 27.8771L18.2656 28.5047C21.2214 27.9586 24.1371 27.5432 27.0048 27.2493L26.9397 26.6144L26.8746 25.9795C23.9729 26.2769 21.0233 26.6972 18.0337 27.2495L18.1497 27.8771ZM26.9397 26.6144L27.5734 26.6903C27.8857 24.0834 28.2983 21.5481 28.8022 19.0923L28.177 18.964L27.5518 18.8358C27.0408 21.3265 26.6225 23.8968 26.306 26.5385L26.9397 26.6144ZM39.0842 17.7804L39.0843 17.1422C37.17 17.1419 35.2458 17.2573 33.2918 17.4844L33.3655 18.1183L33.4391 18.7523C35.3466 18.5306 37.2216 18.4184 39.0841 18.4186L39.0842 17.7804ZM33.3655 18.1183L32.7433 17.9762C32.1448 20.5954 31.6557 23.3196 31.2873 26.1371L31.9202 26.2199L32.553 26.3026C32.9162 23.5241 33.3983 20.8397 33.9877 18.2605L33.3655 18.1183ZM31.9202 26.2199L31.9553 26.8571C35.7474 26.6481 39.4436 26.6539 43.0245 26.8522L43.0598 26.215L43.0951 25.5778C39.4672 25.3769 35.724 25.371 31.885 25.5826L31.9202 26.2199ZM43.0598 26.215L43.6927 26.1328C43.3148 23.2243 42.8162 20.413 42.214 17.71L41.5911 17.8488L40.9681 17.9876C41.562 20.6532 42.054 23.4268 42.4269 26.2972L43.0598 26.215ZM41.5911 17.8488L41.6259 17.2115C40.7775 17.1651 39.9309 17.1423 39.0843 17.1422L39.0842 17.7804L39.0841 18.4186C39.9079 18.4188 40.7314 18.4409 41.5562 18.486L41.5911 17.8488ZM58.8245 14.713L58.2389 14.9669C58.5853 15.7658 58.9128 16.5573 59.2218 17.3423L59.8157 17.1086L60.4095 16.8748C60.095 16.0759 59.7619 15.271 59.41 14.4592L58.8245 14.713ZM59.8157 17.1086L59.5792 17.7014C60.3439 18.0063 61.1147 18.3281 61.8921 18.6679L62.1477 18.0832L62.4033 17.4984C61.6132 17.153 60.8296 16.8259 60.0521 16.5157L59.8157 17.1086ZM62.1477 18.0832L62.6345 17.6705C61.5923 16.4411 60.4594 15.2906 59.2436 14.2318L58.8245 14.713L58.4053 15.1943C59.5719 16.2104 60.6597 17.3149 61.6609 18.4959L62.1477 18.0832ZM17.0852 15.4464L16.6495 14.9801C15.8842 15.6951 15.1548 16.4475 14.4633 17.234L14.9426 17.6554L15.4219 18.0768C16.0861 17.3214 16.7864 16.599 17.5209 15.9128L17.0852 15.4464ZM14.9426 17.6554L15.1538 18.2577C15.6317 18.0901 16.1046 17.9257 16.5746 17.7669L16.3704 17.1623L16.1661 16.5576C15.6893 16.7187 15.2111 16.885 14.7314 17.0532L14.9426 17.6554ZM16.3704 17.1623L16.9624 17.4005C17.1894 16.8365 17.4251 16.2693 17.6711 15.6994L17.0852 15.4464L16.4993 15.1935C16.2486 15.774 16.0089 16.351 15.7783 16.924L16.3704 17.1623ZM31.2405 7.8732L31.0953 7.25173C28.9809 7.74573 26.9486 8.45178 25.0204 9.34377L25.2883 9.923L25.5563 10.5022C27.4072 9.646 29.3574 8.96857 31.3857 8.49467L31.2405 7.8732ZM25.2883 9.923L24.7293 9.61502C23.7107 11.4639 22.7952 13.2559 21.9771 15.0007L22.5549 15.2716L23.1328 15.5426C23.9381 13.8249 24.8409 12.0577 25.8473 10.231L25.2883 9.923ZM22.5549 15.2716L22.7216 15.8877C25.0362 15.2615 27.297 14.7515 29.525 14.3663L29.4163 13.7375L29.3075 13.1086C27.036 13.5012 24.7363 14.0203 22.3883 14.6556L22.5549 15.2716ZM29.4163 13.7375L30.0323 13.904C30.5742 11.9 31.1795 9.95909 31.8421 8.08607L31.2405 7.8732L30.6388 7.66033C29.9652 9.56432 29.3503 11.5361 28.8002 13.5709L29.4163 13.7375ZM43.7991 7.52945L43.194 7.73246C43.8119 9.57391 44.3823 11.4802 44.8996 13.4467L45.5168 13.2843L46.1341 13.122C45.6096 11.1285 45.0311 9.1951 44.4041 7.32644L43.7991 7.52945ZM45.5168 13.2843L45.4358 13.9174C48.0557 14.2528 50.6905 14.8003 53.3783 15.5698L53.554 14.9562L53.7296 14.3426C50.9831 13.5563 48.2851 12.9953 45.5979 12.6513L45.5168 13.2843ZM53.554 14.9562L54.1333 14.6884C53.3508 12.9957 52.4798 11.2577 51.513 9.46655L50.9514 9.76968L50.3898 10.0728C51.3448 11.8422 52.2039 13.5567 52.9746 15.224L53.554 14.9562ZM50.9514 9.76968L51.5114 9.46362L51.4655 9.37963L50.9055 9.6857L50.3455 9.99176L50.3914 10.0757L50.9514 9.76968ZM50.9055 9.6857L51.1626 9.10157C48.8736 8.09405 46.4438 7.34677 43.9097 6.90089L43.7991 7.52945L43.6885 8.158C46.1198 8.58579 48.4513 9.30279 50.6484 10.2698L50.9055 9.6857ZM38.3606 7.05582V6.41761C37.8105 6.41761 37.2637 6.43187 36.7208 6.45944L36.7532 7.09683L36.7855 7.73422C37.3074 7.70772 37.8325 7.69403 38.3606 7.69403V7.05582ZM36.7532 7.09683L36.1596 6.86226C35.4008 8.78227 34.7067 10.7889 34.084 12.8753L34.6956 13.0578L35.3071 13.2403C35.9196 11.1881 36.6018 9.21622 37.3467 7.33141L36.7532 7.09683ZM34.6956 13.0578L34.7481 13.6938C36.1987 13.574 37.6423 13.5122 39.0851 13.5124L39.0852 12.8742L39.0853 12.236C37.6058 12.2357 36.1271 12.2991 34.643 12.4217L34.6956 13.0578ZM39.0852 12.8742L39.0851 13.5124C39.4966 13.5125 39.9085 13.5186 40.3214 13.5288L40.3372 12.8908L40.3529 12.2528C39.9318 12.2424 39.5093 12.236 39.0853 12.236L39.0852 12.8742ZM40.3372 12.8908L40.9511 12.7165C40.3736 10.6823 39.7377 8.72074 39.0499 6.83782L38.4504 7.05679L37.851 7.27576C38.5277 9.12853 39.154 11.0603 39.7232 13.0651L40.3372 12.8908ZM38.4504 7.05679L38.4522 6.41859C38.4422 6.41856 38.4316 6.41839 38.4155 6.41814C38.4009 6.41791 38.3812 6.41761 38.3606 6.41761V7.05582V7.69403C38.3699 7.69403 38.3802 7.69417 38.3956 7.69441C38.4094 7.69462 38.4288 7.69494 38.4486 7.695L38.4504 7.05679Z" fill="black" mask="url(#path-2-inside-1_13971_9666)"/>
<path d="M12.585 51.1864L12.9609 54.2821C13.253 56.6873 15.1509 58.5816 17.5566 58.869L20.7119 59.246V60.5995L17.5566 60.9764C15.1508 61.2639 13.2529 63.1581 12.9609 65.5634L12.585 68.6591H11.2324L10.8564 65.5634C10.5645 63.1581 8.66658 61.2639 6.26074 60.9764L3.10547 60.5995V59.246L6.26074 58.869C8.66647 58.5816 10.5644 56.6872 10.8564 54.2821L11.2324 51.1864H12.585Z" fill="#FFF239" stroke="#FDF35C" stroke-width="1.36284"/>
<path d="M12.0342 52.0745L12.3193 54.4397C12.6399 57.1003 14.7369 59.1974 17.3975 59.5179L19.7627 59.803V60.0481L17.3975 60.3333C14.7369 60.6538 12.6398 62.7508 12.3193 65.4114L12.0342 67.7766H11.7891L11.5039 65.4114C11.1834 62.7508 9.08633 60.6538 6.42578 60.3333L4.06055 60.0481V59.803L6.42578 59.5179C9.08629 59.1973 11.1834 57.1002 11.5039 54.4397L11.7891 52.0745H12.0342Z" fill="#FFF239" stroke="black" stroke-width="0.247464"/>
<path d="M66.7888 5.00363L67.2556 8.85422C67.6188 11.8462 69.9798 14.2027 72.9724 14.5603L76.8972 15.029V16.7126L72.9724 17.1814C69.9798 17.5389 67.6188 19.8955 67.2556 22.8874L66.7888 26.738H65.1052L64.6384 22.8874C64.2753 19.8955 61.9143 17.5389 58.9216 17.1814L54.9968 16.7126V15.029L58.9216 14.5603C61.9143 14.2027 64.2753 11.8462 64.6384 8.85422L65.1052 5.00363H66.7888Z" fill="#FFF239" stroke="#FDF35C" stroke-width="1.69525"/>
<path d="M66.0989 6.10587L66.4534 9.04825C66.8521 12.3578 69.4611 14.9661 72.7708 15.3647L75.7122 15.7191V16.0248L72.7708 16.3793C69.461 16.7779 66.8519 19.387 66.4534 22.6967L66.0989 25.6381H65.7932L65.4387 22.6967C65.0402 19.3871 62.4319 16.778 59.1223 16.3793L56.1799 16.0248V15.7191L59.1223 15.3647C62.4318 14.966 65.04 12.3577 65.4387 9.04825L65.7932 6.10587H66.0989Z" fill="#FFF239" stroke="black" stroke-width="0.307821"/>
</svg>
