<svg width="152" height="63" viewBox="0 0 152 63" fill="none" xmlns="http://www.w3.org/2000/svg">
<path d="M8.8405 20.031H124.774V53.6025H8.8405V20.031Z" fill="#D3FF6B"/>
<path d="M139.338 3.46906C142.808 3.46906 145.621 6.28188 145.621 9.7517C145.621 12.3539 144.039 14.5867 141.784 15.5406V27.2026H145.715C146.756 27.2026 147.6 28.0465 147.6 29.0875V44.166C147.6 45.2069 146.756 46.0507 145.715 46.0507H133.15L133.053 46.0483C132.628 46.0268 132.241 45.8648 131.936 45.6081V56.0645C131.936 57.8896 130.48 59.3746 128.666 59.4205L128.579 59.4216H6.82621C5.00104 59.4216 3.51606 57.9651 3.47015 56.151L3.46906 56.0645V18.0167C3.46906 16.1626 4.97211 14.6596 6.82621 14.6596H128.579L128.666 14.6607C130.48 14.7066 131.936 16.1916 131.936 18.0167V27.6456C132.241 27.3887 132.628 27.2265 133.053 27.205L133.15 27.2026H137.308V15.6988C134.834 14.8546 133.055 12.511 133.055 9.7517C133.055 6.28191 135.868 3.4691 139.338 3.46906ZM7.94526 54.9454H46.8882V19.1358H7.94526V54.9454ZM94.1122 54.9454H127.46V19.1358H94.1122V54.9454ZM51.3644 54.9454H89.636V19.1358H51.3644V54.9454ZM135.741 41.5745H143.124V31.6788H135.741V41.5745Z" fill="#AD4141"/>
<path d="M142.152 9.7517C142.152 8.19789 140.892 6.93812 139.338 6.93812C137.784 6.93816 136.524 8.19782 136.524 9.7517C136.524 10.9818 137.316 12.0362 138.428 12.4158L139.446 12.7629L140.432 12.3456C141.449 11.9155 142.152 10.9116 142.152 9.7517ZM97.5812 51.4763H123.991V22.6048H97.5812V51.4763ZM54.8335 51.4763H86.1669V22.6048H54.8335V51.4763ZM11.4143 51.4763H43.4192V22.6048H11.4143V51.4763ZM130.929 33.0301V40.2244L132.272 41.3553V31.8989L130.929 33.0301ZM139.21 38.1054H139.654V35.1478H139.21V38.1054ZM149.09 9.7517C149.09 12.9167 147.582 15.7245 145.253 17.5042V23.7335H145.715C148.672 23.7335 151.069 26.1306 151.069 29.0875V44.1662C151.069 47.1232 148.671 49.5197 145.715 49.5198H135.405V56.0645C135.405 59.7761 132.444 62.795 128.753 62.8885L128.709 62.8894L128.623 62.8904L128.601 62.8907H6.82621C3.11456 62.8907 0.0956302 59.9292 0.00218565 56.2389L0.00131139 56.1947L0.000218565 56.1082L0 56.0863L0 18.0167C0 14.2467 3.0562 11.1905 6.82621 11.1905H128.601L128.623 11.1907L128.709 11.1918L128.753 11.1927C129.077 11.2009 129.395 11.2319 129.706 11.2836C129.627 10.7847 129.586 10.273 129.586 9.7517C129.586 4.36604 133.952 6.8088e-05 139.338 0C144.723 0 149.09 4.3659 149.09 9.7517Z" fill="#D3FF6B"/>
<path d="M18.2405 34.1262C18.2405 33.6987 18.3193 33.2979 18.4768 32.9238C18.6343 32.5319 18.8531 32.1934 19.1332 31.9084C19.4132 31.6234 19.737 31.4007 20.1046 31.2404C20.4896 31.0801 20.8922 30.9999 21.3122 30.9999C21.7323 30.9999 22.1261 31.0801 22.4937 31.2404C22.8787 31.4007 23.2113 31.6234 23.4913 31.9084C23.7713 32.1934 23.9901 32.5319 24.1476 32.9238C24.3052 33.2979 24.3839 33.6987 24.3839 34.1262C24.3839 34.5537 24.3052 34.9634 24.1476 35.3553C23.9901 35.7294 23.7713 36.0589 23.4913 36.3439C23.2113 36.6289 22.8787 36.8516 22.4937 37.0119C22.1261 37.1723 21.7323 37.2524 21.3122 37.2524C20.8922 37.2524 20.4896 37.1723 20.1046 37.0119C19.737 36.8516 19.4132 36.6289 19.1332 36.3439C18.8531 36.0589 18.6343 35.7294 18.4768 35.3553C18.3193 34.9634 18.2405 34.5537 18.2405 34.1262ZM18.2405 43.1308C18.2405 42.7033 18.3193 42.3025 18.4768 41.9284C18.6343 41.5365 18.8531 41.1981 19.1332 40.9131C19.4132 40.628 19.737 40.4054 20.1046 40.2451C20.4896 40.0847 20.8922 40.0046 21.3122 40.0046C21.7323 40.0046 22.1261 40.0847 22.4937 40.2451C22.8787 40.4054 23.2113 40.628 23.4913 40.9131C23.7713 41.1981 23.9901 41.5365 24.1476 41.9284C24.3052 42.3025 24.3839 42.7033 24.3839 43.1308C24.3839 43.5583 24.3052 43.968 24.1476 44.3599C23.9901 44.734 23.7713 45.0636 23.4913 45.3486C23.2113 45.6336 22.8787 45.8562 22.4937 46.0166C22.1261 46.1769 21.7323 46.257 21.3122 46.257C20.8922 46.257 20.4896 46.1769 20.1046 46.0166C19.737 45.8562 19.4132 45.6336 19.1332 45.3486C18.8531 45.0636 18.6343 44.734 18.4768 44.3599C18.3193 43.968 18.2405 43.5583 18.2405 43.1308Z" fill="black"/>
<path d="M27.1627 49.4902C29.1755 45.9631 30.1819 41.7948 30.1819 36.9852C30.1819 35.8452 30.1032 34.6784 29.9456 33.4849C29.8056 32.2736 29.5956 31.1068 29.3156 29.9846C29.053 28.8623 28.738 27.8203 28.3704 26.8583C28.0029 25.8964 27.6003 25.0681 27.1627 24.3734L30.0244 22.7167C31.2496 24.5337 32.186 26.6713 32.8336 29.1295C33.4987 31.57 33.8312 34.2598 33.8312 37.199C33.8312 38.4815 33.7437 39.7641 33.5687 41.0467C33.4112 42.3292 33.1661 43.5672 32.8336 44.7607C32.5185 45.9542 32.1247 47.0943 31.6521 48.1809C31.1796 49.2675 30.637 50.2561 30.0244 51.1468L27.1627 49.4902Z" fill="black"/>
<path d="M60.9883 34.1262C60.9883 33.6987 61.067 33.2979 61.2246 32.9238C61.3821 32.5319 61.6009 32.1934 61.8809 31.9084C62.1609 31.6234 62.4847 31.4007 62.8523 31.2404C63.2374 31.0801 63.6399 30.9999 64.06 30.9999C64.48 30.9999 64.8738 31.0801 65.2414 31.2404C65.6265 31.4007 65.959 31.6234 66.239 31.9084C66.5191 32.1934 66.7379 32.5319 66.8954 32.9238C67.0529 33.2979 67.1317 33.6987 67.1317 34.1262C67.1317 34.5537 67.0529 34.9634 66.8954 35.3553C66.7379 35.7294 66.5191 36.0589 66.239 36.3439C65.959 36.6289 65.6265 36.8516 65.2414 37.0119C64.8738 37.1723 64.48 37.2524 64.06 37.2524C63.6399 37.2524 63.2374 37.1723 62.8523 37.0119C62.4847 36.8516 62.1609 36.6289 61.8809 36.3439C61.6009 36.0589 61.3821 35.7294 61.2246 35.3553C61.067 34.9634 60.9883 34.5537 60.9883 34.1262ZM60.9883 43.1308C60.9883 42.7033 61.067 42.3025 61.2246 41.9284C61.3821 41.5365 61.6009 41.1981 61.8809 40.9131C62.1609 40.628 62.4847 40.4054 62.8523 40.2451C63.2374 40.0847 63.6399 40.0046 64.06 40.0046C64.48 40.0046 64.8738 40.0847 65.2414 40.2451C65.6265 40.4054 65.959 40.628 66.239 40.9131C66.5191 41.1981 66.7379 41.5365 66.8954 41.9284C67.0529 42.3025 67.1317 42.7033 67.1317 43.1308C67.1317 43.5583 67.0529 43.968 66.8954 44.3599C66.7379 44.734 66.5191 45.0636 66.239 45.3486C65.959 45.6336 65.6265 45.8562 65.2414 46.0166C64.8738 46.1769 64.48 46.257 64.06 46.257C63.6399 46.257 63.2374 46.1769 62.8523 46.0166C62.4847 45.8562 62.1609 45.6336 61.8809 45.3486C61.6009 45.0636 61.3821 44.734 61.2246 44.3599C61.067 43.968 60.9883 43.5583 60.9883 43.1308Z" fill="black"/>
<path d="M69.9105 49.4902C71.9233 45.9631 72.9297 41.7948 72.9297 36.9852C72.9297 35.8452 72.8509 34.6784 72.6934 33.4849C72.5534 32.2736 72.3433 31.1068 72.0633 29.9846C71.8008 28.8623 71.4857 27.8203 71.1182 26.8583C70.7506 25.8964 70.348 25.0681 69.9105 24.3734L72.7722 22.7167C73.9973 24.5337 74.9337 26.6713 75.5813 29.1295C76.2464 31.57 76.579 34.2598 76.579 37.199C76.579 38.4815 76.4914 39.7641 76.3164 41.0467C76.1589 42.3292 75.9139 43.5672 75.5813 44.7607C75.2663 45.9542 74.8725 47.0943 74.3999 48.1809C73.9273 49.2675 73.3847 50.2561 72.7722 51.1468L69.9105 49.4902Z" fill="black"/>
<path d="M101.274 34.0261C101.274 33.5985 101.353 33.1977 101.51 32.8237C101.668 32.4318 101.887 32.0933 102.167 31.8083C102.447 31.5233 102.771 31.3006 103.138 31.1403C103.523 30.98 103.926 30.8998 104.346 30.8998C104.766 30.8998 105.16 30.98 105.527 31.1403C105.912 31.3006 106.245 31.5233 106.525 31.8083C106.805 32.0933 107.024 32.4318 107.181 32.8237C107.339 33.1977 107.418 33.5985 107.418 34.0261C107.418 34.4536 107.339 34.8633 107.181 35.2552C107.024 35.6293 106.805 35.9588 106.525 36.2438C106.245 36.5288 105.912 36.7515 105.527 36.9118C105.16 37.0721 104.766 37.1523 104.346 37.1523C103.926 37.1523 103.523 37.0721 103.138 36.9118C102.771 36.7515 102.447 36.5288 102.167 36.2438C101.887 35.9588 101.668 35.6293 101.51 35.2552C101.353 34.8633 101.274 34.4536 101.274 34.0261ZM101.274 43.0307C101.274 42.6032 101.353 42.2024 101.51 41.8283C101.668 41.4364 101.887 41.098 102.167 40.8129C102.447 40.5279 102.771 40.3053 103.138 40.1449C103.523 39.9846 103.926 39.9045 104.346 39.9045C104.766 39.9045 105.16 39.9846 105.527 40.1449C105.912 40.3053 106.245 40.5279 106.525 40.8129C106.805 41.098 107.024 41.4364 107.181 41.8283C107.339 42.2024 107.418 42.6032 107.418 43.0307C107.418 43.4582 107.339 43.8679 107.181 44.2598C107.024 44.6339 106.805 44.9635 106.525 45.2485C106.245 45.5335 105.912 45.7561 105.527 45.9165C105.16 46.0768 104.766 46.1569 104.346 46.1569C103.926 46.1569 103.523 46.0768 103.138 45.9165C102.771 45.7561 102.447 45.5335 102.167 45.2485C101.887 44.9635 101.668 44.6339 101.51 44.2598C101.353 43.8679 101.274 43.4582 101.274 43.0307Z" fill="black"/>
<path d="M110.196 49.3901C112.209 45.863 113.216 41.6947 113.216 36.8851C113.216 35.7451 113.137 34.5783 112.979 33.3848C112.839 32.1735 112.629 31.0067 112.349 29.8845C112.087 28.7622 111.772 27.7202 111.404 26.7582C111.036 25.7963 110.634 24.968 110.196 24.2733L113.058 22.6166C114.283 24.4336 115.22 26.5712 115.867 29.0294C116.532 31.4699 116.865 34.1597 116.865 37.0989C116.865 38.3814 116.777 39.664 116.602 40.9465C116.445 42.2291 116.2 43.4671 115.867 44.6606C115.552 45.8541 115.158 46.9942 114.686 48.0808C114.213 49.1674 113.671 50.156 113.058 51.0467L110.196 49.3901Z" fill="black"/>
<path fill-rule="evenodd" clip-rule="evenodd" d="M139.338 3.46906C142.808 3.46906 145.621 6.28188 145.621 9.7517C145.621 12.3539 144.039 14.5867 141.784 15.5406V27.2026H145.715C146.756 27.2026 147.6 28.0465 147.6 29.0875V44.166C147.6 45.2069 146.756 46.0507 145.715 46.0507H133.15L133.053 46.0483C132.089 45.9995 131.316 45.2266 131.267 44.2628L131.265 44.166V29.0875C131.265 28.079 132.057 27.2554 133.053 27.205L133.15 27.2026H137.308V15.6988C134.834 14.8546 133.055 12.511 133.055 9.7517C133.055 6.28191 135.868 3.4691 139.338 3.46906ZM135.741 41.5745H143.124V31.6788H135.741V41.5745Z" fill="#FFF239"/>
<path d="M139.338 3.46906C142.808 3.46906 145.621 6.28188 145.621 9.7517C145.621 12.3539 144.039 14.5867 141.784 15.5406V27.2026H145.715C146.756 27.2026 147.6 28.0465 147.6 29.0875V44.166C147.6 45.2069 146.756 46.0507 145.715 46.0507H133.15L133.053 46.0483C132.089 45.9995 131.316 45.2266 131.267 44.2628L131.265 44.166V29.0875C131.265 28.079 132.057 27.2554 133.053 27.205L133.15 27.2026H137.308V15.6988C134.834 14.8546 133.055 12.511 133.055 9.7517C133.055 6.28191 135.868 3.4691 139.338 3.46906ZM139.338 4.14049C136.239 4.14053 133.727 6.65273 133.727 9.7517C133.727 12.215 135.314 14.3092 137.524 15.0635L137.979 15.2184V27.874H133.157L133.082 27.8757C132.444 27.9104 131.936 28.4399 131.936 29.0875V44.1581L131.938 44.2333C131.971 44.8494 132.466 45.3437 133.082 45.3773L133.157 45.3793H145.715L145.777 45.3777C146.398 45.3463 146.895 44.8487 146.927 44.2283L146.928 44.166V29.0875C146.928 28.4383 146.418 27.9081 145.777 27.8755L145.715 27.874H141.112V15.0956L141.522 14.9223C143.537 14.0698 144.949 12.0748 144.949 9.7517C144.949 6.65272 142.437 4.14049 139.338 4.14049ZM143.795 42.2459H135.069V31.0073H143.795V42.2459ZM135.741 41.5745H143.124V31.6788H135.741V41.5745Z" fill="black"/>
<path d="M128.666 14.6607C130.48 14.7066 131.936 16.1916 131.936 18.0167V56.0645C131.936 57.8896 130.48 59.3746 128.666 59.4205L128.579 59.4216H6.82621C5.00104 59.4216 3.51606 57.9651 3.47015 56.151L3.46906 56.0645V18.0167C3.46906 16.1626 4.97211 14.6596 6.82621 14.6596H128.579L128.666 14.6607ZM7.94526 54.9454H46.6644V19.1358H7.94526V54.9454ZM91.3146 54.9454H127.46V19.1358H91.3146V54.9454ZM51.1406 54.9454H86.8384V19.1358H51.1406V54.9454Z" fill="#FDF35C"/>
<path d="M131.6 18.0167C131.6 16.3741 130.29 15.0377 128.657 14.9964L128.575 14.9953H6.82621C5.15752 14.9953 3.80477 16.348 3.80477 18.0167V56.0603L3.80587 56.1425L3.80871 56.2188C3.88896 57.8157 5.20926 59.0859 6.82621 59.0859H128.575L128.657 59.0848C130.29 59.0435 131.6 57.7071 131.6 56.0645V18.0167ZM47.0001 18.8001V55.2811H7.60955V18.8001H47.0001ZM87.5098 18.8001V55.2811H50.8049V18.8001H87.5098ZM127.796 18.8001V55.2811H91.3146V18.8001H127.796ZM91.986 54.6097H127.124V19.4715H91.986V54.6097ZM51.4763 54.6097H86.8384V19.4715H51.4763V54.6097ZM8.28098 54.6097H46.3287V19.4715H8.28098V54.6097ZM132.272 56.0645C132.272 58.0722 130.67 59.7057 128.674 59.7562H128.67L128.583 59.7573H6.82621C4.81849 59.7573 3.18495 58.1552 3.13444 56.1595V56.1552L3.13334 56.0686V18.0167C3.13334 15.9772 4.7867 14.3239 6.82621 14.3239H128.583L128.67 14.3249H128.674C130.67 14.3755 132.272 16.009 132.272 18.0167V56.0645Z" fill="black"/>
</svg>
