<svg width="104" height="105" viewBox="0 0 104 105" fill="none" xmlns="http://www.w3.org/2000/svg">
<path d="M84.7807 89.2169C83.5662 94.401 78.5724 97.7819 73.308 96.9841L73.0561 96.946C69.5909 96.4209 66.0985 97.7094 63.8048 100.359L63.638 100.552C60.1534 104.578 54.1604 105.251 49.8698 102.098L49.6645 101.947C46.8402 99.8718 43.149 99.3898 39.8866 100.67L39.6493 100.763C34.693 102.709 29.0738 100.519 26.7398 95.7338L26.6281 95.5047C25.0918 92.3546 22.0474 90.2125 18.5636 89.8301L18.3102 89.8023C13.0176 89.2215 9.0594 84.6716 9.21677 79.3495L9.2243 79.0948C9.32788 75.5916 7.62773 72.28 4.72063 70.3224L4.50925 70.1801C0.092771 67.2061 -1.29759 61.338 1.31505 56.6986L1.4401 56.4765C3.15984 53.4227 3.19342 49.7004 1.52903 46.616L1.40801 46.3918C-1.12054 41.706 0.375438 35.8639 4.84484 32.9701L5.05875 32.8316C8.00069 30.9268 9.76029 27.6464 9.7199 24.1419L9.71697 23.8871C9.65562 18.563 13.6952 14.0852 18.9975 13.5999L19.2513 13.5767C22.7414 13.2573 25.824 11.1703 27.4168 8.04849L27.5326 7.82149C29.9525 3.07874 35.6103 0.99118 40.5308 3.02557L40.7663 3.12293C44.0051 4.46205 47.7044 4.04669 50.5656 2.02266L50.7737 1.8755C55.1205 -1.19942 61.1003 -0.418557 64.5118 3.66945L64.675 3.86511C66.9206 6.556 70.3891 7.90736 73.8632 7.44485L74.1158 7.41122C79.3937 6.70857 84.3257 10.179 85.4466 15.3841L85.5003 15.6332C86.2381 19.0594 88.6813 21.8679 91.9724 23.0729L92.2117 23.1605C97.2116 24.9911 99.9659 30.356 98.5394 35.4858L98.4712 35.7313C97.5322 39.108 98.3904 42.7302 100.745 45.3266L100.916 45.5154C104.492 49.4598 104.438 55.4902 100.791 59.3695L100.616 59.5552C98.2157 62.1087 97.2922 65.7149 98.1701 69.1079L98.234 69.3546C99.5677 74.5093 96.7171 79.8237 91.685 81.5638L91.4442 81.6471C88.1319 82.7925 85.6383 85.5565 84.8389 88.9688L84.7807 89.2169Z" fill="url(#paint0_linear_13971_9783)"/>
<path d="M96.1313 44.9604C99.9508 49.1646 99.8997 55.5985 96.0139 59.7416L95.1226 60.6919C93.9479 61.9444 93.4975 63.712 93.9293 65.3742L94.2571 66.6354C95.6857 72.1335 92.651 77.8069 87.2854 79.6692L86.0544 80.0964C84.4323 80.6595 83.2121 82.0152 82.8223 83.6877L82.5264 84.9566C81.2368 90.4889 75.9138 94.1019 70.2975 93.2569L69.009 93.063C67.3111 92.8076 65.6008 93.4408 64.4784 94.7405L63.6269 95.7267C59.9145 100.026 53.5226 100.751 48.9422 97.392L47.8915 96.6214C46.5068 95.606 44.6981 95.3718 43.1005 96.001L41.8882 96.4783C36.6036 98.5595 30.607 96.2303 28.1119 91.1272L27.5394 89.9566C26.7851 88.4138 25.2925 87.3656 23.5855 87.1801L22.2903 87.0393C16.644 86.4257 12.4165 81.5761 12.5782 75.8977L12.6155 74.5951C12.6644 72.8784 11.8295 71.2565 10.4042 70.2987L9.32282 69.5721C4.60842 66.4042 3.11868 60.1451 5.90023 55.1924L6.53832 54.0562C7.37921 52.5589 7.3937 50.7348 6.57668 49.2243L5.95671 48.0782C3.25415 43.0819 4.84308 36.8472 9.60718 33.7547L10.7 33.0452C12.1403 32.1103 13.0008 30.5018 12.9792 28.7845L12.9626 27.4815C12.8911 21.8013 17.195 17.0194 22.8503 16.4955L24.1476 16.3753C25.8573 16.2169 27.3664 15.1926 28.1451 13.662L28.7361 12.5006C31.3119 7.43774 37.3448 5.20407 42.5957 7.3689L43.8002 7.86539C45.3877 8.51984 47.1998 8.31442 48.6005 7.32112L49.6633 6.56725C54.2964 3.28161 60.676 4.10797 64.3197 8.46555L65.1555 9.46514C66.257 10.7825 67.957 11.4428 69.6588 11.2143L70.9502 11.041C76.5792 10.2853 81.8442 13.9823 83.0458 19.5344L83.3215 20.8078C83.6848 22.4863 84.8832 23.8612 86.4962 24.4499L87.7202 24.8966C93.0556 26.8439 95.9998 32.5648 94.4841 38.0395L94.1363 39.2954C93.6782 40.9504 94.1005 42.725 95.2552 43.996L96.1313 44.9604ZM91.7183 55.7111C93.503 53.8082 93.5264 50.8531 91.7722 48.9221L90.8961 47.9578C88.3819 45.1904 87.4623 41.3267 88.46 37.7231L88.8078 36.4672C89.5039 33.9527 88.1514 31.3253 85.701 30.4309L84.4772 29.9842C80.9652 28.7024 78.3557 25.7088 77.5647 22.0542L77.2891 20.7805C76.7371 18.2306 74.3191 16.5326 71.7337 16.8797L70.4426 17.0533C66.7373 17.5507 63.0357 16.1128 60.6373 13.2444L59.8015 12.2449C58.128 10.2435 55.198 9.86412 53.0701 11.3731L52.0073 12.1268C48.9576 14.2895 45.0119 14.7371 41.5555 13.3121L40.351 12.8153C37.9393 11.8211 35.1684 12.847 33.9854 15.1723L33.3947 16.3337C31.6992 19.6662 28.4134 21.8965 24.6909 22.2414L23.3933 22.3616C20.796 22.6022 18.8195 24.7984 18.8523 27.4072L18.8686 28.7102C18.9157 32.4491 17.0424 35.9512 13.9065 37.9868L12.8137 38.6963C10.6256 40.1167 9.8958 42.9801 11.137 45.2749L11.757 46.421C13.5359 49.7098 13.5044 53.6813 11.6735 56.9414L11.0354 58.0776C9.75788 60.3524 10.4421 63.227 12.6074 64.682L13.6888 65.4087C16.792 67.4939 18.6094 71.0252 18.503 74.763L18.466 76.0655C18.3917 78.6735 20.3331 80.9007 22.9264 81.1826L24.2218 81.3234C27.9384 81.7273 31.1883 84.0095 32.8307 87.3686L33.4029 88.5392C34.5489 90.8829 37.3031 91.9527 39.7303 90.9969L40.9425 90.5193C44.4211 89.1494 48.3592 89.6596 51.3742 91.8705L52.4249 92.6408C54.5286 94.1835 57.4642 93.8506 59.1693 91.8761L60.0208 90.8899C62.4644 88.06 66.1885 86.681 69.8854 87.2373L71.1736 87.4313C73.7531 87.8195 76.1978 86.16 76.7902 83.6192L77.086 82.3501C77.9349 78.7085 80.5917 75.7567 84.1236 74.5308L85.3542 74.1036C87.8186 73.2482 89.2126 70.6426 88.5565 68.1174L88.2287 66.8561C87.2884 63.2371 88.2692 59.3885 90.827 56.6614L91.7183 55.7111Z" fill="#B9F081"/>
<path d="M96.4377 44.682C100.402 49.0459 100.349 55.7243 96.3159 60.0247L95.4245 60.9751C94.347 62.1239 93.9339 63.7454 94.33 65.2701L94.6578 66.5312C96.1406 72.238 92.9907 78.1272 87.4211 80.0604L86.1902 80.4875C84.7023 81.0039 83.5832 82.2475 83.2255 83.7817L82.9295 85.0505C81.5909 90.7929 76.0657 94.5434 70.2359 93.6663L68.9474 93.4725C67.3901 93.2383 65.8213 93.8189 64.7919 95.011L63.9401 95.9972C60.0867 100.46 53.4519 101.212 48.6975 97.726L48.6972 97.7257L47.6467 96.9551C46.3766 96.0238 44.7175 95.8089 43.2521 96.386L42.04 96.8635C36.5544 99.0238 30.3297 96.606 27.7398 91.309L27.1674 90.1385C26.4755 88.7233 25.1064 87.7618 23.5407 87.5916L22.2454 87.4509C16.3845 86.8139 11.9964 81.7799 12.1643 75.8858L12.2016 74.5832C12.2464 73.0086 11.4806 71.5208 10.1733 70.6423L9.09177 69.9157C4.19825 66.6274 2.65196 60.1304 5.53916 54.9895L6.17728 53.8534C6.94856 52.48 6.96186 50.8069 6.21247 49.4214L5.59247 48.2752C2.78726 43.0891 4.4365 36.6175 9.38162 33.4074L10.4746 32.698C11.7957 31.8404 12.5853 30.3648 12.5654 28.7896L12.5651 28.7898L12.5485 27.4868C12.4743 21.5908 16.9417 16.627 22.812 16.0832L24.1094 15.9631C25.6776 15.8178 27.0617 14.8781 27.776 13.4741L28.3672 12.3128C31.0409 7.05759 37.303 4.739 42.7535 6.98612L43.9579 7.48274C45.414 8.08302 47.0763 7.89457 48.361 6.98347L49.4236 6.22965C54.2329 2.81913 60.8551 3.67685 64.6371 8.20001L65.4731 9.19962C66.4835 10.4079 68.0429 11.0136 69.6037 10.8041L70.8951 10.6305C76.7382 9.8461 82.2031 13.6839 83.4503 19.4468L83.7262 20.7201C84.0594 22.2598 85.1587 23.521 86.6382 24.061L87.8621 24.5077L88.1198 24.6054C93.4946 26.7146 96.4318 32.5562 94.8831 38.15L94.5354 39.4057C94.1151 40.9239 94.5024 42.5517 95.5615 43.7176L96.4377 44.682ZM95.712 59.4582C99.45 55.4726 99.4992 49.2833 95.8249 45.2388L94.9488 44.2745C93.6985 42.8983 93.2413 40.9768 93.7374 39.1848L94.0851 37.9289C95.5432 32.6622 92.7108 27.1587 87.5783 25.2854L86.3541 24.8388C84.6077 24.2013 83.31 22.7127 82.9167 20.8954L82.6411 19.6221C81.4852 14.2809 76.4203 10.7244 71.0053 11.4513L69.7139 11.6246C67.8714 11.872 66.0306 11.157 64.8379 9.73069L64.0019 8.73108C60.4968 4.53922 54.3599 3.74409 49.9029 6.90461L48.84 7.65869C47.3234 8.73419 45.3612 8.95674 43.6424 8.24815L42.438 7.75153C37.3867 5.6691 31.5829 7.81778 29.1049 12.6882L28.514 13.8498C27.6709 15.507 26.0369 16.6162 24.1856 16.7876L22.8885 16.9078L22.6343 16.9344C17.3197 17.5557 13.3089 22.0973 13.3766 27.4764L13.393 28.7792L13.3924 28.9533C13.3575 30.7467 12.4361 32.4117 10.9254 33.3924L9.83244 34.1018C5.24941 37.0768 3.72103 43.0748 6.32092 47.8813L6.94066 49.0274C7.82524 50.6628 7.80956 52.6377 6.89912 54.2588L6.26127 55.395C3.58539 60.1596 5.01835 66.1811 9.55356 69.2285L10.6351 69.9552C12.13 70.9597 13.025 72.6391 13.0313 74.4329L13.0291 74.607L12.9921 75.9096C12.8366 81.3722 16.9033 86.0374 22.3349 86.6276L23.63 86.7684C25.4783 86.9692 27.0945 88.1042 27.9112 89.7746L28.4836 90.9454C30.8839 95.8545 36.6527 98.0951 41.7364 96.0931L42.9488 95.6157C44.6786 94.9345 46.637 95.1882 48.1364 96.2876L49.1871 97.0582C53.5245 100.239 59.5505 99.6127 63.1442 95.6475L63.3134 95.4561L64.1652 94.4699C65.3804 93.0626 67.2322 92.377 69.0706 92.6536L70.3591 92.8474C75.7619 93.6602 80.8826 90.1846 82.1232 84.8624L82.4189 83.5936C82.8411 81.7828 84.1622 80.315 85.9185 79.7053L87.1497 79.2782C92.3113 77.4866 95.2306 72.0288 93.8564 66.7396L93.5287 65.4783C93.0611 63.6787 93.5487 61.7647 94.8207 60.4086L95.712 59.4582ZM92.0785 48.6438C93.9779 50.7345 93.9525 53.9339 92.0202 55.9942L91.1288 56.9445C88.6682 59.568 87.7248 63.2705 88.6294 66.752L88.9571 68.0131C89.6674 70.7471 88.1583 73.5685 85.4901 74.4947L84.2592 74.9218C80.8616 76.1011 78.3057 78.9408 77.4891 82.444L77.1933 83.7131C76.5519 86.464 73.9051 88.2609 71.1121 87.8407L69.8236 87.6467C66.2673 87.1117 62.6848 88.4382 60.3341 91.1605L59.4826 92.1467L59.395 92.2455C57.5373 94.2953 54.4224 94.6188 52.1801 92.9747L51.1294 92.2044C48.229 90.0776 44.4406 89.5867 41.0943 90.9045L39.8819 91.382C37.2538 92.4169 34.2717 91.2585 33.0309 88.7209L32.4588 87.5503C30.8788 84.3189 27.7523 82.1236 24.177 81.735L22.8816 81.5943C20.0738 81.2891 17.9717 78.8772 18.0521 76.0536L18.0891 74.7512C18.1915 71.1555 16.4432 67.7582 13.4579 65.7523L12.3764 65.0256C10.032 63.4503 9.29125 60.3376 10.6744 57.8747L11.3125 56.7386C13.0738 53.6024 13.1042 49.7818 11.3929 46.6181L10.7729 45.4719C9.429 42.9874 10.219 39.8869 12.5882 38.3489L13.6809 37.6396C16.6976 35.6813 18.4999 32.3122 18.4546 28.7153L18.4383 27.4125C18.4027 24.5879 20.5428 22.21 23.3552 21.9494L24.6526 21.829C28.2336 21.4973 31.3946 19.3519 33.0257 16.146L33.6163 14.9846C34.8972 12.467 37.8974 11.3561 40.5087 12.4327L41.7134 12.9293C45.0383 14.3 48.834 13.8694 51.7678 11.7889L52.8307 11.0353C55.1347 9.40154 58.3071 9.8123 60.1191 11.9792L60.9548 12.9788C63.262 15.7381 66.8229 17.1214 70.3873 16.6429L71.6784 16.4693C74.4777 16.0935 77.096 17.9322 77.6936 20.693L77.9692 21.9666C78.7301 25.4823 81.2406 28.3622 84.6191 29.5953L85.843 30.042C88.4962 31.0104 89.9603 33.8551 89.2067 36.5775L88.859 37.8335C87.8992 41.3002 88.7838 45.0172 91.2024 47.6794L92.0785 48.6438ZM91.4163 55.4279C93.0534 53.6825 93.0749 50.9716 91.4658 49.2004L90.5899 48.236L90.5896 48.2363C88.0207 45.4087 87.0556 41.4782 88.0138 37.7882L88.061 37.6126L88.4087 36.3566C89.0472 34.0502 87.8066 31.6401 85.5589 30.8197L84.3353 30.3731C80.6898 29.0426 77.981 25.9353 77.16 22.1418L76.8844 20.868C76.3781 18.529 74.1601 16.9718 71.7889 17.2901L70.4978 17.4637C66.6517 17.98 62.8091 16.4872 60.3196 13.5099L59.4838 12.5105C57.9488 10.6748 55.2612 10.3267 53.3094 11.7108L52.2468 12.4644C49.0812 14.7093 44.9854 15.1741 41.3976 13.6949L40.1932 13.1981C37.9811 12.2861 35.4394 13.2271 34.3543 15.36L33.7636 16.5214C32.0037 19.9805 28.5931 22.2956 24.7291 22.6536L23.4314 22.7738C21.0491 22.9946 19.236 25.0091 19.2661 27.4021L19.2824 28.7049C19.3313 32.5858 17.387 36.221 14.1319 38.334L13.039 39.0436C11.032 40.3465 10.3625 42.9731 11.5011 45.078L12.1211 46.2241C13.9675 49.6378 13.9348 53.7601 12.0344 57.144L11.3963 58.2802C10.2244 60.3668 10.8521 63.0036 12.8382 64.3382L13.9197 65.0651C17.1408 67.2296 19.0272 70.8951 18.9167 74.7748L18.8797 76.0774C18.8116 78.4696 20.5925 80.5124 22.9709 80.771L24.2666 80.9118C28.1244 81.3311 31.4978 83.7 33.2026 87.1867L33.7747 88.3572C34.8259 90.5071 37.3523 91.4884 39.5786 90.6117L40.7907 90.1342C44.4015 88.7122 48.4895 89.2417 51.6191 91.5366L52.6695 92.3069C54.5992 93.7219 57.2919 93.4165 58.8559 91.6054L59.7074 90.6194C62.2439 87.682 66.1096 86.2504 69.9471 86.8277L71.2353 87.0221C73.6011 87.378 75.8435 85.8559 76.3869 83.5253L76.6827 82.2559C77.5639 78.476 80.3217 75.4121 83.9878 74.1396L85.2184 73.7125C87.4788 72.9279 88.7575 70.5379 88.1557 68.2216L87.828 66.9602C86.852 63.2038 87.87 59.209 90.525 56.3783L91.4163 55.4279Z" fill="black"/>
<path d="M55.828 22.0724C56.4638 22.0457 57.0649 22.1388 57.6312 22.3518C58.2239 22.5637 58.7411 22.8709 59.1826 23.2734C59.6242 23.6758 59.9757 24.1479 60.2374 24.6895C60.5001 25.2573 60.6447 25.8565 60.6712 26.4869C60.6977 27.1173 60.6034 27.7134 60.3881 28.275C60.174 28.8629 59.8638 29.3759 59.4576 29.814C59.0514 30.2521 58.5619 30.6017 57.989 30.8626C57.4426 31.1224 56.8515 31.2656 56.2157 31.2924C55.5799 31.3191 54.9656 31.2265 54.3728 31.0146C53.8066 30.8016 53.3027 30.4939 52.8611 30.0914C52.4196 29.6889 52.0674 29.2038 51.8047 28.6359C51.5431 28.0943 51.399 27.5083 51.3725 26.8779C51.346 26.2474 51.4398 25.6383 51.654 25.0504C51.8692 24.4887 52.1799 23.9888 52.5861 23.5507C52.9923 23.1126 53.4686 22.7637 54.015 22.5039C54.5879 22.243 55.1922 22.0991 55.828 22.0724ZM42.4363 22.6355C43.0721 22.6087 43.6732 22.7019 44.2394 22.9149C44.8322 23.1268 45.3494 23.434 45.7909 23.8364C46.2324 24.2389 46.584 24.7109 46.8456 25.2525C47.1084 25.8204 47.253 26.4195 47.2795 27.05C47.306 27.6804 47.2116 28.2764 46.9964 28.8381C46.7823 29.426 46.4721 29.939 46.0659 30.3771C45.6597 30.8152 45.1702 31.1647 44.5973 31.4256C44.0509 31.6854 43.4598 31.8287 42.824 31.8554C42.1882 31.8822 41.5739 31.7896 40.9811 31.5777C40.4148 31.3647 39.9109 31.0569 39.4694 30.6545C39.0279 30.252 38.6757 29.7668 38.413 29.199C38.1514 28.6574 38.0073 28.0714 37.9808 27.4409C37.9543 26.8105 38.0481 26.2013 38.2622 25.6134C38.4775 25.0518 38.7882 24.5519 39.1944 24.1138C39.6006 23.6757 40.0769 23.3267 40.6233 23.0669C41.1962 22.806 41.8005 22.6622 42.4363 22.6355Z" fill="black"/>
<path d="M33.5417 36.4235C38.9141 39.2237 45.1767 40.4735 52.3296 40.1727C54.0251 40.1014 55.7553 39.9103 57.5204 39.5992C59.313 39.3134 61.035 38.9252 62.6863 38.4347C64.3387 37.9705 65.8686 37.4326 67.276 36.8208C68.6834 36.209 69.8898 35.5531 70.8954 34.8529L73.5398 39.0441C70.9149 40.9965 67.7949 42.5355 64.1799 43.6611C60.5925 44.8118 56.6132 45.4791 52.242 45.6629C50.3345 45.7431 48.4216 45.692 46.5031 45.5095C44.5858 45.3533 42.7291 45.063 40.9331 44.6385C39.1383 44.2403 37.418 43.7206 35.7721 43.0793C34.1263 42.438 32.6218 41.6855 31.2585 40.8219L33.5417 36.4235Z" fill="black"/>
<defs>
<linearGradient id="paint0_linear_13971_9783" x1="97.6175" y1="20.58" x2="4.81356" y2="83.4099" gradientUnits="userSpaceOnUse">
<stop stop-color="#F8C094"/>
<stop offset="0.649038" stop-color="#FFA941"/>
<stop offset="1" stop-color="#B5CBBD"/>
</linearGradient>
</defs>
</svg>
