<svg width="74" height="66" viewBox="0 0 74 66" fill="none" xmlns="http://www.w3.org/2000/svg">
<path d="M70.1503 32.9818C70.1503 41.0631 66.8183 48.38 61.4334 53.6746C56.0486 58.9691 48.6069 62.2453 40.3877 62.2453L38.7994 62.2817C33.6034 62.2817 28.7203 60.9735 24.4676 58.6754C22.4348 57.5769 19.9494 57.5582 17.8772 58.5827C9.53213 62.7086 5.09996 58.9286 5.09996 58.9286C5.09996 58.9286 9.00797 56.3077 9.00797 32.998C9.00797 16.8272 22.3405 3.71831 38.7912 3.71831H40.3877C56.8261 3.71831 70.1503 16.8191 70.1503 32.9818Z" fill="#FF4800"/>
<path d="M70.1503 32.9818C70.1503 16.8191 56.8261 3.71831 40.3877 3.71831L40.3877 0C58.8986 0 73.9214 14.7557 73.9214 32.9818C73.9214 42.0923 70.1604 50.345 64.0963 56.3075C58.0443 62.258 49.6769 65.9487 40.4428 65.9633L38.887 65.9989L38.8432 66H38.7994C32.9538 66 27.4491 64.5267 22.6552 61.9362C21.7373 61.4402 20.5621 61.4148 19.5674 61.9066C14.6925 64.3168 10.643 64.5523 7.61116 63.9473C6.12857 63.6515 4.96526 63.1696 4.13474 62.7285C3.71997 62.5082 3.38751 62.2978 3.13802 62.1248C3.01318 62.0383 2.90868 61.9609 2.82463 61.8959C2.78259 61.8634 2.74552 61.834 2.7136 61.808C2.69766 61.795 2.68302 61.7829 2.66959 61.7717C2.66287 61.7661 2.65635 61.7607 2.65026 61.7555C2.64724 61.753 2.64428 61.7505 2.64142 61.7481C2.63999 61.7469 2.63793 61.7451 2.63718 61.7445C2.63614 61.7436 2.63504 61.7427 2.94266 61.3904L5.09996 58.9286L2.63295 61.7408L0.579908 59.99C-0.252756 59.2799 -0.177178 57.971 0.731687 57.3614L2.52321 56.1599C2.69797 55.8419 3.03531 55.1162 3.4133 53.7354C4.26901 50.6095 5.23695 44.4904 5.23695 32.998C5.23695 14.7635 20.2682 4.12768e-05 38.7911 0L38.7912 3.71831C22.3405 3.71831 9.00797 16.8272 9.00797 32.998L9.00725 33.5405C8.94714 56.3484 5.09996 58.9286 5.09996 58.9286C5.11159 58.9385 9.47409 62.6444 17.6823 58.6779L17.8772 58.5827C19.9494 57.5582 22.4348 57.5769 24.4676 58.6754C28.6538 60.9376 33.451 62.2406 38.5561 62.2808L38.7994 62.2817L40.3877 62.2453C48.4785 62.2453 55.8159 59.0707 61.1796 53.9213L61.4334 53.6746C66.7341 48.4627 70.0458 41.2913 70.148 33.36L70.1503 32.9818ZM40.3877 0L40.3877 3.71831H38.7912L38.7911 0H40.3877Z" fill="#FF4800"/>
<path d="M66.3793 32.9818C66.3793 18.8827 54.7534 7.43662 40.3877 7.43662H38.7911C24.4127 7.43666 12.779 18.8911 12.779 32.998C12.779 44.8151 11.7929 51.6613 10.6946 55.6733C10.5862 56.0693 10.4756 56.441 10.3638 56.7901C11.7162 56.8167 13.6491 56.5136 16.187 55.2588C19.3366 53.7016 23.1322 53.7136 26.28 55.4146C29.9822 57.4152 34.2318 58.5575 38.7653 58.5632L40.3 58.528L40.3439 58.5271H40.3877C47.5701 58.5271 54.0651 55.6684 58.7708 51.0416C63.4762 46.4151 66.3793 40.0339 66.3793 32.9818ZM70.148 33.36C70.0458 41.2913 66.7341 48.4627 61.4334 53.6746L61.1796 53.9213C55.8159 59.0707 48.4785 62.2453 40.3877 62.2453L38.7994 62.2817L38.5561 62.2808C33.5321 62.2413 28.8062 60.9786 24.6674 58.7823L24.4676 58.6754C22.4348 57.5769 19.9494 57.5582 17.8772 58.5827L17.6823 58.6779C9.47409 62.6444 5.11159 58.9385 5.09996 58.9286C5.09996 58.9286 8.94714 56.3484 9.00725 33.5405L9.00797 32.998C9.00797 16.8272 22.3405 3.71831 38.7912 3.71831H40.3877C56.8261 3.71831 70.1503 16.8191 70.1503 32.9818L70.148 33.36Z" fill="#FFB3EB"/>
<path d="M40.3877 3.16056C57.1369 3.16056 70.716 16.5097 70.716 32.9818V32.9853L70.7136 33.3635V33.3671C70.6095 41.4501 67.2338 48.7591 61.8329 54.0695L61.8318 54.0707L61.8305 54.0718L61.5766 54.3186L61.5755 54.3198L61.5742 54.3209C56.1106 59.5663 48.6357 62.8011 40.3947 62.8029L38.8124 62.8393L38.8049 62.8394H38.7972L38.5539 62.8385H38.5517C33.4333 62.7983 28.6171 61.5116 24.3993 59.2735L24.3974 59.2725L24.1976 59.1656L24.1958 59.1645C22.3303 58.1564 20.0414 58.1366 18.1308 59.0812L18.1285 59.0823L17.9335 59.1776L17.9312 59.1789C13.7214 61.2132 10.4512 61.2991 8.20278 60.8407C5.96423 60.3842 4.78585 59.398 4.7304 59.3508L4.71865 59.3408C4.44458 59.1077 4.46915 58.6772 4.76797 58.4768C4.76843 58.4764 4.76892 58.476 4.76944 58.4755C4.78061 58.4658 4.80652 58.442 4.8453 58.3996C4.92295 58.3148 5.05205 58.1551 5.21615 57.8836C5.54511 57.3394 6.01039 56.3536 6.48537 54.6405C7.43625 51.2109 8.41161 44.9185 8.4416 33.539L8.44233 32.9973C8.44273 16.5173 22.0298 3.1606 38.7911 3.16056L38.7912 3.71831C22.3405 3.71831 9.00797 16.8272 9.00797 32.998L9.00725 33.5405C8.94714 56.3484 5.09996 58.9286 5.09996 58.9286C5.11159 58.9385 9.47409 62.6444 17.6823 58.6779L17.8772 58.5827C19.9494 57.5582 22.4348 57.5769 24.4676 58.6754L24.6674 58.7823C28.8062 60.9786 33.5321 62.2413 38.5561 62.2808L38.7994 62.2817L40.3877 62.2453C48.4785 62.2453 55.8159 59.0707 61.1796 53.9213L61.4334 53.6746C66.7341 48.4627 70.0458 41.2913 70.148 33.36L70.1503 32.9818C70.1503 16.8191 56.8261 3.71831 40.3877 3.71831L40.3877 3.16056ZM65.8137 32.9818C65.8137 19.1921 54.4425 7.99437 40.3877 7.99437H38.7911C24.7236 7.99441 13.3447 19.2006 13.3447 32.998C13.3447 44.8395 12.3573 51.7403 11.2408 55.8188C11.2043 55.9521 11.1671 56.0828 11.1301 56.2109C12.3288 56.1219 13.9244 55.7536 15.9334 54.7603C19.2445 53.1232 23.2366 53.1341 26.5518 54.9255C30.1716 56.8816 34.3266 57.9989 38.7611 58.0053L40.287 57.9704H40.2881L40.3319 57.9695L40.338 57.9693H40.3877V58.5271H40.3439L40.3 58.528L38.7653 58.5632C34.2318 58.5575 29.9822 57.4152 26.28 55.4146C23.1322 53.7136 19.3366 53.7016 16.187 55.2588C13.6491 56.5136 11.7162 56.8167 10.3638 56.7901C10.4756 56.441 10.5862 56.0693 10.6946 55.6733C11.7929 51.6613 12.779 44.8151 12.779 32.998C12.779 18.8911 24.4127 7.43666 38.7911 7.43662H40.3877C54.7534 7.43662 66.3793 18.8827 66.3793 32.9818C66.3793 40.0339 63.4762 46.4151 58.7708 51.0416C54.0651 55.6684 47.5701 58.5271 40.3877 58.5271V57.9693C47.4146 57.9693 53.7676 55.1733 58.3714 50.6467C62.9749 46.1204 65.8136 39.8796 65.8137 32.9818ZM40.3877 3.16056L40.3877 3.71831H38.7912L38.7911 3.16056H40.3877Z" fill="black"/>
<path d="M33.5242 33.1859C33.5242 34.8801 32.1313 36.2535 30.413 36.2535C28.6948 36.2535 27.3019 34.8801 27.3019 33.1859C27.3019 31.4917 28.6948 30.1183 30.413 30.1183C32.1313 30.1183 33.5242 31.4917 33.5242 33.1859Z" fill="black"/>
<path d="M42.1975 33.1859C42.1975 34.8801 40.8046 36.2535 39.0864 36.2535C37.3682 36.2535 35.9753 34.8801 35.9753 33.1859C35.9753 31.4917 37.3682 30.1183 39.0864 30.1183C40.8046 30.1183 42.1975 31.4917 42.1975 33.1859Z" fill="black"/>
<path d="M50.8709 33.1859C50.8709 34.8801 49.478 36.2535 47.7598 36.2535C46.0416 36.2535 44.6487 34.8801 44.6487 33.1859C44.6487 31.4917 46.0416 30.1183 47.7598 30.1183C49.478 30.1183 50.8709 31.4917 50.8709 33.1859Z" fill="black"/>
</svg>
