<svg width="609" height="158" viewBox="0 0 609 158" fill="none" xmlns="http://www.w3.org/2000/svg">
<path fill-rule="evenodd" clip-rule="evenodd" d="M69.8909 0.543382C73.2314 0.0732937 77.1679 -0.213685 81.1682 0.197679C84.4442 0.53463 90.9856 1.63561 96.6633 6.61272L97.2102 7.10588L97.676 7.55022C106.164 15.8264 105.901 26.2059 104.909 31.9252C105.969 31.8302 107.054 31.7446 108.157 31.6684C108.517 30.672 108.843 29.7355 109.132 28.8451C112.71 17.8129 124.554 11.77 135.586 15.3481C143.423 17.8896 148.739 24.6016 149.881 32.2309C161.422 33.3714 169.853 43.6509 168.714 55.1918C168.433 58.0367 167.595 60.6916 166.322 63.0619C168.956 62.0551 171.726 60.9399 174.635 59.7104C174.778 57.4207 175.3 55.1157 176.24 52.8813C177.199 50.5982 178.186 48.6313 179.896 46.1557C186.485 36.6118 199.565 34.2165 209.109 40.8061C217.983 46.9339 220.673 58.6715 215.708 67.9613C219.4 67.0947 223.687 65.8746 228.627 64.2553C226.645 61.6258 225.253 58.4912 224.685 55.016C222.814 43.5703 230.575 32.7743 242.021 30.9028C245.241 30.3763 248.933 29.9881 252.874 29.7162C253.052 29.1766 253.189 28.7289 253.286 28.3617C256.26 17.1514 267.758 10.4743 278.968 13.4477C287.184 15.6268 292.964 22.3841 294.296 30.2514C294.391 30.2605 294.485 30.2695 294.578 30.2787C306.12 31.4179 314.553 41.6978 313.414 53.2397C313.132 56.1 312.287 58.7688 311.002 61.1488C315.041 59.5294 319.562 57.5528 325.12 55.0805C325.258 54.9765 325.395 54.8727 325.533 54.7719C327.823 53.0912 332.933 49.672 339.557 48.936L340.261 48.8666C347.552 48.2377 355.173 50.388 361.022 56.0737C364.138 59.1029 366.09 62.4952 367.307 65.6459C373.632 64.0687 381.383 61.6694 390.802 58.1342C393.793 44.6357 398.145 28.1337 403.393 16.3881C408.124 5.79938 420.544 1.0507 431.133 5.78166C441.722 10.5131 446.47 22.9321 441.739 33.5209C439.725 38.0267 437.67 44.3128 435.743 51.2875C436.121 51.5097 436.494 51.7433 436.863 51.9877C440.746 54.5645 443.17 57.7534 444.629 60.1576C445.849 62.1675 446.762 64.2922 447.426 66.1098C449.433 65.7528 451.726 65.2775 454.271 64.6655C462.205 62.7571 471.298 59.8681 479.774 56.5141C484.174 48.2799 493.722 43.7209 503.22 46.0131C505.752 46.6243 508.065 47.6723 510.099 49.0551C510.458 48.8648 510.836 48.6755 511.234 48.4936C513.505 47.455 517.399 46.162 522.284 46.6625L522.761 46.7162L523.219 46.7787C532.759 48.1694 537.281 55.0848 538.555 57.3608C539.232 58.5695 539.717 59.7197 540.065 60.7045C551.245 57.6397 560.544 55.4484 567.696 53.9203C572.912 52.8057 576.988 52.043 579.819 51.5512C581.234 51.3053 582.339 51.1273 583.119 51.0063C583.51 50.9458 583.82 50.8997 584.047 50.8666C584.16 50.8501 584.254 50.8367 584.325 50.8266C584.361 50.8216 584.392 50.8174 584.417 50.8139C584.43 50.8121 584.442 50.8104 584.452 50.809L584.473 50.8061C584.478 50.8232 584.56 51.4017 587.167 70.4555L584.479 50.8051C595.97 49.2327 606.56 57.2732 608.132 68.7641C609.703 80.2478 601.673 90.8312 590.194 92.4135C590.196 92.4132 590.199 92.4135 590.199 92.4135C590.187 92.4153 590.155 92.42 590.106 92.4272C590.001 92.4424 589.815 92.4701 589.55 92.5112C589.018 92.5935 588.167 92.7308 587.008 92.9321C584.69 93.3347 581.144 93.9953 576.472 94.9936C567.126 96.9905 553.279 100.337 535.74 105.675C535.421 105.773 535.103 105.87 534.789 105.967C534.415 107.342 534.027 108.723 533.62 110.101C530.802 119.642 526.71 130.798 520.835 139.563C515.777 147.109 502.929 161.71 483.231 156.024C471.228 152.559 464.04 143.521 461.404 133.728C459.09 125.132 460.312 116.632 462.191 110.282C462.667 108.671 463.232 107.094 463.89 105.549C457.335 107.118 450.73 108.326 444.866 108.759C441.926 108.977 438.606 109.045 435.287 108.668C432.59 108.362 427.704 107.547 422.936 104.524C422.891 104.578 422.846 104.633 422.8 104.687C422.269 105.306 420.924 106.826 418.856 108.295C417.536 109.233 411.276 113.577 402.447 111.811C395.348 110.391 391.26 106.021 389.231 103.087C377.318 106.791 367.259 108.94 358.714 109.831C344.497 111.315 331.729 109.581 322.086 102.569C321.882 102.42 321.681 102.268 321.481 102.115C319.969 102.672 318.465 103.204 316.96 103.705C297.525 110.181 281.881 112.428 269.211 109.929C261.36 108.38 255.276 105.141 250.675 101.067C239.913 104.964 230.463 107.799 222.271 109.529C210.978 111.913 197.729 113.227 186.588 107.935C183.677 106.552 181.242 104.903 179.209 103.088C169.09 106.855 159.718 109.603 151.154 111.162C137.566 113.635 122.729 113.726 110.208 106.442C106.72 104.412 103.996 101.948 101.881 99.2768C93.2322 99.701 84.3615 100.765 75.9378 102.251C74.5143 104.523 72.9571 106.545 71.4104 108.297C66.1629 114.242 59.6022 118.83 53.2405 122.021C46.9628 125.17 39.5086 127.644 31.9817 128.115C25.3863 128.527 12.6595 127.579 4.56276 116.347C1.57567 112.203 -0.275158 106.906 0.0334634 101.057C0.322586 95.5793 2.41186 91.2853 4.3196 88.435C7.83354 83.185 12.7656 79.7821 16.0715 77.7787C18.4347 76.3467 21.0651 74.9902 23.885 73.7104C22.0515 72.125 20.2188 70.3627 18.5911 68.4545C13.2796 62.2276 7.9622 51.8035 11.8645 38.9252L12.0149 38.4428C15.2421 28.3704 22.9624 21.481 28.4768 17.433C34.7403 12.8352 42.0241 9.12187 48.8792 6.38323C55.7208 3.64998 63.1163 1.49678 69.8909 0.543382ZM211.322 80.268L211.321 80.2729C211.326 80.2594 211.333 80.2465 211.338 80.2338C211.351 80.2024 211.364 80.1728 211.375 80.1459L211.376 80.143V80.1371C211.358 80.1807 211.34 80.2243 211.322 80.268ZM79.7141 54.0873V54.0854C77.82 52.4747 75.5287 50.5269 72.7581 48.1703L79.7141 54.0873Z" fill="#D3FF6B"/>
<path fill-rule="evenodd" clip-rule="evenodd" d="M72.5337 19.3291C74.9926 18.9831 77.2812 18.8684 79.2261 19.0684C81.1112 19.2622 82.9834 19.7825 84.2818 20.9912C86.7367 23.277 86.7435 26.6108 86.0454 29.5293C85.3305 32.5179 83.7373 35.7463 82.0249 38.6387C80.2963 41.5584 78.3675 44.2658 76.8794 46.2344C76.1333 47.2214 75.4927 48.0282 75.0376 48.5908C74.81 48.8722 74.6283 49.0927 74.5025 49.2442C74.4396 49.3199 74.3908 49.3787 74.357 49.419C74.34 49.4391 74.3271 49.4549 74.3179 49.4658C74.3134 49.4712 74.3098 49.4755 74.3071 49.4785C74.3059 49.48 74.305 49.4815 74.3042 49.4824L74.3023 49.4834C74.2966 49.4792 74.2082 49.404 72.7573 48.1699L74.3023 49.4834C73.5764 50.3368 72.2963 50.4407 71.4429 49.7149C70.5896 48.989 70.4856 47.7088 71.2114 46.8555L71.2134 46.8545C71.2148 46.8528 71.2169 46.8497 71.2202 46.8457C71.227 46.8377 71.238 46.8248 71.2525 46.8076C71.2813 46.7734 71.325 46.7213 71.3823 46.6524C71.4976 46.5137 71.6678 46.3065 71.8833 46.0401C72.3148 45.5065 72.9277 44.7345 73.6431 43.7881C75.0779 41.89 76.9097 39.3144 78.5337 36.5713C80.1739 33.8009 81.5251 30.9855 82.0991 28.586C82.6899 26.1164 82.3301 24.7169 81.5171 23.96C81.1812 23.6474 80.376 23.2654 78.8111 23.1045C77.3057 22.9498 75.3695 23.0272 73.0991 23.3467C68.5671 23.9845 62.9867 25.5456 57.4224 27.7686C51.8592 29.9911 46.4065 32.8371 42.103 35.9961C37.7359 39.2019 34.8362 42.5228 33.9029 45.6026C33.044 48.4367 33.8897 50.9059 36.1109 53.5098C38.4057 56.2 41.9225 58.7294 45.8628 61.499C49.6996 64.1959 53.9065 67.1017 57.1245 70.416C60.0794 73.4594 62.3949 77.0424 62.7818 81.3721C78.6979 77.9244 96.9967 75.6969 113.866 76.0908C114.111 72.5373 114.963 68.6549 116.095 64.7305C117.087 61.2908 118.322 57.7335 119.621 54.2266C112.617 54.3595 105.946 54.7795 101.037 55.5821C99.9312 55.7627 98.8885 55.0126 98.7075 53.9072C98.5268 52.8016 99.2767 51.7589 100.382 51.5781C105.884 50.6787 113.408 50.2439 121.162 50.1445C121.334 49.6969 121.506 49.251 121.677 48.8076C123.698 43.5794 125.637 38.7196 126.964 34.627C127.349 33.4432 128.619 32.7948 129.803 33.1787C130.987 33.5629 131.635 34.8338 131.251 36.0176C129.902 40.1791 127.948 45.0922 126.001 50.124C134.199 50.1601 142.239 50.5402 148.015 51.1104C149.13 51.2206 149.945 52.2134 149.834 53.3281C149.724 54.4429 148.731 55.2573 147.617 55.1475C141.559 54.5496 132.998 54.1715 124.449 54.1797C122.95 58.1579 121.528 62.1615 120.426 65.9805C118.968 71.0358 118.131 75.5744 118.332 79.1904C118.529 82.7547 119.694 85.0562 121.902 86.3408C127.378 89.5265 135.562 90.3624 146.989 88.2822C158.163 86.248 172.111 81.4841 189.005 73.8887C189.046 73.7429 189.086 73.6022 189.126 73.4668C189.325 72.786 189.518 72.2273 189.664 71.833C189.736 71.6356 189.798 71.4776 189.842 71.3662C189.864 71.3109 189.883 71.2667 189.896 71.2344C189.903 71.2182 189.908 71.2045 189.913 71.1944C189.915 71.1894 189.917 71.1851 189.918 71.1817C189.919 71.18 189.92 71.1781 189.92 71.1768L189.921 71.1738C190.412 70.0297 191.737 69.4998 192.881 69.9903C194.024 70.4804 194.554 71.8031 194.066 72.9463L194.065 72.9473V72.9492C194.064 72.9519 194.062 72.9564 194.06 72.9619C194.054 72.9776 194.042 73.0045 194.027 73.042C193.997 73.1176 193.951 73.2358 193.893 73.3916C193.778 73.7043 193.618 74.1654 193.452 74.7344C193.115 75.883 192.764 77.4207 192.665 79.0449C192.464 82.3336 193.274 85.3661 196.566 86.9297C200.33 88.7173 206.948 88.9965 217.467 86.7754C227.624 84.6308 241.004 80.2481 258.162 73.25C258.271 72.3505 258.419 71.4376 258.597 70.5244C259.395 66.431 260.871 61.7811 262.531 57.1572C263.115 55.5308 263.726 53.8941 264.344 52.2744C257.332 52.4068 250.651 52.8265 245.737 53.6299C244.631 53.8105 243.589 53.0605 243.408 51.9551C243.227 50.8496 243.977 49.8067 245.083 49.626C250.6 48.7241 258.15 48.2902 265.926 48.1924C266.538 46.6278 267.136 45.1013 267.705 43.6406C269.352 39.4116 270.711 35.7839 271.405 33.167C271.724 31.964 272.959 31.2475 274.162 31.5664C275.365 31.8856 276.081 33.1201 275.762 34.3233C274.992 37.2284 273.533 41.096 271.905 45.2764C271.536 46.2245 271.157 47.1921 270.772 48.1738C278.946 48.2118 286.956 48.5897 292.715 49.1582C293.83 49.2684 294.644 50.2614 294.535 51.376C294.425 52.4908 293.432 53.3052 292.317 53.1953C286.269 52.5985 277.727 52.2206 269.191 52.2276C268.367 54.3606 267.547 56.5272 266.774 58.6797C265.137 63.24 263.753 67.6341 263.022 71.3867C262.266 75.2677 262.317 77.9603 263.007 79.4561C264.396 82.4646 267.1 85.8101 273.71 87.1143C280.531 88.4598 291.597 87.6449 309.609 81.6436C317.106 79.1455 324.828 75.7363 335.013 71.1944C335.544 70.718 336.086 70.2789 336.623 69.8848C338.179 68.7426 340.01 67.747 341.626 67.5674C344.242 67.2768 346.401 68.0057 347.955 69.5156C349.433 70.9527 350.143 72.8812 350.415 74.6485C350.604 75.8787 349.76 77.0294 348.53 77.2188C347.3 77.408 346.149 76.5643 345.96 75.334C345.781 74.1717 345.362 73.283 344.812 72.7481C344.337 72.2862 343.565 71.8869 342.125 72.0469C341.712 72.0928 340.669 72.5068 339.289 73.5196C337.99 74.4728 336.668 75.7561 335.683 77.1416C334.678 78.5557 334.165 79.8765 334.145 80.9424C334.128 81.853 334.457 82.8114 335.763 83.7617C338.808 85.9762 344.825 87.8996 356.299 86.7022C367.564 85.5266 383.814 81.3672 407.079 71.8877C407.48 69.8392 407.917 67.6913 408.388 65.4785C411.35 51.5728 415.671 34.8615 420.508 24.0352C421.016 22.8989 422.349 22.3897 423.486 22.8975C424.622 23.4054 425.131 24.7387 424.624 25.875C419.995 36.2353 415.752 52.5438 412.797 66.417C411.662 71.748 410.725 76.6851 410.034 80.7383C410.351 80.1695 410.677 79.5942 411.009 79.0196C412.647 76.1864 414.507 73.2383 416.408 70.9746C417.357 69.8438 418.378 68.8094 419.448 68.042C420.498 67.2893 421.793 66.6524 423.244 66.6524C425.845 66.6524 427.535 68.124 428.604 69.8848C429.591 71.5101 430.206 73.6227 430.738 75.5059C431.305 77.5124 431.816 79.4174 432.565 81.1201C433.306 82.803 434.187 84.0598 435.342 84.8565C435.697 85.101 436.482 85.4014 437.91 85.5635C439.287 85.7198 441.048 85.725 443.153 85.5694C447.359 85.2584 452.703 84.324 458.655 82.8926C470.179 80.121 483.736 75.5448 495.274 70.3008C495.336 69.8862 495.399 69.4924 495.461 69.124C495.624 68.1662 495.783 67.3684 495.901 66.8067C495.96 66.5256 496.009 66.3029 496.044 66.1485C496.062 66.0713 496.076 66.0109 496.085 65.9688C496.09 65.9477 496.094 65.9308 496.097 65.919C496.099 65.9134 496.099 65.9088 496.1 65.9053C496.101 65.9035 496.102 65.9016 496.102 65.9004C496.108 65.9013 496.221 65.9266 498.293 66.4268L496.102 65.8975C496.394 64.6878 497.612 63.9436 498.822 64.2354C500.031 64.5276 500.776 65.7453 500.484 66.9551C500.484 66.9564 500.484 66.9598 500.483 66.9629C500.481 66.9699 500.478 66.9813 500.474 66.9971C500.467 67.0292 500.455 67.0792 500.44 67.1455C500.41 67.2786 500.366 67.479 500.312 67.7354C500.204 68.2486 500.057 68.9875 499.906 69.8779C499.602 71.6692 499.289 74.0288 499.222 76.3789C499.154 78.778 499.354 80.9418 499.927 82.4619C500.464 83.8864 501.151 84.3894 502.082 84.4649C503.225 84.5574 504.693 83.9468 506.501 82.3037C508.26 80.7062 509.992 78.4481 511.609 76.044C513.229 73.6352 514.614 71.264 515.802 69.3555C516.373 68.4383 516.928 67.5828 517.42 66.9522C517.661 66.6445 517.958 66.2957 518.298 66.0108C518.509 65.8344 519.219 65.2563 520.229 65.2998L520.436 65.3174L520.632 65.3496C521.582 65.5481 522.049 66.251 522.198 66.5166C522.381 66.8434 522.457 67.1547 522.492 67.3184C522.567 67.6737 522.59 68.0557 522.597 68.375C522.613 69.051 522.568 69.9526 522.48 71.001C522.302 73.1207 521.923 76.0815 521.356 79.5694C521.019 81.6393 520.613 83.9058 520.14 86.3057C522.893 85.3444 525.832 84.3839 528.97 83.4287C547.179 77.887 561.666 74.3775 571.613 72.252C576.586 71.1893 580.426 70.4726 583.028 70.0205C584.328 69.7946 585.32 69.635 585.99 69.5313C586.324 69.4794 586.579 69.4411 586.751 69.416C586.837 69.4035 586.903 69.394 586.948 69.3877C586.97 69.3846 586.988 69.3825 587 69.3809C587.005 69.3801 587.011 69.3794 587.014 69.3789C587.016 69.3787 587.017 69.3781 587.018 69.3779H587.02C588.253 69.2094 589.39 70.0718 589.559 71.3047C589.728 72.5376 588.865 73.6745 587.632 73.8438H587.63C587.629 73.844 587.625 73.8451 587.621 73.8457C587.612 73.8469 587.597 73.8489 587.579 73.8516C587.54 73.857 587.481 73.8654 587.402 73.877C587.243 73.9002 587.001 73.9356 586.68 73.9854C586.037 74.085 585.073 74.2407 583.799 74.4619C581.253 74.9044 577.47 75.61 572.555 76.6602C562.725 78.7607 548.361 82.239 530.283 87.7412C526.185 88.9884 522.455 90.2361 519.058 91.4776C518.108 95.763 516.968 100.3 515.642 104.79C512.989 113.774 509.538 122.749 505.264 129.125C501.078 135.37 495.423 140.031 488.43 138.013C483.467 136.58 480.645 133.089 479.505 128.855C478.4 124.75 478.868 119.992 480.168 115.599C482.568 107.484 489.954 97.7454 515.17 88.1172C515.873 84.7714 516.454 81.6269 516.907 78.8457C517.113 77.5779 517.292 76.3893 517.444 75.2959C516.792 76.3473 516.088 77.4605 515.349 78.5596C513.67 81.0575 511.696 83.6743 509.532 85.6406C507.418 87.5611 504.743 89.2032 501.717 88.958C498.478 88.6954 496.629 86.4936 495.709 84.0518C494.824 81.7052 494.643 78.8394 494.716 76.252C494.724 75.9905 494.735 75.7296 494.748 75.4697C483.489 80.3877 470.71 84.6295 459.709 87.2754C453.627 88.738 448.024 89.729 443.485 90.0645C441.218 90.232 439.155 90.2411 437.401 90.042C435.698 89.8487 434.04 89.4346 432.783 88.5674C430.67 87.1102 429.354 85.0138 428.439 82.9356C427.533 80.8773 426.932 78.6126 426.4 76.7315C425.833 74.7267 425.363 73.2325 424.751 72.2237C424.22 71.3505 423.798 71.1602 423.244 71.1602C423.117 71.1602 422.742 71.2273 422.075 71.7061C421.427 72.1704 420.682 72.8955 419.86 73.874C418.218 75.8293 416.514 78.5021 414.912 81.2754C413.314 84.0406 411.886 86.7805 410.743 88.8985C410.184 89.9337 409.673 90.8572 409.256 91.5225C409.055 91.8438 408.823 92.1905 408.579 92.4746C408.463 92.6091 408.267 92.8229 408 93.0127C407.813 93.1455 407.102 93.6254 406.123 93.4297C405.131 93.2312 404.671 92.5029 404.529 92.2363C404.365 91.9292 404.301 91.6462 404.274 91.5078C404.215 91.2079 404.203 90.9076 404.201 90.6934C404.196 90.2294 404.234 89.6338 404.296 88.9678C404.423 87.6121 404.674 85.7071 405.031 83.4053C405.315 81.5687 405.67 79.4603 406.087 77.1475C384.024 85.9553 368.159 89.9967 356.767 91.1856C344.761 92.4385 337.436 90.5519 333.112 87.4072C330.7 85.6529 329.591 83.3426 329.637 80.8584C329.654 79.9903 329.809 79.1397 330.065 78.3213C323.004 81.4243 316.964 83.9439 311.034 85.9199C292.746 92.0131 280.793 93.1063 272.838 91.5371C264.675 89.9266 260.848 85.5347 258.915 81.3457C258.471 80.3848 258.203 79.3074 258.069 78.1524C241.642 84.7796 228.562 89.0403 218.398 91.1865C207.729 93.4393 199.825 93.4689 194.631 91.002C189.108 88.3785 187.99 83.2394 188.143 79.2051C172.276 86.1847 158.853 90.704 147.796 92.7168C135.95 94.8733 126.477 94.2175 119.635 90.2373C115.859 88.0401 114.251 84.3056 113.881 80.1504C96.959 79.7431 78.4822 82.0428 62.5571 85.5733C61.8439 89.2938 59.8313 92.7467 57.187 95.7422C53.8521 99.52 49.382 102.731 44.7339 105.063C40.0937 107.39 35.1425 108.908 30.7984 109.18C26.5442 109.445 22.3117 108.527 19.9517 105.253C19.2687 104.305 18.9167 103.219 18.978 102.057C19.0375 100.931 19.4753 99.8966 20.0845 98.9863C21.2739 97.2094 23.3549 95.547 25.9029 94.0029C31.0577 90.8791 38.9512 87.756 48.3296 85.0176C51.6277 84.0546 55.1264 83.1363 58.7749 82.2774C58.6552 79.0038 56.9803 76.091 54.2144 73.2422C51.3189 70.26 47.4686 67.587 43.5298 64.8184C39.6943 62.1224 35.7158 59.2984 33.0239 56.1426C30.2584 52.9004 28.625 49.0295 30.02 44.4258C31.3408 40.068 35.1181 36.092 39.7027 32.7266C44.3514 29.3141 50.1267 26.3144 55.9175 24.001C61.7068 21.6882 67.6066 20.0225 72.5337 19.3291ZM513.987 93.4238C491.726 102.414 486.242 110.952 484.49 116.877C483.33 120.799 483.044 124.658 483.858 127.684C484.638 130.581 486.41 132.738 489.68 133.682C493.618 134.818 497.543 132.548 501.519 126.615C505.408 120.813 508.705 112.363 511.319 103.513C512.316 100.137 513.205 96.7281 513.987 93.4238ZM58.0884 86.6133C55.0932 87.3426 52.2088 88.1114 49.4663 88.9121C40.2222 91.6113 32.7184 94.6166 28.0054 97.4727C25.6196 98.9184 24.1489 100.209 23.4566 101.243C23.125 101.738 23.0392 102.075 23.0288 102.271C23.0204 102.43 23.0525 102.617 23.2427 102.881C24.3759 104.453 26.7922 105.365 30.5454 105.131C34.2089 104.902 38.6246 103.588 42.9146 101.437C47.1965 99.2886 51.22 96.3714 54.146 93.0567C55.9803 90.9786 57.332 88.8058 58.0884 86.6133Z" fill="#171B17"/>
<path d="M195.506 56.9346C196.143 56.0127 197.407 55.7816 198.329 56.418C199.25 57.0545 199.482 58.3175 198.845 59.2393C198.21 60.1593 197.944 60.6717 197.468 61.8028C197.034 62.8356 195.845 63.3208 194.812 62.8867C193.78 62.4526 193.294 61.264 193.728 60.2315C194.289 58.8975 194.682 58.1286 195.506 56.9346Z" fill="#171B17"/>
</svg>
