<svg width="109" height="109" viewBox="0 0 109 109" fill="none" xmlns="http://www.w3.org/2000/svg">
<path d="M104.409 54.2178C104.409 81.9375 81.9375 104.409 54.2178 104.409C26.4981 104.409 4.02678 81.9375 4.02678 54.2178C4.02678 26.4981 26.4981 4.02678 54.2178 4.02678C81.9375 4.02678 104.409 26.4981 104.409 54.2178Z" fill="#5888FF"/>
<path d="M104.409 54.2178C104.409 26.4981 81.9375 4.02678 54.2178 4.02678C26.4981 4.02678 4.02678 26.4981 4.02678 54.2178C4.02678 81.9375 26.4981 104.409 54.2178 104.409C81.9375 104.409 104.409 81.9375 104.409 54.2178ZM108.436 54.2178C108.436 84.1614 84.1614 108.436 54.2178 108.436C24.2741 108.436 -5.61692e-08 84.1614 0 54.2178C5.61692e-08 24.2741 24.2741 -5.61692e-08 54.2178 0C84.1614 5.61692e-08 108.436 24.2741 108.436 54.2178Z" fill="#5888FF"/>
<path d="M56.3751 54.3279C56.3751 56.0753 54.9586 57.4918 53.2112 57.4918C51.4638 57.4918 50.0473 56.0753 50.0473 54.3279C50.0473 52.5805 51.4638 51.164 53.2112 51.164C54.9586 51.164 56.3751 52.5805 56.3751 54.3279Z" fill="black"/>
<path d="M53.1819 41.1667C60.4507 41.1667 66.3434 47.0593 66.3434 54.3282C66.3434 61.597 60.4507 67.4896 53.1819 67.4896C45.913 67.4896 40.0204 61.597 40.0204 54.3282C40.0204 47.0593 45.913 41.1667 53.1819 41.1667ZM53.1819 47.4341C49.3744 47.4341 46.2878 50.5207 46.2878 54.3282C46.2878 58.1356 49.3744 61.2222 53.1819 61.2222C56.9893 61.2222 60.0759 58.1356 60.0759 54.3282C60.0759 50.5207 56.9893 47.4341 53.1819 47.4341Z" fill="#FFBEEE"/>
<path d="M65.4805 54.3282C65.4805 47.642 60.1449 42.2019 53.4993 42.0335L53.1819 42.0296C46.3896 42.0296 40.8833 47.5359 40.8833 54.3282C40.8833 61.1204 46.3896 66.6268 53.1819 66.6268V67.4896C45.913 67.4896 40.0204 61.597 40.0204 54.3282C40.0204 47.0593 45.913 41.1667 53.1819 41.1667C60.4507 41.1667 66.3434 47.0593 66.3434 54.3282C66.3434 61.597 60.4507 67.4896 53.1819 67.4896V66.6268C59.9741 66.6268 65.4805 61.1204 65.4805 54.3282ZM60.0759 54.3282C60.0759 50.5207 56.9893 47.4341 53.1819 47.4341C49.3744 47.4341 46.2878 50.5207 46.2878 54.3282C46.2878 58.1356 49.3744 61.2222 53.1819 61.2222C56.9893 61.2222 60.0759 58.1356 60.0759 54.3282ZM60.9388 54.3282C60.9388 58.6122 57.4659 62.0851 53.1819 62.0851C48.8978 62.0851 45.4249 58.6122 45.4249 54.3282C45.4249 50.0441 48.8978 46.5712 53.1819 46.5712C57.4659 46.5712 60.9388 50.0441 60.9388 54.3282Z" fill="black"/>
<path d="M53.5909 76.4752C72.1542 76.4752 84.7515 62.7353 88.7861 55.9104L89.7218 54.3279L88.7861 52.7454C84.7515 45.9205 72.1542 32.1806 53.5909 32.1806C44.2847 32.1806 36.4003 35.6555 30.3904 39.8884C24.4053 44.1039 20.1243 49.1765 17.9562 52.6972L16.952 54.3279L17.9562 55.9585C20.1243 59.4792 24.4054 64.5515 30.3904 68.767C36.4003 73 44.2846 76.4752 53.5909 76.4752ZM53.5909 70.2365C45.8994 70.2365 39.2542 67.369 34.0076 63.6737C29.6658 60.6156 26.3888 57.0626 24.3969 54.3279C26.3888 51.5932 29.6658 48.0402 34.0076 44.982C39.2542 41.2868 45.8994 38.4193 53.5909 38.4193C67.7317 38.4193 78.0664 48.1845 82.3629 54.3279C78.0664 60.4712 67.7317 70.2365 53.5909 70.2365Z" fill="#FFBEEE"/>
<path d="M53.5908 76.9066C72.3691 76.9066 85.0834 63.0216 89.1575 56.13L90.2229 54.3279L89.1575 52.5257C85.1152 45.688 72.5673 31.9656 54.0299 31.7517L53.5908 31.7491C44.1738 31.7492 36.2044 35.2659 30.1419 39.5359C24.1077 43.786 19.7866 48.9019 17.5888 52.4709L16.4453 54.3279L17.5888 56.1848C19.7866 59.7539 24.1078 64.8696 30.1419 69.1196C36.2044 73.3896 44.1738 76.9066 53.5908 76.9066ZM53.5908 76.0438C44.3954 76.0437 36.5961 72.6103 30.6388 68.4143C24.7029 64.2335 20.4619 59.2046 18.3236 55.7323L17.4585 54.3279L18.3236 52.9235C20.4619 49.4511 24.7029 44.422 30.6388 40.2412C36.5961 36.0452 44.3954 32.612 53.5908 32.612C71.939 32.612 84.4196 46.2068 88.4148 52.965L89.2204 54.3279L88.4148 55.6907C84.4196 62.449 71.939 76.0438 53.5908 76.0438ZM53.5908 70.6679C67.9313 70.6679 78.3802 60.7752 82.7165 54.5751L82.8892 54.3279L82.7165 54.0807C78.3802 47.8805 67.9313 37.9879 53.5908 37.9879C45.7886 37.9879 39.0583 40.8971 33.7591 44.6294C29.3749 47.7175 26.0648 51.3052 24.0481 54.074L23.8632 54.3279L24.0481 54.5818C26.0648 57.3506 29.3749 60.9383 33.7591 64.0263C39.0583 67.7587 45.7886 70.6678 53.5908 70.6679ZM53.5908 69.805C46.01 69.805 39.4499 66.9792 34.256 63.321C30.0902 60.3869 26.9151 56.9926 24.9326 54.3279C26.9151 51.6632 30.0902 48.2689 34.256 45.3348C39.4499 41.6766 46.01 38.8508 53.5908 38.8508C67.3443 38.8508 77.4765 48.2313 81.8339 54.3279C77.4765 60.4244 67.3443 69.805 53.5908 69.805Z" fill="black"/>
<path d="M53.9301 4.02678C81.6499 4.02678 104.121 26.4981 104.121 54.2178C104.121 81.9375 81.6499 104.409 53.9301 104.409C26.2104 104.409 3.73916 81.9375 3.73916 54.2178C3.73916 26.4981 26.2104 4.02678 53.9301 4.02678ZM53.9301 9.77933C29.3875 9.77933 9.49171 29.6751 9.49171 54.2178C9.49171 78.7605 29.3875 98.6562 53.9301 98.6562C78.4728 98.6562 98.3686 78.7605 98.3686 54.2178C98.3686 29.6751 78.4728 9.77933 53.9301 9.77933Z" fill="#FFBEEE"/>
<path d="M103.258 54.2178C103.258 26.9746 81.1733 4.88967 53.9301 4.88967C26.687 4.88967 4.60204 26.9746 4.60204 54.2178C4.60204 81.4609 26.687 103.546 53.9301 103.546V104.409C26.2104 104.409 3.73916 81.9375 3.73916 54.2178C3.73916 26.4981 26.2104 4.02678 53.9301 4.02678C81.6499 4.02678 104.121 26.4981 104.121 54.2178C104.121 81.9375 81.6499 104.409 53.9301 104.409V103.546C81.1733 103.546 103.258 81.4609 103.258 54.2178ZM98.3686 54.2178C98.3686 29.6751 78.4728 9.77933 53.9301 9.77933C29.3875 9.77933 9.49171 29.6751 9.49171 54.2178C9.49171 78.7605 29.3875 98.6562 53.9301 98.6562C78.4728 98.6562 98.3686 78.7605 98.3686 54.2178ZM99.2315 54.2178C99.2315 79.237 78.9494 99.5191 53.9301 99.5191C28.9109 99.5191 8.62882 79.237 8.62882 54.2178C8.62882 29.1985 28.9109 8.91645 53.9301 8.91645C78.9494 8.91645 99.2315 29.1985 99.2315 54.2178Z" fill="black"/>
</svg>
