<svg width="67" height="80" viewBox="0 0 67 80" fill="none" xmlns="http://www.w3.org/2000/svg">
<mask id="path-1-outside-1_13971_9757" maskUnits="userSpaceOnUse" x="-0.379395" y="-0.37854" width="68" height="81" fill="black">
<rect fill="white" x="-0.379395" y="-0.37854" width="68" height="81"/>
<path d="M35.468 9.12732H52.8587C54.9311 9.12735 56.6966 9.5616 58.1448 10.4027C59.6015 11.2488 60.6049 12.4304 61.261 13.7084C62.4898 16.102 62.5079 18.8288 62.2649 20.684L62.2405 20.8607C62.0666 22.0679 61.1553 22.9323 60.0745 23.1605L54.3645 75.2142H14.5218L7.67605 23.223H7.52859C6.17196 23.223 4.993 22.2315 4.79128 20.8607C4.24027 17.1154 5.06811 14.2676 6.63113 12.2709C8.14163 10.3416 10.1799 9.41274 11.7376 9.15759L11.9231 9.12732H13.2854V4.62146H35.468V9.12732Z"/>
</mask>
<path d="M35.468 9.12732H52.8587C54.9311 9.12735 56.6966 9.5616 58.1448 10.4027C59.6015 11.2488 60.6049 12.4304 61.261 13.7084C62.4898 16.102 62.5079 18.8288 62.2649 20.684L62.2405 20.8607C62.0666 22.0679 61.1553 22.9323 60.0745 23.1605L54.3645 75.2142H14.5218L7.67605 23.223H7.52859C6.17196 23.223 4.993 22.2315 4.79128 20.8607C4.24027 17.1154 5.06811 14.2676 6.63113 12.2709C8.14163 10.3416 10.1799 9.41274 11.7376 9.15759L11.9231 9.12732H13.2854V4.62146H35.468V9.12732Z" fill="#FF9D00"/>
<path d="M35.468 9.12732H30.8466V13.7488H35.468V9.12732ZM52.8587 9.12732L52.8587 4.50589H52.8587V9.12732ZM58.1448 10.4027L60.466 6.40648L60.4659 6.40643L58.1448 10.4027ZM61.261 13.7084L65.3724 11.5978L65.3723 11.5977L61.261 13.7084ZM62.2649 20.684L66.8429 21.3163L66.8451 21.3002L66.8472 21.2841L62.2649 20.684ZM62.2405 20.8607L66.8147 21.5195L66.8166 21.5063L66.8185 21.493L62.2405 20.8607ZM60.0745 23.1605L59.1195 18.6388L55.8455 19.3303L55.4806 22.6566L60.0745 23.1605ZM54.3645 75.2142V79.8357H58.5067L58.9584 75.7182L54.3645 75.2142ZM14.5218 75.2142L9.93987 75.8175L10.4689 79.8357H14.5218V75.2142ZM7.67605 23.223L12.2579 22.6197L11.7289 18.6016H7.67605V23.223ZM4.79128 20.8607L0.21907 21.5334L0.219095 21.5336L4.79128 20.8607ZM6.63113 12.2709L2.99229 9.42193L2.99207 9.42221L6.63113 12.2709ZM11.7376 9.15759L10.9934 4.59647L10.9905 4.59694L11.7376 9.15759ZM11.9231 9.12732V4.50589H11.5486L11.1789 4.5662L11.9231 9.12732ZM13.2854 9.12732V13.7488H17.9069V9.12732H13.2854ZM13.2854 4.62146V2.76566e-05H8.66399V4.62146H13.2854ZM35.468 4.62146H40.0895V2.76566e-05H35.468V4.62146ZM35.468 9.12732V13.7488H52.8587V9.12732V4.50589H35.468V9.12732ZM52.8587 9.12732L52.8586 13.7488C54.2844 13.7488 55.2133 14.0445 55.8237 14.399L58.1448 10.4027L60.4659 6.40643C58.18 5.07875 55.5778 4.50592 52.8587 4.50589L52.8587 9.12732ZM58.1448 10.4027L55.8236 14.3989C56.4252 14.7484 56.8471 15.2297 57.1497 15.8191L61.261 13.7084L65.3723 11.5977C64.3627 9.63121 62.7778 7.74927 60.466 6.40648L58.1448 10.4027ZM61.261 13.7084L57.1497 15.8189C57.7736 17.0343 57.8659 18.684 57.6826 20.0838L62.2649 20.684L66.8472 21.2841C67.1498 18.9736 67.206 15.1697 65.3724 11.5978L61.261 13.7084ZM62.2649 20.684L57.6869 20.0516L57.6625 20.2284L62.2405 20.8607L66.8185 21.493L66.8429 21.3163L62.2649 20.684ZM62.2405 20.8607L57.6663 20.2019C57.7886 19.3528 58.4418 18.782 59.1195 18.6388L60.0745 23.1605L61.0294 27.6822C63.8687 27.0826 66.3447 24.7831 66.8147 21.5195L62.2405 20.8607ZM60.0745 23.1605L55.4806 22.6566L49.7706 74.7103L54.3645 75.2142L58.9584 75.7182L64.6684 23.6644L60.0745 23.1605ZM54.3645 75.2142V70.5928H14.5218V75.2142V79.8357H54.3645V75.2142ZM14.5218 75.2142L19.1036 74.6109L12.2579 22.6197L7.67605 23.223L3.09417 23.8263L9.93987 75.8175L14.5218 75.2142ZM7.67605 23.223V18.6016H7.52859V23.223V27.8445H7.67605V23.223ZM7.52859 23.223V18.6016C8.43057 18.6016 9.22652 19.2572 9.36347 20.1879L4.79128 20.8607L0.219095 21.5336C0.759484 25.2057 3.91335 27.8445 7.52859 27.8445V23.223ZM4.79128 20.8607L9.3635 20.188C8.96649 17.4895 9.6065 15.9674 10.2702 15.1195L6.63113 12.2709L2.99207 9.42221C0.529714 12.5678 -0.48595 16.7413 0.21907 21.5334L4.79128 20.8607ZM6.63113 12.2709L10.27 15.1198C10.9876 14.2033 11.9403 13.8074 12.4846 13.7182L11.7376 9.15759L10.9905 4.59694C8.41942 5.01809 5.2957 6.47988 2.99229 9.42193L6.63113 12.2709ZM11.7376 9.15759L12.4818 13.7187L12.6673 13.6884L11.9231 9.12732L11.1789 4.5662L10.9934 4.59647L11.7376 9.15759ZM11.9231 9.12732V13.7488H13.2854V9.12732V4.50589H11.9231V9.12732ZM13.2854 9.12732H17.9069V4.62146H13.2854H8.66399V9.12732H13.2854ZM13.2854 4.62146V9.24289H35.468V4.62146V2.76566e-05H13.2854V4.62146ZM35.468 4.62146H30.8466V9.12732H35.468H40.0895V4.62146H35.468Z" fill="#FF9D00" mask="url(#path-1-outside-1_13971_9757)"/>
<path d="M28.4214 37.1797C28.4214 36.9122 28.4704 36.6613 28.5685 36.4272C28.6665 36.182 28.8027 35.9701 28.977 35.7918C29.1514 35.6134 29.3529 35.4741 29.5817 35.3737C29.8214 35.2734 30.072 35.2232 30.3335 35.2232C30.595 35.2232 30.8401 35.2734 31.0689 35.3737C31.3086 35.4741 31.5156 35.6134 31.6899 35.7918C31.8642 35.9701 32.0004 36.182 32.0985 36.4272C32.1965 36.6613 32.2456 36.9122 32.2456 37.1797C32.2456 37.4473 32.1965 37.7037 32.0985 37.9489C32.0004 38.1831 31.8642 38.3893 31.6899 38.5677C31.5156 38.746 31.3086 38.8854 31.0689 38.9857C30.8401 39.0861 30.595 39.1362 30.3335 39.1362C30.072 39.1362 29.8214 39.0861 29.5817 38.9857C29.3529 38.8854 29.1514 38.746 28.977 38.5677C28.8027 38.3893 28.6665 38.1831 28.5685 37.9489C28.4704 37.7037 28.4214 37.4473 28.4214 37.1797ZM28.4214 42.8151C28.4214 42.5476 28.4704 42.2967 28.5685 42.0626C28.6665 41.8174 28.8027 41.6056 28.977 41.4272C29.1514 41.2488 29.3529 41.1095 29.5817 41.0091C29.8214 40.9088 30.072 40.8586 30.3335 40.8586C30.595 40.8586 30.8401 40.9088 31.0689 41.0091C31.3086 41.1095 31.5156 41.2488 31.6899 41.4272C31.8642 41.6056 32.0004 41.8174 32.0985 42.0626C32.1965 42.2967 32.2456 42.5476 32.2456 42.8151C32.2456 43.0827 32.1965 43.3391 32.0985 43.5844C32.0004 43.8185 31.8642 44.0247 31.6899 44.2031C31.5156 44.3815 31.3086 44.5208 31.0689 44.6211C30.8401 44.7215 30.595 44.7716 30.3335 44.7716C30.072 44.7716 29.8214 44.7215 29.5817 44.6211C29.3529 44.5208 29.1514 44.3815 28.977 44.2031C28.8027 44.0247 28.6665 43.8185 28.5685 43.5844C28.4704 43.3391 28.4214 43.0827 28.4214 42.8151Z" fill="black"/>
<path d="M33.9754 46.795C35.2283 44.5877 35.8548 41.979 35.8548 38.969C35.8548 38.2555 35.8057 37.5253 35.7077 36.7784C35.6205 36.0203 35.4898 35.2901 35.3155 34.5878C35.152 33.8854 34.9559 33.2333 34.7271 32.6313C34.4983 32.0293 34.2477 31.5109 33.9754 31.0761L35.7567 30.0393C36.5194 31.1764 37.1023 32.5142 37.5054 34.0527C37.9194 35.58 38.1264 37.2633 38.1264 39.1028C38.1264 39.9055 38.0719 40.7081 37.963 41.5108C37.8649 42.3135 37.7124 43.0883 37.5054 43.8352C37.3093 44.5821 37.0641 45.2956 36.77 45.9756C36.4758 46.6557 36.138 47.2744 35.7567 47.8318L33.9754 46.795Z" fill="black"/>
<path d="M52.629 9.0116C54.7014 9.01162 56.4669 9.44588 57.9151 10.287C59.3718 11.1331 60.3753 12.3147 61.0313 13.5927C62.2601 15.9863 62.2782 18.7131 62.0352 20.5682L62.0108 20.745C61.8369 21.9526 60.925 22.8169 59.8438 23.0448L54.2696 73.8632C54.1924 74.566 53.5987 75.0984 52.8917 75.0985H15.5069C14.8114 75.0983 14.2237 74.5821 14.1329 73.8925L7.44637 23.1073H7.29891C5.94231 23.1073 4.76336 22.1157 4.56161 20.745C4.01051 16.9993 4.83818 14.1509 6.40145 12.1542C7.91194 10.2249 9.95021 9.29703 11.5079 9.04187L11.6934 9.0116H52.629ZM18.1856 69.2714C18.2765 69.961 18.8641 70.4762 19.5597 70.4764H48.7491C49.4563 70.4764 50.0509 69.9441 50.128 69.2411L51.3868 57.7675H16.671L18.1856 69.2714ZM16.0626 53.1464H51.8936L55.1886 23.1073H12.1075L16.0626 53.1464ZM12.1065 13.6327C11.55 13.7634 10.6967 14.1652 10.0401 15.0038C9.51842 15.6704 9.01437 16.7507 9.0118 18.4852H57.5343C57.5124 17.5058 57.3344 16.5103 56.92 15.703C56.618 15.1148 56.1964 14.6331 55.5938 14.2831C54.9827 13.9281 54.0537 13.6327 52.629 13.6327H12.1065Z" fill="#1054FF"/>
<path d="M52.629 9.0116L52.629 8.66499H52.629V9.0116ZM57.9151 10.287L58.0892 9.98727L58.0892 9.98727L57.9151 10.287ZM61.0313 13.5927L61.3397 13.4344L61.3397 13.4343L61.0313 13.5927ZM62.0352 20.5682L62.3786 20.6157L62.3789 20.6133L62.0352 20.5682ZM62.0108 20.745L62.3539 20.7944L62.3542 20.7924L62.0108 20.745ZM59.8438 23.0448L59.7723 22.7056L59.5267 22.7574L59.4993 23.007L59.8438 23.0448ZM54.2696 73.8632L54.6141 73.901L54.6142 73.901L54.2696 73.8632ZM52.8917 75.0985V75.4451H52.8917L52.8917 75.0985ZM15.5069 75.0985L15.5068 75.4451H15.5069V75.0985ZM14.1329 73.8925L14.4765 73.8472H14.4765L14.1329 73.8925ZM7.44637 23.1073L7.79001 23.0621L7.75033 22.7607H7.44637V23.1073ZM4.56161 20.745L4.21869 20.7954L4.21869 20.7955L4.56161 20.745ZM6.40145 12.1542L6.12854 11.9405L6.12853 11.9405L6.40145 12.1542ZM11.5079 9.04187L11.4521 8.69979L11.4519 8.69982L11.5079 9.04187ZM11.6934 9.0116V8.66499H11.6654L11.6376 8.66951L11.6934 9.0116ZM18.1856 69.2714L17.842 69.3166L17.842 69.3166L18.1856 69.2714ZM19.5597 70.4764L19.5595 70.823H19.5597V70.4764ZM50.128 69.2411L49.7835 69.2033V69.2033L50.128 69.2411ZM51.3868 57.7675L51.7313 57.8053L51.7735 57.4208H51.3868V57.7675ZM16.671 57.7675V57.4208H16.2757L16.3273 57.8127L16.671 57.7675ZM16.0626 53.1464L15.7189 53.1916L15.7586 53.493H16.0626V53.1464ZM51.8936 53.1464V53.493H52.2043L52.2382 53.1842L51.8936 53.1464ZM55.1886 23.1073L55.5331 23.1451L55.5753 22.7607H55.1886V23.1073ZM12.1075 23.1073V22.7607H11.7123L11.7639 23.1525L12.1075 23.1073ZM12.1065 13.6327V13.2861H12.0664L12.0273 13.2953L12.1065 13.6327ZM10.0401 15.0038L9.76721 14.7901L9.76717 14.7902L10.0401 15.0038ZM9.0118 18.4852L8.66519 18.4847L8.66468 18.8318H9.0118V18.4852ZM57.5343 18.4852V18.8318H57.8887L57.8808 18.4775L57.5343 18.4852ZM56.92 15.703L57.2284 15.5447L57.2283 15.5447L56.92 15.703ZM55.5938 14.2831L55.7679 13.9834L55.7679 13.9834L55.5938 14.2831ZM52.629 13.6327L52.629 13.2861H52.629V13.6327ZM52.629 9.0116L52.629 9.3582C54.6529 9.35823 56.3557 9.78209 57.741 10.5867L57.9151 10.287L58.0892 9.98727C56.5782 9.10966 54.7499 8.66501 52.629 8.66499L52.629 9.0116ZM57.9151 10.287L57.741 10.5867C59.1336 11.3956 60.0934 12.5247 60.723 13.751L61.0313 13.5927L61.3397 13.4343C60.6571 12.1048 59.61 10.8706 58.0892 9.98727L57.9151 10.287ZM61.0313 13.5927L60.723 13.7509C61.9063 16.0563 61.9301 18.7023 61.6916 20.5232L62.0352 20.5682L62.3789 20.6133C62.6264 18.724 62.6138 15.9164 61.3397 13.4344L61.0313 13.5927ZM62.0352 20.5682L61.6919 20.5208L61.6675 20.6976L62.0108 20.745L62.3542 20.7924L62.3786 20.6157L62.0352 20.5682ZM62.0108 20.745L61.6678 20.6956C61.5161 21.7489 60.7216 22.5055 59.7723 22.7056L59.8438 23.0448L59.9153 23.384C61.1284 23.1282 62.1577 22.1563 62.3539 20.7944L62.0108 20.745ZM59.8438 23.0448L59.4993 23.007L53.9251 73.8254L54.2696 73.8632L54.6142 73.901L60.1884 23.0826L59.8438 23.0448ZM54.2696 73.8632L53.9251 73.8253C53.8672 74.3526 53.4218 74.7519 52.8917 74.7519L52.8917 75.0985L52.8917 75.4451C53.7757 75.445 54.5176 74.7794 54.6141 73.901L54.2696 73.8632ZM52.8917 75.0985V74.7519H15.5069V75.0985V75.4451H52.8917V75.0985ZM15.5069 75.0985L15.507 74.7519C14.9856 74.7517 14.5447 74.3647 14.4765 73.8472L14.1329 73.8925L13.7893 73.9377C13.9027 74.7995 14.6371 75.4448 15.5068 75.4451L15.5069 75.0985ZM14.1329 73.8925L14.4765 73.8472L7.79001 23.0621L7.44637 23.1073L7.10273 23.1525L13.7893 73.9377L14.1329 73.8925ZM7.44637 23.1073V22.7607H7.29891V23.1073V23.4539H7.44637V23.1073ZM7.29891 23.1073V22.7607C6.11172 22.7607 5.08087 21.8926 4.90452 20.6945L4.56161 20.745L4.21869 20.7955C4.44585 22.3388 5.77291 23.4539 7.29891 23.4539V23.1073ZM4.56161 20.745L4.90452 20.6945C4.36497 17.0274 5.17857 14.2784 6.67436 12.3678L6.40145 12.1542L6.12853 11.9405C4.49778 14.0234 3.65605 16.9713 4.21869 20.7954L4.56161 20.745ZM6.40145 12.1542L6.67436 12.3678C8.12532 10.5146 10.0821 9.62665 11.5639 9.38392L11.5079 9.04187L11.4519 8.69982C9.81828 8.96742 7.69855 9.93518 6.12854 11.9405L6.40145 12.1542ZM11.5079 9.04187L11.5637 9.38395L11.7493 9.35368L11.6934 9.0116L11.6376 8.66951L11.4521 8.69979L11.5079 9.04187ZM11.6934 9.0116V9.3582H52.629V9.0116V8.66499H11.6934V9.0116ZM18.1856 69.2714L17.842 69.3166C17.9555 70.1787 18.6902 70.8228 19.5595 70.823L19.5597 70.4764L19.5598 70.1298C19.038 70.1297 18.5974 69.7432 18.5293 69.2261L18.1856 69.2714ZM19.5597 70.4764V70.823H48.7491V70.4764V70.1298H19.5597V70.4764ZM48.7491 70.4764V70.823C49.6329 70.823 50.3761 70.1578 50.4726 69.2789L50.128 69.2411L49.7835 69.2033C49.7257 69.7303 49.2797 70.1298 48.7491 70.1298V70.4764ZM50.128 69.2411L50.4726 69.2789L51.7313 57.8053L51.3868 57.7675L51.0423 57.7297L49.7835 69.2033L50.128 69.2411ZM51.3868 57.7675V57.4208H16.671V57.7675V58.1141H51.3868V57.7675ZM16.671 57.7675L16.3273 57.8127L17.842 69.3166L18.1856 69.2714L18.5293 69.2261L17.0146 57.7222L16.671 57.7675ZM16.0626 53.1464V53.493H51.8936V53.1464V52.7998H16.0626V53.1464ZM51.8936 53.1464L52.2382 53.1842L55.5331 23.1451L55.1886 23.1073L54.844 23.0695L51.5491 53.1086L51.8936 53.1464ZM55.1886 23.1073V22.7607H12.1075V23.1073V23.4539H55.1886V23.1073ZM12.1075 23.1073L11.7639 23.1525L15.7189 53.1916L16.0626 53.1464L16.4062 53.1011L12.4511 23.0621L12.1075 23.1073ZM12.1065 13.6327L12.0273 13.2953C11.4053 13.4414 10.4791 13.8808 9.76721 14.7901L10.0401 15.0038L10.313 15.2175C10.9143 14.4495 11.6947 14.0855 12.1858 13.9701L12.1065 13.6327ZM10.0401 15.0038L9.76717 14.7902C9.19527 15.5209 8.66787 16.6773 8.66519 18.4847L9.0118 18.4852L9.35841 18.4857C9.36087 16.8242 9.84158 15.8198 10.3131 15.2174L10.0401 15.0038ZM9.0118 18.4852V18.8318H57.5343V18.4852V18.1386H9.0118V18.4852ZM57.5343 18.4852L57.8808 18.4775C57.8582 17.4672 57.6749 16.4146 57.2284 15.5447L56.92 15.703L56.6117 15.8613C56.9939 16.606 57.1666 17.5445 57.1877 18.493L57.5343 18.4852ZM56.92 15.703L57.2283 15.5447C56.8997 14.9046 56.4344 14.3705 55.7679 13.9834L55.5938 14.2831L55.4197 14.5828C55.9584 14.8957 56.3363 15.325 56.6117 15.8613L56.92 15.703ZM55.5938 14.2831L55.7679 13.9834C55.0941 13.592 54.1024 13.2861 52.629 13.2861L52.629 13.6327L52.629 13.9793C54.0049 13.9793 54.8713 14.2642 55.4198 14.5828L55.5938 14.2831ZM52.629 13.6327V13.2861H12.1065V13.6327V13.9793H52.629V13.6327Z" fill="black"/>
<path d="M35.122 4.3905V9.01194H13.1702V4.3905H35.122Z" fill="#1054FF" stroke="black" stroke-width="0.693215"/>
</svg>
