<svg width="167" height="70" viewBox="0 0 167 70" fill="none" xmlns="http://www.w3.org/2000/svg">
<path d="M9.77279 22.1434H137.932V59.2553H9.77279V22.1434Z" fill="#FF6ED8"/>
<path d="M154.032 3.83489C157.868 3.83489 160.977 6.94435 160.977 10.7801C160.977 13.6568 159.228 16.125 156.736 17.1795V30.0712H161.081C162.232 30.0712 163.165 31.0042 163.165 32.1549V48.8236C163.165 49.9743 162.232 50.907 161.081 50.907H147.191L147.084 50.9044C146.615 50.8806 146.187 50.7016 145.85 50.4178V61.9768C145.85 63.9945 144.24 65.636 142.234 65.6868L142.138 65.688H7.54608C5.52844 65.688 3.88685 64.0779 3.8361 62.0725L3.83489 61.9768V19.9167C3.83489 17.8671 5.49645 16.2055 7.54608 16.2055H142.138L142.234 16.2067C144.24 16.2575 145.85 17.8991 145.85 19.9167V30.561C146.187 30.2771 146.615 30.0977 147.084 30.0739L147.191 30.0712H151.788V17.3544C149.053 16.4211 147.087 13.8304 147.087 10.7801C147.087 6.94438 150.196 3.83494 154.032 3.83489ZM8.78314 60.7398H51.8329V21.1538H8.78314V60.7398ZM104.037 60.7398H140.901V21.1538H104.037V60.7398ZM56.7812 60.7398H99.0887V21.1538H56.7812V60.7398ZM150.056 45.9588H158.217V35.0195H150.056V45.9588Z" fill="#AD4141"/>
<path d="M157.142 10.7801C157.142 9.06241 155.75 7.66979 154.032 7.66979C152.314 7.66983 150.922 9.06233 150.922 10.7801C150.922 12.1399 151.797 13.3055 153.026 13.7251L154.151 14.1088L155.242 13.6475C156.366 13.1721 157.142 12.0623 157.142 10.7801ZM107.872 56.9049H137.066V24.9887H107.872V56.9049ZM60.616 56.9049H95.2538V24.9887H60.616V56.9049ZM12.618 56.9049H47.998V24.9887H12.618V56.9049ZM144.736 36.5134V44.4663L146.221 45.7165V35.2628L144.736 36.5134ZM153.891 42.1239H154.382V38.8544H153.891V42.1239ZM164.812 10.7801C164.812 14.2788 163.146 17.3827 160.571 19.3501V26.2363H161.081C164.35 26.2364 167 28.8862 167 32.1549V48.8238C167 52.0927 164.35 54.7419 161.081 54.7419H149.685V61.9768C149.685 66.0799 146.411 69.4172 142.331 69.5205L142.282 69.5214L142.187 69.5227L142.163 69.5229H7.54608C3.44302 69.5229 0.105715 66.2492 0.00241614 62.1696L0.00144968 62.1208L0.000241614 62.0251L0 62.001V19.9167C0 15.7491 3.37849 12.3706 7.54608 12.3706H142.163L142.187 12.3709L142.282 12.3721L142.331 12.373C142.689 12.3821 143.041 12.4164 143.384 12.4735C143.297 11.922 143.252 11.3564 143.252 10.7801C143.252 4.82646 148.078 7.52683e-05 154.032 0C159.985 0 164.812 4.82631 164.812 10.7801Z" fill="#FF6ED8"/>
<path d="M20.1641 37.725C20.1641 37.2524 20.2512 36.8093 20.4253 36.3958C20.5995 35.9626 20.8413 35.5884 21.1509 35.2734C21.4605 34.9583 21.8184 34.7121 22.2247 34.5349C22.6504 34.3577 23.0954 34.2691 23.5597 34.2691C24.0241 34.2691 24.4594 34.3577 24.8658 34.5349C25.2914 34.7121 25.659 34.9583 25.9686 35.2734C26.2782 35.5884 26.52 35.9626 26.6942 36.3958C26.8683 36.8093 26.9554 37.2524 26.9554 37.725C26.9554 38.1976 26.8683 38.6505 26.6942 39.0837C26.52 39.4973 26.2782 39.8616 25.9686 40.1766C25.659 40.4917 25.2914 40.7379 24.8658 40.9151C24.4594 41.0923 24.0241 41.1809 23.5597 41.1809C23.0954 41.1809 22.6504 41.0923 22.2247 40.9151C21.8184 40.7379 21.4605 40.4917 21.1509 40.1766C20.8413 39.8616 20.5995 39.4973 20.4253 39.0837C20.2512 38.6505 20.1641 38.1976 20.1641 37.725ZM20.1641 47.6792C20.1641 47.2066 20.2512 46.7636 20.4253 46.35C20.5995 45.9168 20.8413 45.5427 21.1509 45.2276C21.4605 44.9125 21.8184 44.6664 22.2247 44.4892C22.6504 44.3119 23.0954 44.2233 23.5597 44.2233C24.0241 44.2233 24.4594 44.3119 24.8658 44.4892C25.2914 44.6664 25.659 44.9125 25.9686 45.2276C26.2782 45.5427 26.52 45.9168 26.6942 46.35C26.8683 46.7636 26.9554 47.2066 26.9554 47.6792C26.9554 48.1518 26.8683 48.6048 26.6942 49.038C26.52 49.4515 26.2782 49.8158 25.9686 50.1309C25.659 50.4459 25.2914 50.6921 24.8658 50.8693C24.4594 51.0465 24.0241 51.1352 23.5597 51.1352C23.0954 51.1352 22.6504 51.0465 22.2247 50.8693C21.8184 50.6921 21.4605 50.4459 21.1509 50.1309C20.8413 49.8158 20.5995 49.4515 20.4253 49.038C20.2512 48.6048 20.1641 48.1518 20.1641 47.6792Z" fill="black"/>
<path d="M30.0272 54.7092C32.2523 50.8102 33.3648 46.2023 33.3648 40.8855C33.3648 39.6253 33.2777 38.3354 33.1036 37.0161C32.9488 35.677 32.7166 34.3872 32.4071 33.1466C32.1168 31.9061 31.7686 30.7541 31.3623 29.6907C30.9559 28.6274 30.5109 27.7117 30.0272 26.9437L33.1907 25.1124C34.5451 27.1209 35.5802 29.484 36.2961 32.2014C37.0313 34.8992 37.3989 37.8727 37.3989 41.1218C37.3989 42.5397 37.3022 43.9575 37.1087 45.3753C36.9346 46.7931 36.6637 48.1617 36.2961 49.481C35.9478 50.8004 35.5125 52.0607 34.9901 53.2619C34.4677 54.4631 33.8679 55.556 33.1907 56.5406L30.0272 54.7092Z" fill="black"/>
<path d="M67.4199 37.725C67.4199 37.2524 67.507 36.8093 67.6811 36.3958C67.8552 35.9626 68.0971 35.5884 68.4067 35.2734C68.7162 34.9583 69.0742 34.7121 69.4805 34.5349C69.9061 34.3577 70.3512 34.2691 70.8155 34.2691C71.2799 34.2691 71.7152 34.3577 72.1215 34.5349C72.5472 34.7121 72.9148 34.9583 73.2244 35.2734C73.534 35.5884 73.7758 35.9626 73.95 36.3958C74.1241 36.8093 74.2112 37.2524 74.2112 37.725C74.2112 38.1976 74.1241 38.6505 73.95 39.0837C73.7758 39.4973 73.534 39.8616 73.2244 40.1766C72.9148 40.4917 72.5472 40.7379 72.1215 40.9151C71.7152 41.0923 71.2799 41.1809 70.8155 41.1809C70.3512 41.1809 69.9061 41.0923 69.4805 40.9151C69.0742 40.7379 68.7162 40.4917 68.4067 40.1766C68.0971 39.8616 67.8552 39.4973 67.6811 39.0837C67.507 38.6505 67.4199 38.1976 67.4199 37.725ZM67.4199 47.6792C67.4199 47.2066 67.507 46.7636 67.6811 46.35C67.8552 45.9168 68.0971 45.5427 68.4067 45.2276C68.7162 44.9125 69.0742 44.6664 69.4805 44.4892C69.9061 44.3119 70.3512 44.2233 70.8155 44.2233C71.2799 44.2233 71.7152 44.3119 72.1215 44.4892C72.5472 44.6664 72.9148 44.9125 73.2244 45.2276C73.534 45.5427 73.7758 45.9168 73.95 46.35C74.1241 46.7636 74.2112 47.2066 74.2112 47.6792C74.2112 48.1518 74.1241 48.6048 73.95 49.038C73.7758 49.4515 73.534 49.8158 73.2244 50.1309C72.9148 50.4459 72.5472 50.6921 72.1215 50.8693C71.7152 51.0465 71.2799 51.1352 70.8155 51.1352C70.3512 51.1352 69.9061 51.0465 69.4805 50.8693C69.0742 50.6921 68.7162 50.4459 68.4067 50.1309C68.0971 49.8158 67.8552 49.4515 67.6811 49.038C67.507 48.6048 67.4199 48.1518 67.4199 47.6792Z" fill="black"/>
<path d="M77.283 54.7092C79.5081 50.8102 80.6206 46.2023 80.6206 40.8855C80.6206 39.6253 80.5335 38.3354 80.3594 37.0161C80.2046 35.677 79.9724 34.3872 79.6628 33.1466C79.3726 31.9061 79.0244 30.7541 78.618 29.6907C78.2117 28.6274 77.7667 27.7117 77.283 26.9437L80.4465 25.1124C81.8008 27.1209 82.836 29.484 83.5519 32.2014C84.2871 34.8992 84.6547 37.8727 84.6547 41.1218C84.6547 42.5397 84.558 43.9575 84.3645 45.3753C84.1904 46.7931 83.9195 48.1617 83.5519 49.481C83.2036 50.8004 82.7683 52.0607 82.2458 53.2619C81.7234 54.4631 81.1236 55.556 80.4465 56.5406L77.283 54.7092Z" fill="black"/>
<path d="M111.954 37.6143C111.954 37.1417 112.041 36.6987 112.215 36.2851C112.389 35.8519 112.631 35.4778 112.941 35.1627C113.25 34.8476 113.608 34.6015 114.015 34.4243C114.44 34.247 114.885 34.1584 115.35 34.1584C115.814 34.1584 116.249 34.247 116.656 34.4243C117.081 34.6015 117.449 34.8476 117.759 35.1627C118.068 35.4778 118.31 35.8519 118.484 36.2851C118.658 36.6987 118.745 37.1417 118.745 37.6143C118.745 38.0869 118.658 38.5399 118.484 38.9731C118.31 39.3866 118.068 39.7509 117.759 40.066C117.449 40.381 117.081 40.6272 116.656 40.8044C116.249 40.9816 115.814 41.0703 115.35 41.0703C114.885 41.0703 114.44 40.9816 114.015 40.8044C113.608 40.6272 113.25 40.381 112.941 40.066C112.631 39.7509 112.389 39.3866 112.215 38.9731C112.041 38.5399 111.954 38.0869 111.954 37.6143ZM111.954 47.5686C111.954 47.096 112.041 46.6529 112.215 46.2394C112.389 45.8062 112.631 45.432 112.941 45.1169C113.25 44.8019 113.608 44.5557 114.015 44.3785C114.44 44.2013 114.885 44.1127 115.35 44.1127C115.814 44.1127 116.249 44.2013 116.656 44.3785C117.081 44.5557 117.449 44.8019 117.759 45.1169C118.068 45.432 118.31 45.8062 118.484 46.2394C118.658 46.6529 118.745 47.096 118.745 47.5686C118.745 48.0412 118.658 48.4941 118.484 48.9273C118.31 49.3408 118.068 49.7051 117.759 50.0202C117.449 50.3353 117.081 50.5814 116.656 50.7587C116.249 50.9359 115.814 51.0245 115.35 51.0245C114.885 51.0245 114.44 50.9359 114.015 50.7587C113.608 50.5814 113.25 50.3353 112.941 50.0202C112.631 49.7051 112.389 49.3408 112.215 48.9273C112.041 48.4941 111.954 48.0412 111.954 47.5686Z" fill="black"/>
<path d="M121.817 54.5986C124.042 50.6996 125.155 46.0917 125.155 40.7749C125.155 39.5146 125.068 38.2248 124.894 36.9054C124.739 35.5664 124.507 34.2766 124.197 33.036C123.907 31.7954 123.559 30.6434 123.152 29.5801C122.746 28.5167 122.301 27.601 121.817 26.833L124.981 25.0017C126.335 27.0103 127.37 29.3733 128.086 32.0908C128.821 34.7886 129.189 37.762 129.189 41.0112C129.189 42.429 129.092 43.8468 128.899 45.2646C128.725 46.6824 128.454 48.051 128.086 49.3704C127.738 50.6897 127.302 51.95 126.78 53.1512C126.258 54.3524 125.658 55.4453 124.981 56.4299L121.817 54.5986Z" fill="black"/>
<path fill-rule="evenodd" clip-rule="evenodd" d="M154.032 3.83489C157.868 3.83489 160.977 6.94435 160.977 10.7801C160.977 13.6568 159.228 16.125 156.736 17.1795V30.0712H161.081C162.232 30.0712 163.165 31.0042 163.165 32.1549V48.8236C163.165 49.9743 162.232 50.907 161.081 50.907H147.191L147.084 50.9044C146.018 50.8504 145.164 49.9961 145.11 48.9306L145.107 48.8236V32.1549C145.107 31.0401 145.983 30.1297 147.084 30.0739L147.191 30.0712H151.788V17.3544C149.053 16.4211 147.087 13.8304 147.087 10.7801C147.087 6.94438 150.196 3.83494 154.032 3.83489ZM150.056 45.9588H158.217V35.0195H150.056V45.9588Z" fill="#FFF239"/>
<path d="M154.032 3.83489C157.868 3.83489 160.977 6.94435 160.977 10.7801C160.977 13.6568 159.228 16.125 156.736 17.1795V30.0712H161.081C162.232 30.0712 163.165 31.0042 163.165 32.1549V48.8236C163.165 49.9743 162.232 50.907 161.081 50.907H147.191L147.084 50.9044C146.018 50.8504 145.164 49.9961 145.11 48.9306L145.107 48.8236V32.1549C145.107 31.0401 145.983 30.1297 147.084 30.0739L147.191 30.0712H151.788V17.3544C149.053 16.4211 147.087 13.8304 147.087 10.7801C147.087 6.94438 150.196 3.83494 154.032 3.83489ZM154.032 4.57713C150.606 4.57718 147.829 7.35431 147.829 10.7801C147.829 13.5032 149.584 15.8182 152.027 16.652L152.53 16.8233V30.8135H147.2L147.116 30.8154C146.411 30.8538 145.85 31.4391 145.85 32.1549V48.8149L145.852 48.898C145.889 49.579 146.435 50.1255 147.116 50.1626L147.2 50.1648H161.081L161.151 50.1631C161.836 50.1283 162.386 49.5783 162.421 48.8925L162.423 48.8236V32.1549C162.423 31.4373 161.859 30.8511 161.151 30.8152L161.081 30.8135H155.994V16.6875L156.447 16.4959C158.674 15.5535 160.235 13.3482 160.235 10.7801C160.235 7.3543 157.458 4.57713 154.032 4.57713ZM158.959 46.701H149.313V34.2773H158.959V46.701ZM150.056 45.9588H158.217V35.0195H150.056V45.9588Z" fill="black"/>
<path d="M142.234 16.2067C144.24 16.2575 145.85 17.8991 145.85 19.9167V61.9768C145.85 63.9945 144.24 65.636 142.234 65.6868L142.138 65.688H7.54608C5.52844 65.688 3.88685 64.0779 3.8361 62.0725L3.83489 61.9768V19.9167C3.83489 17.8671 5.49645 16.2055 7.54608 16.2055H142.138L142.234 16.2067ZM8.78314 60.7398H51.5855V21.1538H8.78314V60.7398ZM100.944 60.7398H140.901V21.1538H100.944V60.7398ZM56.5337 60.7398H95.996V21.1538H56.5337V60.7398Z" fill="#FDF35C"/>
<path d="M145.479 19.9167C145.479 18.1009 144.029 16.6235 142.225 16.5778L142.134 16.5766H7.54608C5.70141 16.5766 4.20601 18.072 4.20601 19.9167V61.9722L4.20722 62.0631L4.21036 62.1474C4.29908 63.9127 5.75861 65.3169 7.54608 65.3169H142.134L142.225 65.3157C144.029 65.27 145.479 63.7926 145.479 61.9768V19.9167ZM51.9566 20.7826V61.1109H8.41202V20.7826H51.9566ZM96.7383 20.7826V61.1109H56.1626V20.7826H96.7383ZM141.272 20.7826V61.1109H100.944V20.7826H141.272ZM101.687 60.3686H140.53V21.5249H101.687V60.3686ZM56.9049 60.3686H95.996V21.5249H56.9049V60.3686ZM9.15426 60.3686H51.2144V21.5249H9.15426V60.3686ZM146.221 61.9768C146.221 64.1963 144.45 66.0021 142.244 66.0579H142.239L142.143 66.0591H7.54608C5.32663 66.0591 3.52083 64.288 3.46498 62.0819V62.0771L3.46377 61.9814V19.9167C3.46377 17.6621 5.29148 15.8344 7.54608 15.8344H142.143L142.239 15.8356H142.244C144.45 15.8914 146.221 17.6972 146.221 19.9167V61.9768Z" fill="black"/>
</svg>
