<svg width="92" height="62" viewBox="0 0 92 62" fill="none" xmlns="http://www.w3.org/2000/svg">
<path d="M45.6462 1.69989C57.5913 1.69989 68.4845 4.83374 76.4431 9.98993C84.3851 15.1354 89.5925 22.4447 89.5925 30.7712C89.5924 39.0976 84.385 46.406 76.4431 51.5515C68.4844 56.7077 57.5914 59.8415 45.6462 59.8415C33.7011 59.8414 22.808 56.7077 14.8494 51.5515C6.9076 46.406 1.70005 39.0975 1.69995 30.7712C1.69995 22.4447 6.9074 15.1354 14.8494 9.98993C22.808 4.83364 33.7011 1.69993 45.6462 1.69989Z" fill="#FF84DE" stroke="#FF84DE" stroke-width="3.40011"/>
<path d="M45.9814 14.5967L46.5684 19.4707C47.2287 24.9544 51.5515 29.2771 57.0352 29.9375L61.9092 30.5244V31.0303L57.0352 31.6172C51.5515 32.2776 47.2287 36.6003 46.5684 42.084L45.9814 46.958H45.4756L44.8887 42.084C44.2283 36.6003 39.9056 32.2776 34.4219 31.6172L29.5479 31.0303V30.5244L34.4219 29.9375C39.9056 29.2771 44.2283 24.9544 44.8887 19.4707L45.4756 14.5967H45.9814Z" fill="#FFF239" stroke="black" stroke-width="0.510016"/>
<mask id="path-3-outside-1_13969_9632" maskUnits="userSpaceOnUse" x="2.39185" y="2.39868" width="87" height="57" fill="black">
<rect fill="white" x="2.39185" y="2.39868" width="87" height="57"/>
<path d="M45.6379 3.39868C68.9699 3.39868 87.884 15.6533 87.884 30.7698C87.8838 45.8839 68.9756 58.1361 45.6487 58.1399C45.6464 58.1399 45.6441 58.1409 45.6418 58.1409L45.6399 58.1399L45.6379 58.1409C22.3062 58.1408 3.39204 45.8861 3.39185 30.7698C3.39185 15.6533 22.306 3.39877 45.6379 3.39868ZM45.6399 6.79907C32.0043 6.80004 21.0766 17.6004 21.0764 30.7698C21.0764 43.9393 32.0041 54.7385 45.6399 54.7395C45.6431 54.7395 45.6464 54.7395 45.6497 54.7395C59.2826 54.7353 70.2073 43.9373 70.2073 30.7698C70.2071 17.6024 59.2825 6.80326 45.6497 6.79907C45.6464 6.79907 45.6431 6.79907 45.6399 6.79907ZM28.175 9.3938C24.208 10.6467 20.643 12.3067 17.6145 14.2688C10.5632 18.8373 6.79224 24.748 6.79224 30.7698C6.79233 36.7915 10.5633 42.7014 17.6145 47.2698C20.6422 49.2314 24.2064 50.8898 28.1721 52.1428C21.7741 47.1269 17.676 39.4171 17.676 30.7698C17.6761 22.121 21.775 14.4096 28.175 9.3938ZM63.1125 9.39868C69.5097 14.4146 73.6076 22.1232 73.6077 30.7698C73.6077 39.4149 69.5107 47.1219 63.1155 52.1379C67.0768 50.8854 70.6376 49.2295 73.6624 47.2698C80.7133 42.7014 84.4845 36.7914 84.4846 30.7698C84.4846 24.748 80.7135 18.8372 73.6624 14.2688C70.6367 12.3085 67.0752 10.6512 63.1125 9.39868Z"/>
</mask>
<path d="M45.6379 3.39868C68.9699 3.39868 87.884 15.6533 87.884 30.7698C87.8838 45.8839 68.9756 58.1361 45.6487 58.1399C45.6464 58.1399 45.6441 58.1409 45.6418 58.1409L45.6399 58.1399L45.6379 58.1409C22.3062 58.1408 3.39204 45.8861 3.39185 30.7698C3.39185 15.6533 22.306 3.39877 45.6379 3.39868ZM45.6399 6.79907C32.0043 6.80004 21.0766 17.6004 21.0764 30.7698C21.0764 43.9393 32.0041 54.7385 45.6399 54.7395C45.6431 54.7395 45.6464 54.7395 45.6497 54.7395C59.2826 54.7353 70.2073 43.9373 70.2073 30.7698C70.2071 17.6024 59.2825 6.80326 45.6497 6.79907C45.6464 6.79907 45.6431 6.79907 45.6399 6.79907ZM28.175 9.3938C24.208 10.6467 20.643 12.3067 17.6145 14.2688C10.5632 18.8373 6.79224 24.748 6.79224 30.7698C6.79233 36.7915 10.5633 42.7014 17.6145 47.2698C20.6422 49.2314 24.2064 50.8898 28.1721 52.1428C21.7741 47.1269 17.676 39.4171 17.676 30.7698C17.6761 22.121 21.775 14.4096 28.175 9.3938ZM63.1125 9.39868C69.5097 14.4146 73.6076 22.1232 73.6077 30.7698C73.6077 39.4149 69.5107 47.1219 63.1155 52.1379C67.0768 50.8854 70.6376 49.2295 73.6624 47.2698C80.7133 42.7014 84.4845 36.7914 84.4846 30.7698C84.4846 24.748 80.7135 18.8372 73.6624 14.2688C70.6367 12.3085 67.0752 10.6512 63.1125 9.39868Z" fill="#FFF239"/>
<path d="M45.6379 3.39868V2.88867V2.88867V3.39868ZM87.884 30.7698L88.3941 30.7698V30.7698H87.884ZM45.6487 58.1399L45.6486 57.6299H45.6486L45.6487 58.1399ZM45.6418 58.1409L45.4138 58.597L45.5215 58.6509H45.6418L45.6418 58.1409ZM45.6399 58.1399L45.868 57.6837L45.6399 57.5697L45.4118 57.6837L45.6399 58.1399ZM45.6379 58.1409V58.6509H45.7583L45.866 58.597L45.6379 58.1409ZM3.39185 30.7698H2.88183V30.7698L3.39185 30.7698ZM45.6399 6.79907L45.6399 6.28906L45.6399 6.28906L45.6399 6.79907ZM21.0764 30.7698L20.5664 30.7698V30.7698H21.0764ZM45.6399 54.7395L45.6399 55.2495H45.6399L45.6399 54.7395ZM45.6497 54.7395L45.6498 55.2495H45.6498L45.6497 54.7395ZM70.2073 30.7698H70.7173V30.7698L70.2073 30.7698ZM45.6497 6.79907L45.6498 6.28906H45.6498L45.6497 6.79907ZM28.175 9.3938L28.4897 9.79522L28.0215 8.90746L28.175 9.3938ZM17.6145 14.2688L17.3372 13.8408L17.3372 13.8408L17.6145 14.2688ZM6.79224 30.7698H6.28222L6.28222 30.7698L6.79224 30.7698ZM17.6145 47.2698L17.3372 47.6978H17.3372L17.6145 47.2698ZM28.1721 52.1428L28.0185 52.6291L28.4868 51.7415L28.1721 52.1428ZM17.676 30.7698L17.166 30.7698V30.7698H17.676ZM63.1125 9.39868L63.2663 8.91238L62.7979 9.80003L63.1125 9.39868ZM73.6077 30.7698H74.1177V30.7698L73.6077 30.7698ZM63.1155 52.1379L62.8007 51.7366L63.2692 52.6242L63.1155 52.1379ZM73.6624 47.2698L73.9397 47.6978L73.9397 47.6978L73.6624 47.2698ZM84.4846 30.7698L84.9946 30.7698V30.7698H84.4846ZM73.6624 14.2688L73.9397 13.8408L73.9397 13.8408L73.6624 14.2688ZM45.6379 3.39868V3.9087C57.2202 3.9087 67.6822 6.95131 75.2332 11.8436C82.7891 16.7391 87.374 23.442 87.374 30.7698H87.884H88.3941C88.3941 22.9811 83.5219 15.9984 75.7878 10.9875C68.0487 5.97334 57.3877 2.88867 45.6379 2.88867V3.39868ZM87.884 30.7698L87.374 30.7698C87.3739 38.0964 82.7904 44.7981 75.2365 49.6932C67.6877 54.585 57.2283 57.628 45.6486 57.6299L45.6487 58.1399L45.6488 58.6499C57.396 58.648 68.0542 55.563 75.7913 50.5492C83.5233 45.5387 88.394 38.5573 88.3941 30.7698L87.884 30.7698ZM45.6487 58.1399L45.6486 57.6299C45.6301 57.6299 45.6138 57.6309 45.6002 57.6322C45.5865 57.6334 45.5749 57.6351 45.566 57.6365C45.5572 57.6379 45.55 57.6393 45.5457 57.6402C45.5434 57.6406 45.5416 57.641 45.5404 57.6413C45.5394 57.6415 45.5384 57.6417 45.5384 57.6417C45.5376 57.6419 45.5405 57.6412 45.544 57.6405C45.5478 57.6398 45.5544 57.6385 45.5627 57.6372C45.571 57.6358 45.5821 57.6343 45.5951 57.633C45.6082 57.6318 45.624 57.6309 45.6418 57.6309L45.6418 58.1409L45.6418 58.6509C45.6603 58.6509 45.6766 58.6499 45.6903 58.6486C45.7039 58.6473 45.7155 58.6457 45.7244 58.6443C45.7333 58.6429 45.7404 58.6415 45.7448 58.6406C45.7471 58.6401 45.7489 58.6398 45.7501 58.6395C45.7511 58.6393 45.7521 58.6391 45.7521 58.6391C45.7529 58.6389 45.75 58.6395 45.7466 58.6402C45.7428 58.641 45.7362 58.6423 45.7279 58.6436C45.7196 58.6449 45.7085 58.6465 45.6955 58.6477C45.6824 58.6489 45.6666 58.6499 45.6488 58.6499L45.6487 58.1399ZM45.6418 58.1409L45.8699 57.6847L45.868 57.6837L45.6399 58.1399L45.4118 58.5961L45.4138 58.597L45.6418 58.1409ZM45.6399 58.1399L45.4118 57.6837L45.4099 57.6847L45.6379 58.1409L45.866 58.597L45.868 58.5961L45.6399 58.1399ZM45.6379 58.1409V57.6309C34.0558 57.6308 23.5938 54.5882 16.0429 49.6959C8.4869 44.8004 3.90195 38.0975 3.90186 30.7698L3.39185 30.7698L2.88183 30.7698C2.88193 38.5584 7.75414 45.541 15.4882 50.552C23.2273 55.5661 33.8883 58.6508 45.6379 58.6509V58.1409ZM3.39185 30.7698H3.90186C3.90186 23.442 8.48678 16.7391 16.0428 11.8436C23.5937 6.95137 34.0558 3.90874 45.6379 3.9087V3.39868V2.88867C33.8882 2.88871 23.2272 5.9734 15.4881 10.9876C7.75401 15.9985 2.88183 22.9811 2.88183 30.7698H3.39185ZM45.6399 6.79907L45.6399 6.28906C31.7325 6.29004 20.5666 17.3089 20.5664 30.7698L21.0764 30.7698L21.5864 30.7698C21.5866 17.8919 32.276 7.31004 45.6399 7.30909L45.6399 6.79907ZM21.0764 30.7698H20.5664C20.5664 44.2308 31.7324 55.2485 45.6399 55.2495L45.6399 54.7395L45.6399 54.2295C32.2759 54.2285 21.5864 43.6478 21.5864 30.7698H21.0764ZM45.6399 54.7395L45.6399 55.2495C45.643 55.2495 45.6465 55.2495 45.6498 55.2495L45.6497 54.7395L45.6496 54.2295C45.6463 54.2295 45.6433 54.2295 45.6399 54.2295L45.6399 54.7395ZM45.6497 54.7395L45.6498 55.2495C59.5544 55.2452 70.7173 44.2288 70.7173 30.7698H70.2073H69.6973C69.6973 43.6459 59.0108 54.2254 45.6495 54.2295L45.6497 54.7395ZM70.2073 30.7698L70.7173 30.7698C70.7171 17.3109 59.5543 6.29333 45.6498 6.28906L45.6497 6.79907L45.6495 7.30909C59.0106 7.31319 69.6971 17.8938 69.6973 30.7698L70.2073 30.7698ZM45.6497 6.79907L45.6498 6.28906C45.6465 6.28906 45.643 6.28906 45.6399 6.28906L45.6399 6.79907L45.6399 7.30909C45.6433 7.30909 45.6463 7.30909 45.6496 7.30909L45.6497 6.79907ZM28.175 9.3938L28.0215 8.90746C24.0154 10.1727 20.4081 11.8512 17.3372 13.8408L17.6145 14.2688L17.8918 14.6968C20.8779 12.7622 24.4005 11.1208 28.3286 9.88014L28.175 9.3938ZM17.6145 14.2688L17.3372 13.8408C10.1959 18.4675 6.28222 24.5183 6.28222 30.7698H6.79224H7.30225C7.30225 24.9777 10.9304 19.207 17.8918 14.6968L17.6145 14.2688ZM6.79224 30.7698L6.28222 30.7698C6.28232 37.0212 10.1961 43.0712 17.3372 47.6978L17.6145 47.2698L17.8918 46.8417C10.9306 42.3316 7.30234 36.5617 7.30225 30.7698L6.79224 30.7698ZM17.6145 47.2698L17.3372 47.6978C20.4074 49.6869 24.0139 51.3639 28.0185 52.6291L28.1721 52.1428L28.3258 51.6565C24.3988 50.4158 20.877 48.7758 17.8918 46.8417L17.6145 47.2698ZM28.1721 52.1428L28.4868 51.7415C22.2047 46.8164 18.186 39.2513 18.186 30.7698H17.676H17.166C17.166 39.5828 21.3434 47.4373 27.8575 52.5442L28.1721 52.1428ZM17.676 30.7698L18.186 30.7698C18.1861 22.2868 22.2057 14.7201 28.4897 9.79522L28.175 9.3938L27.8604 8.99238C21.3444 14.0992 17.1661 21.9552 17.166 30.7698L17.676 30.7698ZM63.1125 9.39868L62.7979 9.80003C69.0791 14.725 73.0975 22.289 73.0976 30.7698L73.6077 30.7698L74.1177 30.7698C74.1176 21.9574 69.9404 14.1042 63.4272 8.99733L63.1125 9.39868ZM73.6077 30.7698H73.0976C73.0976 39.2491 69.0801 46.8115 62.8007 51.7366L63.1155 52.1379L63.4302 52.5392C69.9414 47.4323 74.1177 39.5806 74.1177 30.7698H73.6077ZM63.1155 52.1379L63.2692 52.6242C67.2692 51.3594 70.8723 49.6851 73.9397 47.6978L73.6624 47.2698L73.385 46.8417C70.4028 48.7739 66.8844 50.4113 62.9617 51.6517L63.1155 52.1379ZM73.6624 47.2698L73.9397 47.6978C81.0805 43.0712 84.9945 37.0211 84.9946 30.7698L84.4846 30.7698L83.9746 30.7698C83.9745 36.5616 80.3461 42.3316 73.385 46.8417L73.6624 47.2698ZM84.4846 30.7698H84.9946C84.9946 24.5184 81.0808 18.4675 73.9397 13.8408L73.6624 14.2688L73.385 14.6968C80.3463 19.207 83.9746 24.9777 83.9746 30.7698H84.4846ZM73.6624 14.2688L73.9397 13.8408C70.8716 11.853 67.2677 10.1771 63.2663 8.91238L63.1125 9.39868L62.9588 9.88498C66.8827 11.1252 70.4019 12.7641 73.385 14.6968L73.6624 14.2688Z" fill="black" mask="url(#path-3-outside-1_13969_9632)"/>
</svg>
