<svg width="87" height="107" viewBox="0 0 87 107" fill="none" xmlns="http://www.w3.org/2000/svg">
<path d="M39.5235 16.6616L34.6401 51.4088C34.3745 53.2988 35.7852 55.0594 37.7911 55.3413L69.6398 59.8174C71.6456 60.0993 73.487 58.7957 73.7526 56.9057L78.636 22.1585C79.4533 16.3433 75.1126 10.9259 68.9408 10.0585L52.1783 7.7027C46.0066 6.83532 40.3408 10.8464 39.5235 16.6616Z" fill="#FF84DE"/>
<path d="M34.6288 51.4974C34.422 53.324 35.7726 55.0095 37.6974 55.3271L37.7911 55.3413L69.6398 59.8174C71.6142 60.0949 73.4294 58.8361 73.7391 56.994L73.7526 56.9057L78.636 22.1585C79.4533 16.3433 75.1126 10.9259 68.9408 10.0585L69.9968 2.545C79.9341 3.94159 87.6341 12.8659 86.1791 23.2187L81.2957 57.966C80.3923 64.3934 74.3551 68.142 68.5838 67.3309L36.7351 62.8549C30.9638 62.0438 26.1937 56.7763 27.097 50.3488L31.9804 15.6015C33.4354 5.24873 43.297 -1.20741 53.2343 0.189182L52.1783 7.7027C46.0066 6.83532 40.3408 10.8464 39.5235 16.6616L34.6401 51.4088L34.6288 51.4974ZM69.9968 2.545L68.9408 10.0585L52.1783 7.7027L53.2343 0.189182L69.9968 2.545Z" fill="#FF84DE"/>
<path d="M75.833 21.8314C76.4431 17.4906 73.1852 13.4443 68.5564 12.7938L51.7939 10.438C47.1651 9.78744 42.9181 12.779 42.3081 17.1197L37.4478 51.7023C37.3868 52.1364 37.7126 52.541 38.1755 52.6061L70.0242 57.0821C70.4871 57.1472 70.9118 56.848 70.9728 56.4139L75.833 21.8314ZM76.5603 57.1992C76.0925 60.5271 72.8366 62.8206 69.2878 62.3219L37.4391 57.8459C33.8903 57.3471 31.3926 54.245 31.8603 50.917L36.7206 16.3345C37.7373 9.09984 44.8156 4.11396 52.5303 5.1982L69.2928 7.55401C77.0075 8.63824 82.4373 15.382 81.4205 22.6166L76.5603 57.1992Z" fill="#D3FF6B"/>
<path d="M81.0015 22.5578C81.9825 15.577 76.7416 9.02653 69.2341 7.97143L52.4717 5.61561C44.9642 4.56051 38.1207 9.41266 37.1396 16.3934L32.2794 50.976C31.8474 54.05 34.1563 56.9588 37.4977 57.4284L69.3464 61.9045C72.6879 62.3741 75.7091 60.2144 76.1412 57.1404L81.0015 22.5578ZM75.414 21.7725C75.9883 17.6856 72.9193 13.8326 68.4977 13.2112L51.7353 10.8554C47.3137 10.2339 43.3015 13.0918 42.7271 17.1787L37.8669 51.7613C37.8416 51.9415 37.9786 52.1528 38.2341 52.1887L70.0828 56.6647C70.3384 56.7007 70.5283 56.5353 70.5537 56.3551L75.414 21.7725ZM71.3918 56.4729C71.2951 57.1608 70.6356 57.5938 69.9655 57.4996L38.1168 53.0235C37.4467 52.9294 36.9321 52.3314 37.0287 51.6435L41.889 17.0609C42.5347 12.4662 47.0165 9.34085 51.8526 10.0205L68.6151 12.3763C73.4512 13.056 76.8978 17.2956 76.2521 21.8903L71.3918 56.4729ZM76.9793 57.2582C76.4759 60.84 72.9851 63.2672 69.2291 62.7393L37.3804 58.2633C33.6244 57.7354 30.9379 54.44 31.4412 50.8582L36.3015 16.2756C37.354 8.78708 44.667 3.66742 52.589 4.78078L69.3515 7.13659C77.2735 8.24996 82.892 15.187 81.8396 22.6756L76.9793 57.2582Z" fill="black"/>
<path d="M13.4475 79.3957L29.0159 66.1376C29.8145 65.4575 30.868 65.1518 31.909 65.2981L69.349 70.56C70.9964 70.7915 71.6379 72.824 70.4192 73.9506L51.2283 91.6912C45.57 96.9219 37.8458 99.3342 30.1971 98.2592L18.499 96.6152C8.54128 95.2157 2.51694 86.3901 13.4475 79.3957Z" fill="#FF84DE"/>
<path d="M29.1413 105.773C39.0593 107.167 49.0755 104.039 56.4126 97.256L75.6033 79.5155C81.5227 74.0433 78.4066 64.171 70.4049 63.0464L32.9651 57.7846C29.762 57.3345 26.5203 58.275 24.0631 60.3676L8.85772 73.3169C5.52481 75.5371 2.79286 78.3223 1.2631 81.7552C-0.417116 85.5258 -0.378691 89.5149 1.12758 93.057C3.93397 99.6563 10.9368 103.214 17.443 104.129L18.499 96.6152C8.54128 95.2157 2.51694 86.3901 13.4475 79.3957L29.0159 66.1376C29.7895 65.4788 30.8024 65.1714 31.8113 65.2858L31.909 65.2981L69.349 70.56C70.9706 70.7879 71.6176 72.7609 70.4749 73.8971L70.4192 73.9506L51.2283 91.6912C45.6584 96.8401 38.0867 99.2581 30.5558 98.3071L30.1971 98.2592L29.1413 105.773ZM29.1413 105.773L30.1971 98.2592L18.499 96.6152L17.443 104.129L29.1413 105.773Z" fill="#FF84DE"/>
<path d="M29.8066 101.042C38.2957 102.235 46.8689 99.5578 53.149 93.7523L72.3399 76.0118C75.6411 72.8632 75.1913 68.969 69.6821 68.1947L32.242 62.9328C30.4003 62.674 28.5365 63.2149 27.1236 64.418L11.6138 77.2587C-0.31082 86.239 6.33414 97.7433 18.1086 99.398L29.8066 101.042ZM18.8907 93.8325C12.0055 92.8648 9.49385 86.4107 15.2826 81.5329L30.8508 68.2748C31.0351 68.1179 31.2783 68.0473 31.5185 68.081L67.1958 73.0951L49.3091 89.6303C44.2726 94.2861 37.3969 96.4333 30.5887 95.4765L18.8907 93.8325Z" fill="#D3FF6B"/>
<path d="M29.7479 101.46C38.3631 102.67 47.0635 99.9532 53.4369 94.0616L72.6278 76.3211C72.6294 76.3196 72.6311 76.318 72.6326 76.3165C74.3357 74.6921 75.1689 72.7823 74.7241 71.1056C74.2725 69.4038 72.5725 68.1753 69.7408 67.7773L32.3007 62.5154C30.3408 62.24 28.3574 62.8147 26.8529 64.0937L11.3475 76.9308C5.28801 81.4993 3.85145 86.8027 5.57975 91.2279C7.29166 95.6112 12.0531 98.9727 18.0499 99.8155L29.7479 101.46ZM18.1673 98.9806C12.3897 98.1686 7.94124 94.9506 6.36821 90.923C4.83694 87.0023 5.9765 82.159 11.5981 77.8021L11.8693 77.595L11.8843 77.583L27.3941 64.7423L27.3988 64.7385C28.7195 63.6139 30.4618 63.1083 32.1834 63.3503L69.6234 68.6121C72.3008 68.9884 73.5804 70.0941 73.9057 71.3201C74.2374 72.57 73.6464 74.1798 72.0517 75.7028L52.8608 93.443C46.674 99.1622 38.2283 101.8 29.8653 100.625L18.1673 98.9806ZM30.5301 95.8939C37.4643 96.8685 44.4672 94.6816 49.597 89.9395L67.4837 73.4044C67.6034 73.2938 67.6484 73.1242 67.5994 72.9689C67.5504 72.8138 67.4162 72.7004 67.2545 72.6777L31.5772 67.6636C31.2168 67.613 30.852 67.719 30.5757 67.9543L15.009 81.211C12.0206 83.7292 11.0999 86.7304 11.9316 89.279C12.759 91.8144 15.2731 93.7497 18.8321 94.2499L30.5301 95.8939ZM18.9494 93.4151C15.6233 92.9476 13.4388 91.172 12.7362 89.019C12.0489 86.9126 12.7337 84.2976 15.4263 81.9657L15.556 81.8548L15.5578 81.8534L31.126 68.5953C31.2182 68.5169 31.3399 68.4816 31.4599 68.4984L66.2557 73.3887L49.021 89.321C44.0777 93.8906 37.3295 95.9982 30.6474 95.0591L18.9494 93.4151Z" fill="black"/>
<path d="M45.155 21.1882L41.1658 49.5726C41.1442 49.7263 41.2518 49.8684 41.4061 49.8901L67.6673 53.5809C67.8216 53.6026 67.9642 53.4956 67.9858 53.3419L71.975 24.9575C72.2342 23.1132 70.9433 21.4072 69.0918 21.147L48.9768 18.32C47.1253 18.0598 45.4142 19.3439 45.155 21.1882Z" fill="#F14FC5"/>
<path d="M28.1272 75.7058L27.1841 76.3724C26.1438 77.1077 26.5417 78.7326 27.8055 78.9102L30.9828 79.3567C31.9101 79.487 32.852 79.2591 33.6153 78.7196L34.5585 78.053C35.5988 77.3178 35.2009 75.6929 33.9371 75.5153L30.7598 75.0687C29.8324 74.9384 28.8906 75.1664 28.1272 75.7058Z" fill="black" fill-opacity="0.4"/>
<path d="M33.9957 75.0979C35.6387 75.3288 36.1559 77.4411 34.8035 78.3969L33.8604 79.0636C33.009 79.6653 31.9585 79.9195 30.9241 79.7741L27.7468 79.3276C26.1038 79.0967 25.5866 76.9843 26.939 76.0285L27.8821 75.3618C28.7335 74.7601 29.7841 74.506 30.8184 74.6513L33.9957 75.0979ZM30.701 75.4862C29.8807 75.3709 29.0474 75.5726 28.3722 76.0498L27.4291 76.7162C26.7009 77.2309 26.9795 78.3684 27.8641 78.4928L31.0415 78.9393C31.8618 79.0546 32.6951 78.8529 33.3703 78.3756L34.3134 77.7092C35.0416 77.1946 34.763 76.057 33.8784 75.9327L30.701 75.4862Z" fill="black"/>
<path d="M21.9706 80.8829L20.8201 81.753C19.8217 82.5081 20.2362 84.0894 21.4781 84.264L24.7458 84.7232C25.7137 84.8592 26.6956 84.6048 27.4737 84.0164L28.6242 83.1463C29.6225 82.3913 29.2081 80.81 27.9661 80.6354L24.6984 80.1762C23.7306 80.0401 22.7486 80.2945 21.9706 80.8829Z" fill="black" fill-opacity="0.4"/>
<path d="M28.0249 80.218C29.6395 80.4449 30.1783 82.5007 28.8804 83.4822L27.7298 84.3522C26.8621 85.0085 25.767 85.2924 24.6875 85.1407L21.4198 84.6814C19.8052 84.4545 19.2664 82.3988 20.5643 81.4172L21.7148 80.5472C22.5826 79.8909 23.6777 79.6071 24.7572 79.7588L28.0249 80.218ZM24.6399 80.5936C23.7837 80.4733 22.9152 80.6984 22.227 81.2189L21.0764 82.0889C20.3775 82.6174 20.6677 83.7244 21.5371 83.8466L24.8048 84.3058C25.661 84.4261 26.5295 84.201 27.2177 83.6806L28.3683 82.8105C29.0671 82.282 28.7769 81.175 27.9075 81.0528L24.6399 80.5936Z" fill="black"/>
<path d="M20.5515 86.9265L19.4009 87.7966C18.4026 88.5517 18.817 90.133 20.059 90.3076L23.3267 90.7668C24.2945 90.9028 25.2765 90.6484 26.0545 90.06L27.205 89.1899C28.2034 88.4349 27.789 86.8535 26.547 86.679L23.2793 86.2198C22.3114 86.0837 21.3295 86.3381 20.5515 86.9265Z" fill="black" fill-opacity="0.4"/>
<path d="M26.6057 86.2616C28.2203 86.4885 28.7591 88.5443 27.4612 89.5258L26.3107 90.3958C25.4429 91.0521 24.3478 91.336 23.2683 91.1843L20.0007 90.725C18.3861 90.4981 17.8472 88.4424 19.1451 87.4608L20.2957 86.5908C21.1634 85.9346 22.2585 85.6507 23.338 85.8024L26.6057 86.2616ZM23.2207 86.6372C22.3646 86.5169 21.496 86.742 20.8078 87.2625L19.6572 88.1325C18.9584 88.661 19.2486 89.768 20.118 89.8902L23.3856 90.3494C24.2418 90.4697 25.1103 90.2446 25.7986 89.7242L26.9491 88.8541C27.648 88.3256 27.3578 87.2186 26.4884 87.0964L23.2207 86.6372Z" fill="black"/>
<path d="M37.455 76.9891L36.4728 77.6673C35.4183 78.3953 35.8103 80.0352 37.0816 80.2138L40.4058 80.681C41.3194 80.8094 42.2476 80.5902 43.0054 80.0669L43.9876 79.3888C45.0421 78.6607 44.6501 77.0209 43.3788 76.8422L40.0546 76.375C39.141 76.2467 38.2128 76.4659 37.455 76.9891Z" fill="black" fill-opacity="0.4"/>
<path d="M43.4375 76.4248C45.0901 76.6572 45.5995 78.7889 44.2287 79.7354L43.2467 80.4135C42.4015 80.9971 41.3661 81.2416 40.3471 81.0985L37.0227 80.6312C35.3702 80.3989 34.8608 78.2671 36.2316 77.3207L37.2136 76.6425C38.0588 76.0589 39.0942 75.8144 40.1131 75.9576L43.4375 76.4248ZM39.9958 76.7924C39.1877 76.6789 38.3666 76.873 37.6962 77.3358L36.714 78.0139C35.976 78.5236 36.2503 79.6713 37.1401 79.7964L40.4645 80.2636C41.2726 80.3772 42.0937 80.1831 42.7641 79.7202L43.7463 79.0422C44.4843 78.5325 44.2099 77.3848 43.3202 77.2597L39.9958 76.7924Z" fill="black"/>
<path d="M31.4302 82.4962L30.2797 83.3663C29.2813 84.1213 29.6958 85.7027 30.9378 85.8772L34.2055 86.3365C35.1733 86.4725 36.1553 86.2181 36.9333 85.6297L38.0838 84.7596C39.0822 84.0046 38.6677 82.4232 37.4257 82.2486L34.1581 81.7894C33.1902 81.6534 32.2083 81.9078 31.4302 82.4962Z" fill="black" fill-opacity="0.4"/>
<path d="M37.4845 81.8312C39.0991 82.0581 39.6379 84.1139 38.34 85.0954L37.1895 85.9655C36.3217 86.6217 35.2266 86.9056 34.1471 86.7539L30.8794 86.2947C29.2648 86.0678 28.726 84.012 30.0239 83.0305L31.1745 82.1604C32.0422 81.5042 33.1373 81.2203 34.2168 81.372L37.4845 81.8312ZM34.0995 82.2068C33.2433 82.0865 32.3748 82.3116 31.6866 82.8321L30.536 83.7021C29.8372 84.2307 30.1274 85.3377 30.9968 85.4598L34.2644 85.9191C35.1206 86.0394 35.9891 85.8143 36.6773 85.2938L37.8279 84.4238C38.5268 83.8952 38.2366 82.7882 37.3672 82.6661L34.0995 82.2068Z" fill="black"/>
<path d="M29.972 88.818L28.8214 89.6881C27.8231 90.4432 28.2375 92.0245 29.4795 92.1991L32.7472 92.6583C33.7151 92.7944 34.697 92.54 35.475 91.9516L36.6255 91.0815C37.6239 90.3264 37.2095 88.7451 35.9675 88.5705L32.6998 88.1113C31.7319 87.9753 30.75 88.2297 29.972 88.818Z" fill="black" fill-opacity="0.4"/>
<path d="M36.0262 88.1531C37.6408 88.38 38.1796 90.4358 36.8817 91.4173L35.7312 92.2874C34.8634 92.9436 33.7683 93.2275 32.6888 93.0758L29.4212 92.6166C27.8066 92.3896 27.2678 90.3339 28.5656 89.3523L29.7162 88.4823C30.584 87.8261 31.6791 87.5422 32.7586 87.6939L36.0262 88.1531ZM32.6412 88.5287C31.7851 88.4084 30.9165 88.6335 30.2283 89.154L29.0778 90.024C28.3789 90.5525 28.6691 91.6595 29.5385 91.7817L32.8061 92.241C33.6623 92.3613 34.5309 92.1362 35.2191 91.6157L36.3696 90.7456C37.0685 90.2171 36.7783 89.1101 35.9089 88.9879L32.6412 88.5287Z" fill="black"/>
<path d="M46.9537 78.3241L45.9716 79.0022C44.917 79.7303 45.309 81.3701 46.5803 81.5488L49.9045 82.016C50.8181 82.1444 51.7464 81.9251 52.5042 81.4019L53.4863 80.7238C54.5408 79.9957 54.1488 78.3559 52.8775 78.1772L49.5533 77.71C48.6397 77.5816 47.7115 77.8009 46.9537 78.3241Z" fill="black" fill-opacity="0.4"/>
<path d="M52.9363 77.7598C54.5888 77.9921 55.0983 80.1239 53.7274 81.0704L52.7454 81.7485C51.9002 82.3321 50.8649 82.5766 49.8459 82.4334L46.5215 81.9662C44.8689 81.7338 44.3595 79.6021 45.7303 78.6556L46.7123 77.9775C47.5576 77.3939 48.5929 77.1494 49.6119 77.2926L52.9363 77.7598ZM49.4945 78.1274C48.6864 78.0138 47.8653 78.2079 47.195 78.6708L46.2127 79.3489C45.4747 79.8586 45.7491 81.0062 46.6388 81.1314L49.9632 81.5986C50.7714 81.7121 51.5924 81.518 52.2628 81.0552L53.245 80.3771C53.983 79.8674 53.7087 78.7198 52.8189 78.5946L49.4945 78.1274Z" fill="black"/>
<path d="M40.929 83.8311L39.7784 84.7012C38.7801 85.4563 39.1945 87.0376 40.4365 87.2122L43.7042 87.6714C44.6721 87.8074 45.654 87.553 46.432 86.9646L47.5825 86.0945C48.5809 85.3395 48.1665 83.7581 46.9245 83.5836L43.6568 83.1244C42.6889 82.9883 41.707 83.2427 40.929 83.8311Z" fill="black" fill-opacity="0.4"/>
<path d="M46.9832 83.1662C48.5978 83.3931 49.1366 85.4489 47.8388 86.4304L46.6882 87.3004C45.8204 87.9567 44.7253 88.2406 43.6458 88.0889L40.3782 87.6296C38.7636 87.4027 38.2248 85.347 39.5226 84.3654L40.6732 83.4954C41.541 82.8392 42.6361 82.5553 43.7156 82.707L46.9832 83.1662ZM43.5982 83.5418C42.7421 83.4215 41.8735 83.6466 41.1853 84.1671L40.0348 85.0371C39.3359 85.5656 39.6261 86.6726 40.4955 86.7948L43.7632 87.254C44.6193 87.3743 45.4879 87.1492 46.1761 86.6288L47.3266 85.7587C48.0255 85.2302 47.7353 84.1232 46.8659 84.001L43.5982 83.5418Z" fill="black"/>
<path d="M66.9491 65.0691C66.749 66.4927 65.4755 67.4906 63.7599 67.2495L41.4394 64.0836C39.7238 63.8425 38.7747 62.5322 38.9748 61.1085L39.0324 60.6984C39.2325 59.2748 40.506 58.2769 42.2216 58.518L64.5421 61.6839C66.2577 61.925 67.2068 63.2353 67.0067 64.659L66.9491 65.0691Z" fill="#D3FF6B"/>
<path d="M38.5557 61.0498L38.6134 60.6394C38.8486 58.966 40.3532 57.8298 42.2801 58.1006L64.6012 61.2667C66.5281 61.5376 67.6611 63.0444 67.4259 64.7178L67.3682 65.1279C67.133 66.8015 65.6282 67.9378 63.7012 67.667L41.3803 64.5009C39.4536 64.2299 38.3206 62.7232 38.5557 61.0498ZM39.3938 61.1676C39.2289 62.3412 39.994 63.4547 41.4979 63.6661L63.8186 66.8319C65.3226 67.0433 66.3652 66.1839 66.5301 65.0101L66.5877 64.6001C66.7527 63.4263 65.9874 62.3128 64.4834 62.1014L42.1625 58.9354C40.6587 58.7242 39.6165 59.5836 39.4515 60.7572L39.3938 61.1676Z" fill="black"/>
<path d="M63.615 15.8368L54.9543 14.6197C54.26 14.5221 53.6184 15.0036 53.5212 15.6952C53.424 16.3868 53.908 17.0266 54.6024 17.1242L63.263 18.3414C63.9573 18.4389 64.5989 17.9574 64.6961 17.2658C64.7933 16.5742 64.3093 15.9344 63.615 15.8368Z" fill="#FF84DE"/>
<path d="M64.2771 17.2069C64.3419 16.7458 64.0192 16.3193 63.5563 16.2543L54.8957 15.0371C54.4328 14.972 54.005 15.2931 53.9402 15.7541C53.8754 16.2152 54.1981 16.6417 54.661 16.7068L63.3216 17.9239C63.7845 17.989 64.2123 17.668 64.2771 17.2069ZM65.1152 17.3247C64.9856 18.2468 64.1301 18.8889 63.2043 18.7588L54.5437 17.5416C53.6179 17.4115 52.9725 16.5585 53.1021 15.6363C53.2317 14.7142 54.0872 14.0721 55.013 14.2023L63.6736 15.4194C64.5994 15.5495 65.2448 16.4025 65.1152 17.3247Z" fill="black"/>
</svg>
