<svg width="130" height="130" viewBox="0 0 130 130" fill="none" xmlns="http://www.w3.org/2000/svg">
<path d="M106.424 111.434C104.899 117.909 98.6304 122.132 92.0222 121.136L91.7059 121.088C87.3561 120.432 82.9722 122.042 80.0929 125.352L79.8836 125.592C75.5094 130.621 67.9865 131.461 62.6006 127.523L62.3428 127.335C58.7976 124.742 54.1641 124.14 50.0688 125.74L49.7711 125.856C43.5494 128.286 36.4957 125.551 33.5659 119.574L33.4257 119.288C31.4972 115.353 27.6757 112.678 23.3025 112.2L22.9845 112.165C16.3407 111.44 11.3721 105.757 11.5696 99.1096L11.5791 98.7914C11.7091 94.4158 9.57495 90.2796 5.92572 87.8345L5.66038 87.6567C0.116454 83.9422 -1.62884 76.6127 1.65076 70.818L1.80773 70.5407C3.96649 66.7264 4.00864 62.0771 1.91936 58.2246L1.76745 57.9445C-1.40659 52.0919 0.471281 44.7949 6.08164 41.1805L6.35015 41.0075C10.0431 38.6284 12.2519 34.5311 12.2012 30.1538L12.1975 29.8356C12.1205 23.1856 17.1913 17.5928 23.8472 16.9867L24.1657 16.9577C28.5469 16.5587 32.4163 13.9521 34.4158 10.0528L34.5612 9.76925C37.5988 3.84542 44.701 1.23801 50.8775 3.77901L51.1732 3.90063C55.2388 5.57321 59.8824 5.05442 63.4741 2.52636L63.7352 2.34254C69.1917 -1.49811 76.6981 -0.522789 80.9804 4.58324L81.1853 4.82762C84.0041 8.18861 88.3581 9.8765 92.7191 9.29881L93.0362 9.25681C99.6614 8.37917 105.852 12.7138 107.259 19.2151L107.327 19.5263C108.253 23.8057 111.32 27.3136 115.451 28.8187L115.752 28.9281C122.028 31.2145 125.485 37.9154 123.695 44.3227L123.609 44.6294C122.43 48.8469 123.508 53.3711 126.463 56.6141L126.678 56.8499C131.167 61.7766 131.099 69.3087 126.521 74.1541L126.302 74.386C123.288 77.5754 122.129 82.0796 123.231 86.3176L123.311 86.6257C124.985 93.0641 121.407 99.7019 115.09 101.875L114.788 101.979C110.63 103.41 107.5 106.862 106.497 111.124L106.424 111.434Z" fill="url(#paint0_linear_13969_9628)"/>
<path d="M120.672 56.1567C125.466 61.4079 125.402 69.444 120.524 74.6188L119.406 75.8057C117.931 77.3702 117.366 79.578 117.908 81.6541L118.319 83.2294C120.112 90.0966 116.303 97.1828 109.568 99.5089L108.022 100.043C105.986 100.746 104.455 102.439 103.965 104.528L103.594 106.113C101.975 113.023 95.2931 117.536 88.2431 116.48L86.6257 116.238C84.4943 115.919 82.3474 116.71 80.9386 118.333L79.8696 119.565C75.2096 124.935 67.1859 125.84 61.4362 121.645L60.1173 120.683C58.379 119.414 56.1087 119.122 54.1032 119.908L52.5815 120.504C45.9478 123.103 38.4204 120.194 35.2883 113.82L34.5697 112.358C33.6228 110.431 31.7492 109.122 29.6064 108.89L27.9805 108.714C20.8928 107.948 15.5862 101.891 15.7892 94.7982L15.836 93.1713C15.8974 91.0271 14.8493 89.0012 13.0602 87.805L11.7028 86.8973C5.78486 82.9406 3.91482 75.1229 7.40645 68.9367L8.20743 67.5176C9.26298 65.6475 9.28117 63.3691 8.25558 61.4825L7.47735 60.0509C4.08488 53.8104 6.07943 46.0232 12.0597 42.1605L13.4314 41.2744C15.2394 40.1066 16.3197 38.0975 16.2925 35.9526L16.2717 34.3251C16.1819 27.2304 21.5846 21.2576 28.6836 20.6033L30.312 20.4532C32.4582 20.2554 34.3525 18.9759 35.33 17.0642L36.0719 15.6136C39.3053 9.28993 46.8782 6.50003 53.4696 9.20395L54.9816 9.82408C56.9743 10.6415 59.249 10.3849 61.0072 9.14427L62.3414 8.20267C68.1573 4.09882 76.1655 5.13096 80.7393 10.5737L81.7884 11.8222C83.1711 13.4676 85.3052 14.2923 87.4414 14.007L89.0624 13.7905C96.1285 12.8466 102.737 17.4643 104.246 24.399L104.592 25.9895C105.048 28.086 106.552 29.8033 108.577 30.5386L110.114 31.0966C116.811 33.5288 120.507 40.6743 118.604 47.5123L118.168 49.0809C117.592 51.1482 118.123 53.3646 119.572 54.9522L120.672 56.1567ZM115.132 69.5846C117.372 67.2078 117.402 63.5169 115.2 61.105L114.1 59.9005C110.944 56.444 109.79 51.6181 111.042 47.1171L111.479 45.5485C112.353 42.4079 110.655 39.1261 107.579 38.009L106.043 37.4511C101.634 35.8501 98.3584 32.111 97.3655 27.5463L97.0195 25.9554C96.3266 22.7705 93.2913 20.6496 90.046 21.0832L88.4252 21.3C83.7741 21.9213 79.1274 20.1253 76.1168 16.5427L75.0677 15.2941C72.9669 12.7944 69.289 12.3205 66.6179 14.2054L65.2838 15.1466C61.4555 17.848 56.5026 18.407 52.1638 16.6272L50.6518 16.0067C47.6245 14.7649 44.1463 16.0462 42.6612 18.9506L41.9197 20.4012C39.7913 24.5636 35.6668 27.3493 30.994 27.7801L29.3652 27.9302C26.1048 28.2308 23.6237 30.9739 23.6649 34.2323L23.6854 35.8598C23.7445 40.5298 21.393 44.904 17.4565 47.4466L16.0848 48.3327C13.3381 50.1068 12.422 53.6833 13.9801 56.5495L14.7583 57.9811C16.9914 62.0888 16.9518 67.0494 14.6535 71.1214L13.8525 72.5405C12.2489 75.3817 13.1078 78.9722 15.8258 80.7895L17.1832 81.6972C21.0787 84.3016 23.3601 88.7124 23.2264 93.3809L23.18 95.0078C23.0868 98.2652 25.5238 101.047 28.779 101.399L30.4052 101.575C35.0705 102.08 39.1501 104.93 41.2118 109.126L41.93 110.588C43.3686 113.515 46.8259 114.851 49.8727 113.657L51.3944 113.061C55.761 111.35 60.7044 111.987 64.489 114.749L65.808 115.711C68.4487 117.638 72.1337 117.222 74.274 114.756L75.343 113.524C78.4104 109.989 83.0851 108.267 87.7258 108.962L89.3428 109.204C92.5808 109.689 95.6497 107.616 96.3932 104.443L96.7646 102.857C97.8302 98.3089 101.165 94.622 105.599 93.0909L107.144 92.5573C110.237 91.489 111.987 88.2344 111.163 85.0804L110.752 83.5051C109.571 78.9848 110.803 74.1778 114.013 70.7715L115.132 69.5846Z" fill="#B9F081"/>
<path d="M121.056 55.8089C126.033 61.2596 125.966 69.6011 120.903 74.9725L119.785 76.1594C118.432 77.5944 117.913 79.6197 118.411 81.5241L118.822 83.0992C120.683 90.2272 116.729 97.5829 109.738 99.9975L108.193 100.531C106.325 101.176 104.92 102.729 104.471 104.646L104.1 106.23C102.419 113.403 95.4838 118.087 88.1658 116.992L86.5484 116.75C84.5934 116.457 82.6242 117.182 81.332 118.671L80.2628 119.903C75.4257 125.477 67.0972 126.417 61.129 122.062L59.81 121.1C58.2156 119.936 56.133 119.668 54.2935 120.389L52.772 120.985C45.886 123.683 38.0723 120.663 34.8212 114.047L34.1027 112.585C33.2341 110.818 31.5156 109.617 29.5502 109.404L27.9242 109.228C20.5671 108.433 15.0589 102.145 15.2696 94.7834L15.3164 93.1563C15.3726 91.1896 14.4114 89.3313 12.7704 88.2341L11.4127 87.3265C5.26998 83.2194 3.32896 75.1045 6.9532 68.6834L7.75422 67.2643C8.7224 65.5488 8.73908 63.4591 7.79839 61.7286L7.02011 60.297C3.49879 53.8195 5.56905 45.7362 11.7766 41.7267L13.1485 40.8407C14.8069 39.7695 15.798 37.9264 15.7731 35.9589L15.7519 34.3317C15.6587 26.9675 21.2666 20.7676 28.6355 20.0884L30.2641 19.9383C32.2326 19.7568 33.9701 18.5832 34.8667 16.8295L35.6088 15.379C38.9651 8.81511 46.8257 5.91913 53.6677 8.72584L55.1795 9.34613C57.0073 10.0959 59.0939 9.86052 60.7067 8.72254L62.0405 7.781C68.0775 3.52117 76.3902 4.59248 81.1378 10.242L82.1872 11.4906C83.4555 12.9998 85.4129 13.7563 87.3722 13.4946L88.9933 13.2778C96.3279 12.298 103.188 17.0915 104.754 24.2896L105.1 25.88C105.518 27.8031 106.898 29.3784 108.755 30.0528L110.292 30.6107L110.615 30.7328C117.362 33.3672 121.049 40.6635 119.105 47.6504L118.668 49.2188C118.141 51.1151 118.627 53.1482 119.957 54.6044L121.056 55.8089ZM120.145 74.2649C124.838 69.2868 124.899 61.5561 120.287 56.5045L119.187 55.3C117.618 53.5811 117.044 51.1811 117.667 48.9429L118.103 47.3741C119.934 40.796 116.378 33.922 109.935 31.5822L108.399 31.0243C106.206 30.2281 104.577 28.3687 104.084 26.0989L103.738 24.5085C102.287 17.8372 95.929 13.395 89.1316 14.303L87.5106 14.5195C85.1976 14.8284 82.887 13.9354 81.3898 12.1539L80.3404 10.9053C75.9405 5.6696 68.2369 4.67646 62.6421 8.62403L61.3079 9.56591C59.4042 10.9092 56.9411 11.1872 54.7835 10.3022L53.2716 9.68186C46.9308 7.08085 39.6454 9.76462 36.5348 15.8479L35.7931 17.2988C34.7347 19.3686 32.6836 20.754 30.3598 20.9682L28.7314 21.1183L28.4125 21.1514C21.7411 21.9275 16.7064 27.6001 16.7914 34.3187L16.8119 35.9459L16.8112 36.1634C16.7675 38.4035 15.6107 40.4831 13.7144 41.708L12.3425 42.594C6.58949 46.3099 4.67094 53.8015 7.93453 59.805L8.71247 61.2365C9.82288 63.2792 9.8032 65.7458 8.66034 67.7707L7.85965 69.1898C4.50067 75.1409 6.29944 82.6619 11.9924 86.4682L13.35 87.3758C15.2266 88.6305 16.35 90.7281 16.358 92.9686L16.3552 93.1861L16.3088 94.8131C16.1136 101.636 21.2184 107.463 28.0366 108.2L29.6623 108.376C31.9824 108.627 34.0112 110.044 35.0364 112.131L35.7549 113.593C38.768 119.725 46.0094 122.523 52.3909 120.023L53.9128 119.427C56.0842 118.576 58.5426 118.893 60.4247 120.266L61.7436 121.228C67.1883 125.201 74.7526 124.419 79.2637 119.466L79.4761 119.227L80.5453 117.995C82.0707 116.238 84.3953 115.381 86.703 115.727L88.3204 115.969C95.1024 116.984 101.53 112.643 103.088 105.995L103.459 104.411C103.989 102.149 105.647 100.315 107.852 99.554L109.397 99.0205C115.877 96.7828 119.541 89.9658 117.816 83.3595L117.405 81.7841C116.818 79.5363 117.43 77.1457 119.027 75.4519L120.145 74.2649ZM115.584 60.7574C117.969 63.3687 117.937 67.3649 115.511 69.9382L114.392 71.1252C111.304 74.402 110.119 79.0265 111.255 83.375L111.666 84.9502C112.558 88.365 110.663 91.889 107.314 93.0458L105.769 93.5793C101.504 95.0523 98.2956 98.5991 97.2705 102.975L96.8992 104.56C96.0941 107.996 92.7716 110.24 89.2656 109.715L87.6482 109.473C83.184 108.805 78.687 110.462 75.7362 113.862L74.6673 115.094L74.5574 115.217C72.2255 117.777 68.3154 118.181 65.5007 116.128L64.1817 115.166C60.5409 112.509 55.7854 111.896 51.5849 113.542L50.063 114.138C46.764 115.431 43.0206 113.984 41.463 110.815L40.7449 109.353C38.7615 105.317 34.8369 102.575 30.3489 102.089L28.7229 101.913C25.1982 101.532 22.5596 98.5197 22.6604 94.9929L22.7069 93.3662C22.8355 88.8751 20.6408 84.6318 16.8935 82.1263L15.5358 81.2187C12.5929 79.2511 11.6631 75.3633 13.3994 72.2871L14.2004 70.868C16.4113 66.9508 16.4494 62.1788 14.3013 58.2272L13.523 56.7956C11.836 53.6923 12.8278 49.8197 15.8017 47.8988L17.1733 47.0128C20.9601 44.5669 23.2226 40.3588 23.1657 35.8662L23.1452 34.2389C23.1006 30.711 25.787 27.7409 29.3173 27.4154L30.9459 27.265C35.4411 26.8507 39.409 24.171 41.4565 20.1667L42.1979 18.7162C43.8058 15.5716 47.5719 14.1841 50.8498 15.5287L52.362 16.149C56.5357 17.8611 61.3004 17.3233 64.9832 14.7246L66.3173 13.7834C69.2095 11.7428 73.1918 12.2558 75.4663 14.9623L76.5154 16.2109C79.4116 19.6573 83.8816 21.385 88.3558 20.7874L89.9765 20.5706C93.4905 20.1012 96.7771 22.3978 97.5273 25.8461L97.8732 27.4369C98.8284 31.8281 101.98 35.4252 106.221 36.9653L107.757 37.5232C111.088 38.7327 112.925 42.286 111.979 45.6862L111.543 47.255C110.338 51.585 111.449 56.2277 114.485 59.5529L115.584 60.7574ZM114.753 69.231C116.808 67.0508 116.835 63.6649 114.815 61.4526L113.716 60.2481C110.491 56.7163 109.279 51.8074 110.482 47.1985L110.541 46.9791L110.978 45.4103C111.779 42.5295 110.222 39.5193 107.4 38.4947L105.864 37.9368C101.288 36.275 97.8881 32.3938 96.8575 27.6557L96.5115 26.0647C95.8759 23.1432 93.0918 21.1982 90.1152 21.5958L88.4945 21.8126C83.6666 22.4575 78.843 20.5929 75.718 16.8742L74.6689 15.626C72.7421 13.3331 69.3684 12.8983 66.9183 14.6271L65.5844 15.5683C61.6107 18.3723 56.4693 18.9528 51.9656 17.1053L50.4537 16.4847C47.6769 15.3457 44.4865 16.521 43.1242 19.1851L42.3828 20.6356C40.1737 24.9562 35.8924 27.8478 31.0419 28.295L29.413 28.445C26.4225 28.7208 24.1466 31.237 24.1844 34.2259L24.2049 35.8532C24.2662 40.7006 21.8256 45.2409 17.7395 47.8801L16.3676 48.7665C13.8483 50.3938 13.0079 53.6745 14.4371 56.3036L15.2153 57.7351C17.5332 61.9989 17.4921 67.1478 15.1065 71.3744L14.3055 72.7935C12.8345 75.3997 13.6225 78.6932 16.1155 80.3601L17.4731 81.268C21.5165 83.9715 23.8845 88.5498 23.7458 93.3956L23.6993 95.0227C23.6139 98.0105 25.8493 100.562 28.835 100.885L30.4613 101.061C35.304 101.585 39.5386 104.544 41.6786 108.898L42.3967 110.361C43.7163 113.046 46.8876 114.271 49.6822 113.176L51.2038 112.58C55.7364 110.804 60.8679 111.465 64.7964 114.332L66.1151 115.294C68.5373 117.061 71.9175 116.68 73.8807 114.418L74.9495 113.186C78.1335 109.517 82.9861 107.729 87.8032 108.45L89.4203 108.693C92.3901 109.137 95.2049 107.236 95.8871 104.325L96.2584 102.74C97.3644 98.0186 100.826 94.1917 105.428 92.6023L106.973 92.0688C109.81 91.0889 111.416 88.1036 110.66 85.2105L110.249 83.6351C109.024 78.9432 110.302 73.9536 113.634 70.4179L114.753 69.231Z" fill="black"/>
<path d="M70.0799 27.569C70.878 27.5356 71.6325 27.652 72.3433 27.918C73.0874 28.1827 73.7365 28.5664 74.2908 29.0691C74.8451 29.5717 75.2864 30.1613 75.6148 30.8378C75.9446 31.5471 76.1261 32.2954 76.1594 33.0828C76.1927 33.8702 76.0742 34.6147 75.8041 35.3162C75.5353 36.0505 75.1459 36.6913 74.636 37.2385C74.1261 37.7857 73.5116 38.2223 72.7925 38.5482C72.1066 38.8727 71.3646 39.0516 70.5665 39.085C69.7684 39.1184 68.9973 39.0027 68.2532 38.7381C67.5424 38.472 66.9098 38.0876 66.3555 37.5849C65.8013 37.0823 65.3592 36.4763 65.0294 35.767C64.701 35.0905 64.5202 34.3586 64.4869 33.5712C64.4537 32.7837 64.5714 32.0229 64.8402 31.2886C65.1104 30.587 65.5004 29.9627 66.0103 29.4155C66.5202 28.8683 67.1181 28.4324 67.804 28.1079C68.5231 27.782 69.2817 27.6024 70.0799 27.569ZM53.2695 28.2723C54.0676 28.2389 54.8221 28.3552 55.5329 28.6213C56.277 28.886 56.9262 29.2697 57.4804 29.7723C58.0347 30.275 58.476 30.8646 58.8044 31.5411C59.1342 32.2503 59.3158 32.9987 59.349 33.7861C59.3823 34.5735 59.2639 35.318 58.9937 36.0195C58.7249 36.7538 58.3355 37.3946 57.8257 37.9418C57.3158 38.489 56.7012 38.9255 55.9821 39.2514C55.2962 39.5759 54.5542 39.7549 53.7561 39.7883C52.958 39.8217 52.1869 39.706 51.4428 39.4413C50.732 39.1753 50.0994 38.7909 49.5452 38.2882C48.9909 37.7855 48.5489 37.1796 48.2191 36.4703C47.8907 35.7938 47.7098 35.0619 47.6766 34.2744C47.6433 33.487 47.7611 32.7262 48.0298 31.9918C48.3 31.2903 48.6901 30.666 49.2 30.1188C49.7099 29.5716 50.3077 29.1357 50.9936 28.8112C51.7128 28.4853 52.4714 28.3057 53.2695 28.2723Z" fill="black"/>
<path d="M42.1042 45.4939C48.8481 48.9915 56.7095 50.5524 65.6883 50.1768C67.8166 50.0878 69.9886 49.849 72.2042 49.4605C74.4545 49.1034 76.616 48.6186 78.6889 48.006C80.7632 47.4262 82.6836 46.7542 84.4503 45.9901C86.2169 45.226 87.7314 44.4067 88.9937 43.5322L92.313 48.7671C89.0181 51.2057 85.1017 53.1279 80.5638 54.5338C76.0605 55.9712 71.0654 56.8046 65.5783 57.0342C63.184 57.1343 60.7827 57.0705 58.3745 56.8426C55.9676 56.6474 53.637 56.2848 51.3826 55.7547C49.1296 55.2573 46.9701 54.6081 44.9041 53.8072C42.8381 53.0062 40.9495 52.0663 39.2382 50.9876L42.1042 45.4939Z" fill="black"/>
<defs>
<linearGradient id="paint0_linear_13969_9628" x1="122.537" y1="25.705" x2="6.40882" y2="104.72" gradientUnits="userSpaceOnUse">
<stop stop-color="#F8C094"/>
<stop offset="0.649038" stop-color="#FFA941"/>
<stop offset="1" stop-color="#B5CBBD"/>
</linearGradient>
</defs>
</svg>
