<svg width="81" height="81" viewBox="0 0 81 81" fill="none" xmlns="http://www.w3.org/2000/svg">
<path d="M66.3706 69.3451C65.4035 73.4526 61.427 76.1314 57.2351 75.4993C54.4758 75.0833 51.6949 76.1043 49.8685 78.2039C47.0937 81.3937 42.3216 81.9269 38.9051 79.4288C36.6562 77.7844 33.717 77.4025 31.1191 78.4171C27.1725 79.9584 22.698 78.2238 20.8395 74.432C19.6161 71.9361 17.1919 70.2388 14.4178 69.9358C10.2034 69.4756 7.05152 65.8706 7.17683 61.6537C7.25932 58.878 5.90552 56.2541 3.59064 54.7031C0.0738699 52.3467 -1.03325 47.6972 1.04716 44.0212C2.41656 41.6016 2.4433 38.6522 1.11797 36.2084C-0.895468 32.4958 0.295747 27.8669 3.85466 25.574C6.19727 24.0648 7.59841 21.4656 7.56625 18.6888C7.5174 14.4704 10.7341 10.9225 14.9562 10.538C17.7353 10.2849 20.1899 8.63138 21.4583 6.15782C23.3852 2.39998 27.8904 0.745949 31.8085 2.35786C34.3875 3.41888 37.3332 3.08978 39.6115 1.48607C43.0728 -0.950283 47.8345 -0.33157 50.5509 2.9075C52.339 5.03957 55.101 6.1103 57.8673 5.74384C62.07 5.1871 65.9973 7.93682 66.8898 12.061C67.4773 14.7757 69.4229 17.001 72.0435 17.9557C76.0248 19.4061 78.218 23.6569 77.0821 27.7215C76.3345 30.3969 77.0179 33.2669 78.8924 35.3241C81.7403 38.4494 81.697 43.2275 78.793 46.3012C76.8814 48.3244 76.1461 51.1817 76.8451 53.8701C77.9072 57.9544 75.6373 62.1651 71.6303 63.5439C68.9928 64.4514 67.0072 66.6414 66.3706 69.3451Z" fill="#FF9E52"/>
<path d="M37.4093 6.64565C40.7916 3.97819 45.6665 4.34376 48.6088 7.48549L49.2836 8.20611C50.1732 9.15591 51.4902 9.58555 52.7723 9.34428L53.7452 9.16113C57.9861 8.36298 62.1321 10.9405 63.2698 15.0826L63.5308 16.0329C63.8747 17.2851 64.8402 18.2744 66.0882 18.6535L67.035 18.9412C71.1631 20.1952 73.6301 24.3941 72.7026 28.5877L72.4899 29.5498C72.2095 30.8176 72.6021 32.1399 73.5301 33.0526L74.2342 33.7451C77.3037 36.7639 77.5268 41.6224 74.7466 44.9068L74.1087 45.6602C73.2682 46.6531 72.9983 48.0055 73.3936 49.2426L73.6935 50.1813C75.0013 54.2735 72.9292 58.6785 68.9332 60.3012L68.0165 60.6736C66.8084 61.1642 65.9375 62.2368 65.7097 63.515L65.5368 64.4849C64.7832 68.7128 60.8908 71.6552 56.5944 71.2446L55.6088 71.1503C54.3099 71.0261 53.0376 71.5735 52.2388 72.5999L51.6327 73.3787C48.9904 76.7739 44.1693 77.5795 40.5568 75.2295L39.7281 74.6905C38.6359 73.98 37.2538 73.8764 36.067 74.4159L35.1665 74.8253C31.2408 76.61 26.5955 75.0945 24.4945 71.3436L24.0125 70.4832C23.3773 69.3493 22.2018 68.6184 20.8989 68.5474L19.9103 68.4937C15.6005 68.2589 12.1952 64.7693 12.087 60.4766L12.0621 59.492C12.0294 58.1942 11.33 57.0038 10.2094 56.3386L9.35914 55.8338C5.65264 53.6334 4.2675 48.9692 6.17686 45.1183L6.61478 44.2349C7.192 43.0707 7.12885 41.6933 6.44739 40.5863L5.93018 39.7462C3.67605 36.0843 4.62839 31.314 8.11795 28.787L8.91843 28.2073C9.97339 27.4434 10.5607 26.1946 10.4745 24.8993L10.4091 23.9163C10.1237 19.6318 13.1954 15.8482 17.4657 15.224L18.4451 15.0808C19.7361 14.892 20.8397 14.0579 21.3684 12.8711L21.7695 11.9705C23.5183 8.04485 28.0057 6.11474 32.0785 7.53635L33.0128 7.86252C34.2441 8.29227 35.6109 8.06389 36.6335 7.25747L37.4093 6.64565ZM45.3338 10.521C43.9825 9.07799 41.7435 8.91008 40.19 10.1352L39.4142 10.7471C37.1878 12.5029 34.2118 13.0002 31.5309 12.0644L30.5966 11.7382C28.726 11.0854 26.665 11.972 25.8619 13.775L25.4607 14.6754C24.3096 17.2594 21.9069 19.0757 19.0959 19.4866L18.1163 19.6298C16.155 19.9165 14.7443 21.6542 14.8753 23.6221L14.941 24.6048C15.1288 27.4251 13.8496 30.1443 11.5527 31.8077L10.7522 32.3873C9.14952 33.5479 8.71223 35.7388 9.7475 37.4207L10.2645 38.2607C11.7483 40.6711 11.886 43.6702 10.6292 46.205L10.1911 47.0884C9.31416 48.857 9.95034 50.9993 11.6527 52.0099L12.5029 52.5145C14.9427 53.9629 16.4656 56.5548 16.5369 59.3803L16.5617 60.3652C16.6115 62.3367 18.1754 63.9393 20.1548 64.0471L21.1434 64.101C23.9802 64.2556 26.5394 65.8466 27.9224 68.3157L28.4044 69.176C29.3694 70.8988 31.5029 71.5948 33.3059 70.7752L34.2065 70.3658C36.7905 69.191 39.7997 69.4167 42.1776 70.9635L43.0063 71.5026C44.6656 72.5819 46.8798 72.2119 48.0934 70.6525L48.6995 69.8737C50.4388 67.6389 53.2087 66.4474 56.0368 66.7177L57.0223 66.8118C58.9956 67.0004 60.7832 65.6491 61.1294 63.7073L61.3023 62.7373C61.7984 59.9543 63.6945 57.6188 66.3249 56.5506L67.2415 56.1785C69.0768 55.4332 70.0285 53.41 69.4279 51.5305L69.1278 50.5918C68.267 47.8982 68.8549 44.9535 70.6849 42.7916L71.3226 42.0382C72.5995 40.5297 72.4972 38.2984 71.0874 36.9118L70.3833 36.2194C68.3628 34.2322 67.5077 31.353 68.1182 28.5926L68.3311 27.6307C68.7571 25.7047 67.624 23.7762 65.7281 23.2002L64.7811 22.9125C62.0638 22.0871 59.9618 19.933 59.2129 17.2065L58.9519 16.2564C58.4294 14.354 56.5252 13.17 54.5774 13.5366L53.6045 13.7197C50.813 14.2451 47.9455 13.3096 46.0087 11.2416L45.3338 10.521Z" fill="#D3FF6B"/>
<path d="M37.2139 6.40033C40.7247 3.63154 45.7848 4.011 48.8389 7.27208L49.5138 7.99277C50.3297 8.86397 51.5378 9.25798 52.7139 9.03667L53.6866 8.85356C58.0887 8.02509 62.3923 10.7005 63.5733 15.0001L63.8342 15.9503C64.1497 17.0989 65.0353 18.0063 66.1801 18.3541L67.1268 18.6419C71.4117 19.9435 73.9726 24.3019 73.0099 28.6549L72.7972 29.617C72.54 30.7799 72.9 31.9927 73.7512 32.8299L74.4553 33.5225C77.6415 36.6561 77.873 41.6991 74.9871 45.1083L74.3492 45.8618C73.5783 46.7725 73.3306 48.0131 73.6933 49.1478L73.9933 50.0864C75.3508 54.3341 73.1999 58.9067 69.052 60.5911L68.1354 60.9634C67.0272 61.4134 66.2284 62.3972 66.0194 63.5696L65.8466 64.5396C65.0643 68.9283 61.0239 71.9824 56.5642 71.5562L55.5786 71.4619C54.3872 71.348 53.2202 71.85 52.4875 72.7915L51.8814 73.5704C49.1386 77.0946 44.1343 77.9308 40.3846 75.4916L39.5559 74.9525C38.5541 74.3008 37.2864 74.2058 36.1978 74.7006L35.2972 75.1101C31.2224 76.9625 26.4006 75.3895 24.2197 71.4961L23.7377 70.6356C23.1551 69.5954 22.0768 68.9248 20.8816 68.8597L20.8818 68.8599L19.8931 68.8062C15.4196 68.5626 11.8849 64.9403 11.7725 60.4846L11.7477 59.4998C11.7176 58.3095 11.076 57.2176 10.0482 56.6074L9.19797 56.1025C5.35063 53.8185 3.91282 48.977 5.89477 44.9797L6.33277 44.0965C6.86223 43.0286 6.80427 41.7651 6.17921 40.7497L5.66203 39.9098C3.32223 36.1087 4.31073 31.157 7.93289 28.534L8.73339 27.9542C9.701 27.2534 10.2398 26.108 10.1607 24.9199L10.0951 23.937C9.79894 19.4895 12.9875 15.5623 17.42 14.9144L18.3994 14.771C19.5836 14.5979 20.5959 13.8328 21.0808 12.7442L21.4819 11.8437L21.5692 11.6542C23.4427 7.70707 28.0212 5.78843 32.1827 7.24098L33.1169 7.56709C34.2463 7.9613 35.5002 7.75191 36.4381 7.01222L37.2139 6.40033ZM48.3786 7.69879C45.5481 4.67653 40.8585 4.32486 37.6048 6.89086L36.8289 7.50276C35.7218 8.3759 34.2418 8.62309 32.9087 8.15779L31.9743 7.83167C28.0562 6.46413 23.7394 8.3209 22.0571 12.0973L21.6559 12.998C21.0835 14.283 19.8886 15.1862 18.4909 15.3905L17.5115 15.5337C13.4034 16.1341 10.4485 19.7739 10.723 23.8956L10.7884 24.8785C10.8818 26.281 10.2458 27.6332 9.10354 28.4603L8.30304 29.0401C4.94619 31.4711 4.02991 36.0599 6.19819 39.5826L6.71556 40.4227C7.45341 41.6214 7.52188 43.1128 6.8969 44.3734L6.4589 45.2566C4.6222 48.9611 5.95461 53.4483 9.52024 55.5651L10.3706 56.0699C11.5839 56.7901 12.3412 58.0791 12.3767 59.4842L12.4015 60.4688L12.4087 60.6618C12.6082 64.7024 15.8463 67.9587 19.9275 68.181L20.916 68.2349L21.048 68.2442C22.4058 68.3617 23.6209 69.1414 24.2872 70.3308L24.7691 71.1913C26.7904 74.7996 31.2593 76.2574 35.0358 74.5405L35.9364 74.1313C37.2213 73.5472 38.7176 73.6594 39.9001 74.4286L40.7288 74.9675C44.2041 77.2281 48.8421 76.4533 51.384 73.1872L51.9902 72.4082C52.828 71.3317 54.1469 70.7419 55.5071 70.8283L55.6389 70.8388L56.6246 70.933C60.7578 71.3279 64.5021 68.4974 65.227 64.4302L65.3999 63.4604C65.6466 62.0764 66.5895 60.915 67.8975 60.3838L68.8144 60.0116C72.6586 58.4505 74.6518 54.2128 73.3938 50.2763L73.0938 49.3375C72.6658 47.998 72.9581 46.5336 73.8682 45.4585L74.506 44.705C77.1387 41.5949 76.972 37.0175 74.1495 34.1051L74.0131 33.9677L73.309 33.2751C72.3042 32.2869 71.8791 30.8552 72.1827 29.4825L72.3954 28.5204C73.2876 24.4862 70.9143 20.4469 66.943 19.2405L65.9963 18.9529C64.6451 18.5425 63.5998 17.4713 63.2273 16.1155L62.9664 15.1651C61.8719 11.1805 57.8835 8.70088 53.8037 9.46866L52.8308 9.65175C51.4426 9.91297 50.0166 9.44787 49.0535 8.41947L48.3786 7.69879ZM39.9947 9.88995C41.6766 8.56347 44.1008 8.74526 45.5639 10.3076L46.2388 11.0283C48.102 13.0177 50.8606 13.9176 53.5461 13.4122L54.5189 13.229C56.6277 12.8322 58.6895 14.114 59.2553 16.1738L59.5163 17.124C60.2367 19.7469 62.2589 21.8192 64.8729 22.6133L65.8199 22.9009C67.8726 23.5245 69.0996 25.6124 68.6384 27.6979L68.4254 28.66C67.8382 31.3154 68.6608 34.0852 70.6045 35.9968L71.3086 36.6892L71.379 36.7603C72.838 38.2658 72.9242 40.6319 71.5633 42.2397L70.9256 42.9932C69.1651 45.0729 68.5995 47.9057 69.4276 50.4969L69.7276 51.4357C70.3779 53.4707 69.3476 55.6614 67.3605 56.4684L66.4437 56.8404C63.9133 57.868 62.0893 60.1148 61.6121 62.792L61.4392 63.762C61.0644 65.8645 59.1286 67.3275 56.9922 67.1234L56.0068 67.0293C53.2861 66.7692 50.6214 67.9154 48.9482 70.0653L48.3421 70.8442C47.0281 72.5326 44.6306 72.9331 42.8341 71.7646L42.0054 71.2254C39.7179 69.7375 36.8231 69.5204 34.3373 70.6504L33.4367 71.0598C31.4846 71.9473 29.1745 71.1937 28.1296 69.3285L27.6477 68.4682C26.3172 66.093 23.8552 64.5622 21.1261 64.4136L20.1377 64.3597C17.9946 64.2429 16.3013 62.5077 16.2474 60.373L16.2223 59.3882C16.1538 56.6701 14.6889 54.1767 12.3418 52.7833L11.4916 52.2788C9.64843 51.1845 8.95955 48.865 9.90905 46.9499L10.3471 46.0664C11.5561 43.628 11.4235 40.7429 9.99618 38.4241L9.47922 37.5841C8.35834 35.763 8.83179 33.3909 10.567 32.1342L11.3675 31.5546C13.5772 29.9545 14.8077 27.3387 14.6271 24.6256L14.5614 23.6429C14.4195 21.5122 15.9472 19.6306 18.0707 19.3202L19.0502 19.177C21.7543 18.7817 24.0658 17.0344 25.1732 14.5486L25.5743 13.6481C26.4439 11.6959 28.6753 10.7361 30.7006 11.4429L31.635 11.769C34.2141 12.6692 37.0771 12.1909 39.2188 10.5018L39.9947 9.88995ZM45.1038 10.7343C43.8642 9.41071 41.8102 9.25668 40.3853 10.3805L39.6095 10.9922L39.6097 10.9924C37.3348 12.7864 34.3059 13.3147 31.5575 12.4043L31.4268 12.3597L30.4924 12.0336C28.7765 11.4348 26.8861 12.2481 26.1494 13.9019L25.7483 14.8022C24.5535 17.4844 22.0594 19.3698 19.1417 19.7963L18.162 19.9395C16.363 20.2025 15.0691 21.7964 15.1893 23.6013L15.2549 24.584C15.4499 27.5115 14.1219 30.3342 11.7377 32.0608L10.9374 32.6404C9.46733 33.705 9.06616 35.7146 10.0158 37.2573L10.5327 38.0971C12.0729 40.5991 12.216 43.7124 10.9114 46.3436L10.4732 47.2268C9.66884 48.8491 10.2524 50.8142 11.8139 51.7412L12.6641 52.2457C15.1965 53.7491 16.7774 56.4395 16.8514 59.3724L16.8762 60.3574C16.9219 62.1657 18.3564 63.6358 20.1721 63.7347L21.1605 63.7886C24.1051 63.949 26.7616 65.6004 28.1971 68.1632L28.6791 69.0237C29.5642 70.6038 31.5214 71.2424 33.1753 70.4905L34.0758 70.0811C36.758 68.8618 39.8814 69.096 42.3497 70.7016L43.1784 71.2407C44.7003 72.2307 46.7314 71.8912 47.8446 70.4609L48.4509 69.682C50.2562 67.3623 53.1314 66.1256 56.0669 66.4062L57.0525 66.5003C58.8625 66.6733 60.5022 65.4338 60.8197 63.6528L60.9926 62.6826C61.5075 59.7938 63.4757 57.3696 66.206 56.2608L67.1226 55.8888C68.8061 55.2051 69.679 53.3492 69.1281 51.6253L68.8281 50.6867C67.9346 47.8907 68.5448 44.834 70.4444 42.5899L71.082 41.8366C72.2533 40.453 72.1593 38.4062 70.8662 37.1344L70.1623 36.442C68.065 34.3794 67.1772 31.3906 67.8109 28.5252L68.024 27.5634C68.4147 25.7968 67.3754 24.0279 65.6363 23.4996L64.6892 23.2119C61.8687 22.3551 59.6868 20.1191 58.9094 17.289L58.6485 16.339C58.1692 14.594 56.4226 13.508 54.636 13.8441L53.663 14.0272C50.7654 14.5726 47.789 13.6015 45.7787 11.455L45.1038 10.7343Z" fill="black"/>
<path d="M17.5912 37.5182C17.5765 37.0373 17.6526 36.5837 17.8194 36.1575C17.9856 35.7112 18.2235 35.323 18.5332 34.9927C18.8428 34.6624 19.2045 34.4007 19.6183 34.2077C20.0521 34.014 20.5086 33.9099 20.9878 33.8954C21.467 33.8809 21.919 33.9574 22.3438 34.1251C22.7886 34.2921 23.1756 34.5311 23.5049 34.842C23.8342 35.1529 24.0954 35.526 24.2886 35.9614C24.4812 36.3768 24.5849 36.8249 24.5996 37.3058C24.6143 37.7867 24.5386 38.2502 24.3724 38.6965C24.2055 39.1228 23.9673 39.501 23.6577 39.8313C23.348 40.1616 22.9763 40.4235 22.5425 40.6172C22.1288 40.8102 21.6823 40.914 21.2031 40.9285C20.7239 40.9431 20.2619 40.8668 19.8171 40.6998C19.3923 40.5322 19.0152 40.2929 18.6859 39.982C18.3566 39.6711 18.0957 39.3079 17.9031 38.8926C17.7099 38.4572 17.606 37.9991 17.5912 37.5182ZM17.9013 47.6471C17.8866 47.1662 17.9627 46.7126 18.1295 46.2864C18.2957 45.8401 18.5336 45.4519 18.8433 45.1216C19.1529 44.7913 19.5146 44.5296 19.9284 44.3366C20.3622 44.1429 20.8186 44.0388 21.2978 44.0243C21.777 44.0098 22.2291 44.0863 22.6539 44.254C23.0987 44.421 23.4857 44.66 23.815 44.9709C24.1443 45.2818 24.4055 45.6549 24.5987 46.0903C24.7913 46.5057 24.8949 46.9538 24.9097 47.4347C24.9244 47.9156 24.8487 48.3792 24.6824 48.8254C24.5156 49.2517 24.2774 49.6299 23.9677 49.9602C23.6581 50.2905 23.2864 50.5524 22.8526 50.7461C22.4389 50.9391 21.9924 51.0429 21.5132 51.0574C21.034 51.072 20.572 50.9957 20.1272 50.8287C19.7023 50.6611 19.3253 50.4218 18.996 50.1109C18.6667 49.8 18.4058 49.4369 18.2132 49.0215C18.02 48.5861 17.9161 48.128 17.9013 47.6471Z" fill="black"/>
<path d="M28.2987 54.4919C30.4734 50.4549 31.478 45.7314 31.3123 40.3213C31.2731 39.0389 31.1431 37.7292 30.9223 36.3921C30.7208 35.0344 30.441 33.7292 30.0829 32.4765C29.7448 31.2233 29.3495 30.062 28.897 28.9927C28.4446 27.9234 27.9569 27.0055 27.4338 26.2392L30.6413 24.2768C32.1015 26.2782 33.2434 28.6503 34.0668 31.3931C34.9096 34.1152 35.3816 37.1294 35.4828 40.4355C35.5269 41.8782 35.4713 43.324 35.3158 44.7727C35.1802 46.2208 34.9433 47.6219 34.6051 48.9759C34.2868 50.3293 33.8768 51.6253 33.3751 52.8639C32.8734 54.1026 32.2885 55.2334 31.6203 56.2565L28.2987 54.4919Z" fill="black"/>
</svg>
