<svg width="248" height="82" viewBox="0 0 248 82" fill="none" xmlns="http://www.w3.org/2000/svg">
<path d="M5 28.4926C5 48.3309 5 57.2059 5 75.9912C5.5798 75.9912 6.01027 76 6.01027 76C9.6604 65.821 16.4731 55.0153 25.6973 49.3277C29.0312 47.2726 33.0678 45.59 36.7882 46.8125C41.5936 48.3943 43.7327 54.3756 42.7225 59.3227C41.7122 64.2698 38.4047 68.3887 35.1982 72.2973C44.967 56.5227 58.5046 43.0879 74.3657 33.4216C79.3248 30.3981 84.6661 27.6901 90.4465 27.0766C96.227 26.4632 102.557 28.3123 106.035 32.9571C109.686 37.8341 109.453 44.8056 106.87 50.318C104.287 55.8303 99.7146 60.1465 95.0103 64.02C136.194 23.4748 195.392 5 248 5" stroke="url(#paint0_linear_13969_9631)" stroke-width="10" stroke-miterlimit="10"/>
<defs>
<linearGradient id="paint0_linear_13969_9631" x1="247.499" y1="31.6249" x2="5" y2="31.6249" gradientUnits="userSpaceOnUse">
<stop stop-color="#B9F081"/>
<stop offset="0.245192" stop-color="#F8C094"/>
<stop offset="0.471154" stop-color="#B5CBBD"/>
<stop offset="0.716346" stop-color="#FAB766"/>
<stop offset="1" stop-color="#FBBF5F"/>
</linearGradient>
</defs>
</svg>
