<svg width="80" height="80" viewBox="0 0 80 80" fill="none" xmlns="http://www.w3.org/2000/svg">
<path d="M39.772 1.46729C60.9272 1.46729 78.0776 18.6167 78.0776 39.772C78.0776 60.9273 60.9273 78.0776 39.772 78.0776C18.6167 78.0775 1.46729 60.9272 1.46729 39.772C1.46737 18.6168 18.6168 1.46737 39.772 1.46729Z" fill="#FF4800" stroke="#FF4800" stroke-width="2.93408"/>
<path d="M51.299 28.4722C51.299 27.361 51.2974 26.6551 51.2574 26.1541C51.2553 26.1276 51.2528 26.1026 51.2506 26.079C51.2187 26.0927 51.1841 26.108 51.1469 26.1247C50.6528 26.3467 49.9829 26.7086 48.9468 27.271C45.4871 29.149 40.6056 31.347 36.3709 31.347H29.2419C27.471 31.347 26.2704 31.3485 25.3433 31.4239C24.4411 31.4973 23.9861 31.63 23.672 31.7894C22.9047 32.1787 22.2799 32.8002 21.8882 33.5658C21.7274 33.88 21.594 34.3348 21.5202 35.2342C21.4444 36.1581 21.4428 37.3542 21.4428 39.1173V41.5864C21.4428 42.5738 21.4439 43.2092 21.4771 43.6949C21.5091 44.1618 21.5636 44.3351 21.5966 44.4143C21.8016 44.9073 22.1945 45.2976 22.6871 45.5008C22.7651 45.533 22.9377 45.5872 23.4059 45.619C23.8931 45.6521 24.5307 45.6532 25.5225 45.6532C26.693 45.6532 27.6418 46.596 27.6419 47.759V56.5037C27.6419 57.0314 27.6444 57.143 27.6516 57.2155C27.7463 58.1725 28.5056 58.9242 29.4584 59.0176C29.5305 59.0247 29.6417 59.0273 30.1718 59.0273C30.7019 59.0273 30.8132 59.0247 30.8852 59.0176C31.8381 58.9242 32.5974 58.1724 32.6921 57.2155C32.6992 57.143 32.7018 57.0314 32.7018 56.5037V47.759C32.7018 46.596 33.6507 45.6532 34.8211 45.6532H36.3709C40.6056 45.6532 45.4871 47.851 48.9468 49.729C49.9829 50.2914 50.6528 50.6535 51.1469 50.8755C51.1841 50.8922 51.2187 50.9071 51.2506 50.9207C51.2528 50.8972 51.2553 50.8723 51.2574 50.8459C51.2974 50.3449 51.299 49.6391 51.299 48.528V28.4722ZM58.5313 32.279H62.7699V44.7209H58.5313V32.279ZM55.5377 48.528C55.5377 49.5654 55.5393 50.4712 55.4828 51.1788C55.4309 51.8292 55.3109 52.7411 54.7574 53.5115C54.0552 54.489 53.062 55.0769 51.8613 55.2234C50.8977 55.3409 50.0052 54.9847 49.4007 54.7131C48.7255 54.4098 47.8881 53.9535 46.9146 53.4251C43.6934 51.6766 39.9262 50.072 36.9405 49.8834V56.5037C36.9405 56.9314 36.9431 57.2976 36.9105 57.6274C36.6186 60.5779 34.273 62.9176 31.3017 63.209C30.9696 63.2416 30.601 63.239 30.1718 63.239C29.7426 63.239 29.374 63.2416 29.042 63.209C26.0706 62.9176 23.725 60.5779 23.4332 57.6274C23.4006 57.2976 23.4032 56.9314 23.4032 56.5037V49.8369C23.305 49.8323 23.2095 49.8272 23.1167 49.8209C22.4322 49.7744 21.7436 49.6719 21.0622 49.3909C19.5295 48.7587 18.3133 47.5467 17.6795 46.0231C17.3979 45.3461 17.295 44.6618 17.2484 43.981C17.203 43.319 17.2041 42.5163 17.2041 41.5864V39.1173C17.2041 37.4235 17.2025 36.0268 17.2956 34.892C17.3907 33.7329 17.5951 32.6631 18.11 31.6569C18.9069 30.0996 20.1788 28.8326 21.7443 28.0383C22.7563 27.5249 23.8323 27.3212 24.9974 27.2264C26.1377 27.1336 27.5411 27.1353 29.2419 27.1353H36.3709C39.4363 27.1353 43.4849 25.4365 46.9146 23.5748C47.8881 23.0464 48.7255 22.5904 49.4007 22.287C50.0052 22.0155 50.8977 21.6593 51.8613 21.7768C53.062 21.9233 54.0552 22.5112 54.7574 23.4887C55.3109 24.2591 55.4309 25.171 55.4828 25.8214C55.5393 26.5289 55.5377 27.4348 55.5377 28.4722V48.528Z" fill="#B9F081" stroke="black" stroke-width="0.628731" stroke-linecap="square" stroke-linejoin="round"/>
<mask id="path-3-inside-1_13971_9641" fill="white">
<path d="M39.7717 2.93628C60.1168 2.93628 76.6095 19.4292 76.6096 39.7742C76.6096 60.1193 60.1168 76.6121 39.7717 76.6121C19.4267 76.612 2.93384 60.1192 2.93384 39.7742C2.93392 19.4292 19.4268 2.93637 39.7717 2.93628ZM39.7717 7.15796C21.7586 7.15805 7.1556 21.761 7.15552 39.7742C7.15552 57.7874 21.7585 72.3903 39.7717 72.3904C57.785 72.3904 72.3879 57.7874 72.3879 39.7742C72.3879 21.761 57.785 7.15796 39.7717 7.15796Z"/>
</mask>
<path d="M39.7717 2.93628C60.1168 2.93628 76.6095 19.4292 76.6096 39.7742C76.6096 60.1193 60.1168 76.6121 39.7717 76.6121C19.4267 76.612 2.93384 60.1192 2.93384 39.7742C2.93392 19.4292 19.4268 2.93637 39.7717 2.93628ZM39.7717 7.15796C21.7586 7.15805 7.1556 21.761 7.15552 39.7742C7.15552 57.7874 21.7585 72.3903 39.7717 72.3904C57.785 72.3904 72.3879 57.7874 72.3879 39.7742C72.3879 21.761 57.785 7.15796 39.7717 7.15796Z" fill="#B9F081"/>
<path d="M39.7717 2.93628V2.30755H39.7717L39.7717 2.93628ZM76.6096 39.7742H77.2383V39.7742L76.6096 39.7742ZM39.7717 76.6121L39.7717 77.2408H39.7717V76.6121ZM2.93384 39.7742L2.30511 39.7742V39.7742H2.93384ZM39.7717 7.15796V6.52923L39.7717 6.52923L39.7717 7.15796ZM7.15552 39.7742L6.52679 39.7742V39.7742H7.15552ZM39.7717 72.3904L39.7717 73.0191H39.7717V72.3904ZM72.3879 39.7742H73.0167V39.7742L72.3879 39.7742ZM39.7717 2.93628V3.56501C59.7695 3.56501 75.9808 19.7764 75.9809 39.7742L76.6096 39.7742L77.2383 39.7742C77.2383 19.0819 60.464 2.30755 39.7717 2.30755V2.93628ZM76.6096 39.7742H75.9809C75.9809 59.772 59.7696 75.9833 39.7717 75.9833V76.6121V77.2408C60.4641 77.2408 77.2383 60.4665 77.2383 39.7742H76.6096ZM39.7717 76.6121L39.7717 75.9833C19.7739 75.9832 3.56257 59.772 3.56257 39.7742H2.93384H2.30511C2.30511 60.4664 19.0795 77.2407 39.7717 77.2408L39.7717 76.6121ZM2.93384 39.7742L3.56257 39.7742C3.56265 19.7764 19.774 3.5651 39.7717 3.56501L39.7717 2.93628L39.7717 2.30755C19.0795 2.30764 2.30519 19.082 2.30511 39.7742L2.93384 39.7742ZM39.7717 7.15796L39.7717 6.52923C21.4113 6.52932 6.52687 21.4138 6.52679 39.7742L7.15552 39.7742L7.78425 39.7742C7.78433 22.1083 22.1058 7.78678 39.7717 7.78669L39.7717 7.15796ZM7.15552 39.7742H6.52679C6.52679 58.1346 21.4113 73.019 39.7717 73.0191L39.7717 72.3904L39.7717 71.7617C22.1058 71.7616 7.78425 57.4402 7.78425 39.7742H7.15552ZM39.7717 72.3904V73.0191C58.1322 73.0191 73.0167 58.1347 73.0167 39.7742H72.3879H71.7592C71.7592 57.4402 57.4378 71.7617 39.7717 71.7617V72.3904ZM72.3879 39.7742L73.0167 39.7742C73.0166 21.4137 58.1322 6.52923 39.7717 6.52923V7.15796V7.78669C57.4377 7.78669 71.7591 22.1082 71.7592 39.7742L72.3879 39.7742Z" fill="black" mask="url(#path-3-inside-1_13971_9641)"/>
</svg>
