<svg width="136" height="116" viewBox="0 0 136 116" fill="none" xmlns="http://www.w3.org/2000/svg">
<path d="M127.968 48.1897V32.5422H73.963H7.40309V48.1897C7.40309 55.8779 12.4347 62.6602 19.7925 64.8899L63.9877 78.2827H71.3832L115.578 64.8899C122.936 62.6602 127.968 55.8779 127.968 48.1897Z" fill="#D3FF6B"/>
<path d="M135.371 48.1898V25.1391H73.963L73.963 32.5422H127.968V48.1897L127.964 48.5495C127.81 56.0887 122.821 62.6951 115.578 64.8899L71.3832 78.2827H63.9877L19.7925 64.8899C12.5497 62.6951 7.56088 56.0887 7.40671 48.5495L7.40309 48.1897V32.5422H73.963L73.963 25.1391H0V48.1898C5.50115e-05 59.1395 7.16622 68.7993 17.6453 71.9749L62.8907 85.6858H72.4802L117.726 71.9749C128.205 68.7993 135.371 59.1395 135.371 48.1898Z" fill="#D3FF6B"/>
<path d="M70.4616 78.8115V106.441H101.528V112.258H33.1817V106.441H65.1737V78.8115H70.4616Z" fill="#D3FF6B"/>
<path d="M101.528 106.441H70.4616V78.8115H65.1737V106.441H33.1817V112.258H101.528V106.441ZM73.8987 103.004H104.965V115.695H29.7446V103.004H61.7365V75.3743H73.8987V103.004Z" fill="#D3FF6B"/>
<path d="M124.08 3.49549L81.2504 67.3595L76.8586 64.4142L119.688 0.550223L124.08 3.49549Z" fill="#29CA41"/>
<path d="M124.63 3.38706L81.3589 67.9099L76.3084 64.5228L119.58 0L124.63 3.38706ZM77.4089 64.3058L81.1419 66.8093L123.53 3.60403L119.797 1.10055L77.4089 64.3058Z" fill="black"/>
<path d="M70.3294 106.868H100.471V112.156H34.9003V106.868H65.0415V78.3137H70.3294V106.868Z" fill="#29CA41"/>
<path d="M70.726 77.9171V106.472H100.867V112.553H34.5037V106.472H64.6449V77.9171H70.726ZM65.4381 107.265H35.2969V111.76H100.074V107.265H69.9328V78.7103H65.4381V107.265Z" fill="black"/>
<path d="M10.3115 35.4815H125.588V48.4852C125.588 55.0084 121.319 60.7631 115.076 62.6549L71.2558 75.9341H64.6438L20.8235 62.6549C14.5807 60.7631 10.3115 55.0084 10.3115 48.4852V35.4815ZM5.02353 48.4852C5.02358 57.3382 10.8176 65.1481 19.2901 67.7156L63.8602 81.222H72.0394L116.61 67.7156C125.082 65.1481 130.876 57.3382 130.876 48.4852V30.1936H5.02353V48.4852Z" fill="#D3FF6B"/>
<path d="M10.3115 35.4815H125.588V48.4852C125.588 55.0084 121.319 60.7631 115.076 62.6549L71.2558 75.9341H64.6438L20.8235 62.6549C14.5807 60.7631 10.3115 55.0084 10.3115 48.4852V35.4815ZM5.02353 48.4852C5.02358 57.3382 10.8176 65.1481 19.2901 67.7156L63.8602 81.222H72.0394L116.61 67.7156C125.082 65.1481 130.876 57.3382 130.876 48.4852V30.1936H5.02353V48.4852Z" fill="#29CA41"/>
<path d="M5.42012 30.5902H130.48V48.4852L130.478 48.6884C130.391 57.2827 124.735 64.8389 116.495 67.3361L71.9808 80.8255H63.9188L19.405 67.3361C11.0997 64.8192 5.42018 57.1634 5.42012 48.4852V30.5902ZM10.708 35.8781H125.192V48.4852L125.188 48.7821C125.061 55.0077 120.942 60.4629 114.961 62.2754L71.1972 75.5375H64.7024L20.9384 62.2754C14.8629 60.4341 10.7081 54.8336 10.708 48.4852V35.8781ZM9.91486 48.4852C9.91491 55.1831 14.2986 61.0919 20.7086 63.0345L64.5289 76.3137L64.585 76.3307H71.3147L71.3707 76.3137L115.191 63.0345C121.601 61.0919 125.985 55.1831 125.985 48.4852V35.0849H9.91486V48.4852ZM4.62693 48.4852C4.62699 57.5129 10.5355 65.477 19.1752 68.0952L63.7453 81.6016L63.8013 81.6186H72.0983L72.1543 81.6016L116.724 68.0952C125.364 65.477 131.273 57.5129 131.273 48.4852V29.797H4.62693V48.4852Z" fill="black"/>
<path d="M113.61 23.9717C107.999 26.0592 102.191 24.3676 100.638 20.1934C99.0853 16.0192 102.375 10.9431 107.986 8.85566C113.598 6.76818 119.405 8.45978 120.958 12.634C122.511 16.8081 119.221 21.8842 113.61 23.9717Z" fill="#D3FF6B"/>
<path d="M113.472 23.6C116.205 22.5831 118.359 20.843 119.638 18.8697C120.917 16.8964 121.309 14.7148 120.586 12.7723C119.864 10.8297 118.141 9.43514 115.883 8.77753C113.625 8.11994 110.858 8.21045 108.125 9.22741C105.391 10.2444 103.238 11.9844 101.959 13.9577C100.68 15.931 100.287 18.1126 101.01 20.0552C101.733 21.9977 103.455 23.3923 105.713 24.0499C107.971 24.7075 110.738 24.617 113.472 23.6ZM113.748 24.3434C110.871 25.4139 107.928 25.5214 105.491 24.8115C103.054 24.1017 101.097 22.5634 100.266 20.3317C99.4363 18.1001 99.9124 15.6564 101.293 13.5263C102.674 11.3962 104.971 9.5545 107.848 8.484C110.726 7.4135 113.668 7.30604 116.105 8.0159C118.542 8.72576 120.5 10.2641 121.33 12.4957C122.16 14.7273 121.684 17.171 120.303 19.3011C118.923 21.4312 116.626 23.2729 113.748 24.3434Z" fill="black"/>
<path d="M105.678 24.7674C110.25 28.6337 111.624 34.5245 108.747 37.925C105.871 41.3254 99.8341 40.9478 95.263 37.0815C90.692 33.2152 89.3179 27.3244 92.1941 23.924C95.0702 20.5235 101.107 20.9011 105.678 24.7674Z" fill="#D3FF6B"/>
<path d="M105.422 25.0703C103.195 23.1867 100.623 22.1634 98.2759 22.0166C95.9289 21.8698 93.8352 22.5976 92.4968 24.1801C91.1583 25.7626 90.7879 27.948 91.3221 30.2381C91.8562 32.5281 93.2922 34.8952 95.5191 36.7788C97.746 38.6623 100.319 39.6856 102.665 39.8324C105.012 39.9793 107.106 39.2514 108.445 37.6689C109.783 36.0864 110.153 33.901 109.619 31.611C109.085 29.3209 107.649 26.9538 105.422 25.0703ZM105.934 24.4647C108.279 26.4474 109.815 28.9588 110.392 31.4308C110.968 33.9028 110.588 36.3632 109.05 38.1812C107.513 39.9991 105.149 40.7827 102.616 40.6242C100.083 40.4657 97.351 39.3671 95.0068 37.3844C92.6627 35.4017 91.1261 32.8902 90.5495 30.4182C89.9729 27.9462 90.3535 25.4859 91.8912 23.6679C93.4288 21.8499 95.7919 21.0664 98.3254 21.2248C100.859 21.3833 103.59 22.482 105.934 24.4647Z" fill="black"/>
<path d="M115.578 16.7509C114.141 17.2855 112.667 16.8868 112.285 15.8604C111.903 14.834 112.759 13.5685 114.196 13.0339C115.633 12.4993 117.107 12.898 117.489 13.9244C117.871 14.9509 117.015 16.2163 115.578 16.7509Z" fill="black"/>
<path d="M115.302 16.0075C115.883 15.7912 116.316 15.4375 116.559 15.078C116.803 14.7169 116.824 14.4118 116.746 14.201C116.667 13.9902 116.452 13.7732 116.031 13.6594C115.612 13.5462 115.054 13.561 114.472 13.7773C113.891 13.9936 113.458 14.3473 113.215 14.7068C112.971 15.0679 112.95 15.373 113.028 15.5838L112.285 15.8604C111.903 14.834 112.759 13.5685 114.196 13.0339C115.633 12.4993 117.107 12.898 117.489 13.9244C117.871 14.9509 117.015 16.2163 115.578 16.7509C114.141 17.2855 112.667 16.8868 112.285 15.8604L113.028 15.5838C113.107 15.7947 113.322 16.0116 113.743 16.1254C114.162 16.2387 114.72 16.2238 115.302 16.0075Z" fill="black"/>
<path d="M98.4204 26.5932C99.591 27.5834 99.9667 29.0639 99.2594 29.9001C98.5522 30.7363 97.0298 30.6114 95.8592 29.6213C94.6885 28.6311 94.3129 27.1506 95.0201 26.3144C95.7274 25.4783 97.2497 25.6031 98.4204 26.5932Z" fill="black"/>
<path d="M97.9081 27.1988C97.4345 26.7982 96.9143 26.595 96.4817 26.5595C96.0474 26.5239 95.771 26.6549 95.6257 26.8267C95.4805 26.9984 95.3971 27.2927 95.5043 27.7151C95.611 28.1358 95.8978 28.6151 96.3714 29.0157C96.845 29.4163 97.3653 29.6195 97.7978 29.655C98.2322 29.6906 98.5085 29.5596 98.6538 29.3878L99.2594 29.9001C98.5522 30.7363 97.0298 30.6114 95.8592 29.6213C94.6885 28.6311 94.3129 27.1506 95.0201 26.3144C95.7274 25.4783 97.2497 25.6031 98.4204 26.5932C99.591 27.5834 99.9667 29.0639 99.2594 29.9001L98.6538 29.3878C98.7991 29.2161 98.8824 28.9218 98.7753 28.4994C98.6685 28.0788 98.3817 27.5994 97.9081 27.1988Z" fill="black"/>
</svg>
