<svg width="59" height="70" viewBox="0 0 59 70" fill="none" xmlns="http://www.w3.org/2000/svg">
<path fill-rule="evenodd" clip-rule="evenodd" d="M46.3228 4.01707C48.6794 4.01714 50.9333 4.51423 52.9126 5.66356L52.9136 5.66454C54.9151 6.82719 56.2893 8.45601 57.1646 10.1606C58.7534 13.2554 58.7052 16.553 58.4429 18.5552L58.4409 18.5688L58.4204 18.7212L58.4175 18.7397L58.4155 18.7573C58.187 20.3444 57.4102 21.6674 56.3394 22.6147L51.2202 69.2827H9.60011L3.53077 23.1821C2.05899 22.2142 0.991874 20.649 0.715344 18.77C0.10446 14.6175 0.985508 11.0007 3.11866 8.27586C4.53897 6.46187 6.32033 5.3001 8.03175 4.64793V0.110825H35.2583V4.01707H46.3228ZM7.04933 9.89403C6.95888 9.97868 6.8697 10.0666 6.78175 10.1577L7.04933 9.89403C7.13985 9.80931 7.23212 9.72735 7.32472 9.64891L7.04933 9.89403Z" fill="#FF9D00"/>
<path d="M25.1487 32.3286C25.1487 32.0968 25.1912 31.8794 25.2761 31.6766C25.3611 31.4641 25.4791 31.2806 25.6301 31.1261C25.7811 30.9715 25.9558 30.8508 26.154 30.7639C26.3617 30.6769 26.5788 30.6335 26.8053 30.6335C27.0319 30.6335 27.2443 30.6769 27.4425 30.7639C27.6502 30.8508 27.8295 30.9715 27.9806 31.1261C28.1316 31.2806 28.2496 31.4641 28.3345 31.6766C28.4195 31.8794 28.462 32.0968 28.462 32.3286C28.462 32.5604 28.4195 32.7825 28.3345 32.995C28.2496 33.1979 28.1316 33.3766 27.9806 33.5311C27.8295 33.6857 27.6502 33.8064 27.4425 33.8933C27.2443 33.9802 27.0319 34.0237 26.8053 34.0237C26.5788 34.0237 26.3617 33.9802 26.154 33.8933C25.9558 33.8064 25.7811 33.6857 25.6301 33.5311C25.4791 33.3766 25.3611 33.1979 25.2761 32.995C25.1912 32.7825 25.1487 32.5604 25.1487 32.3286ZM25.1487 37.2111C25.1487 36.9793 25.1912 36.762 25.2761 36.5592C25.3611 36.3467 25.4791 36.1631 25.6301 36.0086C25.7811 35.8541 25.9558 35.7333 26.154 35.6464C26.3617 35.5595 26.5788 35.516 26.8053 35.516C27.0319 35.516 27.2443 35.5595 27.4425 35.6464C27.6502 35.7333 27.8295 35.8541 27.9806 36.0086C28.1316 36.1631 28.2496 36.3467 28.3345 36.5592C28.4195 36.762 28.462 36.9793 28.462 37.2111C28.462 37.4429 28.4195 37.6651 28.3345 37.8776C28.2496 38.0804 28.1316 38.2591 27.9806 38.4136C27.8295 38.5682 27.6502 38.6889 27.4425 38.7759C27.2443 38.8628 27.0319 38.9062 26.8053 38.9062C26.5788 38.9062 26.3617 38.8628 26.154 38.7759C25.9558 38.6889 25.7811 38.5682 25.6301 38.4136C25.4791 38.2591 25.3611 38.0804 25.2761 37.8776C25.1912 37.6651 25.1487 37.4429 25.1487 37.2111Z" fill="black"/>
<path d="M29.9607 40.6593C31.0462 38.7469 31.589 36.4867 31.589 33.8788C31.589 33.2607 31.5465 32.628 31.4615 31.9809C31.386 31.3241 31.2728 30.6914 31.1217 30.0829C30.9801 29.4744 30.8102 28.9094 30.612 28.3878C30.4138 27.8662 30.1966 27.4171 29.9607 27.0404L31.504 26.1421C32.1648 27.1273 32.6698 28.2864 33.0191 29.6193C33.3778 30.9425 33.5571 32.401 33.5571 33.9947C33.5571 34.6902 33.5099 35.3856 33.4155 36.081C33.3306 36.7765 33.1984 37.4478 33.0191 38.0949C32.8492 38.742 32.6368 39.3602 32.3819 39.9494C32.127 40.5386 31.8344 41.0747 31.504 41.5576L29.9607 40.6593Z" fill="black"/>
<path d="M46.1232 7.92168C47.9186 7.92173 49.4477 8.29846 50.7023 9.02715C51.9644 9.76021 52.834 10.7832 53.4025 11.8904C54.4672 13.9644 54.4831 16.327 54.2726 17.9344L54.2521 18.0877C54.1013 19.135 53.3092 19.8843 52.3712 20.0809L47.5412 64.1092C47.4742 64.7181 46.9594 65.1795 46.3468 65.1795H13.9572C13.3544 65.1795 12.8445 64.7322 12.7658 64.1346L6.97378 20.1336H6.84878C5.67343 20.1336 4.65152 19.2753 4.47671 18.0877C3.99924 14.8424 4.717 12.3743 6.07144 10.6443C7.38003 8.97299 9.14575 8.16917 10.4953 7.94804L10.6564 7.92168L46.1232 7.92168ZM16.2775 60.1307C16.3562 60.7282 16.8653 61.1744 17.4679 61.1746H42.758C43.3705 61.1746 43.8853 60.7141 43.9523 60.1053L45.0431 50.1648H14.966L16.2775 60.1307ZM14.4386 46.1609H45.4816L48.3371 20.1336H11.0119L14.4386 46.1609ZM11.0148 11.9256C10.5327 12.0388 9.79268 12.3864 9.22378 13.1131C8.77174 13.6906 8.33441 14.6268 8.33218 16.1297H50.3732C50.3542 15.2811 50.199 14.419 49.84 13.7195C49.5783 13.2099 49.2136 12.7923 48.6916 12.4891C48.1621 12.1816 47.3574 11.9256 46.1232 11.9256H11.0148Z" fill="#1054FF"/>
<path fill-rule="evenodd" clip-rule="evenodd" d="M46.1232 7.92168L46.1232 7.62137H46.1232V7.92168ZM50.7023 9.02715L50.8531 8.76747L50.8531 8.76746L50.7023 9.02715ZM53.4025 11.8904L53.6696 11.7533L53.6696 11.7533L53.4025 11.8904ZM54.2726 17.9344L54.5703 17.9742L54.5704 17.9734L54.2726 17.9344ZM54.2521 18.0877L54.5494 18.1305L54.5498 18.1275L54.2521 18.0877ZM52.3712 20.0809L52.3096 19.7869L52.0965 19.8316L52.0727 20.0481L52.3712 20.0809ZM47.5412 64.1092L47.8397 64.142L47.8397 64.1419L47.5412 64.1092ZM46.3468 65.1795V65.4798H46.3468L46.3468 65.1795ZM12.7658 64.1346L12.468 64.1738L12.468 64.1738L12.7658 64.1346ZM6.97378 20.1336L7.27151 20.0944L7.23714 19.8333H6.97378V20.1336ZM4.47671 18.0877L4.17961 18.1314L4.17961 18.1314L4.47671 18.0877ZM6.07144 10.6443L5.83499 10.4592L5.83498 10.4592L6.07144 10.6443ZM10.4953 7.94804L10.4468 7.65168L10.4467 7.65169L10.4953 7.94804ZM10.6564 7.92168V7.62137H10.632L10.6079 7.62532L10.6564 7.92168ZM16.2775 60.1307L15.9798 60.1698L15.9798 60.1699L16.2775 60.1307ZM17.4679 61.1746L17.4678 61.4749H17.4679V61.1746ZM43.9523 60.1053L44.2508 60.1381L44.2508 60.138L43.9523 60.1053ZM45.0431 50.1648L45.3416 50.1976L45.3782 49.8645H45.0431V50.1648ZM14.966 50.1648V49.8645H14.6236L14.6682 50.204L14.966 50.1648ZM14.4386 46.1609L14.1409 46.2001L14.1753 46.4612H14.4386V46.1609ZM45.4816 46.1609V46.4612H45.7508L45.7801 46.1937L45.4816 46.1609ZM48.3371 20.1336L48.6356 20.1663L48.6721 19.8333H48.3371V20.1336ZM11.0119 20.1336V19.8333H10.6694L10.7141 20.1728L11.0119 20.1336ZM11.0148 11.9256V11.6253H10.98L10.9461 11.6332L11.0148 11.9256ZM9.22378 13.1131L8.98733 12.928L8.98731 12.928L9.22378 13.1131ZM8.33218 16.1297L8.03188 16.1292L8.03143 16.43H8.33218V16.1297ZM50.3732 16.1297V16.43H50.6803L50.6734 16.123L50.3732 16.1297ZM49.84 13.7195L50.1072 13.5824L50.1071 13.5824L49.84 13.7195ZM48.6916 12.4891L48.8424 12.2294L48.8424 12.2294L48.6916 12.4891ZM46.1232 11.9256L46.1232 11.6253H46.1232V11.9256ZM46.1232 7.92168L46.1232 8.22198C47.8765 8.22203 49.3512 8.58972 50.5515 9.28683L50.7023 9.02715L50.8531 8.76746C49.5441 8.0072 47.9607 7.62143 46.1232 7.62137L46.1232 7.92168ZM50.7023 9.02715L50.5515 9.28682C51.7581 9.98766 52.5899 10.9652 53.1353 12.0276L53.4025 11.8904L53.6696 11.7533C53.0782 10.6012 52.1707 9.53275 50.8531 8.76747L50.7023 9.02715ZM53.4025 11.8904L53.1353 12.0276C54.1608 14.025 54.1815 16.3176 53.9748 17.8954L54.2726 17.9344L54.5704 17.9734C54.7848 16.3364 54.7737 13.9038 53.6696 11.7533L53.4025 11.8904ZM54.2726 17.9344L53.975 17.8946L53.9545 18.0479L54.2521 18.0877L54.5498 18.1275L54.5703 17.9742L54.2726 17.9344ZM54.2521 18.0877L53.9549 18.0449C53.8233 18.9582 53.1333 19.6143 52.3096 19.7869L52.3712 20.0809L52.4328 20.3748C53.4851 20.1542 54.3792 19.3117 54.5493 18.1305L54.2521 18.0877ZM52.3712 20.0809L52.0727 20.0481L47.2427 64.0764L47.5412 64.1092L47.8397 64.1419L52.6698 20.1136L52.3712 20.0809ZM47.5412 64.1092L47.2427 64.0764C47.1925 64.5331 46.8063 64.8792 46.3468 64.8792L46.3468 65.1795L46.3468 65.4798C47.1126 65.4798 47.756 64.9031 47.8397 64.142L47.5412 64.1092ZM46.3468 65.1795V64.8792H13.9572V65.1795V65.4798H46.3468V65.1795ZM13.9572 65.1795V64.8792C13.5051 64.8792 13.1225 64.5436 13.0635 64.0954L12.7658 64.1346L12.468 64.1738C12.5664 64.9208 13.2036 65.4798 13.9572 65.4798V65.1795ZM12.7658 64.1346L13.0635 64.0954L7.27151 20.0944L6.97378 20.1336L6.67605 20.1728L12.468 64.1738L12.7658 64.1346ZM6.97378 20.1336V19.8333H6.84878V20.1336V20.4339H6.97378V20.1336ZM6.84878 20.1336V19.8333C5.81999 19.8333 4.92658 19.0818 4.77381 18.044L4.47671 18.0877L4.17961 18.1314C4.37647 19.4687 5.52687 20.4339 6.84878 20.4339V20.1336ZM4.47671 18.0877L4.77381 18.044C4.30635 14.8668 5.01189 12.4848 6.30789 10.8295L6.07144 10.6443L5.83498 10.4592C4.4221 12.2638 3.69212 14.8181 4.17961 18.1314L4.47671 18.0877ZM6.07144 10.6443L6.30788 10.8295C7.56491 9.22399 9.26006 8.45475 10.5438 8.24439L10.4953 7.94804L10.4467 7.65169C9.03144 7.8836 7.19516 8.72199 5.83499 10.4592L6.07144 10.6443ZM10.4953 7.94804L10.5438 8.2444L10.7049 8.21804L10.6564 7.92168L10.6079 7.62532L10.4468 7.65168L10.4953 7.94804ZM10.6564 7.92168V8.22198L46.1232 8.22198V7.92168V7.62137L10.6564 7.62137V7.92168ZM16.2775 60.1307L15.9798 60.1699C16.0781 60.9169 16.7147 61.4747 17.4678 61.4749L17.4679 61.1746L17.468 60.8743C17.0159 60.8742 16.6342 60.5395 16.5752 60.0915L16.2775 60.1307ZM17.4679 61.1746V61.4749H42.758V61.1746V60.8743H17.4679V61.1746ZM42.758 61.1746V61.4749C43.5234 61.4749 44.167 60.8995 44.2508 60.1381L43.9523 60.1053L43.6538 60.0724C43.6036 60.5288 43.2177 60.8743 42.758 60.8743V61.1746ZM43.9523 60.1053L44.2508 60.138L45.3416 50.1976L45.0431 50.1648L44.7446 50.1321L43.6538 60.0725L43.9523 60.1053ZM45.0431 50.1648V49.8645H14.966V50.1648V50.4651H45.0431V50.1648ZM14.966 50.1648L14.6682 50.204L15.9798 60.1698L16.2775 60.1307L16.5752 60.0915L15.2637 50.1257L14.966 50.1648ZM14.4386 46.1609V46.4612H45.4816V46.1609V45.8606H14.4386V46.1609ZM45.4816 46.1609L45.7801 46.1937L48.6356 20.1663L48.3371 20.1336L48.0386 20.1008L45.1831 46.1282L45.4816 46.1609ZM48.3371 20.1336V19.8333H11.0119V20.1336V20.4339H48.3371V20.1336ZM11.0119 20.1336L10.7141 20.1728L14.1409 46.2001L14.4386 46.1609L14.7364 46.1217L11.3096 20.0944L11.0119 20.1336ZM11.0148 11.9256L10.9461 11.6332C10.4075 11.7598 9.60426 12.14 8.98733 12.928L9.22378 13.1131L9.46023 13.2982C9.9811 12.6329 10.6578 12.3179 11.0835 12.2179L11.0148 11.9256ZM9.22378 13.1131L8.98731 12.928C8.49182 13.561 8.0342 14.563 8.03188 16.1292L8.33218 16.1297L8.63248 16.1301C8.63462 14.6905 9.05166 13.8202 9.46025 13.2982L9.22378 13.1131ZM8.33218 16.1297V16.43H50.3732V16.1297V15.8294H8.33218V16.1297ZM50.3732 16.1297L50.6734 16.123C50.6539 15.2473 50.4939 14.3359 50.1072 13.5824L49.84 13.7195L49.5728 13.8567C49.9041 14.5021 50.0546 15.3149 50.073 16.1364L50.3732 16.1297ZM49.84 13.7195L50.1071 13.5824C49.8225 13.028 49.42 12.5649 48.8424 12.2294L48.6916 12.4891L48.5407 12.7487C49.0072 13.0197 49.3342 13.3918 49.5728 13.8567L49.84 13.7195ZM48.6916 12.4891L48.8424 12.2294C48.2586 11.8904 47.3996 11.6253 46.1232 11.6253L46.1232 11.9256L46.1232 12.2259C47.3151 12.2259 48.0655 12.4728 48.5407 12.7487L48.6916 12.4891ZM46.1232 11.9256V11.6253L11.0148 11.6253V11.9256V12.2259H46.1232V11.9256Z" fill="black"/>
<path d="M30.9561 3.9171V7.92112L11.937 7.92112V3.9171L30.9561 3.9171Z" fill="#1054FF" stroke="black" stroke-width="0.600604"/>
</svg>
