<svg width="176" height="98" viewBox="0 0 176 98" fill="none" xmlns="http://www.w3.org/2000/svg">
<path d="M110.006 0C112.689 1.74619e-05 115.414 0.414271 117.956 1.49487C119.111 0.763713 120.479 0.340224 121.946 0.340224L142.475 0.340224C146.609 0.34023 149.961 3.7005 149.961 7.84561V15.3305C149.961 19.0632 147.243 22.1586 143.683 22.7377V41.5871C144.872 41.7626 145.977 42.2195 146.922 42.8931C148.145 42.02 149.642 41.5067 151.258 41.5067H159.232C163.367 41.5067 166.718 44.867 166.718 49.012V74.5077H167.546C171.68 74.5077 175.031 77.868 175.031 82.0131V89.498C175.031 93.6431 171.68 97.0034 167.546 97.0034H151.258C150.856 97.0034 150.46 96.971 150.075 96.9097C149.689 96.9713 149.295 97.0034 148.899 97.0034H140.925C139.445 97.0034 138.057 96.5703 136.886 95.8177C135.716 96.5702 134.328 97.0034 132.849 97.0034H124.874C124.472 97.0034 124.073 96.9704 123.681 96.9069C123.291 96.9698 122.891 97.0034 122.483 97.0034H114.509C111.566 97.0034 109.019 95.2997 107.796 92.8222C105.63 94.2912 103.236 95.4216 100.643 96.2067C100.638 96.208 100.634 96.2092 100.63 96.2105C98.0939 96.9733 95.4786 97.3436 92.8125 97.3436C90.0591 97.3436 87.3365 96.9136 84.6672 96.1017C84.6597 96.0994 84.652 96.0972 84.6445 96.0949C81.7351 95.1999 79.039 93.763 76.558 91.9048C74.7934 90.5924 73.222 89.0741 71.8465 87.3691C70.424 89.0395 68.8199 90.5374 67.0432 91.8561C67.0387 91.8594 67.034 91.8627 67.0296 91.866C64.7287 93.5657 62.2274 94.8957 59.5412 95.8293C59.5291 95.8336 59.5172 95.8381 59.5051 95.8423C59.5029 95.8431 59.5006 95.8442 59.4983 95.845C56.6425 96.8464 53.6787 97.3436 50.6452 97.3436C47.569 97.3436 44.5683 96.8473 41.69 95.8212C38.9787 94.8546 36.4598 93.5216 34.1676 91.8135C34.1632 91.8102 34.1587 91.8069 34.1543 91.8036C33.7212 91.4794 33.2984 91.1442 32.8858 90.7986C31.8391 92.1718 30.5825 93.3205 29.1824 94.2554C29.1722 94.2623 29.162 94.2693 29.1518 94.2762C29.1384 94.2851 29.1254 94.2946 29.112 94.3034C27.5125 95.3742 25.7677 96.1436 23.92 96.6178C22.0316 97.118 20.094 97.3436 18.1406 97.3436C14.322 97.3436 10.4537 96.5183 7.12729 94.2291C7.12153 94.2252 7.11536 94.2215 7.10961 94.2175C3.68134 91.859 1.62576 88.4437 0.6824 84.65C0.193494 82.7647 0 80.8048 0 78.8491L0 75.2768C2.67914e-05 72.6984 1.29693 70.4238 3.27226 69.0727C2.8596 68.422 2.47943 67.7501 2.14342 67.0565C2.10645 66.9802 2.07069 66.9033 2.03632 66.8257C1.47462 65.5586 1.03961 64.2417 0.745982 62.8801C0.590565 62.1705 0.481178 61.4574 0.410392 60.7477C0.398056 60.624 0.388703 60.5 0.382511 60.3758C0.353374 59.7915 0.33933 59.2014 0.33933 58.6062C0.339331 56.8612 0.513177 55.1238 0.909527 53.4258L0.936047 53.3156C1.39909 51.4586 2.1609 49.6494 3.30524 47.9972L3.32122 47.974C5.57651 44.7437 8.78763 42.7518 12.3825 41.8176C14.1671 41.3508 16.009 41.1664 17.8349 41.1664C20.8131 41.1664 23.843 41.676 26.6163 43.0418V7.84561C26.6163 3.7005 29.9678 0.340224 34.102 0.340224L45.9782 0.340224C51.0558 0.340224 55.6226 2.34692 58.855 6.44653L59.008 6.64357L59.0128 6.65005C59.1585 6.84081 59.2995 7.03409 59.4361 7.22959C60.1651 6.57271 60.9308 5.95315 61.7322 5.37165L61.7699 5.34438C64.0945 3.67964 66.6114 2.37654 69.3046 1.45601C70.6874 0.983369 72.1049 0.625654 73.5516 0.378746L73.5771 0.374315C75.0725 0.124439 76.5814 0 78.0993 0C81.1884 1.52704e-05 84.1995 0.493345 87.0789 1.53135C89.5511 2.40142 91.8684 3.57108 94.0066 5.04779L94.4361 5.35018L94.5347 5.42211C94.9619 5.73957 95.3789 6.0667 95.7859 6.40289C98.0262 3.40498 101.123 1.53895 104.572 0.646358C106.351 0.183184 108.187 0 110.006 0Z" fill="#29CA41"/>
<path d="M153.525 89.8144V47.7771H161.763V82.0428H170.351V89.8144H153.525Z" fill="#D3FF6B"/>
<path d="M126.267 89.8144L132.788 47.7771H144.566L151.087 89.8144H142.849L141.622 80.1706H135.732L134.505 89.8144H126.267ZM136.714 72.3989H140.64L139.238 59.2225C139.191 58.6809 139.156 58.1981 139.133 57.7742C139.109 57.3267 139.086 56.8557 139.063 56.3612C139.039 55.8431 139.028 55.219 139.028 54.4889H138.326V55.5134C138.326 55.6782 138.326 55.8431 138.326 56.0079C138.303 56.1963 138.291 56.373 138.291 56.5378C138.291 56.7733 138.28 57.0206 138.256 57.2796C138.233 57.5151 138.221 57.7506 138.221 57.9861C138.221 58.4572 138.186 58.8693 138.116 59.2225L136.714 72.3989Z" fill="#D3FF6B"/>
<path d="M115.559 89.8144V47.7771H123.797V89.8144H115.559Z" fill="#D3FF6B"/>
<path d="M80.9793 68.8664C80.9793 70.303 81.1546 71.6924 81.5052 73.0348C81.8791 74.3772 82.4517 75.6489 83.2229 76.85C83.9006 77.9097 84.742 78.84 85.7469 79.6407C86.7752 80.4414 87.897 81.0301 89.1123 81.4069C90.3743 81.8308 91.6947 82.0428 93.0736 82.0428C95.3405 82.0428 97.3387 81.5129 99.0681 80.4532C100.774 79.3934 102.083 77.9333 102.994 76.0728C103.205 75.6253 103.392 75.1543 103.555 74.6598C103.719 74.1417 103.859 73.6118 103.976 73.0701H112.389C112.202 75.119 111.735 76.9795 110.987 78.6516C110.263 80.3236 109.328 81.8544 108.183 83.2439C105.775 86.1641 102.714 88.1894 98.998 89.3198C97.1284 89.8851 95.1769 90.1677 93.1437 90.1677C91.1105 90.1677 89.0539 89.8497 86.9739 89.2139C84.9173 88.578 82.9191 87.53 80.9793 86.0699C79.2733 84.7982 77.8009 83.2556 76.5623 81.4423C75.3236 79.6053 74.3888 77.6507 73.7578 75.5782C73.4306 74.5185 73.1735 73.4234 72.9866 72.293C72.823 71.1625 72.7412 69.9968 72.7412 68.7957C72.7412 66.3465 73.0801 64.0621 73.7578 61.9426C74.4589 59.7995 75.4054 57.8566 76.5973 56.1139C77.9295 54.2063 79.4836 52.6167 81.2598 51.345C83.0359 50.0497 84.8121 49.0959 86.5883 48.4836C87.6166 48.1539 88.6799 47.8948 89.7783 47.7064C90.8768 47.518 91.9985 47.4238 93.1437 47.4238C97.1634 47.4238 100.809 48.4954 104.081 50.6384C105.647 51.6747 107.026 52.9228 108.218 54.3829C109.41 55.8195 110.356 57.3621 111.057 59.0106C111.758 60.7062 112.202 62.5431 112.389 64.5214H103.976C103.789 63.4616 103.45 62.4607 102.959 61.5187C102.492 60.5531 101.943 59.7171 101.312 59.0106C100.657 58.3041 99.9095 57.6918 99.0681 57.1737C98.2268 56.632 97.3037 56.2199 96.2987 55.9373C95.2471 55.6782 94.172 55.5487 93.0736 55.5487C91.5779 55.5487 90.2107 55.7842 88.9721 56.2552C87.7334 56.7027 86.6701 57.2679 85.782 57.9508C83.7487 59.5758 82.3465 61.7424 81.5753 64.4507C81.3649 65.1337 81.213 65.852 81.1196 66.6056C81.0261 67.3356 80.9793 68.0892 80.9793 68.8664Z" fill="#D3FF6B"/>
<path d="M28.4766 68.5485C28.4766 66.217 28.8389 64.015 29.5634 61.9426C30.2879 59.8466 31.3045 57.9037 32.6132 56.1139C33.8986 54.3476 35.4294 52.8168 37.2055 51.5216C39.0051 50.2263 40.9332 49.2254 42.9898 48.5189C44.0181 48.1657 45.0814 47.8948 46.1798 47.7064C47.3016 47.518 48.4351 47.4238 49.5803 47.4238C51.9407 47.4238 54.1609 47.8006 56.2409 48.5542C58.3209 49.2843 60.2255 50.2734 61.955 51.5216C63.9415 53.0052 65.554 54.6655 66.7927 56.5025C68.0313 58.3158 68.9545 60.1175 69.5621 61.9073C69.9127 62.967 70.1814 64.0504 70.3684 65.1572C70.5553 66.2641 70.6488 67.3945 70.6488 68.5485C70.6488 70.8564 70.2866 73.1055 69.5621 75.2956C68.861 77.4858 67.8677 79.4876 66.5823 81.301C65.2736 83.0908 63.7195 84.6569 61.9199 85.9993C60.1438 87.3181 58.2391 88.3307 56.2058 89.0372C54.0791 89.7909 51.8706 90.1677 49.5803 90.1677C47.2432 90.1677 45.023 89.7909 42.9196 89.0372C40.8163 88.2836 38.8999 87.2592 37.1705 85.9639C35.4177 84.6451 33.8869 83.1026 32.5782 81.3363C31.2928 79.57 30.2879 77.5682 29.5634 75.331C29.2128 74.2712 28.944 73.1761 28.7571 72.0457C28.5701 70.8917 28.4766 69.726 28.4766 68.5485ZM36.7148 68.6191C36.7148 70.0557 36.9368 71.4687 37.3808 72.8582C37.8249 74.2476 38.4325 75.4723 39.2037 76.532C40.0451 77.7095 41.0033 78.7104 42.0783 79.5347C43.1534 80.3354 44.3102 80.9359 45.5488 81.3363C46.8576 81.8073 48.2131 82.0428 49.6153 82.0428C51.0175 82.0428 52.3614 81.8191 53.6467 81.3716C54.9321 80.9006 56.1006 80.253 57.1523 79.4287C58.204 78.628 59.1271 77.6742 59.9217 76.5673C60.7163 75.4369 61.324 74.2005 61.7446 72.8582C61.955 72.1988 62.1186 71.5158 62.2354 70.8093C62.3523 70.1028 62.4107 69.3727 62.4107 68.6191C62.4107 67.2296 62.1887 65.8755 61.7446 64.5567C61.3006 63.2143 60.693 62.0132 59.9217 60.9535C58.2858 58.7162 56.1824 57.1383 53.6117 56.2199C52.3263 55.7724 50.9942 55.5487 49.6153 55.5487C48.4935 55.5487 47.2783 55.7371 45.9695 56.1139C44.6608 56.4671 43.352 57.1266 42.0433 58.0921C40.9682 58.8928 40.0217 59.8348 39.2037 60.9182C38.4091 62.0015 37.8015 63.1908 37.3808 64.486C37.1705 65.1454 37.0069 65.8284 36.89 66.5349C36.7732 67.2179 36.7148 67.9126 36.7148 68.6191Z" fill="#D3FF6B"/>
<path d="M18.1029 60.3883V57.9155C18.1029 55.6311 17.3433 54.4889 15.8242 54.4889C15.1231 54.4889 14.5739 54.7597 14.1766 55.3014C13.7793 55.8431 13.5807 56.6202 13.5807 57.6329C13.5807 57.939 13.604 58.2687 13.6508 58.622C13.7209 58.9753 13.8728 59.3521 14.1065 59.7524C14.2935 60.1057 14.5739 60.5296 14.9478 61.0241C15.3218 61.4951 15.7892 62.0015 16.3501 62.5431C16.6305 62.8493 16.946 63.1672 17.2966 63.4969C17.6238 63.8502 17.9977 64.2152 18.4184 64.592C19.6804 65.746 20.8372 66.8764 21.8889 67.9833C22.9639 69.0901 23.8403 70.0675 24.5181 70.9153C25.1958 71.8102 25.7334 72.6698 26.1307 73.494C26.528 74.3183 26.8201 75.1661 27.0071 76.0375C27.1005 76.4849 27.159 76.9442 27.1823 77.4152C27.2291 77.8862 27.2524 78.3807 27.2524 78.8988C27.2524 80.3119 27.1005 81.6189 26.7967 82.82C26.4929 83.9975 26.0255 85.0572 25.3945 85.9993C24.8102 86.8942 24.039 87.6595 23.0808 88.2954C22.146 88.9313 21.1177 89.3905 19.9959 89.6731C18.7572 90.0028 17.4251 90.1677 15.9995 90.1677C13.1249 90.1677 10.7879 89.5436 8.98835 88.2954C7.21218 87.0708 6.03197 85.2456 5.44771 82.82C5.14389 81.6424 4.99198 80.2883 4.99198 78.7575V75.0484H12.7043V78.7929C12.7043 80.1588 12.9847 81.2185 13.5456 81.9721C14.0598 82.7258 14.8544 83.1026 15.9294 83.1026C16.3033 83.1026 16.6656 83.0555 17.0161 82.9613C17.3667 82.8435 17.6588 82.6669 17.8925 82.4314C18.1029 82.2194 18.3015 81.9604 18.4885 81.6542C18.6754 81.3245 18.8157 80.9242 18.9092 80.4532C18.9325 80.2412 18.9559 80.0175 18.9793 79.782C19.0026 79.5229 19.0143 79.2639 19.0143 79.0048C19.0143 78.5102 18.9793 78.0863 18.9092 77.7331C18.839 77.3563 18.6988 76.9559 18.4885 76.532C18.2548 76.1081 17.9276 75.6724 17.5069 75.225C17.1096 74.7775 16.6422 74.283 16.1047 73.7413C15.8009 73.4587 15.462 73.1526 15.0881 72.8228C14.7375 72.4931 14.3519 72.1399 13.9312 71.7631C12.6225 70.5856 11.4773 69.514 10.4957 68.5485C9.53756 67.5594 8.71959 66.6056 8.04184 65.6871C7.36409 64.7922 6.82657 63.9326 6.42927 63.1083C6.05534 62.2605 5.77489 61.4009 5.58793 60.5296C5.49445 60.1057 5.42434 59.6582 5.3776 59.1872C5.35422 58.7162 5.34254 58.2334 5.34254 57.7389C5.34254 56.4436 5.47108 55.2425 5.72815 54.1357C6.0086 53.0053 6.44096 52.0161 7.02522 51.1683C8.17038 49.5198 9.82969 48.4129 12.0032 47.8477C13.0782 47.5651 14.3052 47.4238 15.684 47.4238C18.3015 47.4238 20.4516 47.9537 22.1343 49.0135C22.6952 49.3667 23.2911 49.9202 23.9221 50.6738C24.5531 51.4274 25.0439 52.4518 25.3945 53.7471C25.6749 54.8068 25.8152 55.9844 25.8152 57.2796V60.3883H18.1029Z" fill="#D3FF6B"/>
<path d="M129.727 47.0706V12.8049H123.242V5.03324H144.451V12.8049H137.965V47.0706H129.727Z" fill="#D3FF6B"/>
<path d="M113.325 17.6444V15.1717C113.325 12.8873 112.566 11.7451 111.047 11.7451C110.346 11.7451 109.796 12.0159 109.399 12.5576C109.002 13.0992 108.803 13.8764 108.803 14.889C108.803 15.1952 108.827 15.5249 108.873 15.8782C108.943 16.2314 109.095 16.6082 109.329 17.0086C109.516 17.3618 109.796 17.7857 110.17 18.2803C110.544 18.7513 111.012 19.2576 111.573 19.7993C111.853 20.1054 112.169 20.4234 112.519 20.7531C112.846 21.1063 113.22 21.4714 113.641 21.8482C114.903 23.0021 116.06 24.1325 117.111 25.2394C118.186 26.3463 119.063 27.3236 119.741 28.1714C120.418 29.0663 120.956 29.9259 121.353 30.7502C121.75 31.5745 122.043 32.4223 122.23 33.2936C122.323 33.7411 122.381 34.2003 122.405 34.6713C122.452 35.1423 122.475 35.6369 122.475 36.155C122.475 37.568 122.323 38.8751 122.019 40.0761C121.715 41.2536 121.248 42.3134 120.617 43.2554C120.033 44.1503 119.262 44.9157 118.303 45.5516C117.368 46.1874 116.34 46.6467 115.218 46.9293C113.98 47.259 112.648 47.4238 111.222 47.4238C108.347 47.4238 106.01 46.7997 104.211 45.5516C102.435 44.327 101.254 42.5018 100.67 40.0761C100.366 38.8986 100.214 37.5445 100.214 36.0137V32.3045H107.927V36.049C107.927 37.4149 108.207 38.4747 108.768 39.2283C109.282 39.9819 110.077 40.3587 111.152 40.3587C111.526 40.3587 111.888 40.3116 112.239 40.2174C112.589 40.0997 112.881 39.923 113.115 39.6875C113.325 39.4756 113.524 39.2165 113.711 38.9104C113.898 38.5807 114.038 38.1803 114.132 37.7093C114.155 37.4974 114.178 37.2736 114.202 37.0381C114.225 36.7791 114.237 36.52 114.237 36.261C114.237 35.7664 114.202 35.3425 114.132 34.9892C114.062 34.6124 113.921 34.2121 113.711 33.7882C113.477 33.3643 113.15 32.9286 112.729 32.4811C112.332 32.0337 111.865 31.5391 111.327 30.9975C111.023 30.7149 110.685 30.4087 110.311 30.079C109.96 29.7493 109.574 29.396 109.154 29.0192C107.845 27.8417 106.7 26.7702 105.718 25.8046C104.76 24.8155 103.942 23.8617 103.264 22.9433C102.587 22.0483 102.049 21.1888 101.652 20.3645C101.278 19.5167 100.997 18.6571 100.81 17.7857C100.717 17.3618 100.647 16.9144 100.6 16.4434C100.577 15.9724 100.565 15.4896 100.565 14.995C100.565 13.6998 100.694 12.4987 100.951 11.3918C101.231 10.2614 101.663 9.27229 102.248 8.42448C103.393 6.77596 105.052 5.6691 107.226 5.10389C108.301 4.82128 109.528 4.67998 110.907 4.67998C113.524 4.67998 115.674 5.20986 117.357 6.26963C117.918 6.62288 118.514 7.17632 119.145 7.92993C119.776 8.68354 120.266 9.70798 120.617 11.0032C120.897 12.063 121.038 13.2405 121.038 14.5358V17.6444H113.325Z" fill="#D3FF6B"/>
<path d="M56.8397 25.8046C56.8397 23.4731 57.2019 21.2712 57.9264 19.1988C58.6509 17.1028 59.6675 15.1599 60.9763 13.3701C62.2617 11.6038 63.7924 10.073 65.5686 8.77774C67.3681 7.48247 69.2962 6.48158 71.3528 5.77507C72.3811 5.42182 73.4445 5.15099 74.5429 4.96259C75.6647 4.77418 76.7982 4.67998 77.9433 4.67998C80.3037 4.67998 82.5239 5.05679 84.6039 5.8104C86.6839 6.54046 88.5886 7.52957 90.318 8.77774C92.3045 10.2614 93.9171 11.9217 95.1557 13.7586C96.3944 15.572 97.3175 17.3736 97.9252 19.1634C98.2757 20.2232 98.5445 21.3065 98.7314 22.4134C98.9184 23.5202 99.0119 24.6507 99.0119 25.8046C99.0119 28.1126 98.6496 30.3616 97.9252 32.5518C97.224 34.742 96.2308 36.7438 94.9454 38.5571C93.6367 40.347 92.0825 41.913 90.283 43.2554C88.5068 44.5742 86.6021 45.5869 84.5689 46.2934C82.4421 47.047 80.2336 47.4238 77.9433 47.4238C75.6063 47.4238 73.3861 47.047 71.2827 46.2934C69.1794 45.5398 67.263 44.5154 65.5335 43.2201C63.7808 41.9013 62.25 40.3587 60.9412 38.5925C59.6558 36.8262 58.6509 34.8244 57.9264 32.5871C57.5759 31.5274 57.3071 30.4323 57.1201 29.3018C56.9332 28.1479 56.8397 26.9821 56.8397 25.8046ZM65.0778 25.8753C65.0778 27.3118 65.2998 28.7249 65.7439 30.1143C66.1879 31.5038 66.7956 32.7284 67.5668 33.7882C68.4081 34.9657 69.3663 35.9666 70.4414 36.7909C71.5164 37.5916 72.6732 38.1921 73.9119 38.5925C75.2206 39.0635 76.5761 39.299 77.9784 39.299C79.3806 39.299 80.7244 39.0752 82.0098 38.6278C83.2952 38.1568 84.4637 37.5091 85.5154 36.6849C86.5671 35.8842 87.4902 34.9304 88.2848 33.8235C89.0794 32.6931 89.687 31.4567 90.1077 30.1143C90.318 29.4549 90.4816 28.772 90.5985 28.0655C90.7153 27.3589 90.7738 26.6289 90.7738 25.8753C90.7738 24.4858 90.5517 23.1317 90.1077 21.8128C89.6637 20.4705 89.056 19.2694 88.2848 18.2096C86.6489 15.9724 84.5455 14.3945 81.9747 13.476C80.6894 13.0286 79.3572 12.8048 77.9784 12.8048C76.8566 12.8048 75.6413 12.9932 74.3326 13.3701C73.0238 13.7233 71.7151 14.3827 70.4063 15.3483C69.3313 16.149 68.3847 17.091 67.5668 18.1743C66.7722 19.2576 66.1645 20.4469 65.7439 21.7422C65.5335 22.4016 65.3699 23.0846 65.2531 23.7911C65.1362 24.474 65.0778 25.1688 65.0778 25.8753Z" fill="#D3FF6B"/>
<path d="M32.4895 5.03324H44.7591C47.8673 5.03324 50.3096 6.19898 52.0857 8.53047C52.9271 9.63733 53.5815 11.0033 54.0489 12.6282C54.5163 14.2532 54.75 16.0666 54.75 18.0683C54.75 19.6227 54.6098 21.0828 54.3293 22.4487C54.0489 23.7911 53.6048 25.0157 52.9972 26.1226C52.4129 27.1823 51.7235 28.0772 50.9289 28.8073C50.1577 29.5374 49.2345 30.1026 48.1595 30.5029C47.1312 30.8797 45.9977 31.0681 44.7591 31.0681H40.7276V47.0706H32.4895V5.03324ZM40.7276 23.2965H42.6557C43.0764 23.2965 43.4971 23.2376 43.9177 23.1199C44.3384 22.9786 44.724 22.7313 45.0746 22.3781C45.4018 22.0484 45.6588 21.6951 45.8458 21.3183C46.0561 20.9415 46.2314 20.4469 46.3716 19.8346C46.4184 19.5756 46.4534 19.3047 46.4768 19.0221C46.5002 18.716 46.5119 18.3981 46.5119 18.0683C46.5119 17.456 46.4534 16.8791 46.3366 16.3374C46.2431 15.7722 46.0795 15.2659 45.8458 14.8184C45.6121 14.3945 45.3433 14.0412 45.0395 13.7586C44.7591 13.4525 44.4085 13.2052 43.9878 13.0168C43.6139 12.8755 43.1699 12.8049 42.6557 12.8049H40.7276V23.2965Z" fill="#D3FF6B"/>
<path d="M25.1912 57.2795C25.1912 56.0301 25.0559 54.9084 24.792 53.91C24.4569 52.672 23.9996 51.7381 23.4438 51.0743C22.8364 50.3488 22.2881 49.8477 21.8018 49.5414C20.2456 48.5613 18.2203 48.0478 15.684 48.0478C14.3465 48.0478 13.1745 48.185 12.1619 48.4512L12.1603 48.4515C10.1137 48.9837 8.5887 50.0119 7.53885 51.5222C7.00243 52.3005 6.59853 53.219 6.33382 54.286C6.09027 55.3382 5.96667 56.4884 5.96667 57.739C5.96667 58.217 5.97768 58.683 5.99988 59.1372C6.03879 59.5255 6.09394 59.8946 6.16533 60.2447L6.19732 60.3952L6.19793 60.3986C6.37495 61.2236 6.64082 62.0396 6.99621 62.847C7.32448 63.5263 7.75751 64.2395 8.29935 64.9865L8.53914 65.3104L8.54401 65.3165C9.20143 66.2074 9.99932 67.1388 10.9404 68.1105C11.912 69.0661 13.0475 70.1286 14.3477 71.2984L14.9574 71.8505C15.1512 72.0281 15.3364 72.1999 15.5131 72.3661C15.8854 72.6945 16.2244 73.0006 16.5295 73.2844C16.5356 73.29 16.5417 73.2959 16.5475 73.3017C17.0858 73.8442 17.5575 74.343 17.9616 74.7975L18.1252 74.976C18.4445 75.3332 18.7146 75.6914 18.9311 76.0509L19.035 76.2307L19.0475 76.2548C19.2776 76.7187 19.44 77.174 19.5228 77.6188C19.6022 78.0221 19.6383 78.4865 19.6383 79.0049C19.6382 79.2827 19.6258 79.5606 19.6008 79.8382C19.6006 79.84 19.6003 79.8419 19.6002 79.8437C19.5766 80.0812 19.5531 80.3072 19.5295 80.5216C19.5275 80.5394 19.5247 80.5571 19.5213 80.5746C19.4181 81.0944 19.2586 81.5613 19.0313 81.9621C19.028 81.968 19.0245 81.9738 19.021 81.9795C18.8136 82.3191 18.586 82.6185 18.3354 82.871C18.0257 83.1831 17.6467 83.4078 17.2148 83.5529C17.2027 83.557 17.1905 83.5606 17.1782 83.5639C16.7733 83.6727 16.3563 83.7266 15.9293 83.7266C14.6993 83.7266 13.6973 83.2863 13.0445 82.3442C12.3747 81.444 12.0802 80.2341 12.0802 78.7928V75.6722H5.61598V78.7575C5.61598 80.1553 5.74617 81.3853 5.99958 82.4527L6.05198 82.6641L6.05442 82.6739C6.59137 84.9031 7.64404 86.5521 9.19117 87.6747L9.3426 87.7817L9.34412 87.7826C11.011 88.9387 13.2127 89.5436 15.9994 89.5437C17.3768 89.5437 18.6546 89.3845 19.8354 89.0702L19.8433 89.068C20.8959 88.8029 21.8569 88.3733 22.7299 87.7795L22.7357 87.7756C23.6286 87.183 24.3374 86.4766 24.8718 85.658C24.8732 85.6559 24.8748 85.6539 24.8761 85.6519C25.4647 84.7733 25.9042 83.78 26.1917 82.6669C26.4813 81.5223 26.6284 80.2673 26.6284 78.8988C26.6284 78.3994 26.6059 77.9256 26.5613 77.4769C26.5603 77.4667 26.5597 77.4563 26.5592 77.4461C26.5374 77.0077 26.483 76.5819 26.3968 76.1682C26.2205 75.3466 25.945 74.5457 25.5687 73.7649C25.1935 72.9866 24.6804 72.1639 24.0239 71.2966C23.3636 70.4713 22.5042 69.5122 21.4414 68.4179C21.4398 68.4163 21.4381 68.4147 21.4365 68.4131C20.3973 67.3194 19.2527 66.2006 18.0021 65.0569L17.6858 64.7678C17.3839 64.4859 17.1063 64.2088 16.8534 63.9366C16.5061 63.6093 16.1901 63.2911 15.9061 62.982C15.3355 62.4303 14.8519 61.9067 14.4592 61.412C14.4562 61.4081 14.453 61.4043 14.4501 61.4004C14.0657 60.892 13.7635 60.4384 13.5549 60.0442C13.3027 59.608 13.1241 59.1736 13.0387 58.7435C13.0361 58.7304 13.0338 58.7172 13.032 58.7039C12.9823 58.3278 12.9568 57.9705 12.9568 57.6329C12.9568 56.5513 13.1668 55.6229 13.6734 54.9322C14.1942 54.2223 14.9346 53.8649 15.8242 53.8649C16.7662 53.8649 17.5433 54.2342 18.0527 55.0002C18.5322 55.7213 18.7269 56.7238 18.7269 57.9154V59.7642H25.1912V57.2795ZM70.0248 68.5483C70.0248 67.4283 69.9341 66.3326 69.7531 65.2611C69.5716 64.1869 69.311 63.1359 68.9712 62.1079L68.8576 61.7837C68.2713 60.1607 67.4135 58.5176 66.2775 56.8545L66.2754 56.8514C65.0813 55.0806 63.5213 53.4709 61.5865 52.0252C59.9082 50.8144 58.0583 49.8536 56.0343 49.1432C56.0323 49.1425 56.0304 49.1417 56.0285 49.141C54.0211 48.4137 51.8732 48.0478 49.5804 48.0478C48.4702 48.0478 47.3717 48.1387 46.2849 48.3211L46.2852 48.3214C45.2191 48.5043 44.1884 48.767 43.1926 49.109C41.1961 49.7949 39.3231 50.7663 37.573 52.0255C35.849 53.2827 34.3648 54.7676 33.1179 56.4809L33.117 56.4821C31.8449 58.2217 30.8571 60.1094 30.153 62.1466L30.1524 62.1484C29.4524 64.1506 29.1006 66.2826 29.1006 68.5483C29.1006 69.6919 29.1913 70.8237 29.3727 71.9438C29.5318 72.9057 29.7517 73.8403 30.032 74.7478L30.1557 75.135L30.1569 75.1387C30.8627 77.3181 31.8391 79.2601 33.0828 80.9692C34.3549 82.6851 35.8416 84.1832 37.5444 85.4645C39.2222 86.7212 41.0835 87.7165 43.1302 88.4498C45.1629 89.1781 47.3117 89.5437 49.5804 89.5437C51.8007 89.5436 53.9387 89.1787 55.9974 88.4492L56.001 88.4477C57.9727 87.7626 59.8212 86.7804 61.5479 85.4983C63.2977 84.1929 64.8072 82.6712 66.0785 80.9326C67.3231 79.1752 68.2865 77.2338 68.9679 75.1055L68.9697 75.0997C69.6733 72.9728 70.0248 70.7897 70.0248 68.5483ZM72.1171 68.7957C72.1171 66.2885 72.4642 63.9394 73.1634 61.7526L73.1646 61.7486C73.8829 59.5532 74.8549 57.5563 76.0823 55.7616L76.0857 55.7567C77.4557 53.7948 79.0592 52.1531 80.8967 50.8375C82.7132 49.5134 84.5426 48.5288 86.385 47.8936L86.3978 47.8894C87.4548 47.5505 88.5466 47.2846 89.6728 47.0914C90.807 46.8969 91.9643 46.7998 93.1438 46.7998C97.2814 46.7998 101.047 47.9048 104.423 50.1163L104.425 50.1182C106.043 51.1885 107.468 52.4782 108.699 53.9855C109.85 55.3739 110.782 56.8614 111.492 58.4477L111.632 58.7664L111.634 58.7722C112.361 60.5297 112.818 62.4279 113.011 64.4628C113.027 64.6377 112.969 64.8115 112.851 64.9415C112.733 65.0714 112.565 65.1453 112.389 65.1453H103.976C103.673 65.1453 103.414 64.928 103.361 64.6298C103.185 63.6319 102.867 62.6919 102.406 61.8071C102.403 61.8018 102.4 61.7962 102.398 61.7907C101.952 60.8705 101.434 60.0843 100.846 59.4263C100.233 58.766 99.532 58.192 98.7409 57.7049C98.7374 57.7027 98.7337 57.7007 98.7302 57.6985C97.9457 57.1933 97.0827 56.8068 96.1383 56.5403C95.1397 56.2953 94.1186 56.1726 93.0737 56.1726C91.6442 56.1726 90.3531 56.3975 89.1939 56.8383C89.1907 56.8396 89.1874 56.8408 89.1841 56.842C87.9986 57.2702 86.9962 57.8052 86.1683 58.4407C84.2466 59.9776 82.9138 62.0288 82.1754 64.6215C82.1742 64.6258 82.1731 64.6301 82.1718 64.6343C81.9728 65.2803 81.8281 65.9628 81.7388 66.6824L81.7385 66.6849C81.6486 67.3872 81.6032 68.1143 81.6032 68.8664C81.6032 70.2488 81.7716 71.5825 82.1069 72.8691C82.4414 74.0693 82.9423 75.2114 83.6117 76.2965L83.7479 76.5128L83.7485 76.5137C84.3881 77.5138 85.1823 78.3926 86.1339 79.1511C87.0427 79.8581 88.0255 80.3875 89.0842 80.7422L89.2972 80.811L89.3109 80.8153C90.5066 81.2169 91.76 81.4189 93.0737 81.4189C95.2395 81.4189 97.1221 80.9138 98.7421 79.9211C100.344 78.9253 101.573 77.5559 102.434 75.7983C102.63 75.3797 102.806 74.9376 102.96 74.4717C103.118 73.9726 103.253 73.4616 103.366 72.9386L103.38 72.8855C103.46 72.6263 103.701 72.4462 103.976 72.4462H112.389C112.565 72.4462 112.732 72.5199 112.85 72.6494C112.969 72.7789 113.027 72.9523 113.011 73.1269C112.819 75.2331 112.337 77.1592 111.559 78.8994L111.56 78.8997C110.812 80.6247 109.847 82.2056 108.664 83.6407C106.177 86.6583 103.01 88.7517 99.1797 89.9169L99.1787 89.9172C97.2482 90.5008 95.2357 90.7916 93.1438 90.7917C91.0446 90.7917 88.9264 90.4632 86.7914 89.8106L86.7896 89.81C84.6567 89.1505 82.5956 88.067 80.6063 86.5699C78.8432 85.2557 77.3232 83.6627 76.047 81.7943L76.0448 81.7912C74.7727 79.9047 73.8111 77.8944 73.1616 75.7621C72.8258 74.6746 72.5623 73.5519 72.3709 72.3947C72.3702 72.3906 72.3697 72.3863 72.3691 72.3822C72.201 71.2208 72.1171 70.0251 72.1171 68.7957ZM120.414 14.5357C120.414 13.2863 120.279 12.1645 120.015 11.1661L119.95 10.9376C119.622 9.81248 119.187 8.95281 118.666 8.33043C118.059 7.60503 117.51 7.1038 117.024 6.79755C115.468 5.81746 113.443 5.30398 110.906 5.30398C109.569 5.30399 108.397 5.4412 107.384 5.70738L107.383 5.70769C105.335 6.24013 103.81 7.26912 102.76 8.78045C102.225 9.55844 101.821 10.476 101.556 11.5421C101.313 12.5943 101.189 13.7445 101.189 14.9951C101.189 15.4731 101.2 15.9392 101.222 16.3933C101.261 16.7817 101.317 17.1507 101.388 17.5009L101.42 17.6514L101.421 17.6547C101.598 18.4794 101.863 19.2952 102.218 20.1023C102.547 20.7819 102.98 21.4953 103.522 22.2427L103.762 22.5666L103.766 22.5727C104.424 23.4635 105.222 24.3947 106.163 25.3664C107.134 26.322 108.27 27.3847 109.57 28.5546L110.18 29.1067C110.374 29.2843 110.559 29.456 110.736 29.6222C111.014 29.8676 111.274 30.1007 111.514 30.3212L111.752 30.5405L111.77 30.5579C112.314 31.1056 112.789 31.6087 113.196 32.0667C113.638 32.5383 113.995 33.0112 114.257 33.4869C114.262 33.4947 114.266 33.5029 114.27 33.5109C114.5 33.9748 114.662 34.4301 114.745 34.875C114.825 35.2783 114.861 35.7427 114.861 36.261C114.861 36.5389 114.848 36.8168 114.823 37.0943C114.823 37.0961 114.823 37.098 114.823 37.0998C114.799 37.3373 114.776 37.5633 114.752 37.7778C114.75 37.7955 114.747 37.8132 114.744 37.8308C114.64 38.3506 114.481 38.8175 114.254 39.2183C114.25 39.2241 114.247 39.23 114.244 39.2357C114.036 39.5753 113.809 39.8747 113.558 40.1272C113.248 40.4392 112.869 40.664 112.437 40.8091C112.425 40.8132 112.413 40.8167 112.401 40.82C111.996 40.9289 111.579 40.9827 111.152 40.9828C109.922 40.9828 108.92 40.5425 108.267 39.6004C107.597 38.7001 107.303 37.4902 107.303 36.049V32.9284H100.838V36.0136C100.838 37.4115 100.969 38.6415 101.222 39.7089L101.274 39.9203L101.277 39.9301C101.831 42.2311 102.935 43.914 104.565 45.0378L104.567 45.0387C106.233 46.1949 108.435 46.7998 111.222 46.7998C112.599 46.7998 113.877 46.6406 115.058 46.3263L115.066 46.3242C116.119 46.059 117.079 45.6294 117.952 45.0357L117.958 45.0317C118.851 44.4392 119.56 43.7327 120.095 42.9142L120.099 42.9081C120.688 42.0287 121.128 41.0346 121.415 39.9203C121.704 38.7765 121.851 37.5224 121.851 36.155C121.851 35.6556 121.829 35.1817 121.784 34.733C121.783 34.7228 121.782 34.7125 121.782 34.7023C121.76 34.2638 121.706 33.838 121.62 33.4244L121.585 33.2708C121.408 32.5029 121.144 31.7531 120.791 31.021C120.416 30.2428 119.903 29.4203 119.247 28.5531C118.586 27.7277 117.727 26.7684 116.664 25.6741C116.662 25.6725 116.661 25.6708 116.659 25.6692C115.62 24.5755 114.475 23.4566 113.224 22.3128C112.797 21.9299 112.413 21.5557 112.074 21.1903C111.726 20.8626 111.41 20.5442 111.125 20.2348C110.556 19.6842 110.074 19.1619 109.682 18.6681C109.679 18.6643 109.676 18.6604 109.673 18.6566C109.296 18.158 108.998 17.7121 108.79 17.3232L108.697 17.1569C108.487 16.7689 108.337 16.3826 108.261 15.9997C108.259 15.9866 108.256 15.9733 108.255 15.9601C108.205 15.584 108.179 15.2266 108.179 14.8891C108.179 13.8074 108.39 12.879 108.896 12.1884C109.417 11.4785 110.157 11.1211 111.047 11.1211C111.989 11.1211 112.766 11.4904 113.275 12.2563C113.755 12.9774 113.949 13.98 113.949 15.1716V17.0204H120.414V14.5357ZM161.763 47.153C162.107 47.153 162.386 47.4324 162.387 47.777V81.4189H170.351C170.696 81.4189 170.975 81.6983 170.975 82.0429V89.8145C170.975 90.1591 170.696 90.4385 170.351 90.4385H153.524C153.18 90.4385 152.9 90.1591 152.9 89.8145V47.777C152.9 47.4324 153.18 47.153 153.524 47.153H161.763ZM154.148 89.1905H169.727V82.6669H161.763C161.418 82.6668 161.139 82.3874 161.139 82.0429V48.4009H154.148V89.1905ZM126.995 89.1905H133.956L135.113 80.0917L135.124 80.0344C135.186 79.7519 135.438 79.5466 135.732 79.5466H141.622L141.68 79.5493C141.968 79.5761 142.203 79.7996 142.241 80.0917L143.398 89.1905H150.359L144.032 48.4009H133.322L126.995 89.1905ZM116.183 89.1905H123.173V48.4009H116.183V89.1905ZM61.7867 68.619C61.7867 67.2974 61.5757 66.0106 61.1533 64.7559L61.1521 64.7526C60.7267 63.4667 60.1475 62.3242 59.4172 61.3206C57.854 59.1833 55.8524 57.6831 53.4018 56.8075C52.1847 56.3845 50.9236 56.1726 49.6154 56.1726C48.5629 56.1726 47.4062 56.3494 46.142 56.7134C46.1387 56.7143 46.1355 56.7156 46.1322 56.7164C44.9124 57.0457 43.6734 57.6648 42.4157 58.5924C41.391 59.3556 40.4883 60.2533 39.7067 61.287C38.952 62.316 38.3747 63.4459 37.9743 64.6788C37.7739 65.3076 37.6176 65.9601 37.5057 66.6367L37.5051 66.6401C37.3943 67.2876 37.3387 67.9471 37.3387 68.619C37.3387 69.9901 37.5505 71.3393 37.9752 72.6683C38.3746 73.918 38.9087 75.0186 39.5736 75.9754L39.7082 76.1649L39.7116 76.1691C40.5177 77.2973 41.431 78.2509 42.451 79.0341C43.473 79.7953 44.569 80.3638 45.7407 80.7425C45.7472 80.7446 45.7538 80.7469 45.7602 80.7492C47.0006 81.1956 48.2847 81.4189 49.6154 81.4189C50.9471 81.4189 52.2187 81.2068 53.4338 80.7848C54.6586 80.3358 55.7688 79.7201 56.7673 78.9375C56.7696 78.9357 56.772 78.9341 56.7743 78.9323C57.7751 78.1704 58.6552 77.2616 59.4147 76.2036C60.1699 75.1282 60.7482 73.9517 61.1493 72.6717L61.1502 72.6686C61.3511 72.0389 61.5077 71.3851 61.6198 70.7073C61.7308 70.0362 61.7867 69.3403 61.7867 68.619ZM139.027 53.8649C139.372 53.8649 139.651 54.1443 139.651 54.4889C139.651 55.2123 139.663 55.8261 139.686 56.3316C139.709 56.8246 139.733 57.2941 139.756 57.7399L139.775 58.0632C139.797 58.3964 139.824 58.7632 139.859 59.164L141.261 72.3328C141.28 72.5088 141.222 72.6845 141.104 72.8161C140.986 72.9477 140.817 73.023 140.64 73.023H136.714C136.537 73.023 136.368 72.9477 136.25 72.8161C136.132 72.6845 136.075 72.5088 136.093 72.3328L137.496 59.1564L137.504 59.1009C137.564 58.7977 137.597 58.4279 137.597 57.9861C137.597 57.7299 137.61 57.4738 137.635 57.218C137.657 56.9778 137.667 56.7512 137.667 56.5379C137.667 56.3572 137.68 56.169 137.702 55.9742V54.4889C137.702 54.1443 137.982 53.865 138.326 53.8649H139.027ZM137.408 71.775H139.946L138.677 59.8495L137.408 71.775ZM98.3878 25.8045C98.3878 24.6844 98.2973 23.5888 98.1163 22.5172C97.9349 21.443 97.674 20.3921 97.3342 19.364L97.2205 19.0398C96.6343 17.4168 95.7764 15.7737 94.6404 14.1106L94.6383 14.1076C93.4442 12.3367 91.8842 10.7271 89.9495 9.28136C88.2712 8.07056 86.4212 7.10974 84.3972 6.39933C84.3953 6.39865 84.3933 6.39789 84.3914 6.39719C82.384 5.66989 80.2362 5.30398 77.9433 5.30398C76.8332 5.30398 75.7349 5.39487 74.6481 5.57728L74.6485 5.57759C73.5823 5.76046 72.5514 6.02311 71.5556 6.3652C69.559 7.05109 67.686 8.02242 65.9359 9.28166L65.9363 9.28196C64.2123 10.5392 62.7277 12.0237 61.4808 13.7371L61.4799 13.7383C60.2079 15.4779 59.2204 17.3655 58.5162 19.4027L58.5156 19.4046C57.8157 21.4068 57.4639 23.5388 57.4638 25.8045C57.4638 26.9488 57.5546 28.0813 57.7362 29.2021C57.8953 30.1633 58.1148 31.0971 58.395 32.0039L58.519 32.3912L58.6555 32.8007C59.3482 34.8144 60.2781 36.6198 61.4427 38.2211L61.6837 38.5407C62.9022 40.1255 64.3099 41.5184 65.9076 42.7207L66.2245 42.9532C67.8189 44.1006 69.5743 45.0185 71.4931 45.706C73.5259 46.4343 75.6747 46.7998 77.9433 46.7998C80.1637 46.7998 82.3016 46.4349 84.3603 45.7054L84.364 45.7039C86.3353 45.0189 88.1835 44.0368 89.9099 42.7551L90.2353 42.508C91.8468 41.2596 93.2472 39.8212 94.4387 38.1924C95.6846 36.434 96.649 34.4915 97.3308 32.3617L97.3327 32.3559C98.0362 30.2289 98.3878 28.0459 98.3878 25.8045ZM54.126 18.0682C54.126 16.1145 53.8979 14.3604 53.4493 12.8008C52.9987 11.2344 52.3746 9.94187 51.5889 8.90811C49.9389 6.74263 47.6859 5.65711 44.759 5.65711H33.1136V46.4467H40.1037V31.0683C40.1037 30.7236 40.3831 30.4443 40.7277 30.4443H44.759C45.9327 30.4443 46.9914 30.2659 47.9418 29.9181L48.1279 29.8465C49.0503 29.4789 49.8384 28.9803 50.4999 28.3541L50.5066 28.3477C51.2459 27.6685 51.8952 26.829 52.4508 25.8213C53.0257 24.7737 53.4492 23.609 53.718 22.3231C53.9891 21.0029 54.126 19.5851 54.126 18.0682ZM123.866 12.1808H129.727C130.072 12.1808 130.351 12.4602 130.351 12.8047V46.4467H137.341V12.8047C137.341 12.4602 137.621 12.1808 137.965 12.1808H143.827V5.65711H123.866V12.1808ZM90.1497 25.8752C90.1497 24.5536 89.9387 23.2668 89.5162 22.0121L89.5153 22.0087C89.0899 20.7228 88.5105 19.5803 87.7801 18.5767C86.2169 16.4394 84.2153 14.9393 81.7647 14.0637C80.5477 13.6407 79.2865 13.4287 77.9784 13.4287C76.9259 13.4287 75.7694 13.6056 74.5052 13.9696C74.5019 13.9705 74.4985 13.9717 74.4952 13.9726C73.2754 14.3019 72.0364 14.921 70.7786 15.8486L70.7789 15.8489C69.7543 16.6121 68.8512 17.5094 68.0697 18.5432C67.3156 19.5713 66.7385 20.7 66.3381 21.9316C66.1373 22.5613 65.9807 23.2151 65.8686 23.8929L65.8683 23.8962C65.7575 24.5437 65.702 25.2033 65.7019 25.8752C65.7019 27.2463 65.9134 28.5954 66.3381 29.9245C66.7375 31.1742 67.2716 32.2748 67.9365 33.2315L68.0712 33.421L68.0745 33.4253C68.8806 34.5534 69.794 35.5071 70.814 36.2903C71.8359 37.0514 72.932 37.6199 74.1037 37.9987C74.1102 38.0008 74.1167 38.003 74.1232 38.0054C75.3636 38.4518 76.6476 38.6751 77.9784 38.6751C79.311 38.6751 80.5836 38.4627 81.7994 38.0401C83.0232 37.5911 84.1328 36.9757 85.1306 36.1937L85.1373 36.1885C86.1366 35.4277 87.0156 34.5206 87.7743 33.4646C88.5312 32.3879 89.1105 31.2098 89.5123 29.9278L89.5132 29.9248C89.714 29.2951 89.8706 28.6413 89.9827 27.9635C90.0937 27.2924 90.1497 26.5964 90.1497 25.8752ZM45.8879 18.0682C45.8879 17.4956 45.8333 16.963 45.7267 16.4689C45.7246 16.4591 45.7226 16.4493 45.7209 16.4394C45.6375 15.9349 45.4942 15.4961 45.2974 15.1167C45.0909 14.7428 44.8619 14.4455 44.6146 14.2154C44.6024 14.2041 44.5905 14.1924 44.5793 14.1801C44.3663 13.9476 44.0941 13.7512 43.7514 13.5951C43.4673 13.4904 43.1068 13.4288 42.6558 13.4287H41.3517V22.6726H42.6558C43.0119 22.6726 43.3703 22.6232 43.7325 22.5233C44.0454 22.4157 44.3453 22.2271 44.6317 21.9386C44.9166 21.6515 45.1325 21.352 45.2867 21.041L45.3011 21.0142C45.4714 20.7091 45.6281 20.2801 45.7599 19.7083C45.8015 19.475 45.8336 19.2292 45.855 18.9707C45.8769 18.6826 45.8879 18.3818 45.8879 18.0682ZM73.3651 68.7957C73.3651 69.968 73.445 71.1035 73.604 72.2024C73.7635 73.164 73.9748 74.0983 74.2377 75.0056L74.3541 75.394L74.3547 75.3965C74.9669 77.407 75.8737 79.3047 77.0774 81.0904L77.3053 81.4168C78.3806 82.9261 79.6273 84.2317 81.0456 85.3359L81.3522 85.5696L81.3546 85.5715C83.2435 86.9933 85.1775 88.005 87.1564 88.6171L87.5358 88.7295C89.4307 89.2734 91.2996 89.5437 93.1438 89.5437C95.1183 89.5436 97.0087 89.2693 98.8174 88.7225C102.419 87.6268 105.374 85.6696 107.701 82.847C108.809 81.5031 109.713 80.0225 110.415 78.4034L110.417 78.3967C111.051 76.9795 111.478 75.4134 111.694 73.6942H104.472C104.377 74.0844 104.27 74.4691 104.15 74.8477C104.149 74.8504 104.149 74.853 104.148 74.8556C103.977 75.3726 103.781 75.8671 103.559 76.3382C103.558 76.3413 103.556 76.3444 103.555 76.3474C102.593 78.3095 101.206 79.8596 99.3975 80.9832L99.3942 80.9853C97.5554 82.112 95.4418 82.6669 93.0737 82.6669C91.6348 82.6669 90.2517 82.446 88.9276 82.003L88.6869 81.9253C87.4903 81.5243 86.3819 80.926 85.3637 80.1331C85.3618 80.1317 85.36 80.13 85.3582 80.1285C84.3008 79.286 83.4128 78.3049 82.6973 77.1862C81.8936 75.9343 81.2949 74.6056 80.904 73.2021C80.9031 73.1989 80.9024 73.1956 80.9015 73.1924C80.5371 71.7968 80.3552 70.3543 80.3552 68.8664C80.3552 68.0643 80.4035 67.2842 80.5006 66.5264C80.5983 65.7397 80.7574 64.9864 80.9789 64.2672C81.7834 61.4507 83.2524 59.1734 85.3923 57.4632C85.3953 57.4608 85.3984 57.4586 85.4014 57.4562C86.2894 56.7734 87.3315 56.2085 88.5202 55.757L88.76 55.6683C90.0754 55.1696 91.5157 54.9246 93.0737 54.9246C94.2216 54.9246 95.3467 55.0601 96.4478 55.3313C96.4544 55.333 96.4611 55.3347 96.4676 55.3365C97.5256 55.634 98.5024 56.069 99.3954 56.6424L99.5608 56.746C100.328 57.2357 101.02 57.8029 101.638 58.4474L101.769 58.5866L101.777 58.5948C102.451 59.3499 103.032 60.2359 103.521 61.2468C103.957 62.0868 104.279 62.9707 104.487 63.8973H111.692C111.48 62.2383 111.076 60.6916 110.483 59.2548C109.806 57.6643 108.892 56.1733 107.737 54.7814C107.736 54.7801 107.735 54.7787 107.734 54.7774C106.583 53.3666 105.251 52.1613 103.739 51.1602C100.572 49.0856 97.0456 48.0478 93.1438 48.0478C92.0331 48.0478 90.9463 48.1392 89.8837 48.3214C88.8156 48.5046 87.7828 48.756 86.7853 49.0755C85.0789 49.6646 83.3595 50.5859 81.6273 51.8491C81.6259 51.8501 81.6245 51.8514 81.623 51.8524C79.9097 53.0792 78.4056 54.6149 77.1121 56.466C75.9566 58.1556 75.0358 60.0432 74.352 62.1322L74.3523 62.1326C73.6961 64.1848 73.3651 66.4046 73.3651 68.7957ZM63.0347 68.619C63.0347 69.405 62.9737 70.1693 62.851 70.9112C62.7294 71.6464 62.5589 72.3589 62.3391 73.0479C61.8996 74.4494 61.2638 75.7431 60.4321 76.9263C60.431 76.9279 60.4299 76.9296 60.4287 76.9312C59.5991 78.0868 58.6328 79.0859 57.5303 79.9253C56.4277 80.7883 55.2039 81.4657 53.8615 81.9576C53.8584 81.9587 53.855 81.9598 53.8518 81.9609C52.4985 82.432 51.0853 82.6669 49.6154 82.6669C48.1486 82.6669 46.728 82.4212 45.3568 81.9302L45.1131 81.8485C43.8995 81.4282 42.7631 80.8227 41.7055 80.035C41.7032 80.0333 41.701 80.0315 41.6988 80.0298C40.5715 79.1655 39.5708 78.1192 38.6961 76.8949C37.883 75.7766 37.2477 74.4921 36.7863 73.0482C36.3229 71.5983 36.0907 70.1211 36.0907 68.619C36.0907 67.878 36.1521 67.1479 36.275 66.4295C36.3966 65.6956 36.5669 64.9844 36.7863 64.2964L36.7872 64.2934C37.2281 62.9358 37.8662 61.6867 38.7006 60.5491L38.7058 60.5421C39.5589 59.4123 40.5474 58.4283 41.6704 57.5918L41.6729 57.59L41.9279 57.4056C43.2009 56.5037 44.4905 55.8682 45.7968 55.5142C47.1501 55.1245 48.4243 54.9246 49.6154 54.9246C51.0631 54.9246 52.4646 55.1599 53.8167 55.6305C53.8183 55.6311 53.82 55.6318 53.8216 55.6324C56.5119 56.5935 58.7169 58.2486 60.4254 60.5851L60.4263 60.5863C61.2378 61.7014 61.8734 62.9601 62.3361 64.3577L62.4205 64.6173C62.8297 65.9182 63.0347 67.2528 63.0347 68.619ZM71.2728 68.5483C71.2728 70.9228 70.9 73.2381 70.1546 75.4915C69.4348 77.7383 68.4138 79.796 67.0913 81.6617C67.0895 81.6642 67.0879 81.6669 67.0861 81.6693C65.7402 83.51 64.1419 85.1204 62.2931 86.4995L62.2919 86.5001C60.4672 87.855 58.5074 88.8972 56.4139 89.625L56.4142 89.6253C54.2196 90.403 51.9406 90.7916 49.5804 90.7917C47.1749 90.7917 44.8831 90.4036 42.7091 89.6247C40.5492 88.8508 38.5773 87.7971 36.7964 86.4633L36.7954 86.4627C34.9946 85.1077 33.4212 83.5221 32.0768 81.7077C32.0757 81.7063 32.0747 81.7049 32.0737 81.7035C30.7467 79.88 29.7128 77.8183 28.9696 75.5232C28.6092 74.4332 28.3333 73.3076 28.1414 72.1476L28.1411 72.1455C27.9488 70.9583 27.8526 69.759 27.8526 68.5483C27.8526 66.152 28.225 63.8808 28.9735 61.7389L29.1167 61.3364C29.8501 59.3351 30.8478 57.4714 32.1088 55.7466L32.3598 55.4084C33.6306 53.7314 35.1238 52.2673 36.8378 51.0173L36.8411 51.0152C38.6892 49.685 40.6716 48.6554 42.7871 47.9287C43.8479 47.5643 44.9438 47.2853 46.0744 47.0914L46.0765 47.0911C47.2327 46.8969 48.4008 46.7998 49.5804 46.7998C52.0084 46.7998 54.301 47.1878 56.4535 47.9677C58.4525 48.6699 60.2967 49.6062 61.9845 50.7778L62.3202 51.0155L62.3285 51.0216C64.3634 52.5414 66.0261 54.2504 67.3079 56.1506L67.5416 56.498C68.6145 58.1191 69.4461 59.7396 70.0312 61.3596L70.1531 61.7066L70.1546 61.7112C70.5152 62.8012 70.7915 63.9154 70.9837 65.0533C71.1766 66.1954 71.2728 67.3606 71.2728 68.5483ZM26.4392 60.3882C26.4392 60.7328 26.1598 61.0122 25.8152 61.0122H18.1029C17.7583 61.0122 17.4789 60.7328 17.4789 60.3882V57.9154C17.4789 56.8228 17.2936 56.1122 17.0137 55.6912C16.7635 55.315 16.4013 55.1129 15.8242 55.1129C15.3116 55.1129 14.9536 55.2971 14.6798 55.6705C14.3918 56.0631 14.2048 56.6893 14.2048 57.6329C14.2048 57.901 14.2248 58.195 14.2663 58.5159C14.3142 58.7475 14.4115 59.0105 14.5713 59.3063L14.6454 59.4379L14.6582 59.4605C14.8224 59.7709 15.079 60.1624 15.4391 60.6393C15.7473 61.0272 16.1277 61.4468 16.5832 61.8982L16.7836 62.0942L16.8102 62.1216C17.0115 62.3414 17.2332 62.569 17.4753 62.8044L17.7242 63.0423L17.7544 63.0728C17.9884 63.3255 18.2492 63.5865 18.5374 63.8556L18.8348 64.1273L18.8394 64.1316C20.1089 65.2925 21.2747 66.4314 22.3362 67.5484C23.2845 68.5247 24.0855 69.4071 24.736 70.1942L25.0056 70.5257L25.0157 70.5385C25.713 71.4593 26.2739 72.3543 26.6927 73.2231C27.1109 74.0908 27.4194 74.9855 27.6171 75.9065L27.618 75.9099C27.7175 76.386 27.7794 76.8732 27.8048 77.3711C27.8525 77.8591 27.8764 78.3684 27.8764 78.8988C27.8764 80.3564 27.7198 81.7156 27.4017 82.9731L27.401 82.9758C27.0809 84.2166 26.5859 85.342 25.913 86.3466C25.2794 87.3151 24.4471 88.1377 23.4258 88.8155L23.4255 88.8152C22.4327 89.4894 21.3417 89.9762 20.1562 90.2758C18.8598 90.6209 17.4732 90.7917 15.9994 90.7917C13.0371 90.7916 10.5648 90.1483 8.63268 88.8081C6.71125 87.4828 5.45525 85.5156 4.84116 82.9661L4.84147 82.9658C4.52337 81.7286 4.36798 80.3237 4.36798 78.7575V75.0482C4.36806 74.7037 4.64741 74.4242 4.99198 74.4242H12.7042C13.0488 74.4242 13.3281 74.7037 13.3282 75.0482V78.7928C13.3282 80.083 13.5944 80.9927 14.046 81.5996C14.0511 81.6064 14.0561 81.6135 14.061 81.6206C14.4369 82.1716 15.0183 82.4786 15.9293 82.4786C16.2434 82.4786 16.5448 82.4394 16.8351 82.3631C17.0955 82.2731 17.2955 82.1471 17.4497 81.9917C17.6174 81.8227 17.7845 81.6076 17.9488 81.3403C18.0911 81.0875 18.2086 80.7634 18.2915 80.3558C18.3136 80.1549 18.3362 79.9431 18.3583 79.7203C18.3796 79.4817 18.3903 79.2432 18.3903 79.0049C18.3903 78.5372 18.3569 78.1562 18.297 77.8547C18.2965 77.8523 18.2963 77.8498 18.2958 77.8474C18.2391 77.5424 18.1227 77.2016 17.9363 76.8233C17.7337 76.4583 17.4427 76.0676 17.0524 75.6524C17.0483 75.6481 17.0441 75.6437 17.0402 75.6393C16.6544 75.2048 16.1981 74.7217 15.6703 74.1896C15.3736 73.9138 15.0422 73.6141 14.6755 73.2908C14.6705 73.2864 14.6655 73.2819 14.6606 73.2774C14.3143 72.9517 13.9325 72.602 13.515 72.228L13.5138 72.2268C12.2 71.0448 11.048 69.9667 10.0583 68.9932C10.0547 68.9897 10.0511 68.9861 10.0476 68.9825C9.07599 67.9795 8.24067 67.0066 7.54434 66.0636C6.84703 65.1429 6.28581 64.2481 5.86704 63.3793C5.86399 63.373 5.86104 63.3666 5.8582 63.3601C5.46829 62.4761 5.17509 61.577 4.97888 60.6637L4.97857 60.664C4.87935 60.214 4.80572 59.742 4.75676 59.2487C4.75576 59.2386 4.75483 59.2284 4.75433 59.2182C4.73042 58.7365 4.71868 58.2433 4.71868 57.739C4.71868 56.4027 4.85105 55.1534 5.12025 53.9944C5.12094 53.9914 5.12166 53.9885 5.12239 53.9855C5.41856 52.7917 5.87937 51.7316 6.51145 50.8144L6.51267 50.8122C7.71433 49.0824 9.43514 47.9165 11.632 47.3016L11.8462 47.2438C12.9833 46.945 14.2646 46.7998 15.684 46.7998C18.3828 46.7998 20.6578 47.3459 22.467 48.4853C23.1025 48.8856 23.7459 49.4915 24.4005 50.2732C25.1066 51.1166 25.6307 52.2316 25.9968 53.584L25.9977 53.5873C26.2941 54.7076 26.4391 55.9399 26.4392 57.2795V60.3882ZM138.589 47.0707C138.589 47.0986 138.587 47.126 138.583 47.153H144.566C144.874 47.153 145.136 47.3775 145.183 47.6816L151.703 89.7189C151.731 89.8988 151.679 90.082 151.561 90.2204C151.442 90.3587 151.269 90.4385 151.087 90.4385H142.849C142.535 90.4385 142.269 90.2048 142.23 89.8931L141.072 80.7946H136.282L135.124 89.8931C135.085 90.2048 134.819 90.4385 134.505 90.4385H126.267C126.085 90.4385 125.912 90.3587 125.793 90.2204C125.675 90.082 125.623 89.8988 125.651 89.7189L132.169 47.6947H129.727C129.383 47.6947 129.103 47.4153 129.103 47.0707V13.4287H123.242C122.897 13.4287 122.618 13.1493 122.618 12.8047V5.03311C122.618 4.6886 122.897 4.40919 123.242 4.40912H144.451C144.795 4.40912 145.074 4.68855 145.075 5.03311V12.8047C145.075 13.1494 144.795 13.4287 144.451 13.4287H138.589V47.0707ZM91.3977 25.8752C91.3977 26.6611 91.3369 27.4255 91.2142 28.1673C91.0928 28.9014 90.9223 29.6126 90.703 30.3008C90.2634 31.7034 89.6276 32.9984 88.7953 34.1825C88.7942 34.1841 88.7929 34.1857 88.7917 34.1873C87.9621 35.343 86.996 36.3421 85.8935 37.1815L85.8932 37.1812C84.7906 38.0442 83.5669 38.7218 82.2245 39.2137C82.2213 39.2149 82.2182 39.216 82.215 39.2171C80.8617 39.6882 79.4483 39.9231 77.9784 39.9231C76.5095 39.9231 75.0869 39.6766 73.714 39.1842C72.4107 38.7622 71.1951 38.1302 70.0687 37.2912C70.0664 37.2894 70.064 37.2878 70.0617 37.286C68.9344 36.4217 67.9338 35.3754 67.059 34.1511C66.246 33.0328 65.611 31.7483 65.1496 30.3044C64.6862 28.8545 64.454 27.3772 64.454 25.8752C64.454 25.1341 64.5151 24.4041 64.638 23.6857C64.7595 22.9518 64.9298 22.2406 65.1492 21.5526L65.1505 21.5496C65.5914 20.192 66.2292 18.9429 67.0636 17.8053L67.0688 17.7983C67.9219 16.6683 68.9106 15.6845 70.0337 14.848L70.0358 14.8461L70.2908 14.6618C71.564 13.7597 72.8537 13.1244 74.16 12.7703L74.4126 12.6996C75.6721 12.3566 76.8617 12.1808 77.9784 12.1808C79.3357 12.1808 80.6524 12.3874 81.9259 12.8011L82.18 12.8867L82.1846 12.8885C84.7908 13.8197 86.9417 15.4021 88.6269 17.6243L88.7886 17.8412L88.7892 17.8424C89.6013 18.9583 90.2375 20.2181 90.7002 21.6169C91.1652 22.9988 91.3977 24.419 91.3977 25.8752ZM99.6358 25.8045C99.6358 28.179 99.263 30.4943 98.5176 32.7477C97.7978 34.9944 96.7771 37.0522 95.4546 38.9179C95.4528 38.9204 95.4509 38.923 95.4491 38.9255C94.1032 40.7662 92.5048 42.3766 90.6561 43.7557L90.6548 43.7563C88.8292 45.1118 86.8685 46.1548 84.7738 46.8827L84.7735 46.8824C82.5799 47.6592 80.3022 48.0478 77.9433 48.0478C75.5379 48.0478 73.2463 47.6597 71.0723 46.8809C68.9124 46.107 66.9405 45.0533 65.1596 43.7194L65.1584 43.7188C63.3575 42.3639 61.7841 40.7783 60.4397 38.9639C60.4387 38.9625 60.4377 38.961 60.4367 38.9596C59.1097 37.1362 58.076 35.0745 57.3328 32.7794C56.9725 31.6893 56.6963 30.5638 56.5044 29.4038L56.5041 29.4016C56.3117 28.2144 56.2158 27.0152 56.2158 25.8045C56.2159 23.4073 56.5884 21.1355 57.3374 18.9929C58.082 16.8393 59.127 14.842 60.4717 13.0028C61.7955 11.1837 63.3728 9.60673 65.201 8.27345L65.2041 8.27132C67.0522 6.9411 69.0346 5.91158 71.15 5.18485C72.2108 4.82045 73.3067 4.5415 74.4373 4.34757L74.4394 4.34726C75.5956 4.15309 76.7638 4.05598 77.9433 4.05598C80.3691 4.05599 82.6595 4.44327 84.8103 5.22171C86.9449 5.97093 88.9036 6.98727 90.6832 8.27162C90.6859 8.2736 90.6887 8.2757 90.6914 8.27772C92.7263 9.79755 94.389 11.5065 95.6709 13.4068L95.9046 13.7542C96.9775 15.3753 97.8093 16.9957 98.3945 18.6157L98.5161 18.9628L98.5176 18.9673C98.8781 20.0573 99.1544 21.1715 99.3466 22.3094C99.5395 23.4516 99.6358 24.6167 99.6358 25.8045ZM47.1359 18.0682C47.1359 18.4126 47.1237 18.7466 47.099 19.0697L47.0987 19.0737C47.0738 19.3746 47.0362 19.6653 46.9857 19.9454C46.984 19.9549 46.9821 19.9646 46.9799 19.974C46.8319 20.6202 46.6396 21.1763 46.3906 21.6224C46.1723 22.0546 45.8793 22.453 45.5174 22.8177C45.1068 23.2314 44.6399 23.5355 44.1164 23.7113C44.1064 23.7147 44.0962 23.7179 44.086 23.7207C43.6127 23.8532 43.1354 23.9206 42.6558 23.9206H40.7277C40.3831 23.9206 40.1038 23.6412 40.1037 23.2966V12.8047C40.1038 12.4602 40.3831 12.1808 40.7277 12.1808H42.6558C43.1892 12.1808 43.6817 12.2494 44.1213 12.4016L44.2085 12.433L44.2429 12.4474C44.7274 12.6644 45.1464 12.9553 45.4884 13.3252C45.8376 13.6553 46.1376 14.0554 46.3921 14.5171C46.3944 14.5212 46.3967 14.5254 46.3989 14.5296C46.6627 15.0348 46.843 15.5957 46.9467 16.206L46.9912 16.4284C47.0882 16.9508 47.1359 17.4978 47.1359 18.0682ZM55.374 18.0682C55.374 19.66 55.2303 21.1626 54.9404 22.5742L54.9401 22.5763C54.6481 23.9739 54.1838 25.2573 53.544 26.4227L53.5437 26.4239C52.9324 27.5327 52.2047 28.4805 51.3576 29.2602C50.5208 30.0524 49.5244 30.6605 48.3772 31.0878L48.3741 31.089C47.2687 31.4941 46.0614 31.6923 44.759 31.6923H41.3517V47.0707C41.3517 47.4152 41.0723 47.6946 40.7277 47.6947H32.4896C32.145 47.6947 31.8657 47.4153 31.8656 47.0707V5.03311C31.8657 4.68855 32.145 4.40912 32.4896 4.40912H44.759C47.9456 4.40912 50.5149 5.5786 52.4018 7.92184L52.5822 8.15219L52.5825 8.1528C53.4793 9.33274 54.1643 10.7721 54.6485 12.4556C55.1347 14.1458 55.374 16.0185 55.374 18.0682ZM121.662 17.6444C121.662 17.989 121.382 18.2684 121.038 18.2684H113.325C112.981 18.2684 112.701 17.989 112.701 17.6444V15.1716C112.701 14.0789 112.516 13.3684 112.236 12.9473C111.986 12.5711 111.624 12.3691 111.047 12.369C110.534 12.369 110.176 12.5533 109.902 12.9266C109.614 13.3193 109.427 13.9455 109.427 14.8891C109.427 15.1572 109.447 15.4513 109.489 15.7724C109.537 16.0039 109.634 16.2668 109.794 16.5624L109.868 16.6941L109.881 16.7166C110.045 17.028 110.303 17.4209 110.665 17.8997C111.017 18.342 111.463 18.8255 112.006 19.3503C112.015 19.3592 112.024 19.3684 112.033 19.3777C112.301 19.6708 112.606 19.9778 112.947 20.2985C112.957 20.3083 112.967 20.3185 112.977 20.329C113.211 20.5816 113.472 20.8427 113.76 21.1117L114.057 21.3835L114.062 21.3878C115.332 22.5486 116.497 23.6875 117.559 24.8045C118.507 25.7809 119.308 26.6633 119.958 27.4504L120.228 27.7819L120.238 27.7947C120.935 28.7155 121.497 29.6104 121.915 30.4793C122.307 31.2927 122.603 32.1299 122.801 32.9902L122.84 33.1627L122.84 33.166C122.939 33.6397 123.001 34.1244 123.027 34.6197C123.075 35.1099 123.099 35.6218 123.099 36.155C123.099 37.6125 122.942 38.9717 122.624 40.2293L122.623 40.232C122.304 41.4702 121.81 42.5933 121.139 43.5963C120.506 44.5657 119.675 45.3889 118.654 46.0674C118.003 46.5099 117.31 46.8715 116.576 47.153H123.797C124.142 47.153 124.421 47.4324 124.421 47.777V89.8145C124.421 90.1591 124.142 90.4385 123.797 90.4385H115.559C115.214 90.4385 114.935 90.1591 114.935 89.8145V47.777C114.935 47.7294 114.94 47.6831 114.951 47.6386C113.778 47.9121 112.535 48.0478 111.222 48.0478C108.26 48.0478 105.789 47.4048 103.857 46.0652C101.934 44.7398 100.678 42.7724 100.064 40.2223C99.7455 38.9851 99.5904 37.5799 99.5904 36.0136V32.3044C99.5905 31.9598 99.8699 31.6804 100.214 31.6804H107.927C108.271 31.6804 108.551 31.9599 108.551 32.3044V36.049C108.551 37.2586 108.785 38.1337 109.186 38.7384L109.269 38.8557L109.284 38.8768C109.66 39.4277 110.241 39.7348 111.152 39.7348C111.466 39.7347 111.767 39.6955 112.058 39.6193C112.318 39.5292 112.518 39.4033 112.672 39.2479C112.84 39.0789 113.007 38.8638 113.171 38.5964C113.313 38.3437 113.431 38.0196 113.514 37.612C113.536 37.4127 113.558 37.2027 113.58 36.9819C113.602 36.7415 113.613 36.5012 113.613 36.261C113.613 35.7934 113.58 35.4124 113.52 35.1108C113.519 35.1084 113.519 35.1059 113.518 35.1035C113.461 34.7985 113.345 34.4578 113.159 34.0795C112.956 33.7145 112.665 33.3238 112.275 32.9086C112.271 32.9043 112.267 32.8999 112.263 32.8955C111.877 32.4609 111.421 31.9779 110.893 31.4458C110.596 31.17 110.265 30.8703 109.898 30.5469C109.893 30.5425 109.888 30.5381 109.883 30.5335C109.537 30.2079 109.155 29.8581 108.737 29.4842L108.736 29.483C107.423 28.3009 106.27 27.2229 105.281 26.2493C105.277 26.2458 105.274 26.2423 105.27 26.2387C104.296 25.2335 103.459 24.2585 102.762 23.3137C102.067 22.3952 101.508 21.5023 101.09 20.6355C101.087 20.6292 101.084 20.6227 101.081 20.6163C100.691 19.7322 100.397 18.8332 100.201 17.9198C100.102 17.47 100.028 16.9981 99.9792 16.5049C99.9782 16.4947 99.9775 16.4846 99.977 16.4744C99.9531 15.9926 99.9411 15.4995 99.9411 14.9951C99.9411 13.6588 100.074 12.4096 100.343 11.2505L100.345 11.2417C100.641 10.0479 101.102 8.98774 101.734 8.07053L101.735 8.0684C102.976 6.28279 104.769 5.09787 107.069 4.49991C108.206 4.20117 109.487 4.05599 110.906 4.05598C113.605 4.05598 115.88 4.60212 117.689 5.74151C118.325 6.14175 118.969 6.74763 119.623 7.52941C120.285 8.32001 120.787 9.34948 121.149 10.5894L121.219 10.8401L121.22 10.8435C121.517 11.9637 121.662 13.196 121.662 14.5357V17.6444Z" fill="black"/>
</svg>
