<svg width="72" height="108" viewBox="0 0 72 108" fill="none" xmlns="http://www.w3.org/2000/svg">
<path d="M30.9961 5.78491C33.4767 3.47564 37.2738 3.38695 39.8555 5.53198L40.1016 5.74683L42.4414 7.8894L45.502 7.05347L45.8193 6.97534C48.9903 6.27132 52.2172 7.94754 53.4648 10.946L53.583 11.2498L54.6602 14.2351L57.7588 14.9177V14.9187C61.176 15.6717 63.4418 18.9233 62.9639 22.3894L62.5293 25.533L64.9561 27.5779C66.0824 28.5269 66.8212 29.7774 67.1484 31.113C67.3118 31.589 67.3888 32.1042 67.3584 32.6394L67.3555 32.6931L67.3545 32.7029L67.333 33.0632C67.3327 33.0681 67.3323 33.073 67.332 33.0779V33.0808C67.3316 33.0898 67.3303 33.1039 67.3301 33.1091C67.3299 33.1127 67.3302 33.1184 67.3301 33.1208C67.33 33.1228 67.3292 33.1262 67.3291 33.1277C67.3289 33.1309 67.3292 33.1337 67.3291 33.1355C67.3289 33.1389 67.3283 33.142 67.3281 33.1443C67.328 33.1468 67.3283 33.1496 67.3281 33.1521C67.3276 33.1617 67.3271 33.1754 67.3262 33.1912C67.3256 33.2001 67.3249 33.2103 67.3242 33.2214L67.292 33.7605C67.2916 33.7663 67.2914 33.7722 67.291 33.7781C67.2701 34.1334 67.2452 34.5616 67.2285 34.8445C67.2202 34.9854 67.2144 35.0911 67.2119 35.1335C67.2116 35.1389 67.2111 35.1437 67.2109 35.1472C67.2108 35.1489 67.21 35.1507 67.21 35.1521V35.1638C67.2098 35.1663 67.2093 35.1734 67.209 35.1785L63.3887 100.07V100.074C63.2604 102.217 61.4846 103.889 59.3379 103.889H13.4502C10.3798 103.889 7.84508 101.488 7.67773 98.4226L4.2002 34.6179C4.19982 34.6163 4.19864 34.6148 4.19824 34.613C4.19394 34.5942 4.18895 34.5727 4.18262 34.5457C4.17943 34.5321 4.17653 34.5183 4.17285 34.5027C4.16931 34.4876 4.16513 34.471 4.16113 34.4539C3.60811 32.0902 4.36627 29.5103 6.32715 27.8289L8.73633 25.7625L8.27637 22.6238C7.76863 19.162 10.0052 15.8905 13.416 15.1082H13.417L16.5088 14.3992L17.5605 11.405L17.6758 11.0994C18.9385 7.98931 22.328 6.27388 25.6055 7.13843L25.6045 7.1394L28.6729 7.948L30.9951 5.78589L30.9961 5.78491ZM63.5518 28.4099C63.4874 28.4068 63.4225 28.405 63.3574 28.405C63.4225 28.405 63.4875 28.4069 63.5518 28.4099Z" fill="#F8C094" stroke="#F8C094" stroke-width="7.97143"/>
<path d="M31.7452 6.54161C33.9116 4.52453 37.2649 4.50961 39.4488 6.50874L40.8888 7.82687C41.7109 8.57946 42.8615 8.85787 43.9368 8.56437L45.8198 8.05038C48.6759 7.27073 51.6516 8.81631 52.6564 11.6007L53.3193 13.4379C53.6976 14.4863 54.587 15.2674 55.6754 15.5072L57.582 15.9272C60.4731 16.5644 62.3897 19.3158 61.9852 22.2483L61.7183 24.182C61.5659 25.2862 61.9904 26.3914 62.8429 27.1096L64.3359 28.3676C64.602 28.5918 64.8425 28.8359 65.0571 29.0959C65.2293 29.3045 65.4797 29.4387 65.7501 29.4387C66.1846 29.4387 66.5297 29.804 66.5051 30.2378L66.3691 32.6347L66.3685 32.6416L66.3472 33.0017C66.3472 33.0019 66.3471 33.002 66.3469 33.0019C66.3468 33.0018 66.3466 33.0019 66.3466 33.0021C66.345 33.0327 66.3435 33.0611 66.3417 33.0866C66.3417 33.0867 66.3418 33.0869 66.3419 33.0869C66.342 33.087 66.342 33.0872 66.342 33.0873L62.4024 100.009V100.012C62.3069 101.609 60.9838 102.856 59.3838 102.856H13.4955C10.9739 102.855 8.89184 100.884 8.75444 98.3661L5.30038 35.0006C5.27997 34.6261 5.33127 34.2525 5.39721 33.8834C5.68975 32.2456 5.5101 29.9295 7.04557 28.613L8.5278 27.3421C9.37388 26.6166 9.78886 25.508 9.6271 24.4053L9.34376 22.4738C8.91416 19.5449 10.807 16.7767 13.6928 16.1149L15.5957 15.6787C16.682 15.4296 17.5648 14.6408 17.9341 13.5892L18.5809 11.7472L18.6285 11.6169C19.6546 8.90489 22.5694 7.39479 25.387 8.13803L27.2746 8.63586C28.3522 8.92004 29.5002 8.63187 30.3158 7.87248L31.7452 6.54161ZM32.8806 13.5529C31.4905 14.8474 29.5337 15.3381 27.6975 14.8538L26.9824 14.6652C25.345 14.2333 23.6506 15.132 23.0897 16.7298L22.8448 17.4274C22.2156 19.2192 20.7112 20.5638 18.86 20.9884L18.1396 21.1535C16.4889 21.5318 15.406 23.1149 15.6519 24.7905L15.7591 25.5216C16.0262 27.3421 15.3706 29.1722 14.0183 30.4089L13.8854 30.5268L11.1996 32.8293C11.0862 32.9265 11.0463 33.0844 11.0999 33.2238C11.1131 33.2581 11.1208 33.2944 11.1228 33.3312L14.4235 93.8799C14.5174 95.6023 15.9413 96.9508 17.6663 96.9508H53.6057C55.3252 96.9508 56.7467 95.6105 56.8477 93.894L60.3476 34.4345C60.4078 33.4116 59.9818 32.4203 59.1982 31.7601L57.5131 30.3403C56.0607 29.1165 55.3368 27.2328 55.5964 25.3509L55.6974 24.6187C55.9287 22.9413 54.8324 21.3676 53.1787 21.0034L52.4572 20.8445C50.6013 20.4357 49.0864 19.1035 48.442 17.3178L48.1907 16.6215C47.6159 15.0289 45.914 14.1452 44.2806 14.5912L43.5677 14.7858C41.7353 15.286 39.7739 14.8115 38.3728 13.529L37.8278 13.0301C36.5787 11.8867 34.6607 11.895 33.4216 13.0491L32.8806 13.5529Z" fill="#FF4800" stroke="black" stroke-width="0.885714"/>
<path d="M7.66467 30.169C24.1982 27.6374 36.3728 39.2024 44.6544 53.2228C53.0216 67.388 58.1449 85.1665 60.4472 97.7205C60.9675 100.558 58.7493 103.038 55.98 103.038H13.0446C10.6222 103.038 8.62464 101.145 8.50127 98.7314L5.07303 31.6401C5.0421 31.0347 5.47456 30.5042 6.07378 30.4125L7.66467 30.169ZM39.5483 56.2237C32.1338 43.6713 22.738 35.3043 11.2177 35.7557L14.3537 97.1265H54.3021C51.9395 85.1102 47.0862 68.9851 39.5483 56.2237Z" fill="#FF4800" stroke="black" stroke-width="0.885714"/>
<path d="M23.1312 66.7558C22.9588 35.0395 49.5115 31.2762 63.4927 32.138L59.4016 98.7956C59.3598 99.4776 58.7951 100.011 58.1121 99.9946C45.5379 99.6944 23.1312 94.564 23.1312 66.7558Z" fill="#F8C094" stroke="black" stroke-width="0.885714"/>
<path d="M36.9918 34.2678C46.0531 29.0228 56.8344 28.3 64.0781 28.7506L64.3701 28.7687C65.8333 28.8598 66.9463 30.1187 66.8573 31.582L62.7549 99.0386C62.619 101.274 60.769 103.093 58.4564 103.037C51.9126 102.879 42.544 101.461 34.7263 96.1867C26.7179 90.7832 20.6713 81.5477 20.6669 66.602L20.666 66.205C20.6864 49.4608 27.7471 39.619 36.9918 34.2678ZM60.7703 34.5864C54.4135 34.5457 46.4974 35.6218 39.9241 39.4267C32.5454 43.6978 26.4797 51.6104 26.5602 66.5694V66.5857C26.5602 79.639 31.694 86.9866 38.0018 91.2427C43.9335 95.2449 51.1858 96.6914 56.9727 97.0242L60.7703 34.5864Z" fill="#FF4800" stroke="black" stroke-width="0.885714"/>
</svg>
