<svg width="78" height="78" viewBox="0 0 78 78" fill="none" xmlns="http://www.w3.org/2000/svg">
<path d="M74.9363 38.9132C74.9363 58.8082 58.8082 74.9363 38.9132 74.9363C19.0182 74.9363 2.8901 58.8082 2.8901 38.9132C2.8901 19.0182 19.0182 2.8901 38.9132 2.8901C58.8082 2.8901 74.9363 19.0182 74.9363 38.9132Z" fill="#FFB3EB"/>
<path d="M74.9363 38.9132C74.9363 19.0182 58.8082 2.8901 38.9132 2.8901C19.0182 2.8901 2.8901 19.0182 2.8901 38.9132C2.8901 58.8082 19.0182 74.9363 38.9132 74.9363C58.8082 74.9363 74.9363 58.8082 74.9363 38.9132ZM77.8264 38.9132C77.8264 60.4043 60.4043 77.8264 38.9132 77.8264C17.422 77.8264 -4.03138e-08 60.4043 0 38.9132C4.03138e-08 17.422 17.422 -4.03138e-08 38.9132 0C60.4043 4.03138e-08 77.8264 17.422 77.8264 38.9132Z" fill="#FFB3EB"/>
<path d="M38.7059 2.89014C58.6009 2.89014 74.7289 19.0182 74.7289 38.9132C74.7289 58.8082 58.6009 74.9363 38.7059 74.9363C18.8109 74.9363 2.68281 58.8082 2.68281 38.9132C2.68281 19.0182 18.8109 2.89014 38.7059 2.89014ZM38.7059 7.01886C21.0911 7.01886 6.81153 21.2984 6.81153 38.9132C6.81153 56.528 21.0911 70.8076 38.7059 70.8076C56.3206 70.8076 70.6002 56.528 70.6002 38.9132C70.6002 21.2984 56.3206 7.01886 38.7059 7.01886Z" fill="#98AFFE"/>
<path d="M74.1096 38.9132C74.1096 19.3603 58.2588 3.50945 38.7059 3.50945C19.1529 3.50945 3.30212 19.3603 3.30212 38.9132C3.30212 58.4662 19.1529 74.317 38.7059 74.317V74.9363C18.8109 74.9363 2.68281 58.8082 2.68281 38.9132C2.68281 19.0182 18.8109 2.89014 38.7059 2.89014C58.6009 2.89014 74.7289 19.0182 74.7289 38.9132C74.7289 58.8082 58.6009 74.9363 38.7059 74.9363V74.317C58.2588 74.317 74.1096 58.4662 74.1096 38.9132ZM70.6002 38.9132C70.6002 21.2984 56.3206 7.01886 38.7059 7.01886C21.0911 7.01886 6.81153 21.2984 6.81153 38.9132C6.81153 56.528 21.0911 70.8076 38.7059 70.8076C56.3206 70.8076 70.6002 56.528 70.6002 38.9132ZM71.2195 38.9132C71.2195 56.87 56.6627 71.4269 38.7059 71.4269C20.7491 71.4269 6.19222 56.87 6.19222 38.9132C6.19222 20.9564 20.7491 6.39955 38.7059 6.39955C56.6627 6.39955 71.2195 20.9564 71.2195 38.9132Z" fill="black"/>
<path fill-rule="evenodd" clip-rule="evenodd" d="M38.6921 28.2731C34.6679 23.5382 27.9573 22.2646 22.9152 26.6003C17.8732 30.936 17.1633 38.185 21.1229 43.3129C24.415 47.5763 34.378 56.5683 37.6433 59.4786C38.0087 59.8042 38.1913 59.9671 38.4044 60.031C38.5904 60.0869 38.7938 60.0869 38.9798 60.031C39.1929 59.9671 39.3755 59.8042 39.7408 59.4786C43.0062 56.5683 52.9692 47.5763 56.2613 43.3129C60.2208 38.185 59.5977 30.8904 54.4689 26.6003C49.3402 22.3102 42.7163 23.5382 38.6921 28.2731Z" fill="#FFB3EB"/>
<path d="M21.5694 25.0389C26.9899 20.3779 33.9656 21.2175 38.6913 25.3444C43.4116 21.2158 50.3135 20.4367 55.7937 25.0208C61.7963 30.0419 62.5136 38.5974 57.8953 44.5784C56.1369 46.8557 52.7067 50.2748 49.4129 53.4037C46.0797 56.57 42.7544 59.5621 41.1145 61.0237C40.9562 61.1649 40.7488 61.3516 40.5503 61.5021C40.3276 61.6708 40.0053 61.8825 39.5735 62.0121C39.0004 62.1842 38.3841 62.1842 37.811 62.0121C37.3792 61.8825 37.0568 61.6708 36.8342 61.5021C36.6357 61.3516 36.4283 61.1649 36.2699 61.0237C34.6301 59.5621 31.3047 56.57 27.9716 53.4037C24.6778 50.2748 21.2476 46.8557 19.4892 44.5784C14.8528 38.574 15.7023 30.0842 21.5694 25.0389ZM37.1193 29.6138C33.7011 25.592 28.2849 24.7095 24.2614 28.1693C20.0445 31.7955 19.4743 37.8039 22.7571 42.0552C24.2907 44.0413 27.4881 47.2499 30.8151 50.4104C33.8966 53.3376 36.9792 56.1207 38.6921 57.6512C40.405 56.1207 43.4878 53.3377 46.5694 50.4104C49.8964 47.2499 53.094 44.0413 54.6276 42.0552C57.9284 37.7805 57.3994 31.7467 53.1447 28.1877C49.0133 24.7318 43.6678 25.6103 40.2652 29.6138C39.873 30.0753 39.298 30.3413 38.6923 30.3413C38.0867 30.3413 37.5115 30.0753 37.1193 29.6138Z" fill="#FF4800"/>
<path d="M21.3675 24.8043C26.8446 20.0944 33.872 20.8759 38.6912 24.9365C43.5057 20.8738 50.4594 20.1552 55.9923 24.7833C62.1261 29.9142 62.8575 38.6589 58.1405 44.7677C56.3652 47.0668 52.9176 50.5017 49.6263 53.6283C46.2897 56.7978 42.9616 59.7924 41.3206 61.2549C41.1654 61.3933 40.9479 61.5895 40.7374 61.749C40.499 61.9297 40.1431 62.1644 39.6627 62.3087C39.0315 62.4982 38.3531 62.4982 37.7219 62.3087C37.2415 62.1644 36.8856 61.9297 36.6472 61.749C36.4367 61.5895 36.2192 61.3933 36.064 61.2549C34.423 59.7924 31.0949 56.7978 27.7584 53.6283C24.467 50.5017 21.0194 47.0668 19.2441 44.7677C14.5062 38.6318 15.3767 29.9559 21.3675 24.8043ZM38.4876 25.5776C33.8595 21.536 27.0573 20.7283 21.7713 25.2738C16.0279 30.2126 15.1996 38.5164 19.7344 44.3893C21.476 46.6447 24.8887 50.0481 28.1849 53.1793C31.5147 56.3424 34.8373 59.332 36.476 60.7927C36.6375 60.9366 36.8348 61.1139 37.0214 61.2553C37.2282 61.4121 37.5171 61.6006 37.9001 61.7156C38.4152 61.8702 38.9694 61.8702 39.4845 61.7156C39.8675 61.6006 40.1564 61.4121 40.3632 61.2553C40.5498 61.1139 40.7471 60.9366 40.9086 60.7927C42.5473 59.332 45.8699 56.3424 49.1997 53.1793C52.4959 50.0481 55.9086 46.6448 57.6502 44.3893C62.1698 38.5361 61.4663 30.1696 55.595 25.2583C50.246 20.784 43.5152 21.5368 38.8952 25.5776C38.7785 25.6796 38.6043 25.6795 38.4876 25.5776ZM24.0594 27.9347C28.2342 24.3448 33.8447 25.283 37.3552 29.4134C37.6886 29.8057 38.1776 30.0317 38.6924 30.0317C39.2071 30.0317 39.6958 29.8056 40.0292 29.4134C43.5262 25.2989 49.0636 24.3703 53.3433 27.9502C57.7289 31.6187 58.2725 37.8416 54.8728 42.2445C53.3223 44.2525 50.1072 47.4769 46.7827 50.635C43.6979 53.5653 40.6124 56.3507 38.8984 57.8822C38.7809 57.9872 38.6033 57.9872 38.4858 57.8822C36.7717 56.3507 33.6866 53.5653 30.6019 50.635C27.2774 47.4769 24.0625 44.2525 22.512 42.2445C19.1278 37.8618 19.7188 31.6673 24.0594 27.9347ZM36.8833 29.8144C33.5574 25.9013 28.3355 25.0744 24.4632 28.4042C20.3702 31.9239 19.821 37.7462 23.0023 41.8661C24.5191 43.8304 27.699 47.0232 31.0285 50.186C33.9866 52.996 36.9464 55.6734 38.692 57.2355C40.4376 55.6735 43.3979 52.9962 46.3561 50.186C49.6857 47.0231 52.8658 43.8304 54.3825 41.8661C57.5843 37.7196 57.0698 31.8747 52.946 28.4252C48.9629 25.0934 43.8093 25.922 40.5011 29.8144C40.0501 30.345 39.3889 30.651 38.6924 30.651C37.9959 30.651 37.3343 30.3451 36.8833 29.8144Z" fill="black"/>
</svg>
