<svg width="208" height="108" viewBox="0 0 208 108" fill="none" xmlns="http://www.w3.org/2000/svg">
<path d="M32.0759 12.5098L37.3874 35.2458C37.6633 36.3582 37.8473 37.2389 37.9393 37.8879C38.0772 38.5368 38.1922 39.2089 38.2842 39.9042C38.4221 40.5531 38.5831 41.5034 38.767 42.7549C38.951 43.9601 39.1119 45.2811 39.2499 46.718C39.3879 48.155 39.4798 49.3833 39.5258 50.4031C39.5258 50.9593 39.5488 51.5387 39.5948 52.1413C39.5948 52.7439 39.5948 53.3233 39.5948 53.8795H40.9744C40.9744 52.8598 40.9974 51.701 41.0434 50.4031C41.1354 49.0589 41.2503 47.8073 41.3883 46.6485C41.4803 45.397 41.5952 44.1223 41.7332 42.8244C41.9171 41.4802 42.1471 40.1591 42.423 38.8613C42.515 38.2587 42.6299 37.6561 42.7679 37.0535C42.9059 36.4509 43.0438 35.8484 43.1818 35.2458L48.4933 12.5098H64.7037L48.4243 66.1166V95.2493H32.2139V66.1166L15.8655 12.5098H32.0759Z" fill="#D3FF6B"/>
<path d="M64.6853 53.3928C64.6853 48.8039 65.3981 44.4699 66.8237 40.3909C68.2493 36.2655 70.2497 32.4414 72.825 28.9186C75.3543 25.4422 78.3664 22.4293 81.8615 19.8799C85.4024 17.3305 89.1964 15.3605 93.2432 13.9699C95.2666 13.2746 97.359 12.7416 99.5204 12.3708C101.728 11.9999 103.958 11.8145 106.212 11.8145C110.856 11.8145 115.225 12.5562 119.318 14.0394C123.411 15.4764 127.159 17.4232 130.562 19.8799C134.47 22.8001 137.644 26.068 140.081 29.6835C142.518 33.2526 144.335 36.7986 145.53 40.3214C146.22 42.4073 146.749 44.5395 147.117 46.718C147.485 48.8966 147.669 51.1215 147.669 53.3928C147.669 57.9354 146.956 62.3621 145.53 66.6729C144.151 70.9836 142.196 74.9236 139.667 78.4928C137.092 82.0156 134.034 85.098 130.493 87.7401C126.998 90.3359 123.25 92.329 119.249 93.7196C115.064 95.2029 110.718 95.9445 106.212 95.9445C101.613 95.9445 97.2441 95.2029 93.1052 93.7196C88.9664 92.2363 85.1955 90.22 81.7925 87.6706C78.3434 85.0748 75.3313 82.0388 72.756 78.5623C70.2268 75.0859 68.2493 71.1459 66.8237 66.7424C66.1339 64.6565 65.6051 62.5011 65.2372 60.2762C64.8693 58.0049 64.6853 55.7105 64.6853 53.3928ZM80.8957 53.5319C80.8957 56.3594 81.3326 59.1405 82.2064 61.8754C83.0801 64.6102 84.2758 67.0205 85.7933 69.1064C87.4489 71.424 89.3343 73.394 91.4497 75.0163C93.5651 76.5923 95.8415 77.7743 98.2788 78.5623C100.854 79.4894 103.521 79.9529 106.28 79.9529C109.04 79.9529 111.684 79.5125 114.213 78.6318C116.743 77.7048 119.042 76.4301 121.111 74.8077C123.181 73.2318 124.997 71.3545 126.561 69.1759C128.124 66.951 129.32 64.5175 130.148 61.8754C130.562 60.5775 130.884 59.2333 131.113 57.8427C131.343 56.4521 131.458 55.0152 131.458 53.5319C131.458 50.7971 131.021 48.1318 130.148 45.5361C129.274 42.894 128.078 40.53 126.561 38.4441C123.342 34.0406 119.203 30.935 114.144 29.1272C111.615 28.2465 108.994 27.8062 106.28 27.8062C104.073 27.8062 101.682 28.177 99.1065 28.9186C96.5313 29.6139 93.956 30.9118 91.3807 32.8123C89.2653 34.3882 87.4029 36.2424 85.7933 38.3746C84.2298 40.5068 83.0341 42.8476 82.2064 45.397C81.7925 46.6949 81.4706 48.0391 81.2406 49.4297C81.0107 50.7739 80.8957 52.1413 80.8957 53.5319Z" fill="#D3FF6B"/>
<path d="M153.166 74.8077V12.5098H169.377V74.8077C169.377 76.0129 169.744 77.0558 170.48 77.9365C170.756 78.3537 171.101 78.7245 171.515 79.049C171.975 79.3271 172.504 79.5357 173.101 79.6748C173.653 79.8602 174.205 79.9529 174.757 79.9529C176.229 79.9529 177.47 79.5125 178.482 78.6318C179.54 77.7048 180.068 76.4301 180.068 74.8077V12.5098H196.279V74.8077C196.279 79.9992 195.037 84.31 192.554 87.7401C191.266 89.5015 189.772 90.9848 188.07 92.19C186.369 93.3488 184.368 94.2758 182.069 94.9711C179.862 95.6201 177.424 95.9445 174.757 95.9445C171.952 95.9445 169.446 95.6201 167.238 94.9711C165.077 94.2758 163.145 93.3488 161.444 92.19C157.857 89.7333 155.42 86.3032 154.132 81.8997C153.488 79.7211 153.166 77.3571 153.166 74.8077Z" fill="#D3FF6B"/>
<path d="M106.28 39.6208C105.365 39.6208 104.069 39.7766 102.327 40.2784L102.233 40.3055L102.139 40.3309C101.216 40.5801 99.9468 41.137 98.3279 42.3281C97.1461 43.2113 96.1002 44.2453 95.1744 45.4588C94.3923 46.5384 93.7891 47.7182 93.3555 49.0441C93.1265 49.7675 92.94 50.541 92.8027 51.3718L92.7969 51.4047L92.7918 51.437C92.6775 52.1054 92.6172 52.8009 92.6172 53.5317C92.6172 55.1098 92.8576 56.6703 93.3635 58.254C93.8941 59.9145 94.5491 61.1626 95.2454 62.1197L95.2757 62.1612L95.3055 62.2033C96.3082 63.6071 97.3727 64.7015 98.4825 65.5631C99.5787 66.3696 100.694 66.9357 101.859 67.3122L102.041 67.371L102.221 67.4362C103.519 67.9036 104.852 68.1383 106.28 68.1383C107.744 68.1383 109.063 67.9132 110.298 67.4939C111.671 66.9808 112.86 66.3092 113.915 65.4817L113.98 65.431L114.045 65.3814C115.144 64.5445 116.135 63.5333 117.027 62.3014C117.861 61.1044 118.509 59.7922 118.971 58.3175L118.979 58.2886L118.988 58.2598C119.222 57.5273 119.412 56.7433 119.552 55.9003C119.67 55.1841 119.737 54.3979 119.737 53.5317C119.737 52.091 119.511 50.7079 119.048 49.332L119.038 49.302L119.028 49.272C118.51 47.705 117.853 46.4536 117.108 45.4305C115.273 42.9275 113.061 41.2826 110.26 40.2749C108.997 39.8419 107.689 39.6208 106.28 39.6208ZM208 74.8076C208 81.9345 206.27 88.837 202.023 94.7042L202.007 94.7267L201.991 94.7486C199.985 97.4917 197.591 99.8861 194.81 101.856L194.721 101.919L194.633 101.979C191.8 103.909 188.685 105.305 185.437 106.287L185.394 106.301L185.351 106.313C181.923 107.321 178.361 107.759 174.757 107.759C171.076 107.759 167.434 107.335 163.956 106.313L163.815 106.271L163.674 106.226C160.559 105.224 157.599 103.83 154.882 101.979L154.856 101.962C150.506 98.9826 147.197 95.0993 144.944 90.5363C142.668 92.9816 140.173 95.2167 137.467 97.2362L137.456 97.2437L137.446 97.2517C133.04 100.524 128.262 103.075 123.137 104.864L123.137 104.865C117.683 106.798 112.021 107.759 106.212 107.759C100.339 107.759 94.6365 106.808 89.1787 104.852C83.9823 102.989 79.1717 100.428 74.8006 97.1531L74.7903 97.145L74.78 97.1375C70.4276 93.8619 66.6135 90.0181 63.3637 85.631L63.334 85.5901L63.3036 85.5491C62.1568 83.9727 61.105 82.3342 60.1455 80.6376V107.064H20.4928V67.8914L0 0.695141H80.5497L78.3044 8.08729C81.8224 5.90472 85.5448 4.13314 89.4608 2.78749C92.091 1.8837 94.7915 1.19786 97.5536 0.723986L97.5936 0.717063C100.442 0.238532 103.317 0 106.212 0C112.076 2.56414e-05 117.757 0.935065 123.173 2.88267C128.286 4.67794 133.04 7.13735 137.387 10.2748L137.464 10.3308L137.541 10.3885C138.899 11.4029 140.202 12.4631 141.445 13.5711V0.695141H208V74.8076Z" fill="#D3FF6B"/>
<path d="M32.0759 12.5098L37.3874 35.2458C37.6633 36.3582 37.8473 37.2389 37.9393 37.8879C38.0772 38.5368 38.1922 39.2089 38.2842 39.9042C38.4221 40.5531 38.5831 41.5034 38.767 42.7549C38.951 43.9601 39.1119 45.2811 39.2499 46.718C39.3879 48.155 39.4798 49.3833 39.5258 50.4031C39.5258 50.9593 39.5488 51.5387 39.5948 52.1413C39.5948 52.7439 39.5948 53.3233 39.5948 53.8795H40.9744C40.9744 52.8598 40.9974 51.701 41.0434 50.4031C41.1354 49.0589 41.2503 47.8073 41.3883 46.6485C41.4803 45.397 41.5952 44.1223 41.7332 42.8244C41.9171 41.4802 42.1471 40.1591 42.423 38.8613C42.515 38.2587 42.6299 37.6561 42.7679 37.0535C42.9059 36.4509 43.0438 35.8484 43.1818 35.2458L48.4933 12.5098H64.7037L48.4243 66.1166V95.2493H32.2139V66.1166L15.8655 12.5098H32.0759Z" fill="#29CA41"/>
<path d="M64.6853 53.3928C64.6853 48.8039 65.3981 44.4699 66.8237 40.3909C68.2493 36.2655 70.2497 32.4414 72.825 28.9186C75.3543 25.4422 78.3664 22.4293 81.8615 19.8799C85.4024 17.3305 89.1964 15.3605 93.2432 13.9699C95.2666 13.2746 97.359 12.7416 99.5204 12.3708C101.728 11.9999 103.958 11.8145 106.212 11.8145C110.856 11.8145 115.225 12.5562 119.318 14.0394C123.411 15.4764 127.159 17.4232 130.562 19.8799C134.47 22.8001 137.644 26.068 140.081 29.6835C142.518 33.2526 144.335 36.7986 145.53 40.3214C146.22 42.4073 146.749 44.5395 147.117 46.718C147.485 48.8966 147.669 51.1215 147.669 53.3928C147.669 57.9354 146.956 62.3621 145.53 66.6729C144.151 70.9836 142.196 74.9236 139.667 78.4928C137.092 82.0156 134.034 85.098 130.493 87.7401C126.998 90.3359 123.25 92.329 119.249 93.7196C115.064 95.2029 110.718 95.9445 106.212 95.9445C101.613 95.9445 97.2441 95.2029 93.1052 93.7196C88.9664 92.2363 85.1955 90.22 81.7925 87.6706C78.3434 85.0748 75.3313 82.0388 72.756 78.5623C70.2268 75.0859 68.2493 71.1459 66.8237 66.7424C66.1339 64.6565 65.6051 62.5011 65.2372 60.2762C64.8693 58.0049 64.6853 55.7105 64.6853 53.3928ZM80.8957 53.5319C80.8957 56.3594 81.3326 59.1405 82.2064 61.8754C83.0801 64.6102 84.2758 67.0205 85.7933 69.1064C87.4489 71.424 89.3343 73.394 91.4497 75.0163C93.5651 76.5923 95.8415 77.7743 98.2788 78.5623C100.854 79.4894 103.521 79.9529 106.28 79.9529C109.04 79.9529 111.684 79.5125 114.213 78.6318C116.743 77.7048 119.042 76.4301 121.111 74.8077C123.181 73.2318 124.997 71.3545 126.561 69.1759C128.124 66.951 129.32 64.5175 130.148 61.8754C130.562 60.5775 130.884 59.2333 131.113 57.8427C131.343 56.4521 131.458 55.0152 131.458 53.5319C131.458 50.7971 131.021 48.1318 130.148 45.5361C129.274 42.894 128.078 40.53 126.561 38.4441C123.342 34.0406 119.203 30.935 114.144 29.1272C111.615 28.2465 108.994 27.8062 106.28 27.8062C104.073 27.8062 101.682 28.177 99.1065 28.9186C96.5313 29.6139 93.956 30.9118 91.3807 32.8123C89.2653 34.3882 87.4029 36.2424 85.7933 38.3746C84.2298 40.5068 83.0341 42.8476 82.2064 45.397C81.7925 46.6949 81.4706 48.0391 81.2406 49.4297C81.0107 50.7739 80.8957 52.1413 80.8957 53.5319Z" fill="#29CA41"/>
<path d="M153.166 74.8077V12.5098H169.377V74.8077C169.377 76.0129 169.744 77.0558 170.48 77.9365C170.756 78.3537 171.101 78.7245 171.515 79.049C171.975 79.3271 172.504 79.5357 173.101 79.6748C173.653 79.8602 174.205 79.9529 174.757 79.9529C176.229 79.9529 177.47 79.5125 178.482 78.6318C179.54 77.7048 180.068 76.4301 180.068 74.8077V12.5098H196.279V74.8077C196.279 79.9992 195.037 84.31 192.554 87.7401C191.266 89.5015 189.772 90.9848 188.07 92.19C186.369 93.3488 184.368 94.2758 182.069 94.9711C179.862 95.6201 177.424 95.9445 174.757 95.9445C171.952 95.9445 169.446 95.6201 167.238 94.9711C165.077 94.2758 163.145 93.3488 161.444 92.19C157.857 89.7333 155.42 86.3032 154.132 81.8997C153.488 79.7211 153.166 77.3571 153.166 74.8077Z" fill="#29CA41"/>
<path d="M147.669 53.3928C147.669 51.2636 147.507 49.1749 147.184 47.1271L147.117 46.718C146.795 44.8118 146.35 42.941 145.781 41.1056L145.53 40.3214C144.409 37.0188 142.743 33.6959 140.53 30.3526L140.081 29.6835C137.796 26.2939 134.864 23.2098 131.286 20.4314L130.562 19.8799C127.371 17.5767 123.878 15.7216 120.081 14.3147L119.318 14.0394C115.481 12.6489 111.401 11.9101 107.079 11.8232L106.212 11.8145C103.958 11.8145 101.728 11.9999 99.5204 12.3708C97.359 12.7416 95.2666 13.2746 93.2432 13.9699L92.4873 14.2374C88.723 15.609 85.1811 17.4898 81.8615 19.8799L81.2118 20.3633C77.9919 22.8077 75.1962 25.6595 72.825 28.9186C70.2497 32.4414 68.2493 36.2655 66.8237 40.3909C65.3981 44.4699 64.6853 48.8039 64.6853 53.3928C64.6853 55.7105 64.8693 58.0049 65.2372 60.2762C65.6051 62.5011 66.1339 64.6565 66.8237 66.7424C68.2493 71.1459 70.2268 75.0859 72.756 78.5623C75.3313 82.0388 78.3434 85.0748 81.7925 87.6706C85.1955 90.22 88.9664 92.2363 93.1052 93.7196C96.9854 95.1102 101.068 95.849 105.352 95.9359L106.212 95.9445C110.718 95.9445 115.064 95.2029 119.249 93.7196C123 92.4159 126.528 90.5824 129.834 88.2195L130.493 87.7401C133.812 85.2632 136.708 82.3991 139.179 79.1481L139.667 78.4928C142.196 74.9236 144.151 70.9836 145.53 66.6729C146.956 62.3621 147.669 57.9354 147.669 53.3928ZM33.4681 10.7375L39.093 34.8159C39.3662 35.9174 39.5624 36.8437 39.6693 37.5717C39.8079 38.2308 39.9242 38.9087 40.0179 39.6052C40.0917 39.9591 40.1697 40.3818 40.2519 40.8709C40.3832 40.0876 40.53 39.3117 40.6926 38.5431C40.79 37.9129 40.911 37.2835 41.0549 36.655C41.1929 36.0524 41.3307 35.4496 41.4687 34.8471L41.4704 34.8396L47.101 10.7375H67.0805L50.1824 66.3828V97.0216H30.4559V66.3834L13.4858 10.7375H33.4681ZM129.7 53.5317C129.7 50.9911 129.295 48.5182 128.483 46.1055L128.481 46.1009L128.48 46.0962C127.66 43.6155 126.544 41.4185 125.143 39.4921C122.133 35.3762 118.286 32.4902 113.57 30.802C111.228 29.9865 108.801 29.5784 106.28 29.5784C104.267 29.5784 102.04 29.9169 99.5893 30.6226L99.5756 30.6266L99.5613 30.6306C97.2354 31.2586 94.8566 32.4437 92.4255 34.2367L92.4261 34.2373C90.4461 35.7124 88.7024 37.4477 87.1927 39.4477C85.7494 41.4203 84.6446 43.5846 83.8772 45.948C83.4917 47.1583 83.1904 48.4156 82.9746 49.7208L82.974 49.726L82.9735 49.7306C82.7609 50.9734 82.6541 52.2401 82.6541 53.5317C82.6541 56.1718 83.0615 58.7701 83.88 61.3322C84.7023 63.9058 85.8167 66.1416 87.211 68.0581L87.2202 68.0708C88.7764 70.2494 90.5367 72.0862 92.4982 73.5933C94.4629 75.0565 96.567 76.1476 98.8156 76.8746L98.843 76.8838L98.8699 76.8936C101.254 77.7517 103.721 78.1806 106.28 78.1806L106.28 79.9529C103.694 79.9529 101.188 79.5457 98.7629 78.731L98.2788 78.5623C95.8415 77.7743 93.5651 76.5923 91.4497 75.0163C89.4665 73.4953 87.6854 71.6687 86.1064 69.5366L85.7933 69.1064C84.3706 67.1509 83.2305 64.9103 82.3737 62.3845L82.2064 61.8754C81.3872 59.3114 80.9522 56.7066 80.9011 54.0612L80.8957 53.5319C80.8957 52.1413 81.0107 50.7739 81.2406 49.4297C81.4706 48.0391 81.7925 46.6949 82.2064 45.397C83.0341 42.8476 84.2298 40.5068 85.7933 38.3746C87.4029 36.2424 89.2653 34.3882 91.3807 32.8123C93.956 30.9118 96.5313 29.6139 99.1065 28.9186C101.682 28.177 104.073 27.8062 106.28 27.8062L106.788 27.8114C109.321 27.863 111.773 28.3016 114.144 29.1272C119.203 30.935 123.342 34.0406 126.561 38.4441C128.078 40.53 129.274 42.894 130.148 45.5361C131.021 48.1318 131.458 50.7971 131.458 53.5319L131.453 54.086C131.428 55.3737 131.315 56.626 131.113 57.8427L131.023 58.3619C130.802 59.5684 130.51 60.7398 130.148 61.8754L129.988 62.3683C129.169 64.8208 128.027 67.09 126.561 69.1759L126.264 69.5811C124.769 71.5881 123.051 73.3303 121.111 74.8077C119.042 76.4301 116.743 77.7048 114.213 78.6318C111.684 79.5125 109.04 79.9529 106.28 79.9529L106.28 78.1806C108.844 78.1806 111.288 77.7727 113.622 76.9623C115.979 76.097 118.114 74.9125 120.032 73.4087L120.051 73.3937C121.975 71.9283 123.669 70.1808 125.132 68.1435C126.586 66.0731 127.699 63.808 128.471 61.3415L128.473 61.3374L128.474 61.3328C128.86 60.1198 129.163 58.8597 129.379 57.5514C129.592 56.2619 129.7 54.9224 129.7 53.5317ZM169.377 74.8077V12.5098H153.166V74.8077L153.17 75.2835C153.207 77.6519 153.528 79.8573 154.132 81.8997C155.42 86.3032 157.857 89.7333 161.444 92.19C163.145 93.3488 165.077 94.2758 167.238 94.9711C169.446 95.6201 171.952 95.9445 174.757 95.9445C177.258 95.9445 179.556 95.6593 181.652 95.089L182.069 94.9711C184.224 94.3193 186.117 93.4639 187.748 92.4048L188.07 92.19C189.665 91.0601 191.079 89.6859 192.31 88.0672L192.554 87.7401C195.037 84.31 196.279 79.9992 196.279 74.8077V12.5098H180.068V74.8077L180.062 75.1076C180 76.5879 179.474 77.7627 178.482 78.6318L178.29 78.7915C177.314 79.5657 176.137 79.9529 174.757 79.9529L174.757 78.1806C175.852 78.1806 176.673 77.8645 177.333 77.2905C177.945 76.752 178.31 75.9985 178.31 74.8076V10.7375H198.037V74.8076C198.037 80.2894 196.722 84.9892 193.974 88.7849L193.969 88.7912C192.574 90.6998 190.945 92.3199 189.081 93.6399L189.055 93.6583C187.184 94.9327 185.016 95.9302 182.574 96.6685L182.568 96.6708L182.561 96.6725C180.171 97.3753 177.565 97.7167 174.757 97.7167C171.82 97.7167 169.144 97.3775 166.746 96.6725L166.725 96.6662L166.704 96.6593C164.399 95.918 162.313 94.921 160.459 93.6583L160.455 93.656C156.515 90.9575 153.844 87.1785 152.447 82.4051C151.749 80.0439 151.408 77.5076 151.408 74.8076V10.7375H171.135V74.8076C171.135 75.5657 171.341 76.1698 171.742 76.6917L171.825 76.795L171.888 76.8711L171.943 76.9536C172.092 77.1778 172.278 77.3873 172.512 77.5824C172.739 77.7089 173.011 77.8199 173.335 77.9072L173.497 77.9481L173.578 77.9672L173.657 77.9937C174.04 78.1221 174.404 78.1806 174.757 78.1806L174.757 79.9529C174.274 79.9529 173.791 79.8819 173.308 79.7399L173.101 79.6748C172.504 79.5357 171.975 79.3271 171.515 79.049C171.153 78.765 170.843 78.4456 170.587 78.0906L170.48 77.9365C169.744 77.0558 169.377 76.0129 169.377 74.8077ZM48.4243 95.2493V66.1166L64.7037 12.5098H48.4933L43.1818 35.2458C43.0438 35.8484 42.9059 36.4509 42.7679 37.0535L42.6689 37.5053C42.574 37.9572 42.492 38.4094 42.423 38.8613C42.1471 40.1591 41.9171 41.4802 41.7332 42.8244C41.5952 44.1223 41.4803 45.397 41.3883 46.6485C41.2503 47.8073 41.1354 49.0589 41.0434 50.4031C40.9974 51.701 40.9744 52.8598 40.9744 53.8795H39.5948V52.1413C39.5488 51.5387 39.5258 50.9593 39.5258 50.4031C39.4913 49.6382 39.431 48.756 39.3448 47.7565L39.2499 46.718C39.1119 45.2811 38.951 43.9601 38.767 42.7549C38.5831 41.5034 38.4221 40.5531 38.2842 39.9042C38.1922 39.2089 38.0772 38.5368 37.9393 37.8879C37.8473 37.2389 37.6633 36.3582 37.3874 35.2458L32.0759 12.5098H15.8655L32.2139 66.1166V95.2493H48.4243ZM149.427 53.3926C149.427 58.1257 148.684 62.7418 147.199 67.2332C145.766 71.7055 143.732 75.8051 141.098 79.523L141.083 79.5438C138.402 83.211 135.218 86.4188 131.538 89.1644L131.536 89.1667C127.904 91.864 124.001 93.9403 119.831 95.3907L119.832 95.3913C115.457 96.942 110.914 97.7167 106.212 97.7167C101.422 97.7167 96.8531 96.9437 92.5165 95.3896C88.219 93.8494 84.2919 91.7511 80.7437 89.0929L80.7408 89.0906C77.1563 86.3929 74.0236 83.2358 71.3472 79.6228L71.338 79.6101C68.6928 75.9742 66.6345 71.8673 65.1557 67.303L64.8936 66.4838C64.3009 64.5646 63.8376 62.592 63.5028 60.5673L63.5017 60.5615C63.1184 58.1953 62.9271 55.8052 62.9271 53.3926C62.9271 48.6156 63.6698 44.0813 65.1654 39.8019C66.6489 35.511 68.7313 31.5311 71.4096 27.8674C74.0475 24.2423 77.1898 21.0998 80.8307 18.444L80.8352 18.4412L80.8393 18.4377C84.5171 15.7898 88.4643 13.74 92.6762 12.2928C94.7905 11.5662 96.974 11.0101 99.2253 10.6238L99.2316 10.6227L99.6637 10.5523C101.826 10.2122 104.009 10.0423 106.212 10.0423C111.045 10.0424 115.617 10.8148 119.913 12.3718C123.887 13.7687 127.556 15.6328 130.916 17.9658L131.585 18.4388L131.608 18.4561C135.653 21.4782 138.969 24.8832 141.529 28.6785C143.886 32.1294 145.699 35.5882 146.951 39.0543L147.194 39.7477L147.196 39.7546L147.199 39.7609C147.917 41.933 148.467 44.1532 148.85 46.4205C149.235 48.6999 149.427 51.0245 149.427 53.3926Z" fill="black"/>
</svg>
