<svg width="103" height="102" viewBox="0 0 103 102" fill="none" xmlns="http://www.w3.org/2000/svg">
<path d="M32.4766 8.83185C32.4767 6.39962 34.6764 4.27302 37.3613 4.79083C40.8132 5.4568 46.6731 7.0705 51.7939 10.1033C56.841 13.0925 62.071 18.0403 62.1602 25.5574C62.1636 25.8487 62.1631 26.1364 62.1641 26.4207L77.2637 11.0662L77.4258 10.91C79.0833 9.40072 81.7788 9.44601 83.3281 11.2889L83.4795 11.4793L83.7314 11.826C85.006 13.6308 86.4711 16.4386 87.6504 18.8338C88.1506 19.8497 88.6232 20.8485 89.0449 21.7498L94.0078 19.8524L99.1807 17.8729V79.744C99.1806 81.4851 98.0847 83.0381 96.4443 83.6219L61.4385 96.0779C58.3158 97.1891 55.0255 97.7576 51.7109 97.7576C47.2632 97.7576 42.8737 96.7355 38.8838 94.7693L6.2793 78.701C4.87336 78.0081 3.98256 76.577 3.98242 75.0096V16.866L9.40723 19.4002L11.5254 20.3895V13.8484C11.5254 11.458 13.5865 9.50509 16.04 9.75275L16.2783 9.784L16.8447 9.87677C21.1753 10.6194 26.921 12.2571 32.4766 15.0711V8.83185Z" fill="#6DC0FC" stroke="#6DC0FC" stroke-width="7.62238"/>
<path d="M36.2874 7.34845V43.1048L46.8501 42.4092C56.7444 37.6743 58.4826 35.7578 58.3489 24.4842C58.2152 13.2107 42.4824 8.4758 36.2874 7.34845Z" fill="#6DC0FC"/>
<path d="M36.7884 4.59934C40.0718 5.19684 45.893 6.7429 50.9912 9.69306C56.0252 12.6062 61.0587 17.3315 61.1431 24.4504C61.2096 30.054 60.8697 34.1729 58.6846 37.4482C56.5367 40.6678 52.8866 42.6171 48.0569 44.9284L47.5716 45.1606L33.4949 46.0878V5.09616C33.4949 4.52543 34.0118 4.09407 34.5733 4.19625L36.7884 4.59934ZM39.0818 40.1206L46.1255 39.6566C50.8479 37.3749 52.9133 36.0325 54.0372 34.3479C55.1614 32.6629 55.6237 30.1867 55.5565 24.5167C55.5072 20.3621 52.6075 17.0833 48.193 14.5287C45.6077 13.0326 42.7425 11.9363 40.2321 11.1818C39.6547 11.0083 39.0818 11.4465 39.0818 12.0494V40.1206Z" fill="#FFB3EB" stroke="black" stroke-width="0.914685"/>
<path d="M15.3362 12.6559V26.7964L47.4611 40.0319C46.7371 21.8415 25.7428 14.2019 15.3362 12.6559Z" fill="#6DC0FC"/>
<path d="M15.7463 9.89291C21.2518 10.7108 29.5114 13.1195 36.5666 17.7703C43.652 22.4409 49.8417 29.6145 50.2519 39.9211L50.4251 44.2747L12.5422 28.667V10.4775C12.5422 9.9188 13.0387 9.49063 13.5913 9.57274L15.7463 9.89291ZM18.1292 24.9261L43.9527 35.5655C42.379 29.9777 38.4176 25.682 33.4916 22.4349C28.9022 19.4096 23.6514 17.4278 19.245 16.3034C18.6753 16.158 18.1292 16.5937 18.1292 17.1817V24.9261Z" fill="#FFB3EB" stroke="black" stroke-width="0.914685"/>
<path d="M80.2204 12.6559L51.6521 41.708C51.6521 41.708 85.2364 26.6265 87.2688 26.2042C87.2688 26.2042 82.667 15.6704 80.2204 12.6559Z" fill="#6DC0FC"/>
<path d="M82.3893 10.8946C83.8576 12.7038 85.759 16.413 87.1764 19.343C87.9172 20.8743 88.5789 22.307 89.0549 23.3556C89.2931 23.8804 89.4855 24.3106 89.6188 24.6105C89.6854 24.7603 89.7374 24.8777 89.7729 24.9583C89.7906 24.9986 89.8042 25.0297 89.8135 25.051C89.8182 25.0617 89.8217 25.0699 89.8242 25.0756C89.8254 25.0784 89.8265 25.0805 89.8272 25.0821C89.8275 25.0829 89.828 25.084 89.828 25.084L89.8283 25.0846C89.8283 25.0846 89.8284 25.085 87.2686 26.2033L89.8285 25.0851L91.2059 28.2384L87.8914 28.927C87.9149 28.9226 87.8159 28.9499 87.5117 29.0636C87.1903 29.1837 86.7533 29.356 86.2074 29.5781C85.1188 30.0211 83.6591 30.6369 81.9474 31.3712C78.5273 32.8384 74.1498 34.7581 69.8274 36.6685C65.5068 38.5781 61.2487 40.4749 58.0703 41.8945C56.4813 42.6042 55.1625 43.1946 54.241 43.6074C53.7803 43.8138 53.4188 43.976 53.1727 44.0864C53.0497 44.1416 52.9554 44.184 52.892 44.2125C52.8604 44.2267 52.8363 44.2375 52.8203 44.2447C52.8123 44.2482 52.8063 44.2508 52.8023 44.2526C52.8002 44.2535 52.7986 44.2543 52.7976 44.2548L52.7965 44.2553C52.7965 44.2553 52.784 44.2282 51.6519 41.7071L52.7965 44.2553L49.6602 39.7484L79.7022 9.1977C80.0848 8.80865 80.7207 8.83894 81.0646 9.26258L82.3893 10.8946ZM63.9911 33.1428C65.1641 32.6224 66.3641 32.0909 67.5689 31.5584C71.8966 29.6457 76.2962 27.716 79.7448 26.2366C81.1795 25.6211 82.4584 25.0807 83.5026 24.6497C83.1104 23.7991 82.6469 22.8093 82.147 21.7761C81.5475 20.5368 80.9272 19.3017 80.3362 18.189C80.0498 17.6496 79.3238 17.5507 78.8955 17.9862L63.9911 33.1428Z" fill="#FFB3EB"/>
<path d="M52.7965 44.2553L52.7976 44.2548C52.7986 44.2543 52.8002 44.2535 52.8023 44.2526C52.8063 44.2508 52.8123 44.2482 52.8203 44.2447C52.8363 44.2375 52.8604 44.2267 52.892 44.2125C52.9554 44.184 53.0497 44.1416 53.1727 44.0864C53.4188 43.976 53.7803 43.8138 54.241 43.6074C55.1625 43.1946 56.4813 42.6042 58.0703 41.8945C61.2487 40.4749 65.5068 38.5781 69.8274 36.6685C74.1498 34.7581 78.5273 32.8384 81.9474 31.3712C83.6591 30.6369 85.1188 30.0211 86.2074 29.5781C86.7533 29.356 87.1903 29.1837 87.5117 29.0636C87.8159 28.9499 87.9149 28.9226 87.8914 28.927L91.2059 28.2384L89.8285 25.0851L87.2686 26.2033C89.8284 25.085 89.8283 25.0846 89.8283 25.0846L89.828 25.084C89.828 25.084 89.8275 25.0829 89.8272 25.0821C89.8265 25.0805 89.8254 25.0784 89.8242 25.0756C89.8217 25.0699 89.8182 25.0617 89.8135 25.051C89.8042 25.0297 89.7906 24.9986 89.7729 24.9583C89.7374 24.8777 89.6854 24.7603 89.6188 24.6105C89.4855 24.3106 89.2931 23.8804 89.0549 23.3556C88.5789 22.307 87.9172 20.8743 87.1764 19.343C85.759 16.413 83.8576 12.7038 82.3893 10.8946L81.0646 9.26258C80.7207 8.83894 80.0848 8.80865 79.7022 9.1977L49.6602 39.7484L52.7965 44.2553ZM52.7965 44.2553C52.7965 44.2553 52.784 44.2282 51.6519 41.7071L52.7965 44.2553ZM63.9911 33.1428C65.1641 32.6224 66.3641 32.0909 67.5689 31.5584C71.8966 29.6457 76.2962 27.716 79.7448 26.2366C81.1795 25.6211 82.4584 25.0807 83.5026 24.6497C83.1104 23.7991 82.6469 22.8093 82.147 21.7761C81.5475 20.5368 80.9272 19.3017 80.3362 18.189C80.0498 17.6496 79.3238 17.5507 78.8955 17.9862L63.9911 33.1428Z" stroke="black" stroke-width="0.914685"/>
<path d="M95.3692 23.7369L59.2005 38.5851C56.6026 39.6516 53.8214 40.2003 51.0131 40.2003C48.1222 40.2003 45.2608 39.6189 42.5992 38.4906L9.4895 24.4557C8.68529 24.1148 7.79395 24.7051 7.79395 25.5785V74.9979C7.79395 75.4624 8.05779 75.8866 8.47443 76.0919L40.569 91.9077C44.0347 93.6156 47.8467 94.5038 51.7105 94.5038C54.5898 94.5038 57.4478 94.0105 60.1605 93.0452L94.5585 80.805C95.0445 80.632 95.3692 80.1719 95.3692 79.656V23.7369Z" fill="#6DC0FC"/>
<path d="M43.689 34.9226C46.0057 35.9047 48.4963 36.4107 51.0126 36.4108C53.457 36.4108 55.8779 35.9331 58.1392 35.0047L96.9001 19.0924C97.502 18.8453 98.1622 19.2879 98.1622 19.9386V81.4914L61.0966 94.6808C58.0833 95.753 54.9085 96.3012 51.7101 96.3012C47.4182 96.3012 43.1836 95.3143 39.3337 93.4172L5 76.4981V19.9037C5 19.2485 5.66851 18.8058 6.27167 19.0615L43.689 34.9226ZM60.261 40.1732C57.3265 41.3779 54.1847 41.9977 51.0126 41.9977C47.7471 41.9977 44.515 41.3407 41.5085 40.0663L11.8586 27.4978C11.2554 27.2422 10.5869 27.6849 10.5869 28.34V73.0227L41.8034 88.4058C44.885 89.9244 48.2746 90.7143 51.7101 90.7143C54.2703 90.7142 56.8116 90.2754 59.2236 89.4171L92.5752 77.5492V28.2715C92.5752 27.6209 91.9151 27.1782 91.3132 27.4253L60.261 40.1732Z" fill="#FFB3EB" stroke="black" stroke-width="0.914685"/>
</svg>
