<?xml version="1.0" encoding="UTF-8"?>
<svg width="350" height="100" viewBox="0 0 350 100" fill="none" xmlns="http://www.w3.org/2000/svg">
<path d="M350 69.9998C350 69.9998 349.152 69.9998 340 69.9998C324 69.9997 314.215 69.936 313 74.7511C311.305 81.4656 309.803 84.0762 305.851 90.0955C302.061 95.8729 294.108 101.871 283.905 99.4482L283.896 99.4462C274.917 97.3058 270.877 89.3733 269.814 83.4537C269.137 79.6752 269.343 75.5999 270.523 71.6368C266.016 72.662 261.187 73.2971 256.358 73.0211C253.908 72.8815 251.627 72.2753 249.589 71.2657C248.437 72.4847 246.608 73.9588 243.964 74.7413L243.965 74.7423C243.957 74.7444 243.949 74.7459 243.941 74.7482C243.939 74.7489 243.937 74.7503 243.935 74.7511L243.933 74.7501C242.898 75.0541 241.047 75.4806 238.805 75.3111C236.931 75.1694 232.798 74.3766 229.803 70.6842C226.379 71.8373 222.852 72.8744 219.179 73.7339C215.939 74.4936 209.235 75.7898 202.843 75.0595C199.831 74.7153 195.541 73.783 191.742 70.9231C187.854 72.3878 183.85 73.721 179.681 74.8451L179.679 74.8461C175.504 75.9706 171.824 76.1602 168.785 76.2666C165.319 76.3879 160.188 76.1824 155.31 74.0247C153.836 73.3727 152.406 72.5433 151.075 71.535C146.46 73.301 140.789 75.2446 135.312 76.4683C130.436 77.5579 123.703 78.5795 117.61 76.9559C115.332 76.3486 112.79 75.2749 110.479 73.4392C102.596 76.5773 92.8271 79.8718 81.8799 79.0285C78.3626 78.758 73.9194 77.8256 69.8848 75.1515C68.612 74.3079 67.4326 73.3209 66.375 72.2007C61.8939 72.6598 57.3278 73.4043 52.6406 74.3419C50.036 78.0911 46.6501 81.0186 43.6318 83.0797C38.721 86.433 32.2498 89.2409 25.8359 89.5071H25.8291C22.3941 89.6473 18.441 88.8453 14.9678 86.4437C11.2262 83.856 8.44767 79.6241 8.04492 74.3614L8.0459 74.3605C6.5 68 0 67.1695 0 67.1695V0H350C350 27.4058 350 69.9998 350 69.9998Z" fill="#171B17"/>
<path d="M239.977 51.1383C241.431 41.8867 243.6 32.8683 246.962 24.1121C247.23 23.4114 248.337 23.4106 248.779 23.5319C249.431 23.7066 249.467 24.5259 249.201 25.257C245.785 34.4709 243.531 43.9253 242.281 53.9447C243.969 52.0774 244.956 50.1738 246.853 48.7855C248.487 47.5886 250.601 47.5678 252.033 49.1967C255.219 52.808 253.119 58.3062 257.301 58.5093C264.401 58.8534 273.554 56.1093 280.17 53.3704L290.189 49.2209C290.352 48.1515 290.221 46.8265 291.076 46.204C291.496 45.9006 292.386 46.0669 292.691 46.231C294.084 46.942 291.137 51.277 292.746 55.7337C292.967 56.349 293.185 56.8732 293.785 57.1029C294.206 57.2629 294.837 57.0661 295.402 56.7424C301.623 53.2576 302.11 47.3676 303.511 46.7411C303.904 46.5678 304.958 46.5917 305.049 47.2115C305.238 48.4509 305.258 49.6734 305.146 50.8854L304.504 58.0344C313.332 54.7927 321.935 52.1742 330.99 50.1477L342.082 47.6625C342.608 47.5453 343.364 48.4761 343.339 48.8797C343.309 49.3366 342.783 49.9172 342.143 50.0688L330.402 52.8959C321.33 55.0825 312.613 57.5454 303.836 60.9449C302.608 68.274 299.944 77.2185 295.826 83.4864C293.812 86.558 290.409 88.6297 286.672 87.7424C281.447 86.497 279.268 77.5625 284.187 70.674C287.998 65.3286 295.448 62.0287 301.525 59.248C301.798 57.6049 302.319 56.014 302.144 54.0827C299.687 56.8203 294.542 62.5087 291.089 58.0634C289.81 56.4215 289.659 54.3146 289.734 52.0403C280.023 56.2019 267.511 61.6088 257.042 61.0104C250.248 60.6253 252.485 51.1335 249.663 50.4421C249.104 50.3021 248.391 50.5626 247.915 51.0276C242.349 56.5408 241.891 62.8172 240.567 63.2055C240.072 63.352 239.291 63.4401 239.012 62.9408C238.635 62.2702 239.422 55.7391 239.592 53.9933C231.865 57.2877 224.469 60.145 216.447 62.0213C210.621 63.3877 196.221 65.5861 196.645 55.9147C190.051 58.8199 183.497 61.3591 176.566 63.2276C173.778 63.9786 171.239 64.1435 168.367 64.244C162.816 64.4383 156.371 63.266 155.315 56.7918C148.407 59.7612 115.108 74.4508 115.763 58.3816L106.194 62.204C98.5959 65.2355 90.931 67.6615 82.7984 67.0345C78.181 66.6796 73.869 64.7184 73.0868 59.7009C63.5557 59.9738 54.0501 61.6438 44.6059 63.7523C42.6512 70.7573 32.3738 77.1952 25.3418 77.487C22.747 77.5931 20.2232 76.2075 20.0116 73.4417C19.5642 67.6604 37.7035 62.9075 42.3147 61.538C40.7398 56.4951 34.0209 52.0882 29.837 49.3932C27.4697 47.8653 25.5338 45.6994 25.1927 42.9686C24.8301 40.0638 25.6021 37.7271 27.7874 35.7968C30.3085 33.5736 33.1944 31.8922 36.236 30.2662C40.5379 27.9655 52.7132 22.3805 56.4511 26.6182C59.8286 30.4432 53.8023 39.3002 50.916 42.5163C50.4126 43.0734 49.362 43.1481 48.9323 42.7301C46.8306 40.6612 53.1682 38.973 54.9231 30.2046C55.0995 29.3095 54.8679 28.3983 54.252 27.9336C53.6362 27.4689 52.6189 27.3982 51.6927 27.5142C44.7023 28.3363 36.3248 32.5956 30.6697 36.6608C29.1472 37.7549 27.8158 39.2603 27.7005 40.8067C27.4069 44.517 29.8057 46.5072 33.1057 48.5494C36.9716 50.944 43.9352 56.1933 44.6741 61.0755L55.3688 59.1132C57.1717 58.7842 58.9399 58.5627 60.7303 58.3177L63.9058 57.8874C67.112 57.4561 69.7669 57.3099 73.1754 57.1678C74.1458 53.0235 75.0961 48.9635 76.4618 44.9118C74.7916 44.8563 73.2333 44.926 71.5893 45.1811L66.1754 46.0164C65.5254 46.1152 64.7186 45.2469 64.7332 44.7829C64.7529 44.2428 65.2433 43.5343 65.9997 43.4014L68.4601 42.9658C69.6598 42.7566 70.7536 42.5968 71.9432 42.5399L77.2851 42.2845C78.1826 39.3584 79.2109 36.6557 80.311 33.806C80.6142 33.0204 82.8332 33.3834 82.6121 34.0977L80.0981 42.262C81.9394 41.9317 83.5741 42.2923 85.2663 42.3166C86.8126 42.3461 92.4197 42.203 93.3453 42.9531C93.828 43.3465 93.7133 44.247 93.368 44.7074C92.9126 45.3159 92.1969 45.0751 91.419 45.0339L87.9287 44.8142C86.3877 44.7162 84.9857 44.6361 83.4641 44.6514L79.1914 44.7022C77.6747 49.0556 76.3654 53.4017 75.6727 58.0149C75.2238 61.0165 77.3641 63.312 80.0894 64.0827C85.2061 65.5295 92.8132 64.0931 97.9613 62.4694C103.703 60.6577 109.08 58.3193 114.643 56.0276C117.083 55.0228 115.607 53.2587 117.299 53.283C120.66 53.3249 116.955 57.0787 118.603 60.6907C120.65 65.1624 130.538 62.7649 134.321 61.6979C141.561 59.6514 148.472 57.2061 155.349 54.0099C156.325 50.0401 157.279 46.2839 158.596 42.1579C156.213 41.5195 149.886 43.0782 148.149 43.0707C147.672 43.0721 147.285 42.5614 147.085 42.3253C145.296 40.1771 151.873 40.0684 153.071 39.8213C155.117 39.3926 157.101 39.6346 159.276 39.4141L162.479 30.937C162.676 30.421 163.503 30.5213 163.84 30.4867C166.314 30.2253 162.223 37.4799 162.312 39.3762C164.161 39.038 165.78 39.4067 167.472 39.4311C169.018 39.4529 174.626 39.3174 175.551 40.0675C176.034 40.4609 175.919 41.3615 175.574 41.8218C175.119 42.438 174.403 42.1895 173.625 42.1484L170.135 41.9362C167.716 41.7854 163.685 41.7214 161.27 41.8971C159.972 46.3492 158.42 50.5746 157.87 55.0917C157.541 57.7776 158.887 60.0097 161.378 60.8874C162.506 61.2886 163.844 61.7356 165.12 61.7289C167.541 61.7125 169.951 61.8257 172.305 61.4242C175.271 60.9177 178.08 60.3559 180.935 59.3366C186.835 57.2306 192.786 55.2445 198.256 52.257C200.345 51.1126 202.008 48.9802 204.866 50.0047C206.228 50.4888 207.77 51.2782 207.67 53.0443C207.609 54.1633 206.839 54.3574 206.067 54.468C204.843 54.64 205.218 53.0618 204.667 52.7012C202.605 51.3146 200.129 53.5059 199.531 55.5478C199.064 57.1444 199.132 58.4336 200.549 59.3869C204.658 62.1302 214.879 60.0477 219.65 58.6194C226.596 56.5376 233.15 53.9985 239.938 51.1169L239.977 51.1383ZM23.7512 74.8607C29.3506 76.0399 39.4366 69.6239 41.6711 64.4704C36.1433 65.7884 27.2453 68.7895 23.1421 72.1621C22.8074 72.7057 22.3565 73.2229 22.5532 73.7934C22.6813 74.1612 23.1351 74.6088 23.7515 74.8683L23.7512 74.8607ZM290.099 85.0468C292.19 84.1455 293.458 82.5892 294.492 80.722C297.653 75.0194 299.538 68.8753 300.993 62.3056C296.102 64.2471 290.15 67.2894 286.939 71.1322C283.999 74.335 283.085 78.994 284.732 83.0087C285.605 85.1358 287.91 85.9896 290.092 85.0547L290.099 85.0468Z" fill="#D3FF6B"/>
<path d="M121.489 45.6201C122.086 46.4425 120.823 48.5609 120.237 48.741C119.552 48.9549 118.98 48.633 118.688 48.1874C118.159 47.3626 119.13 45.4292 120.034 45.1316C120.566 44.961 121.246 45.2715 121.489 45.6125L121.489 45.6201Z" fill="#D3FF6B"/>
</svg>