<svg width="1050" height="505" viewBox="0 0 1050 505" fill="none" xmlns="http://www.w3.org/2000/svg">
<path d="M88.578 500C28.971 500 0 462.371 0 412.421C0 362.471 28.971 326 88.578 326H113.542L114.874 324.668V268.332L116.206 267H170.152L171.484 268.332V498.668L170.152 500H88.578ZM88.578 444.056C104.562 444.056 118.548 432.734 118.548 412.754C118.548 392.774 104.562 381.452 88.578 381.452C72.594 381.452 58.608 392.774 58.608 412.754C58.608 432.734 72.594 444.056 88.578 444.056Z" fill="black"/>
<path d="M270.184 504.995C218.236 504.995 185.602 466.7 185.602 412.754C185.602 358.808 216.238 320.513 268.186 320.513C313.474 320.513 348.106 348.152 348.106 405.095V429.071L346.774 430.403H257.863C250.537 430.403 245.875 434.399 245.875 441.725C245.875 451.382 253.867 459.041 268.852 459.041C280.174 459.041 286.834 454.712 288.166 448.385L289.498 447.053H343.444L344.776 448.385C341.113 483.35 309.811 504.995 270.184 504.995ZM279.175 397.769C286.501 397.769 290.497 393.107 290.497 385.781C290.497 375.125 281.506 367.133 268.519 367.133C255.532 367.133 246.541 375.125 246.541 385.781C246.541 393.107 250.537 397.769 257.863 397.769H279.175Z" fill="black"/>
<path d="M383.323 500L381.991 498.668V390.11C381.991 379.454 375.997 373.46 365.341 373.46H352.021L350.689 372.128V327.332L352.021 326H380.659L381.991 324.668L382.018 268.332L383.35 267H473.593L474.925 268.332L474.898 304.862L473.566 306.194H455.251C443.929 306.194 438.601 312.014 438.601 323.336V324.668L439.933 326H473.566L474.898 327.332V372.128L473.566 373.46H455.251C444.595 373.46 438.601 379.454 438.601 390.11V498.668L437.269 500H383.323Z" fill="black"/>
<path d="M562.413 500C502.806 500 473.835 463.196 473.835 413.246C473.835 363.296 502.806 326 562.413 326H647.661L648.993 327.332V498.668L647.661 500H562.413ZM562.413 444.056C578.397 444.056 592.383 432.734 592.383 412.754C592.383 392.774 578.397 381.452 562.413 381.452C546.429 381.452 532.443 392.774 532.443 412.754C532.443 432.734 546.429 444.056 562.413 444.056Z" fill="black"/>
<path d="M833.179 326L834.511 327.332V498.668L833.179 500H675.337L674.005 498.668V327.332L675.337 326H729.283L730.615 327.332V424.076C730.615 439.061 738.94 447.386 753.925 447.386H754.591C769.576 447.386 777.901 439.061 777.901 424.076V327.332L779.233 326H833.179Z" fill="black"/>
<path d="M860.837 500L859.505 498.668V268.332L860.837 267H914.783L916.115 268.332V430.736C916.115 441.392 922.109 447.386 932.765 447.386H933.764L935.096 448.718V498.668L933.764 500H860.837Z" fill="black"/>
<path d="M959.348 500L958.016 498.668V390.602C958.016 379.946 952.021 373.952 941.365 373.952H928.046L926.714 372.62V327.332L928.046 326H956.684L958.016 324.668V278.222L959.348 276.89H1013.29L1014.63 278.222V324.668L1015.96 326H1048.67L1050 327.332V372.62L1048.67 373.952H1030.35C1019.7 373.952 1014.63 379.946 1014.63 390.602V434.732C1014.63 445.388 1019.7 450.05 1030.35 450.05H1048.67L1050 451.382V498.668L1048.67 500H959.348Z" fill="black"/>
<path d="M17.332 233L16 231.668V1.332L17.332 0L71.2578 0L72.5898 1.332V57.668L73.9218 59H99.2298C158.837 59 187.808 95.963 187.808 145.913C187.808 195.863 158.837 233 99.2298 233H17.332ZM99.2298 177.056C115.214 177.056 129.2 165.734 129.2 145.754C129.2 125.774 115.214 114.452 99.2298 114.452C83.2458 114.452 69.2598 125.774 69.2598 145.754C69.2598 165.734 83.2458 177.056 99.2298 177.056Z" fill="black"/>
<path d="M193.84 306L192.508 304.668V268.332L193.84 267H235.132C247.453 267 252.448 261.305 254.446 252.314L255.445 248.318C257.776 238.328 252.115 233 242.125 233H232.468L231.136 231.668L182.518 60.332L183.85 59H241.126L263.437 157.901C265.102 164.894 268.765 168.557 274.759 168.557C280.753 168.557 284.416 164.894 286.081 157.901L308.392 59H365.668L367 60.332L297.096 304.668L295.764 306H193.84Z" fill="black"/>
</svg>
