<svg width="32" height="32" viewBox="0 0 32 32" fill="none" xmlns="http://www.w3.org/2000/svg">
<path d="M1.49184 32L1.43095 31.9391V26.9765C1.43095 26.4893 1.15694 26.2153 0.669806 26.2153H0.0608915L0 26.1544V24.1066L0.0608915 24.0457H1.37006L1.43095 23.9848L1.43217 21.4095L1.49306 21.3486H5.61846L5.67935 21.4095L5.67813 23.0794L5.61723 23.1403H4.77998C4.2624 23.1403 4.01884 23.4064 4.01884 23.9239V23.9848L4.07973 24.0457H5.61723L5.67813 24.1066V26.1544L5.61723 26.2153H4.77998C4.29285 26.2153 4.01884 26.4893 4.01884 26.9765V31.9391L3.95794 32H1.49184Z" fill="#555555"/>
<path d="M9.67881 32C6.95392 32 5.62953 30.3175 5.62953 28.0341C5.62953 25.7507 6.95392 24.0457 9.67881 24.0457H13.5759L13.6368 24.1066V31.9391L13.5759 32H9.67881ZM9.67881 29.4426C10.4095 29.4426 11.0489 28.925 11.0489 28.0116C11.0489 27.0982 10.4095 26.5807 9.67881 26.5807C8.94811 26.5807 8.30876 27.0982 8.30876 28.0116C8.30876 28.925 8.94811 29.4426 9.67881 29.4426Z" fill="#555555"/>
<path d="M22.0567 24.0457L22.1176 24.1066V31.9391L22.0567 32H14.841L14.7802 31.9391V24.1066L14.841 24.0457H17.3072L17.368 24.1066V28.5292C17.368 29.2142 17.7486 29.5948 18.4336 29.5948H18.4641C19.1491 29.5948 19.5297 29.2142 19.5297 28.5292V24.1066L19.5906 24.0457H22.0567Z" fill="#555555"/>
<path d="M23.321 32L23.2601 31.9391V21.4095L23.321 21.3486H25.7871L25.848 21.4095V28.8336C25.848 29.3208 26.122 29.5948 26.6092 29.5948H26.6548L26.7157 29.6557V31.9391L26.6548 32H23.321Z" fill="#555555"/>
<path d="M27.8559 32L27.795 31.9391V26.9989C27.795 26.5118 27.521 26.2378 27.0339 26.2378H26.4249L26.364 26.1769V24.1066L26.4249 24.0457H27.7341L27.795 23.9848V21.8616L27.8559 21.8007H30.322L30.3829 21.8616V23.9848L30.4438 24.0457H31.9391L32 24.1066V26.1769L31.9391 26.2378H31.1019C30.6147 26.2378 30.3829 26.5118 30.3829 26.9989V29.0163C30.3829 29.5035 30.6147 29.7166 31.1019 29.7166H31.9391L32 29.7775V31.9391L31.9391 32H27.8559Z" fill="#555555"/>
<path d="M10.4178 23.1314C7.69287 23.1314 6.36848 21.4112 6.36848 19.1278C6.36848 16.8444 7.69287 15.1771 10.4178 15.1771H11.559L11.6199 15.1163V12.4037L11.6808 12.3429H14.1469L14.2078 12.4037V23.0705L14.1469 23.1314H10.4178ZM10.4178 20.574C11.1485 20.574 11.7878 20.0564 11.7878 19.143C11.7878 18.2297 11.1485 17.7121 10.4178 17.7121C9.68706 17.7121 9.0477 18.2297 9.0477 19.143C9.0477 20.0564 9.68706 20.574 10.4178 20.574Z" fill="#555555"/>
<path d="M18.7197 23.3598C16.345 23.3598 14.8531 21.6091 14.8531 19.143C14.8531 16.6769 16.2536 14.9263 18.6284 14.9263C20.6987 14.9263 22.2819 16.1898 22.2819 18.7929V19.889L22.221 19.9499H18.1565C17.8216 19.9499 17.6085 20.1325 17.6085 20.4674C17.6085 20.9089 17.9738 21.259 18.6588 21.259C19.1764 21.259 19.4809 21.0611 19.5418 20.7719L19.6027 20.711H22.0688L22.1297 20.7719C21.9622 22.3703 20.5313 23.3598 18.7197 23.3598ZM19.1308 18.458C19.4657 18.458 19.6483 18.2449 19.6483 17.91C19.6483 17.4229 19.2373 17.0575 18.6436 17.0575C18.0499 17.0575 17.6389 17.4229 17.6389 17.91C17.6389 18.2449 17.8216 18.458 18.1565 18.458H19.1308Z" fill="#555555"/>
<path d="M7.10089 10.7886L7.04 10.7277V0.0608915L7.10089 0H9.56607L9.62696 0.0608915V2.7734L9.68785 2.83429H10.8448C13.5697 2.83429 14.8941 4.52402 14.8941 6.80745C14.8941 9.09088 13.5697 10.7886 10.8448 10.7886H7.10089ZM10.8448 8.23113C11.5755 8.23113 12.2148 7.71355 12.2148 6.80018C12.2148 5.88681 11.5755 5.36923 10.8448 5.36923C10.1141 5.36923 9.47473 5.88681 9.47473 6.80018C9.47473 7.71355 10.1141 8.23113 10.8448 8.23113Z" fill="#555555"/>
<path d="M15.0784 14.1257L15.0175 14.0648V12.4037L15.0784 12.3429H16.966C17.5293 12.3429 17.7576 12.0825 17.849 11.6715L17.8946 11.4888C18.0012 11.0321 17.7424 10.7886 17.2857 10.7886H16.8442L16.7834 10.7277L14.5608 2.89518L14.6217 2.83429H17.24L18.26 7.35547C18.3361 7.67515 18.5035 7.84261 18.7775 7.84261C19.0516 7.84261 19.219 7.67515 19.2951 7.35547L20.3151 2.83429H22.9334L22.9943 2.89518L19.7987 14.0648L19.7378 14.1257H15.0784Z" fill="#555555"/>
</svg>
